<?xml version="1.0" standalone="no"?><!DOCTYPE svg PUBLIC "-//W3C//DTD SVG 1.1//EN" "http://www.w3.org/Graphics/SVG/1.1/DTD/svg11.dtd"><svg width="100%" height="100%" viewBox="0 0 512 512" version="1.1" xmlns="http://www.w3.org/2000/svg" xmlns:xlink="http://www.w3.org/1999/xlink" xml:space="preserve" style="fill-rule:evenodd;clip-rule:evenodd;stroke-linejoin:round;stroke-miterlimit:1.41421;"><g id="Layer1"><path d="M256,502.426l-0.797,-0.001l-0.796,-0.004l-0.795,-0.006l-0.795,-0.009l-0.794,-0.011l-0.794,-0.014l-0.793,-0.017l-0.792,-0.019l-0.792,-0.021l-0.791,-0.024l-0.791,-0.026l-0.79,-0.029l-0.789,-0.031l-0.789,-0.034l-0.788,-0.036l-0.787,-0.039l-0.787,-0.041l-0.786,-0.044l-0.785,-0.046l-0.785,-0.048l-0.784,-0.051l-0.784,-0.054l-0.782,-0.056l-0.782,-0.058l-0.782,-0.061l-0.781,-0.063l-0.78,-0.066l-0.779,-0.068l-0.779,-0.07l-0.778,-0.073l-0.777,-0.076l-0.777,-0.077l-0.775,-0.08l-0.776,-0.083l-0.774,-0.085l-0.774,-0.087l-0.773,-0.09l-0.772,-0.092l-0.772,-0.094l-0.77,-0.097l-0.771,-0.1l-0.769,-0.101l-0.769,-0.104l-0.767,-0.107l-0.767,-0.108l-0.767,-0.111l-0.765,-0.114l-0.765,-0.116l-0.764,-0.118l-0.764,-0.12l-0.762,-0.123l-0.762,-0.125l-0.761,-0.127l-0.76,-0.13l-0.759,-0.132l-0.759,-0.135l-0.758,-0.137l-0.756,-0.139l-0.757,-0.141l-0.755,-0.144l-0.755,-0.146l-0.753,-0.148l-0.753,-0.15l-0.752,-0.153l-0.751,-0.155l-0.751,-0.158l-0.749,-0.159l-0.749,-0.162l-0.748,-0.165l-0.747,-0.166l-0.746,-0.169l-0.746,-0.171l-0.744,-0.173l-0.744,-0.176l-0.743,-0.177l-0.741,-0.18l-0.741,-0.183l-0.741,-0.184l-0.739,-0.187l-0.738,-0.189l-0.738,-0.191l-0.736,-0.193l-0.736,-0.196l-0.735,-0.198l-0.734,-0.2l-0.733,-0.202l-0.732,-0.204l-0.731,-0.207l-0.73,-0.209l-0.729,-0.211l-0.729,-0.213l-0.727,-0.215l-0.727,-0.218l-0.725,-0.22l-0.725,-0.222l-0.724,-0.224l-0.722,-0.226l-0.722,-0.228l-0.721,-0.231l-0.72,-0.232l-0.719,-0.235l-0.718,-0.237l-0.717,-0.239l-0.716,-0.242l-0.715,-0.243l-0.714,-0.246l-0.713,-0.247l-0.712,-0.25l-0.711,-0.252l-0.71,-0.254l-0.709,-0.256l-0.708,-0.258l-0.707,-0.261l-0.706,-0.262l-0.705,-0.265l-0.704,-0.266l-0.703,-0.269l-0.702,-0.271l-0.701,-0.272l-0.7,-0.275l-0.698,-0.277l-0.698,-0.279l-0.697,-0.282l-0.696,-0.283l-0.694,-0.285l-0.694,-0.287l-0.692,-0.29l-0.692,-0.291l-0.69,-0.294l-0.689,-0.295l-0.688,-0.298l-0.688,-0.299l-0.686,-0.302l-0.685,-0.303l-0.683,-0.306l-0.683,-0.308l-0.682,-0.309l-0.68,-0.312l-0.68,-0.314l-0.678,-0.315l-0.677,-0.318l-0.676,-0.32l-0.675,-0.321l-0.674,-0.324l-0.673,-0.325l-0.671,-0.328l-0.671,-0.33l-0.669,-0.331l-0.668,-0.334l-0.667,-0.335l-0.666,-0.337l-0.665,-0.34l-0.663,-0.341l-0.662,-0.343l-0.662,-0.346l-0.66,-0.347l-0.658,-0.349l-0.658,-0.351l-0.657,-0.353l-0.655,-0.355l-0.654,-0.356l-0.653,-0.359l-0.651,-0.361l-0.651,-0.362l-0.649,-0.365l-0.648,-0.366l-0.647,-0.368l-0.646,-0.37l-0.644,-0.372l-0.643,-0.374l-0.642,-0.376l-0.641,-0.378l-0.639,-0.379l-0.639,-0.382l-0.637,-0.383l-0.635,-0.385l-0.635,-0.387l-0.633,-0.389l-0.632,-0.391l-0.631,-0.392l-0.629,-0.395l-0.628,-0.396l-0.627,-0.398l-0.626,-0.4l-0.624,-0.402l-0.623,-0.403l-0.622,-0.406l-0.62,-0.407l-0.619,-0.409l-0.618,-0.411l-0.617,-0.412l-0.615,-0.415l-0.614,-0.416l-0.613,-0.418l-0.611,-0.42l-0.61,-0.421l-0.608,-0.424l-0.608,-0.425l-0.606,-0.427l-0.604,-0.429l-0.603,-0.43l-0.602,-0.432l-0.601,-0.434l-0.599,-0.436l-0.598,-0.438l-0.596,-0.439l-0.596,-0.441l-0.593,-0.443l-0.593,-0.444l-0.591,-0.447l-0.589,-0.448l-0.589,-0.449l-0.586,-0.452l-0.586,-0.453l-0.584,-0.455l-0.583,-0.456l-0.581,-0.459l-0.58,-0.46l-0.578,-0.461l-0.577,-0.464l-0.576,-0.465l-0.574,-0.466l-0.573,-0.469l-0.571,-0.47l-0.57,-0.472l-0.568,-0.473l-0.567,-0.476l-0.566,-0.476l-0.564,-0.479l-0.562,-0.48l-0.562,-0.482l-0.559,-0.483l-0.559,-0.485l-0.556,-0.487l-0.556,-0.488l-0.554,-0.49l-0.552,-0.492l-0.551,-0.493l-0.549,-0.495l-0.548,-0.497l-0.546,-0.498l-0.545,-0.5l-0.544,-0.501l-0.542,-0.503l-0.54,-0.505l-0.539,-0.506l-0.537,-0.508l-0.536,-0.509l-0.534,-0.511l-0.533,-0.512l-0.531,-0.515l-0.53,-0.515l-0.528,-0.517l-0.527,-0.519l-0.525,-0.521l-0.523,-0.522l-0.522,-0.523l-0.521,-0.525l-0.518,-0.527l-0.518,-0.528l-0.515,-0.53l-0.514,-0.531l-0.513,-0.533l-0.511,-0.534l-0.509,-0.536l-0.508,-0.537l-0.506,-0.539l-0.505,-0.54l-0.503,-0.542l-0.501,-0.544l-0.5,-0.544l-0.498,-0.547l-0.496,-0.548l-0.495,-0.549l-0.494,-0.551l-0.491,-0.552l-0.49,-0.554l-0.489,-0.555l-0.486,-0.557l-0.486,-0.558l-0.483,-0.56l-0.482,-0.561l-0.48,-0.563l-0.478,-0.564l-0.477,-0.566l-0.475,-0.567l-0.474,-0.568l-0.472,-0.57l-0.47,-0.571l-0.468,-0.573l-0.467,-0.574l-0.465,-0.576l-0.464,-0.577l-0.461,-0.578l-0.46,-0.58l-0.459,-0.581l-0.456,-0.583l-0.455,-0.584l-0.453,-0.585l-0.452,-0.587l-0.449,-0.588l-0.448,-0.59l-0.446,-0.591l-0.445,-0.592l-0.443,-0.594l-0.441,-0.595l-0.439,-0.597l-0.438,-0.598l-0.435,-0.599l-0.434,-0.6l-0.433,-0.602l-0.43,-0.604l-0.429,-0.604l-0.427,-0.606l-0.425,-0.607l-0.423,-0.609l-0.422,-0.61l-0.42,-0.611l-0.418,-0.613l-0.416,-0.614l-0.415,-0.615l-0.412,-0.617l-0.411,-0.617l-0.409,-0.62l-0.407,-0.62l-0.406,-0.622l-0.403,-0.623l-0.402,-0.624l-0.4,-0.626l-0.398,-0.627l-0.396,-0.628l-0.395,-0.629l-0.392,-0.631l-0.391,-0.632l-0.389,-0.633l-0.387,-0.635l-0.385,-0.635l-0.383,-0.637l-0.382,-0.638l-0.379,-0.64l-0.378,-0.641l-0.376,-0.642l-0.373,-0.643l-0.372,-0.644l-0.371,-0.646l-0.368,-0.647l-0.366,-0.648l-0.365,-0.649l-0.362,-0.65l-0.361,-0.652l-0.358,-0.653l-0.357,-0.654l-0.355,-0.655l-0.353,-0.657l-0.351,-0.657l-0.349,-0.659l-0.347,-0.66l-0.345,-0.661l-0.344,-0.663l-0.341,-0.663l-0.339,-0.665l-0.338,-0.666l-0.335,-0.667l-0.334,-0.668l-0.331,-0.669l-0.33,-0.67l-0.327,-0.672l-0.326,-0.673l-0.324,-0.674l-0.321,-0.675l-0.32,-0.676l-0.318,-0.677l-0.315,-0.678l-0.314,-0.68l-0.312,-0.68l-0.309,-0.682l-0.308,-0.682l-0.305,-0.684l-0.304,-0.685l-0.302,-0.686l-0.299,-0.687l-0.298,-0.689l-0.295,-0.689l-0.294,-0.69l-0.291,-0.692l-0.289,-0.692l-0.288,-0.694l-0.285,-0.694l-0.283,-0.696l-0.281,-0.697l-0.279,-0.697l-0.277,-0.699l-0.275,-0.7l-0.273,-0.701l-0.271,-0.702l-0.269,-0.703l-0.266,-0.704l-0.265,-0.705l-0.262,-0.706l-0.261,-0.707l-0.258,-0.708l-0.256,-0.709l-0.254,-0.71l-0.252,-0.711l-0.25,-0.712l-0.247,-0.713l-0.246,-0.714l-0.243,-0.715l-0.241,-0.716l-0.24,-0.717l-0.237,-0.718l-0.234,-0.719l-0.233,-0.72l-0.231,-0.721l-0.228,-0.721l-0.226,-0.723l-0.224,-0.724l-0.222,-0.724l-0.22,-0.726l-0.217,-0.727l-0.216,-0.727l-0.213,-0.728l-0.211,-0.73l-0.209,-0.73l-0.206,-0.731l-0.205,-0.732l-0.202,-0.733l-0.2,-0.734l-0.198,-0.735l-0.196,-0.735l-0.193,-0.737l-0.191,-0.738l-0.189,-0.738l-0.187,-0.739l-0.184,-0.74l-0.182,-0.741l-0.18,-0.742l-0.178,-0.743l-0.176,-0.744l-0.173,-0.744l-0.171,-0.745l-0.169,-0.747l-0.166,-0.747l-0.164,-0.748l-0.162,-0.748l-0.16,-0.75l-0.157,-0.75l-0.156,-0.752l-0.152,-0.752l-0.151,-0.753l-0.148,-0.753l-0.146,-0.755l-0.144,-0.755l-0.141,-0.756l-0.139,-0.757l-0.137,-0.758l-0.134,-0.759l-0.133,-0.759l-0.129,-0.76l-0.128,-0.761l-0.125,-0.762l-0.123,-0.762l-0.12,-0.764l-0.118,-0.764l-0.116,-0.764l-0.113,-0.766l-0.112,-0.766l-0.108,-0.767l-0.107,-0.768l-0.104,-0.769l-0.101,-0.769l-0.099,-0.77l-0.097,-0.771l-0.095,-0.772l-0.092,-0.772l-0.09,-0.773l-0.087,-0.774l-0.085,-0.774l-0.082,-0.775l-0.081,-0.776l-0.077,-0.777l-0.076,-0.777l-0.073,-0.778l-0.07,-0.779l-0.068,-0.779l-0.066,-0.78l-0.063,-0.781l-0.061,-0.781l-0.058,-0.782l-0.056,-0.783l-0.053,-0.784l-0.051,-0.784l-0.049,-0.785l-0.046,-0.785l-0.044,-0.786l-0.041,-0.787l-0.039,-0.787l-0.036,-0.788l-0.034,-0.789l-0.031,-0.789l-0.029,-0.79l-0.026,-0.791l-0.024,-0.791l-0.021,-0.792l-0.019,-0.792l-0.016,-0.793l-0.014,-0.794l-0.012,-0.794l-0.008,-0.795l-0.007,-0.795l-0.004,-0.796l-0.001,-0.797l0.001,-0.796l0.004,-0.796l0.007,-0.796l0.008,-0.795l0.012,-0.794l0.014,-0.794l0.016,-0.793l0.019,-0.792l0.021,-0.792l0.024,-0.791l0.026,-0.791l0.029,-0.789l0.031,-0.79l0.034,-0.788l0.036,-0.788l0.039,-0.788l0.041,-0.787l0.044,-0.786l0.046,-0.785l0.049,-0.785l0.051,-0.784l0.053,-0.783l0.056,-0.783l0.058,-0.782l0.061,-0.782l0.063,-0.78l0.066,-0.781l0.068,-0.779l0.07,-0.779l0.073,-0.778l0.076,-0.777l0.077,-0.776l0.081,-0.776l0.082,-0.775l0.085,-0.775l0.087,-0.774l0.09,-0.773l0.092,-0.772l0.095,-0.771l0.097,-0.771l0.099,-0.77l0.101,-0.77l0.104,-0.768l0.107,-0.768l0.108,-0.767l0.112,-0.767l0.113,-0.765l0.116,-0.765l0.118,-0.764l0.12,-0.763l0.123,-0.763l0.125,-0.762l0.128,-0.76l0.129,-0.761l0.133,-0.759l0.134,-0.759l0.137,-0.757l0.139,-0.757l0.141,-0.756l0.144,-0.756l0.146,-0.754l0.148,-0.754l0.151,-0.753l0.152,-0.752l0.156,-0.751l0.157,-0.751l0.16,-0.749l0.162,-0.749l0.164,-0.748l0.166,-0.747l0.169,-0.746l0.171,-0.746l0.173,-0.744l0.176,-0.744l0.178,-0.742l0.18,-0.742l0.182,-0.741l0.184,-0.74l0.187,-0.74l0.189,-0.738l0.191,-0.738l0.193,-0.736l0.196,-0.736l0.198,-0.735l0.2,-0.734l0.202,-0.732l0.205,-0.733l0.206,-0.731l0.209,-0.73l0.211,-0.729l0.213,-0.729l0.216,-0.727l0.217,-0.727l0.22,-0.725l0.222,-0.725l0.224,-0.723l0.226,-0.723l0.228,-0.722l0.231,-0.721l0.233,-0.72l0.234,-0.719l0.237,-0.718l0.24,-0.717l0.241,-0.716l0.243,-0.715l0.246,-0.714l0.247,-0.713l0.25,-0.712l0.252,-0.711l0.254,-0.71l0.256,-0.709l0.258,-0.708l0.261,-0.707l0.262,-0.706l0.265,-0.705l0.266,-0.704l0.269,-0.703l0.271,-0.702l0.273,-0.701l0.275,-0.699l0.277,-0.699l0.279,-0.698l0.281,-0.697l0.283,-0.695l0.285,-0.695l0.288,-0.694l0.289,-0.692l0.291,-0.691l0.294,-0.691l0.295,-0.689l0.298,-0.688l0.299,-0.687l0.302,-0.686l0.304,-0.685l0.305,-0.684l0.308,-0.683l0.309,-0.682l0.312,-0.68l0.314,-0.68l0.315,-0.678l0.318,-0.677l0.32,-0.676l0.321,-0.675l0.324,-0.674l0.326,-0.673l0.327,-0.671l0.33,-0.671l0.331,-0.669l0.334,-0.668l0.335,-0.667l0.338,-0.666l0.339,-0.664l0.341,-0.664l0.344,-0.662l0.345,-0.661l0.347,-0.66l0.349,-0.659l0.351,-0.658l0.353,-0.656l0.355,-0.656l0.357,-0.654l0.358,-0.653l0.361,-0.651l0.362,-0.651l0.365,-0.649l0.366,-0.648l0.368,-0.647l0.371,-0.646l0.372,-0.644l0.373,-0.643l0.376,-0.642l0.378,-0.641l0.379,-0.639l0.382,-0.638l0.383,-0.637l0.385,-0.636l0.387,-0.635l0.389,-0.633l0.391,-0.632l0.392,-0.63l0.395,-0.63l0.396,-0.628l0.398,-0.627l0.4,-0.626l0.402,-0.624l0.403,-0.623l0.406,-0.622l0.407,-0.62l0.409,-0.619l0.411,-0.618l0.412,-0.617l0.415,-0.615l0.416,-0.614l0.418,-0.612l0.42,-0.612l0.422,-0.61l0.423,-0.608l0.425,-0.607l0.427,-0.606l0.429,-0.605l0.43,-0.603l0.433,-0.602l0.434,-0.601l0.435,-0.599l0.438,-0.598l0.439,-0.596l0.441,-0.595l0.443,-0.594l0.445,-0.593l0.446,-0.591l0.448,-0.589l0.449,-0.588l0.452,-0.587l0.453,-0.586l0.455,-0.584l0.456,-0.582l0.459,-0.582l0.46,-0.579l0.461,-0.579l0.464,-0.577l0.465,-0.575l0.467,-0.575l0.468,-0.572l0.47,-0.572l0.472,-0.57l0.474,-0.568l0.475,-0.567l0.477,-0.566l0.478,-0.564l0.48,-0.562l0.482,-0.561l0.483,-0.56l0.486,-0.558l0.486,-0.557l0.489,-0.556l0.49,-0.553l0.491,-0.553l0.494,-0.551l0.495,-0.549l0.496,-0.548l0.498,-0.546l0.5,-0.545l0.501,-0.544l0.503,-0.541l0.505,-0.541l0.506,-0.539l0.508,-0.537l0.509,-0.536l0.511,-0.534l0.513,-0.533l0.514,-0.531l0.515,-0.53l0.518,-0.528l0.518,-0.526l0.521,-0.526l0.522,-0.523l0.523,-0.522l0.525,-0.52l0.527,-0.519l0.528,-0.517l0.53,-0.516l0.531,-0.514l0.533,-0.513l0.534,-0.511l0.536,-0.509l0.537,-0.508l0.539,-0.506l0.54,-0.505l0.542,-0.503l0.544,-0.501l0.545,-0.5l0.546,-0.498l0.548,-0.496l0.549,-0.495l0.551,-0.493l0.552,-0.492l0.554,-0.49l0.556,-0.489l0.556,-0.486l0.559,-0.485l0.559,-0.484l0.562,-0.482l0.562,-0.48l0.564,-0.478l0.566,-0.477l0.567,-0.475l0.568,-0.474l0.57,-0.472l0.571,-0.47l0.573,-0.468l0.574,-0.467l0.576,-0.465l0.577,-0.463l0.578,-0.462l0.58,-0.46l0.581,-0.458l0.583,-0.457l0.584,-0.455l0.586,-0.453l0.586,-0.451l0.589,-0.45l0.589,-0.448l0.591,-0.446l0.593,-0.445l0.593,-0.443l0.596,-0.441l0.596,-0.439l0.598,-0.437l0.599,-0.436l0.601,-0.434l0.602,-0.432l0.603,-0.431l0.604,-0.429l0.606,-0.427l0.608,-0.425l0.608,-0.423l0.61,-0.422l0.611,-0.42l0.613,-0.418l0.614,-0.416l0.615,-0.414l0.617,-0.413l0.618,-0.411l0.619,-0.409l0.62,-0.407l0.622,-0.406l0.623,-0.403l0.624,-0.402l0.626,-0.4l0.627,-0.398l0.628,-0.396l0.629,-0.394l0.631,-0.393l0.632,-0.391l0.633,-0.389l0.635,-0.387l0.635,-0.385l0.637,-0.383l0.639,-0.381l0.639,-0.38l0.641,-0.378l0.642,-0.375l0.643,-0.374l0.644,-0.372l0.646,-0.37l0.647,-0.369l0.648,-0.366l0.649,-0.364l0.651,-0.363l0.651,-0.361l0.653,-0.358l0.654,-0.357l0.655,-0.355l0.657,-0.353l0.658,-0.351l0.658,-0.349l0.66,-0.347l0.662,-0.345l0.662,-0.344l0.663,-0.341l0.665,-0.339l0.666,-0.338l0.667,-0.335l0.668,-0.334l0.669,-0.331l0.671,-0.33l0.671,-0.327l0.673,-0.326l0.674,-0.323l0.675,-0.322l0.676,-0.32l0.677,-0.317l0.678,-0.316l0.68,-0.314l0.68,-0.311l0.682,-0.31l0.683,-0.308l0.683,-0.305l0.685,-0.304l0.686,-0.301l0.688,-0.3l0.688,-0.298l0.689,-0.295l0.69,-0.293l0.692,-0.292l0.692,-0.289l0.694,-0.288l0.694,-0.285l0.696,-0.283l0.697,-0.281l0.698,-0.279l0.698,-0.277l0.7,-0.275l0.701,-0.273l0.702,-0.271l0.703,-0.269l0.704,-0.266l0.705,-0.265l0.706,-0.262l0.707,-0.26l0.708,-0.259l0.709,-0.256l0.71,-0.254l0.711,-0.252l0.712,-0.249l0.713,-0.248l0.714,-0.246l0.715,-0.243l0.716,-0.241l0.717,-0.239l0.718,-0.237l0.719,-0.235l0.72,-0.233l0.721,-0.23l0.722,-0.229l0.722,-0.226l0.724,-0.224l0.725,-0.222l0.725,-0.22l0.727,-0.217l0.727,-0.216l0.729,-0.213l0.729,-0.211l0.73,-0.209l0.731,-0.206l0.732,-0.205l0.733,-0.202l0.734,-0.2l0.735,-0.198l0.736,-0.195l0.736,-0.194l0.738,-0.191l0.738,-0.189l0.739,-0.187l0.741,-0.184l0.741,-0.182l0.741,-0.18l0.743,-0.178l0.744,-0.176l0.744,-0.173l0.746,-0.171l0.746,-0.169l0.747,-0.166l0.748,-0.164l0.749,-0.162l0.749,-0.16l0.751,-0.157l0.751,-0.155l0.752,-0.153l0.753,-0.151l0.753,-0.148l0.755,-0.146l0.755,-0.144l0.757,-0.141l0.756,-0.139l0.758,-0.137l0.759,-0.134l0.759,-0.132l0.76,-0.13l0.761,-0.128l0.762,-0.125l0.762,-0.123l0.764,-0.12l0.764,-0.118l0.765,-0.116l0.765,-0.113l0.767,-0.111l0.767,-0.109l0.767,-0.106l0.769,-0.104l0.769,-0.102l0.771,-0.099l0.77,-0.097l0.772,-0.095l0.772,-0.092l0.773,-0.089l0.774,-0.088l0.774,-0.085l0.776,-0.082l0.775,-0.08l0.777,-0.078l0.777,-0.075l0.778,-0.073l0.779,-0.071l0.779,-0.068l0.78,-0.066l0.781,-0.063l0.782,-0.061l0.782,-0.058l0.782,-0.056l0.784,-0.053l0.784,-0.051l0.785,-0.049l0.785,-0.046l0.786,-0.044l0.787,-0.041l0.787,-0.038l0.788,-0.037l0.789,-0.033l0.789,-0.032l0.79,-0.029l0.791,-0.026l0.791,-0.024l0.792,-0.021l0.792,-0.019l0.793,-0.016l0.794,-0.014l0.794,-0.011l0.795,-0.009l0.795,-0.007l0.796,-0.003l0.797,-0.002l0.797,0.002l0.796,0.003l0.795,0.007l0.795,0.009l0.794,0.011l0.794,0.014l0.793,0.016l0.792,0.019l0.792,0.021l0.791,0.024l0.791,0.026l0.79,0.029l0.789,0.032l0.789,0.033l0.788,0.037l0.787,0.038l0.787,0.041l0.786,0.044l0.785,0.046l0.785,0.049l0.784,0.051l0.784,0.053l0.782,0.056l0.782,0.058l0.782,0.061l0.781,0.063l0.78,0.066l0.779,0.068l0.779,0.071l0.778,0.073l0.777,0.075l0.777,0.078l0.775,0.08l0.776,0.082l0.774,0.085l0.774,0.088l0.773,0.089l0.772,0.092l0.772,0.095l0.77,0.097l0.771,0.099l0.769,0.102l0.769,0.104l0.767,0.106l0.767,0.109l0.767,0.111l0.765,0.113l0.765,0.116l0.764,0.118l0.764,0.12l0.762,0.123l0.762,0.125l0.761,0.128l0.76,0.13l0.759,0.132l0.759,0.134l0.758,0.137l0.756,0.139l0.757,0.141l0.755,0.144l0.755,0.146l0.753,0.148l0.753,0.151l0.752,0.153l0.751,0.155l0.751,0.157l0.749,0.16l0.749,0.162l0.748,0.164l0.747,0.166l0.746,0.169l0.746,0.171l0.744,0.173l0.744,0.176l0.743,0.178l0.741,0.18l0.741,0.182l0.741,0.184l0.739,0.187l0.738,0.189l0.738,0.191l0.736,0.194l0.736,0.195l0.735,0.198l0.734,0.2l0.733,0.202l0.732,0.205l0.731,0.206l0.73,0.209l0.729,0.211l0.729,0.213l0.727,0.216l0.727,0.217l0.725,0.22l0.725,0.222l0.724,0.224l0.722,0.226l0.722,0.229l0.721,0.23l0.72,0.233l0.719,0.235l0.718,0.237l0.717,0.239l0.716,0.241l0.715,0.243l0.714,0.246l0.713,0.248l0.712,0.249l0.711,0.252l0.71,0.254l0.709,0.256l0.708,0.259l0.707,0.26l0.706,0.262l0.705,0.265l0.704,0.266l0.703,0.269l0.702,0.271l0.701,0.273l0.7,0.275l0.698,0.277l0.698,0.279l0.697,0.281l0.696,0.283l0.694,0.285l0.694,0.288l0.692,0.289l0.692,0.292l0.69,0.293l0.689,0.295l0.688,0.298l0.688,0.3l0.686,0.301l0.685,0.304l0.683,0.305l0.683,0.308l0.682,0.31l0.68,0.311l0.68,0.314l0.678,0.316l0.677,0.317l0.676,0.32l0.675,0.322l0.674,0.323l0.673,0.326l0.671,0.327l0.671,0.33l0.669,0.331l0.668,0.334l0.667,0.335l0.666,0.338l0.665,0.339l0.663,0.341l0.662,0.344l0.662,0.345l0.66,0.347l0.658,0.349l0.658,0.351l0.657,0.353l0.655,0.355l0.654,0.357l0.653,0.358l0.651,0.361l0.651,0.363l0.649,0.364l0.648,0.366l0.647,0.369l0.646,0.37l0.644,0.372l0.643,0.374l0.642,0.375l0.641,0.378l0.639,0.38l0.639,0.381l0.637,0.383l0.635,0.385l0.635,0.387l0.633,0.389l0.632,0.391l0.631,0.393l0.629,0.394l0.628,0.396l0.627,0.398l0.626,0.4l0.624,0.402l0.623,0.403l0.622,0.406l0.62,0.407l0.619,0.409l0.618,0.411l0.617,0.413l0.615,0.414l0.614,0.416l0.613,0.418l0.611,0.42l0.61,0.422l0.608,0.423l0.608,0.425l0.606,0.427l0.604,0.429l0.603,0.431l0.602,0.432l0.601,0.434l0.599,0.436l0.598,0.437l0.596,0.439l0.596,0.441l0.593,0.443l0.593,0.445l0.591,0.446l0.589,0.448l0.589,0.45l0.586,0.451l0.586,0.453l0.584,0.455l0.583,0.457l0.581,0.458l0.58,0.46l0.578,0.462l0.577,0.463l0.576,0.465l0.574,0.467l0.573,0.468l0.571,0.47l0.57,0.472l0.568,0.474l0.567,0.475l0.566,0.477l0.564,0.478l0.562,0.48l0.562,0.482l0.559,0.484l0.559,0.485l0.556,0.486l0.556,0.489l0.554,0.49l0.552,0.492l0.551,0.493l0.549,0.495l0.548,0.496l0.546,0.498l0.545,0.5l0.544,0.501l0.542,0.503l0.54,0.505l0.539,0.506l0.537,0.508l0.536,0.509l0.534,0.511l0.533,0.513l0.531,0.514l0.53,0.516l0.528,0.517l0.527,0.519l0.525,0.52l0.523,0.522l0.522,0.523l0.521,0.526l0.518,0.526l0.518,0.528l0.515,0.53l0.514,0.531l0.513,0.533l0.511,0.534l0.509,0.536l0.508,0.537l0.506,0.539l0.505,0.541l0.503,0.541l0.501,0.544l0.5,0.545l0.498,0.546l0.496,0.548l0.495,0.549l0.494,0.551l0.491,0.553l0.49,0.553l0.489,0.556l0.486,0.557l0.486,0.558l0.483,0.56l0.482,0.561l0.48,0.562l0.478,0.564l0.477,0.566l0.475,0.567l0.474,0.568l0.472,0.57l0.47,0.572l0.468,0.572l0.467,0.575l0.465,0.575l0.464,0.577l0.461,0.579l0.46,0.579l0.459,0.582l0.456,0.582l0.455,0.584l0.453,0.586l0.452,0.587l0.449,0.588l0.448,0.589l0.446,0.591l0.445,0.593l0.443,0.594l0.441,0.595l0.439,0.596l0.438,0.598l0.435,0.599l0.434,0.601l0.433,0.602l0.43,0.603l0.429,0.605l0.427,0.606l0.425,0.607l0.423,0.608l0.422,0.61l0.42,0.612l0.418,0.612l0.416,0.614l0.415,0.615l0.412,0.617l0.411,0.618l0.409,0.619l0.407,0.62l0.406,0.622l0.403,0.623l0.402,0.624l0.4,0.626l0.398,0.627l0.396,0.628l0.395,0.63l0.392,0.63l0.391,0.632l0.389,0.633l0.387,0.635l0.385,0.636l0.383,0.637l0.382,0.638l0.379,0.639l0.378,0.641l0.376,0.642l0.373,0.643l0.372,0.644l0.371,0.646l0.368,0.647l0.366,0.648l0.365,0.649l0.362,0.651l0.361,0.651l0.358,0.653l0.357,0.654l0.355,0.656l0.353,0.656l0.351,0.658l0.349,0.659l0.347,0.66l0.345,0.661l0.344,0.662l0.341,0.664l0.339,0.664l0.338,0.666l0.335,0.667l0.334,0.668l0.331,0.669l0.33,0.671l0.327,0.671l0.326,0.673l0.324,0.674l0.321,0.675l0.32,0.676l0.318,0.677l0.315,0.678l0.314,0.68l0.312,0.68l0.309,0.682l0.308,0.683l0.305,0.684l0.304,0.685l0.302,0.686l0.299,0.687l0.298,0.688l0.295,0.689l0.294,0.691l0.291,0.691l0.289,0.692l0.288,0.694l0.285,0.695l0.283,0.695l0.281,0.697l0.279,0.698l0.277,0.699l0.275,0.699l0.273,0.701l0.271,0.702l0.269,0.703l0.266,0.704l0.265,0.705l0.262,0.706l0.261,0.707l0.258,0.708l0.256,0.709l0.254,0.71l0.252,0.711l0.25,0.712l0.247,0.713l0.246,0.714l0.243,0.715l0.241,0.716l0.24,0.717l0.237,0.718l0.234,0.719l0.233,0.72l0.231,0.721l0.228,0.722l0.226,0.723l0.224,0.723l0.222,0.725l0.22,0.725l0.217,0.727l0.216,0.727l0.213,0.729l0.211,0.729l0.209,0.73l0.206,0.731l0.205,0.733l0.202,0.732l0.2,0.734l0.198,0.735l0.196,0.736l0.193,0.736l0.191,0.738l0.189,0.738l0.187,0.74l0.184,0.74l0.182,0.741l0.18,0.742l0.178,0.742l0.176,0.744l0.173,0.744l0.171,0.746l0.169,0.746l0.166,0.747l0.164,0.748l0.162,0.749l0.16,0.749l0.157,0.751l0.156,0.751l0.152,0.752l0.151,0.753l0.148,0.754l0.146,0.754l0.144,0.756l0.141,0.756l0.139,0.757l0.137,0.757l0.134,0.759l0.133,0.759l0.129,0.761l0.128,0.76l0.125,0.762l0.123,0.763l0.12,0.763l0.118,0.764l0.116,0.765l0.113,0.765l0.112,0.767l0.108,0.767l0.107,0.768l0.104,0.768l0.101,0.77l0.099,0.77l0.097,0.771l0.095,0.771l0.092,0.772l0.09,0.773l0.087,0.774l0.085,0.775l0.082,0.775l0.081,0.776l0.077,0.776l0.076,0.777l0.073,0.778l0.07,0.779l0.068,0.779l0.066,0.781l0.063,0.78l0.061,0.782l0.058,0.782l0.056,0.783l0.053,0.783l0.051,0.784l0.049,0.785l0.046,0.785l0.044,0.786l0.041,0.787l0.039,0.788l0.036,0.788l0.034,0.788l0.031,0.79l0.029,0.789l0.026,0.791l0.024,0.791l0.021,0.792l0.019,0.792l0.016,0.793l0.014,0.794l0.012,0.794l0.008,0.795l0.007,0.796l0.004,0.796l0.001,0.796l-0.001,0.797l-0.004,0.796l-0.007,0.795l-0.008,0.795l-0.012,0.794l-0.014,0.794l-0.016,0.793l-0.019,0.792l-0.021,0.792l-0.024,0.791l-0.026,0.791l-0.029,0.79l-0.031,0.789l-0.034,0.789l-0.036,0.788l-0.039,0.787l-0.041,0.787l-0.044,0.786l-0.046,0.785l-0.049,0.785l-0.051,0.784l-0.053,0.784l-0.056,0.783l-0.058,0.782l-0.061,0.781l-0.063,0.781l-0.066,0.78l-0.068,0.779l-0.07,0.779l-0.073,0.778l-0.076,0.777l-0.077,0.777l-0.081,0.776l-0.082,0.775l-0.085,0.774l-0.087,0.774l-0.09,0.773l-0.092,0.772l-0.095,0.772l-0.097,0.771l-0.099,0.77l-0.101,0.769l-0.104,0.769l-0.107,0.768l-0.108,0.767l-0.112,0.766l-0.113,0.766l-0.116,0.764l-0.118,0.764l-0.12,0.764l-0.123,0.762l-0.125,0.762l-0.128,0.761l-0.129,0.76l-0.133,0.759l-0.134,0.759l-0.137,0.758l-0.139,0.757l-0.141,0.756l-0.144,0.755l-0.146,0.755l-0.148,0.753l-0.151,0.753l-0.152,0.752l-0.156,0.752l-0.157,0.75l-0.16,0.75l-0.162,0.748l-0.164,0.748l-0.166,0.747l-0.169,0.747l-0.171,0.745l-0.173,0.744l-0.176,0.744l-0.178,0.743l-0.18,0.742l-0.182,0.741l-0.184,0.74l-0.187,0.739l-0.189,0.738l-0.191,0.738l-0.193,0.737l-0.196,0.735l-0.198,0.735l-0.2,0.734l-0.202,0.733l-0.205,0.732l-0.206,0.731l-0.209,0.73l-0.211,0.73l-0.213,0.728l-0.216,0.727l-0.217,0.727l-0.22,0.726l-0.222,0.724l-0.224,0.724l-0.226,0.723l-0.228,0.721l-0.231,0.721l-0.233,0.72l-0.234,0.719l-0.237,0.718l-0.24,0.717l-0.241,0.716l-0.243,0.715l-0.246,0.714l-0.247,0.713l-0.25,0.712l-0.252,0.711l-0.254,0.71l-0.256,0.709l-0.258,0.708l-0.261,0.707l-0.262,0.706l-0.265,0.705l-0.266,0.704l-0.269,0.703l-0.271,0.702l-0.273,0.701l-0.275,0.7l-0.277,0.699l-0.279,0.697l-0.281,0.697l-0.283,0.696l-0.285,0.694l-0.288,0.694l-0.289,0.692l-0.291,0.692l-0.294,0.69l-0.295,0.689l-0.298,0.689l-0.299,0.687l-0.302,0.686l-0.304,0.685l-0.305,0.684l-0.308,0.682l-0.309,0.682l-0.312,0.68l-0.314,0.68l-0.315,0.678l-0.318,0.677l-0.32,0.676l-0.321,0.675l-0.324,0.674l-0.326,0.673l-0.327,0.672l-0.33,0.67l-0.331,0.669l-0.334,0.668l-0.335,0.667l-0.338,0.666l-0.339,0.665l-0.341,0.663l-0.344,0.663l-0.345,0.661l-0.347,0.66l-0.349,0.659l-0.351,0.657l-0.353,0.657l-0.355,0.655l-0.357,0.654l-0.358,0.653l-0.361,0.652l-0.362,0.65l-0.365,0.649l-0.366,0.648l-0.368,0.647l-0.371,0.646l-0.372,0.644l-0.373,0.643l-0.376,0.642l-0.378,0.641l-0.379,0.64l-0.382,0.638l-0.383,0.637l-0.385,0.635l-0.387,0.635l-0.389,0.633l-0.391,0.632l-0.392,0.631l-0.395,0.629l-0.396,0.628l-0.398,0.627l-0.4,0.626l-0.402,0.624l-0.403,0.623l-0.406,0.622l-0.407,0.62l-0.409,0.62l-0.411,0.617l-0.412,0.617l-0.415,0.615l-0.416,0.614l-0.418,0.613l-0.42,0.611l-0.422,0.61l-0.423,0.609l-0.425,0.607l-0.427,0.606l-0.429,0.604l-0.43,0.604l-0.433,0.602l-0.434,0.6l-0.435,0.599l-0.438,0.598l-0.439,0.597l-0.441,0.595l-0.443,0.594l-0.445,0.592l-0.446,0.591l-0.448,0.59l-0.449,0.588l-0.452,0.587l-0.453,0.585l-0.455,0.584l-0.456,0.583l-0.459,0.581l-0.46,0.58l-0.461,0.578l-0.464,0.577l-0.465,0.576l-0.467,0.574l-0.468,0.573l-0.47,0.571l-0.472,0.57l-0.474,0.568l-0.475,0.567l-0.477,0.566l-0.478,0.564l-0.48,0.563l-0.482,0.561l-0.483,0.56l-0.486,0.558l-0.486,0.557l-0.489,0.555l-0.49,0.554l-0.491,0.552l-0.494,0.551l-0.495,0.549l-0.496,0.548l-0.498,0.547l-0.5,0.544l-0.501,0.544l-0.503,0.542l-0.505,0.54l-0.506,0.539l-0.508,0.537l-0.509,0.536l-0.511,0.534l-0.513,0.533l-0.514,0.531l-0.515,0.53l-0.518,0.528l-0.518,0.527l-0.521,0.525l-0.522,0.523l-0.523,0.522l-0.525,0.521l-0.527,0.519l-0.528,0.517l-0.53,0.515l-0.531,0.515l-0.533,0.512l-0.534,0.511l-0.536,0.509l-0.537,0.508l-0.539,0.506l-0.54,0.505l-0.542,0.503l-0.544,0.501l-0.545,0.5l-0.546,0.498l-0.548,0.497l-0.549,0.495l-0.551,0.493l-0.552,0.492l-0.554,0.49l-0.556,0.488l-0.556,0.487l-0.559,0.485l-0.559,0.483l-0.562,0.482l-0.562,0.48l-0.564,0.479l-0.566,0.476l-0.567,0.476l-0.568,0.473l-0.57,0.472l-0.571,0.47l-0.573,0.469l-0.574,0.466l-0.576,0.465l-0.577,0.464l-0.578,0.461l-0.58,0.46l-0.581,0.459l-0.583,0.456l-0.584,0.455l-0.586,0.453l-0.586,0.452l-0.589,0.449l-0.589,0.448l-0.591,0.447l-0.593,0.444l-0.593,0.443l-0.596,0.441l-0.596,0.439l-0.598,0.438l-0.599,0.436l-0.601,0.434l-0.602,0.432l-0.603,0.43l-0.604,0.429l-0.606,0.427l-0.608,0.425l-0.608,0.424l-0.61,0.421l-0.611,0.42l-0.613,0.418l-0.614,0.416l-0.615,0.415l-0.617,0.412l-0.618,0.411l-0.619,0.409l-0.62,0.407l-0.622,0.406l-0.623,0.403l-0.624,0.402l-0.626,0.4l-0.627,0.398l-0.628,0.396l-0.629,0.395l-0.631,0.392l-0.632,0.391l-0.633,0.389l-0.635,0.387l-0.635,0.385l-0.637,0.383l-0.639,0.382l-0.639,0.379l-0.641,0.378l-0.642,0.376l-0.643,0.374l-0.644,0.372l-0.646,0.37l-0.647,0.368l-0.648,0.366l-0.649,0.365l-0.651,0.362l-0.651,0.361l-0.653,0.359l-0.654,0.356l-0.655,0.355l-0.657,0.353l-0.658,0.351l-0.658,0.349l-0.66,0.347l-0.662,0.346l-0.662,0.343l-0.663,0.341l-0.665,0.34l-0.666,0.337l-0.667,0.335l-0.668,0.334l-0.669,0.331l-0.671,0.33l-0.671,0.328l-0.673,0.325l-0.674,0.324l-0.675,0.321l-0.676,0.32l-0.677,0.318l-0.678,0.315l-0.68,0.314l-0.68,0.312l-0.682,0.309l-0.683,0.308l-0.683,0.306l-0.685,0.303l-0.686,0.302l-0.688,0.299l-0.688,0.298l-0.689,0.295l-0.69,0.294l-0.692,0.291l-0.692,0.29l-0.694,0.287l-0.694,0.285l-0.696,0.283l-0.697,0.282l-0.698,0.279l-0.698,0.277l-0.7,0.275l-0.701,0.272l-0.702,0.271l-0.703,0.269l-0.704,0.266l-0.705,0.265l-0.706,0.262l-0.707,0.261l-0.708,0.258l-0.709,0.256l-0.71,0.254l-0.711,0.252l-0.712,0.25l-0.713,0.247l-0.714,0.246l-0.715,0.243l-0.716,0.242l-0.717,0.239l-0.718,0.237l-0.719,0.235l-0.72,0.232l-0.721,0.231l-0.722,0.228l-0.722,0.226l-0.724,0.224l-0.725,0.222l-0.725,0.22l-0.727,0.218l-0.727,0.215l-0.729,0.213l-0.729,0.211l-0.73,0.209l-0.731,0.207l-0.732,0.204l-0.733,0.202l-0.734,0.2l-0.735,0.198l-0.736,0.196l-0.736,0.193l-0.738,0.191l-0.738,0.189l-0.739,0.187l-0.741,0.184l-0.741,0.183l-0.741,0.18l-0.743,0.177l-0.744,0.176l-0.744,0.173l-0.746,0.171l-0.746,0.169l-0.747,0.166l-0.748,0.165l-0.749,0.162l-0.749,0.159l-0.751,0.158l-0.751,0.155l-0.752,0.153l-0.753,0.15l-0.753,0.148l-0.755,0.146l-0.755,0.144l-0.757,0.141l-0.756,0.139l-0.758,0.137l-0.759,0.135l-0.759,0.132l-0.76,0.13l-0.761,0.127l-0.762,0.125l-0.762,0.123l-0.764,0.12l-0.764,0.118l-0.765,0.116l-0.765,0.114l-0.767,0.111l-0.767,0.108l-0.767,0.107l-0.769,0.104l-0.769,0.101l-0.771,0.1l-0.77,0.097l-0.772,0.094l-0.772,0.092l-0.773,0.09l-0.774,0.087l-0.774,0.085l-0.776,0.083l-0.775,0.08l-0.777,0.077l-0.777,0.076l-0.778,0.073l-0.779,0.07l-0.779,0.068l-0.78,0.066l-0.781,0.063l-0.782,0.061l-0.782,0.058l-0.782,0.056l-0.784,0.054l-0.784,0.051l-0.785,0.048l-0.785,0.046l-0.786,0.044l-0.787,0.041l-0.787,0.039l-0.788,0.036l-0.789,0.034l-0.789,0.031l-0.79,0.029l-0.791,0.026l-0.791,0.024l-0.792,0.021l-0.792,0.019l-0.793,0.017l-0.794,0.014l-0.794,0.011l-0.795,0.009l-0.795,0.006l-0.796,0.004l-0.797,0.001ZM256,472.426l0.702,-0.001l0.7,-0.003l0.701,-0.006l0.7,-0.008l0.699,-0.01l0.698,-0.012l0.698,-0.014l0.697,-0.017l0.697,-0.019l0.696,-0.021l0.696,-0.023l0.695,-0.025l0.694,-0.028l0.693,-0.029l0.694,-0.032l0.692,-0.034l0.692,-0.037l0.691,-0.038l0.691,-0.04l0.69,-0.043l0.689,-0.045l0.689,-0.047l0.688,-0.049l0.687,-0.051l0.687,-0.054l0.686,-0.055l0.685,-0.058l0.686,-0.06l0.684,-0.062l0.683,-0.064l0.683,-0.066l0.683,-0.068l0.681,-0.071l0.681,-0.072l0.681,-0.075l0.679,-0.077l0.679,-0.078l0.678,-0.081l0.678,-0.083l0.677,-0.085l0.676,-0.087l0.676,-0.09l0.675,-0.091l0.674,-0.093l0.673,-0.096l0.673,-0.097l0.672,-0.1l0.672,-0.102l0.671,-0.103l0.669,-0.106l0.67,-0.108l0.668,-0.11l0.668,-0.112l0.668,-0.113l0.666,-0.116l0.665,-0.118l0.666,-0.12l0.664,-0.122l0.663,-0.124l0.663,-0.126l0.663,-0.129l0.661,-0.13l0.661,-0.132l0.66,-0.134l0.659,-0.136l0.658,-0.138l0.658,-0.14l0.657,-0.142l0.656,-0.144l0.656,-0.147l0.654,-0.148l0.654,-0.15l0.653,-0.152l0.653,-0.154l0.652,-0.156l0.65,-0.157l0.65,-0.16l0.65,-0.162l0.648,-0.164l0.648,-0.166l0.647,-0.167l0.646,-0.17l0.646,-0.172l0.644,-0.173l0.644,-0.176l0.643,-0.177l0.642,-0.179l0.642,-0.182l0.641,-0.183l0.639,-0.185l0.639,-0.187l0.638,-0.189l0.637,-0.191l0.637,-0.192l0.636,-0.195l0.635,-0.197l0.633,-0.198l0.633,-0.2l0.633,-0.203l0.631,-0.204l0.631,-0.206l0.63,-0.208l0.629,-0.209l0.628,-0.212l0.627,-0.214l0.626,-0.215l0.627,-0.218l0.624,-0.219l0.623,-0.22l0.623,-0.223l0.623,-0.225l0.621,-0.227l0.62,-0.228l0.62,-0.23l0.618,-0.232l0.618,-0.234l0.617,-0.236l0.615,-0.237l0.615,-0.24l0.614,-0.241l0.613,-0.243l0.613,-0.245l0.611,-0.247l0.61,-0.248l0.61,-0.251l0.609,-0.252l0.607,-0.254l0.607,-0.255l0.606,-0.258l0.605,-0.259l0.603,-0.261l0.603,-0.263l0.602,-0.265l0.602,-0.266l0.6,-0.268l0.599,-0.27l0.598,-0.272l0.597,-0.274l0.597,-0.275l0.595,-0.277l0.595,-0.279l0.593,-0.28l0.592,-0.283l0.592,-0.284l0.59,-0.286l0.59,-0.287l0.588,-0.289l0.587,-0.291l0.587,-0.293l0.586,-0.295l0.585,-0.296l0.583,-0.298l0.582,-0.299l0.582,-0.302l0.58,-0.303l0.58,-0.305l0.579,-0.306l0.576,-0.308l0.577,-0.31l0.576,-0.312l0.574,-0.313l0.573,-0.315l0.572,-0.317l0.571,-0.318l0.571,-0.32l0.569,-0.322l0.568,-0.323l0.567,-0.325l0.566,-0.327l0.564,-0.328l0.564,-0.33l0.563,-0.332l0.561,-0.333l0.561,-0.335l0.56,-0.337l0.558,-0.338l0.557,-0.34l0.556,-0.342l0.556,-0.343l0.554,-0.345l0.552,-0.346l0.552,-0.348l0.551,-0.35l0.549,-0.351l0.549,-0.353l0.548,-0.355l0.545,-0.356l0.546,-0.358l0.544,-0.359l0.542,-0.361l0.542,-0.362l0.541,-0.365l0.539,-0.365l0.538,-0.367l0.538,-0.37l0.536,-0.37l0.534,-0.372l0.534,-0.373l0.532,-0.376l0.532,-0.377l0.53,-0.378l0.528,-0.38l0.528,-0.381l0.527,-0.383l0.525,-0.384l0.524,-0.386l0.523,-0.388l0.523,-0.389l0.52,-0.391l0.519,-0.392l0.519,-0.394l0.516,-0.395l0.516,-0.397l0.515,-0.398l0.513,-0.4l0.512,-0.401l0.511,-0.403l0.51,-0.404l0.508,-0.406l0.507,-0.407l0.506,-0.409l0.505,-0.411l0.503,-0.411l0.503,-0.413l0.501,-0.415l0.499,-0.416l0.498,-0.418l0.498,-0.419l0.496,-0.421l0.494,-0.422l0.494,-0.424l0.492,-0.425l0.49,-0.426l0.49,-0.428l0.488,-0.429l0.487,-0.431l0.485,-0.432l0.485,-0.434l0.483,-0.435l0.482,-0.437l0.48,-0.438l0.479,-0.439l0.477,-0.44l0.477,-0.443l0.474,-0.443l0.475,-0.445l0.472,-0.447l0.471,-0.447l0.47,-0.45l0.468,-0.45l0.467,-0.452l0.466,-0.454l0.464,-0.454l0.463,-0.456l0.462,-0.458l0.46,-0.459l0.459,-0.46l0.458,-0.462l0.456,-0.463l0.454,-0.464l0.454,-0.466l0.452,-0.467l0.45,-0.468l0.449,-0.47l0.448,-0.471l0.447,-0.472l0.445,-0.474l0.443,-0.475l0.443,-0.477l0.44,-0.477l0.439,-0.479l0.438,-0.481l0.437,-0.481l0.435,-0.483l0.434,-0.484l0.432,-0.486l0.43,-0.487l0.43,-0.488l0.428,-0.49l0.426,-0.49l0.425,-0.492l0.424,-0.494l0.422,-0.494l0.421,-0.496l0.419,-0.497l0.417,-0.499l0.416,-0.499l0.415,-0.501l0.414,-0.502l0.411,-0.504l0.411,-0.505l0.408,-0.506l0.408,-0.507l0.405,-0.508l0.405,-0.509l0.403,-0.512l0.401,-0.512l0.4,-0.513l0.398,-0.515l0.397,-0.515l0.395,-0.517l0.394,-0.519l0.392,-0.519l0.39,-0.52l0.39,-0.523l0.387,-0.522l0.386,-0.525l0.385,-0.525l0.383,-0.526l0.381,-0.528l0.38,-0.529l0.378,-0.53l0.377,-0.532l0.375,-0.532l0.374,-0.533l0.372,-0.535l0.37,-0.536l0.369,-0.537l0.367,-0.539l0.366,-0.539l0.364,-0.541l0.363,-0.542l0.361,-0.542l0.359,-0.544l0.358,-0.545l0.356,-0.546l0.354,-0.548l0.354,-0.548l0.351,-0.55l0.349,-0.55l0.349,-0.552l0.346,-0.553l0.345,-0.554l0.343,-0.556l0.342,-0.555l0.339,-0.558l0.339,-0.558l0.336,-0.56l0.336,-0.56l0.333,-0.562l0.331,-0.562l0.331,-0.565l0.328,-0.564l0.326,-0.566l0.326,-0.567l0.323,-0.568l0.322,-0.569l0.32,-0.571l0.318,-0.571l0.317,-0.572l0.314,-0.573l0.314,-0.574l0.312,-0.576l0.31,-0.576l0.307,-0.577l0.307,-0.579l0.305,-0.58l0.303,-0.579l0.301,-0.582l0.3,-0.583l0.298,-0.583l0.296,-0.585l0.295,-0.585l0.293,-0.587l0.29,-0.587l0.29,-0.589l0.287,-0.59l0.286,-0.589l0.284,-0.592l0.282,-0.593l0.281,-0.593l0.279,-0.594l0.277,-0.596l0.275,-0.597l0.274,-0.597l0.271,-0.598l0.27,-0.599l0.269,-0.6l0.266,-0.602l0.265,-0.601l0.263,-0.603l0.261,-0.604l0.259,-0.605l0.258,-0.606l0.255,-0.607l0.254,-0.607l0.252,-0.609l0.251,-0.61l0.248,-0.61l0.247,-0.611l0.245,-0.612l0.243,-0.613l0.241,-0.614l0.239,-0.616l0.238,-0.615l0.236,-0.617l0.234,-0.618l0.231,-0.618l0.231,-0.62l0.228,-0.62l0.227,-0.621l0.225,-0.623l0.222,-0.622l0.221,-0.624l0.219,-0.625l0.218,-0.625l0.215,-0.627l0.214,-0.627l0.211,-0.628l0.21,-0.629l0.208,-0.629l0.206,-0.631l0.204,-0.632l0.202,-0.633l0.201,-0.632l0.198,-0.634l0.197,-0.635l0.194,-0.636l0.193,-0.636l0.191,-0.638l0.189,-0.638l0.187,-0.639l0.185,-0.639l0.183,-0.641l0.182,-0.642l0.179,-0.642l0.177,-0.642l0.176,-0.645l0.173,-0.644l0.172,-0.646l0.169,-0.646l0.168,-0.647l0.166,-0.647l0.164,-0.649l0.162,-0.65l0.159,-0.649l0.158,-0.651l0.156,-0.652l0.154,-0.652l0.152,-0.653l0.15,-0.654l0.148,-0.655l0.146,-0.656l0.145,-0.656l0.142,-0.657l0.14,-0.657l0.138,-0.659l0.136,-0.659l0.134,-0.66l0.132,-0.661l0.13,-0.661l0.128,-0.663l0.126,-0.662l0.124,-0.664l0.122,-0.664l0.121,-0.665l0.117,-0.666l0.116,-0.666l0.114,-0.668l0.112,-0.668l0.11,-0.668l0.108,-0.67l0.106,-0.669l0.103,-0.671l0.102,-0.672l0.099,-0.672l0.098,-0.673l0.095,-0.674l0.094,-0.673l0.091,-0.675l0.089,-0.676l0.087,-0.676l0.086,-0.677l0.082,-0.677l0.081,-0.679l0.079,-0.679l0.077,-0.679l0.075,-0.681l0.072,-0.681l0.07,-0.681l0.069,-0.682l0.066,-0.683l0.064,-0.683l0.062,-0.685l0.06,-0.685l0.057,-0.685l0.056,-0.687l0.053,-0.687l0.052,-0.687l0.049,-0.688l0.047,-0.689l0.045,-0.689l0.042,-0.69l0.041,-0.691l0.038,-0.691l0.036,-0.692l0.035,-0.692l0.031,-0.694l0.03,-0.693l0.028,-0.694l0.025,-0.695l0.023,-0.696l0.021,-0.696l0.019,-0.696l0.016,-0.698l0.015,-0.698l0.012,-0.698l0.01,-0.699l0.008,-0.7l0.005,-0.701l0.004,-0.7l0.001,-0.702l-0.001,-0.702l-0.004,-0.7l-0.005,-0.7l-0.008,-0.701l-0.01,-0.698l-0.012,-0.698l-0.015,-0.699l-0.016,-0.697l-0.019,-0.697l-0.021,-0.696l-0.023,-0.695l-0.025,-0.696l-0.028,-0.694l-0.03,-0.693l-0.031,-0.694l-0.035,-0.692l-0.036,-0.692l-0.038,-0.691l-0.041,-0.691l-0.042,-0.69l-0.045,-0.689l-0.047,-0.689l-0.049,-0.688l-0.052,-0.687l-0.053,-0.687l-0.056,-0.686l-0.057,-0.685l-0.06,-0.686l-0.062,-0.684l-0.064,-0.683l-0.066,-0.683l-0.069,-0.682l-0.07,-0.682l-0.072,-0.681l-0.075,-0.68l-0.077,-0.68l-0.079,-0.679l-0.081,-0.678l-0.082,-0.678l-0.086,-0.677l-0.087,-0.676l-0.089,-0.676l-0.091,-0.674l-0.094,-0.674l-0.095,-0.674l-0.098,-0.673l-0.099,-0.672l-0.102,-0.672l-0.103,-0.67l-0.106,-0.67l-0.108,-0.669l-0.11,-0.669l-0.112,-0.668l-0.114,-0.668l-0.116,-0.666l-0.117,-0.665l-0.121,-0.666l-0.122,-0.664l-0.124,-0.663l-0.126,-0.663l-0.128,-0.662l-0.13,-0.662l-0.132,-0.661l-0.134,-0.66l-0.136,-0.659l-0.138,-0.658l-0.14,-0.658l-0.142,-0.656l-0.145,-0.657l-0.146,-0.656l-0.148,-0.654l-0.15,-0.654l-0.152,-0.653l-0.154,-0.653l-0.156,-0.651l-0.158,-0.651l-0.159,-0.65l-0.162,-0.65l-0.164,-0.648l-0.166,-0.648l-0.168,-0.647l-0.169,-0.646l-0.172,-0.646l-0.173,-0.644l-0.176,-0.644l-0.177,-0.643l-0.179,-0.642l-0.182,-0.641l-0.183,-0.641l-0.185,-0.64l-0.187,-0.639l-0.189,-0.638l-0.191,-0.637l-0.193,-0.637l-0.194,-0.635l-0.197,-0.635l-0.198,-0.634l-0.201,-0.633l-0.202,-0.632l-0.204,-0.632l-0.206,-0.631l-0.208,-0.63l-0.21,-0.628l-0.211,-0.629l-0.214,-0.627l-0.215,-0.627l-0.218,-0.625l-0.219,-0.625l-0.221,-0.624l-0.222,-0.622l-0.225,-0.623l-0.227,-0.62l-0.228,-0.621l-0.231,-0.62l-0.231,-0.618l-0.234,-0.617l-0.236,-0.618l-0.238,-0.615l-0.239,-0.615l-0.241,-0.614l-0.243,-0.613l-0.245,-0.613l-0.247,-0.611l-0.248,-0.61l-0.251,-0.61l-0.252,-0.609l-0.254,-0.607l-0.255,-0.607l-0.258,-0.606l-0.259,-0.605l-0.261,-0.603l-0.263,-0.603l-0.265,-0.602l-0.266,-0.601l-0.269,-0.601l-0.27,-0.599l-0.271,-0.598l-0.274,-0.597l-0.275,-0.597l-0.277,-0.595l-0.279,-0.594l-0.28,-0.594l-0.283,-0.592l-0.284,-0.592l-0.286,-0.59l-0.287,-0.59l-0.29,-0.588l-0.29,-0.587l-0.293,-0.587l-0.295,-0.586l-0.296,-0.585l-0.298,-0.583l-0.3,-0.582l-0.301,-0.582l-0.303,-0.58l-0.305,-0.58l-0.307,-0.578l-0.307,-0.577l-0.31,-0.577l-0.312,-0.576l-0.313,-0.574l-0.315,-0.573l-0.317,-0.572l-0.318,-0.571l-0.32,-0.57l-0.322,-0.57l-0.324,-0.568l-0.325,-0.567l-0.326,-0.566l-0.328,-0.564l-0.33,-0.564l-0.332,-0.563l-0.333,-0.561l-0.336,-0.561l-0.336,-0.56l-0.339,-0.558l-0.339,-0.557l-0.342,-0.556l-0.343,-0.555l-0.345,-0.554l-0.346,-0.553l-0.349,-0.552l-0.349,-0.551l-0.351,-0.549l-0.354,-0.549l-0.354,-0.547l-0.356,-0.546l-0.358,-0.546l-0.359,-0.544l-0.361,-0.542l-0.363,-0.542l-0.364,-0.54l-0.365,-0.54l-0.368,-0.538l-0.369,-0.537l-0.37,-0.536l-0.372,-0.535l-0.374,-0.534l-0.375,-0.532l-0.377,-0.531l-0.378,-0.53l-0.38,-0.529l-0.382,-0.528l-0.382,-0.527l-0.385,-0.525l-0.386,-0.524l-0.387,-0.523l-0.39,-0.522l-0.39,-0.521l-0.392,-0.519l-0.394,-0.518l-0.395,-0.517l-0.397,-0.516l-0.399,-0.515l-0.399,-0.513l-0.401,-0.512l-0.403,-0.511l-0.405,-0.51l-0.405,-0.508l-0.408,-0.507l-0.408,-0.506l-0.411,-0.505l-0.411,-0.503l-0.414,-0.502l-0.415,-0.502l-0.416,-0.499l-0.417,-0.498l-0.419,-0.497l-0.421,-0.497l-0.422,-0.494l-0.424,-0.493l-0.425,-0.493l-0.426,-0.49l-0.428,-0.49l-0.429,-0.488l-0.431,-0.487l-0.432,-0.485l-0.434,-0.484l-0.435,-0.483l-0.436,-0.482l-0.439,-0.48l-0.439,-0.48l-0.44,-0.477l-0.443,-0.477l-0.443,-0.475l-0.445,-0.473l-0.447,-0.473l-0.448,-0.471l-0.449,-0.47l-0.45,-0.468l-0.452,-0.467l-0.454,-0.466l-0.454,-0.464l-0.457,-0.463l-0.457,-0.462l-0.459,-0.46l-0.46,-0.459l-0.462,-0.457l-0.463,-0.456l-0.464,-0.455l-0.466,-0.453l-0.467,-0.453l-0.468,-0.45l-0.47,-0.449l-0.471,-0.448l-0.472,-0.446l-0.474,-0.445l-0.475,-0.444l-0.477,-0.442l-0.477,-0.441l-0.479,-0.439l-0.481,-0.438l-0.482,-0.437l-0.482,-0.435l-0.485,-0.433l-0.485,-0.433l-0.487,-0.43l-0.488,-0.43l-0.49,-0.428l-0.49,-0.426l-0.492,-0.425l-0.494,-0.424l-0.495,-0.422l-0.495,-0.42l-0.497,-0.419l-0.499,-0.418l-0.499,-0.416l-0.501,-0.415l-0.503,-0.413l-0.503,-0.412l-0.505,-0.41l-0.506,-0.409l-0.507,-0.408l-0.508,-0.405l-0.51,-0.405l-0.511,-0.402l-0.512,-0.402l-0.513,-0.4l-0.515,-0.398l-0.515,-0.396l-0.517,-0.396l-0.519,-0.394l-0.519,-0.392l-0.521,-0.39l-0.521,-0.389l-0.523,-0.388l-0.525,-0.386l-0.525,-0.385l-0.527,-0.383l-0.527,-0.381l-0.529,-0.38l-0.53,-0.378l-0.532,-0.377l-0.532,-0.375l-0.534,-0.374l-0.535,-0.372l-0.536,-0.37l-0.537,-0.369l-0.538,-0.367l-0.539,-0.366l-0.541,-0.364l-0.542,-0.363l-0.542,-0.361l-0.544,-0.359l-0.546,-0.358l-0.545,-0.356l-0.548,-0.354l-0.548,-0.353l-0.55,-0.352l-0.551,-0.349l-0.552,-0.348l-0.552,-0.347l-0.554,-0.345l-0.556,-0.343l-0.556,-0.341l-0.557,-0.34l-0.558,-0.339l-0.56,-0.336l-0.56,-0.335l-0.562,-0.334l-0.563,-0.331l-0.564,-0.33l-0.564,-0.329l-0.566,-0.326l-0.567,-0.325l-0.568,-0.324l-0.569,-0.321l-0.571,-0.321l-0.571,-0.318l-0.572,-0.316l-0.573,-0.316l-0.575,-0.313l-0.575,-0.311l-0.576,-0.31l-0.578,-0.308l-0.578,-0.307l-0.58,-0.305l-0.58,-0.303l-0.582,-0.301l-0.582,-0.3l-0.584,-0.298l-0.584,-0.296l-0.586,-0.294l-0.586,-0.293l-0.588,-0.291l-0.588,-0.289l-0.589,-0.288l-0.591,-0.286l-0.592,-0.284l-0.592,-0.282l-0.593,-0.281l-0.595,-0.279l-0.595,-0.277l-0.596,-0.275l-0.598,-0.273l-0.598,-0.272l-0.599,-0.27l-0.6,-0.268l-0.601,-0.267l-0.602,-0.265l-0.603,-0.262l-0.604,-0.261l-0.605,-0.26l-0.606,-0.257l-0.607,-0.256l-0.607,-0.254l-0.609,-0.252l-0.61,-0.25l-0.61,-0.249l-0.611,-0.246l-0.613,-0.245l-0.613,-0.243l-0.614,-0.242l-0.615,-0.239l-0.615,-0.238l-0.617,-0.235l-0.618,-0.234l-0.618,-0.232l-0.62,-0.231l-0.62,-0.228l-0.621,-0.227l-0.623,-0.224l-0.622,-0.223l-0.624,-0.221l-0.625,-0.219l-0.625,-0.217l-0.627,-0.216l-0.627,-0.213l-0.628,-0.212l-0.629,-0.21l-0.63,-0.208l-0.631,-0.206l-0.631,-0.204l-0.632,-0.202l-0.633,-0.2l-0.635,-0.199l-0.635,-0.197l-0.635,-0.194l-0.636,-0.193l-0.638,-0.191l-0.638,-0.189l-0.639,-0.187l-0.64,-0.185l-0.64,-0.183l-0.642,-0.181l-0.642,-0.18l-0.643,-0.177l-0.644,-0.175l-0.644,-0.174l-0.646,-0.172l-0.646,-0.169l-0.647,-0.168l-0.648,-0.166l-0.648,-0.163l-0.65,-0.162l-0.65,-0.16l-0.651,-0.158l-0.651,-0.156l-0.652,-0.154l-0.654,-0.152l-0.654,-0.15l-0.654,-0.148l-0.656,-0.146l-0.656,-0.144l-0.657,-0.142l-0.658,-0.14l-0.658,-0.139l-0.659,-0.136l-0.66,-0.134l-0.661,-0.132l-0.661,-0.13l-0.663,-0.128l-0.662,-0.126l-0.664,-0.124l-0.664,-0.122l-0.665,-0.12l-0.666,-0.118l-0.667,-0.116l-0.667,-0.114l-0.668,-0.112l-0.668,-0.11l-0.67,-0.108l-0.67,-0.105l-0.67,-0.104l-0.672,-0.102l-0.672,-0.099l-0.673,-0.098l-0.673,-0.095l-0.675,-0.094l-0.674,-0.091l-0.676,-0.089l-0.676,-0.087l-0.677,-0.085l-0.678,-0.083l-0.678,-0.081l-0.679,-0.079l-0.68,-0.077l-0.68,-0.074l-0.681,-0.073l-0.681,-0.07l-0.683,-0.069l-0.683,-0.066l-0.683,-0.064l-0.684,-0.062l-0.685,-0.06l-0.686,-0.057l-0.686,-0.056l-0.687,-0.053l-0.687,-0.051l-0.688,-0.05l-0.689,-0.047l-0.689,-0.044l-0.69,-0.043l-0.691,-0.041l-0.691,-0.038l-0.692,-0.036l-0.692,-0.034l-0.693,-0.032l-0.694,-0.03l-0.694,-0.027l-0.695,-0.026l-0.696,-0.023l-0.696,-0.021l-0.697,-0.019l-0.697,-0.016l-0.698,-0.015l-0.698,-0.012l-0.7,-0.01l-0.699,-0.008l-0.701,-0.005l-0.701,-0.004l-0.701,-0.001l-0.701,0.001l-0.701,0.004l-0.701,0.005l-0.699,0.008l-0.7,0.01l-0.698,0.012l-0.698,0.015l-0.697,0.016l-0.697,0.019l-0.696,0.021l-0.696,0.023l-0.695,0.026l-0.694,0.027l-0.694,0.03l-0.693,0.032l-0.692,0.034l-0.692,0.036l-0.691,0.038l-0.691,0.041l-0.69,0.043l-0.689,0.044l-0.689,0.047l-0.688,0.05l-0.687,0.051l-0.687,0.053l-0.686,0.056l-0.686,0.057l-0.685,0.06l-0.684,0.062l-0.683,0.064l-0.683,0.066l-0.683,0.069l-0.681,0.07l-0.681,0.073l-0.68,0.074l-0.68,0.077l-0.679,0.079l-0.678,0.081l-0.678,0.083l-0.677,0.085l-0.676,0.087l-0.676,0.089l-0.675,0.091l-0.674,0.094l-0.673,0.095l-0.673,0.098l-0.672,0.099l-0.672,0.102l-0.67,0.104l-0.67,0.105l-0.67,0.108l-0.668,0.11l-0.668,0.112l-0.667,0.114l-0.667,0.116l-0.666,0.118l-0.665,0.12l-0.664,0.122l-0.664,0.124l-0.662,0.126l-0.663,0.128l-0.661,0.13l-0.661,0.132l-0.66,0.134l-0.659,0.136l-0.658,0.139l-0.658,0.14l-0.657,0.142l-0.656,0.144l-0.656,0.146l-0.654,0.148l-0.654,0.15l-0.653,0.152l-0.653,0.154l-0.652,0.156l-0.65,0.158l-0.65,0.16l-0.65,0.162l-0.648,0.163l-0.648,0.166l-0.647,0.168l-0.646,0.169l-0.646,0.172l-0.644,0.174l-0.644,0.175l-0.643,0.177l-0.642,0.18l-0.642,0.181l-0.64,0.183l-0.64,0.185l-0.639,0.187l-0.638,0.189l-0.637,0.191l-0.637,0.193l-0.636,0.195l-0.634,0.196l-0.634,0.199l-0.634,0.2l-0.632,0.202l-0.632,0.204l-0.63,0.206l-0.63,0.208l-0.629,0.21l-0.628,0.212l-0.627,0.213l-0.627,0.215l-0.625,0.218l-0.625,0.219l-0.624,0.221l-0.623,0.223l-0.622,0.224l-0.621,0.227l-0.62,0.228l-0.62,0.231l-0.618,0.232l-0.618,0.234l-0.616,0.235l-0.616,0.238l-0.615,0.239l-0.614,0.242l-0.613,0.243l-0.613,0.244l-0.611,0.247l-0.61,0.249l-0.61,0.25l-0.609,0.252l-0.607,0.254l-0.607,0.256l-0.606,0.257l-0.605,0.259l-0.604,0.262l-0.603,0.262l-0.602,0.265l-0.601,0.267l-0.6,0.268l-0.599,0.27l-0.598,0.272l-0.598,0.273l-0.596,0.275l-0.595,0.277l-0.595,0.279l-0.593,0.281l-0.592,0.282l-0.592,0.284l-0.59,0.286l-0.59,0.288l-0.589,0.289l-0.587,0.291l-0.586,0.293l-0.586,0.294l-0.585,0.296l-0.583,0.298l-0.583,0.3l-0.581,0.301l-0.58,0.303l-0.58,0.305l-0.578,0.307l-0.578,0.308l-0.576,0.31l-0.576,0.311l-0.574,0.313l-0.573,0.315l-0.572,0.317l-0.572,0.319l-0.57,0.319l-0.569,0.322l-0.568,0.324l-0.567,0.325l-0.566,0.326l-0.565,0.329l-0.563,0.33l-0.563,0.331l-0.562,0.334l-0.56,0.335l-0.56,0.336l-0.558,0.339l-0.557,0.34l-0.557,0.341l-0.555,0.343l-0.554,0.345l-0.553,0.347l-0.551,0.348l-0.551,0.349l-0.55,0.352l-0.548,0.353l-0.547,0.354l-0.547,0.356l-0.545,0.358l-0.544,0.359l-0.543,0.361l-0.541,0.363l-0.541,0.364l-0.539,0.366l-0.538,0.367l-0.537,0.369l-0.536,0.37l-0.535,0.372l-0.534,0.374l-0.532,0.375l-0.532,0.377l-0.53,0.378l-0.529,0.38l-0.527,0.381l-0.527,0.383l-0.525,0.385l-0.524,0.386l-0.524,0.388l-0.521,0.389l-0.521,0.39l-0.519,0.393l-0.519,0.393l-0.517,0.395l-0.515,0.397l-0.515,0.398l-0.513,0.4l-0.512,0.402l-0.511,0.402l-0.51,0.405l-0.508,0.405l-0.507,0.408l-0.506,0.409l-0.505,0.41l-0.503,0.412l-0.503,0.413l-0.501,0.415l-0.499,0.416l-0.499,0.418l-0.497,0.419l-0.496,0.42l-0.494,0.422l-0.494,0.424l-0.492,0.425l-0.49,0.426l-0.49,0.428l-0.488,0.43l-0.487,0.43l-0.485,0.433l-0.485,0.433l-0.483,0.435l-0.481,0.437l-0.481,0.438l-0.479,0.439l-0.477,0.441l-0.477,0.442l-0.475,0.444l-0.474,0.445l-0.472,0.446l-0.471,0.448l-0.47,0.449l-0.468,0.451l-0.467,0.452l-0.466,0.453l-0.464,0.455l-0.463,0.456l-0.462,0.457l-0.46,0.459l-0.459,0.46l-0.457,0.462l-0.457,0.463l-0.454,0.464l-0.454,0.466l-0.452,0.467l-0.45,0.468l-0.449,0.47l-0.448,0.471l-0.447,0.473l-0.445,0.473l-0.443,0.475l-0.442,0.477l-0.441,0.477l-0.439,0.48l-0.438,0.48l-0.437,0.482l-0.435,0.482l-0.434,0.485l-0.432,0.485l-0.431,0.487l-0.429,0.488l-0.428,0.49l-0.426,0.491l-0.425,0.492l-0.424,0.493l-0.422,0.495l-0.42,0.495l-0.42,0.498l-0.417,0.498l-0.417,0.5l-0.414,0.501l-0.414,0.502l-0.411,0.503l-0.411,0.505l-0.408,0.506l-0.408,0.507l-0.406,0.508l-0.404,0.51l-0.403,0.511l-0.401,0.512l-0.4,0.513l-0.398,0.515l-0.397,0.516l-0.395,0.517l-0.394,0.518l-0.392,0.519l-0.391,0.521l-0.389,0.522l-0.387,0.523l-0.386,0.524l-0.385,0.525l-0.383,0.527l-0.381,0.528l-0.38,0.529l-0.378,0.53l-0.377,0.531l-0.375,0.532l-0.374,0.534l-0.372,0.535l-0.37,0.536l-0.369,0.537l-0.367,0.538l-0.366,0.539l-0.364,0.541l-0.363,0.542l-0.361,0.542l-0.359,0.544l-0.358,0.546l-0.356,0.546l-0.355,0.547l-0.352,0.549l-0.352,0.549l-0.35,0.551l-0.348,0.552l-0.346,0.553l-0.345,0.554l-0.343,0.555l-0.342,0.556l-0.339,0.557l-0.339,0.559l-0.336,0.559l-0.335,0.56l-0.334,0.562l-0.332,0.563l-0.329,0.564l-0.329,0.564l-0.327,0.566l-0.325,0.567l-0.323,0.568l-0.322,0.57l-0.32,0.57l-0.318,0.571l-0.317,0.572l-0.315,0.573l-0.313,0.575l-0.312,0.575l-0.309,0.576l-0.309,0.578l-0.306,0.578l-0.305,0.58l-0.303,0.58l-0.301,0.582l-0.3,0.582l-0.298,0.584l-0.296,0.584l-0.295,0.586l-0.292,0.586l-0.291,0.588l-0.29,0.588l-0.287,0.59l-0.286,0.59l-0.284,0.592l-0.282,0.592l-0.281,0.594l-0.279,0.594l-0.277,0.595l-0.275,0.597l-0.274,0.597l-0.271,0.598l-0.27,0.599l-0.269,0.601l-0.266,0.601l-0.265,0.602l-0.263,0.603l-0.261,0.604l-0.259,0.604l-0.257,0.606l-0.256,0.607l-0.254,0.608l-0.252,0.608l-0.251,0.61l-0.248,0.61l-0.247,0.611l-0.245,0.613l-0.243,0.613l-0.241,0.614l-0.239,0.615l-0.238,0.616l-0.236,0.616l-0.233,0.618l-0.233,0.619l-0.23,0.619l-0.228,0.62l-0.227,0.622l-0.224,0.622l-0.223,0.623l-0.221,0.623l-0.219,0.625l-0.218,0.626l-0.215,0.626l-0.214,0.627l-0.211,0.628l-0.21,0.629l-0.208,0.63l-0.206,0.631l-0.204,0.631l-0.202,0.633l-0.201,0.633l-0.198,0.634l-0.197,0.635l-0.194,0.635l-0.193,0.637l-0.191,0.637l-0.189,0.638l-0.187,0.639l-0.185,0.64l-0.183,0.641l-0.181,0.641l-0.18,0.642l-0.177,0.643l-0.176,0.644l-0.173,0.645l-0.172,0.645l-0.169,0.646l-0.168,0.647l-0.166,0.648l-0.164,0.648l-0.161,0.65l-0.16,0.65l-0.158,0.651l-0.156,0.651l-0.154,0.653l-0.152,0.653l-0.15,0.654l-0.148,0.654l-0.146,0.656l-0.144,0.656l-0.143,0.657l-0.14,0.658l-0.138,0.658l-0.136,0.66l-0.134,0.659l-0.132,0.661l-0.13,0.661l-0.128,0.663l-0.126,0.663l-0.124,0.663l-0.122,0.664l-0.12,0.666l-0.118,0.665l-0.116,0.667l-0.114,0.667l-0.112,0.668l-0.11,0.669l-0.108,0.669l-0.106,0.67l-0.103,0.671l-0.102,0.671l-0.099,0.672l-0.098,0.673l-0.095,0.673l-0.094,0.675l-0.091,0.675l-0.089,0.675l-0.087,0.676l-0.086,0.677l-0.083,0.678l-0.08,0.678l-0.079,0.679l-0.077,0.68l-0.075,0.68l-0.072,0.681l-0.07,0.682l-0.069,0.682l-0.066,0.683l-0.064,0.683l-0.062,0.685l-0.06,0.684l-0.057,0.686l-0.056,0.686l-0.053,0.687l-0.052,0.687l-0.049,0.688l-0.047,0.689l-0.045,0.689l-0.042,0.69l-0.041,0.691l-0.038,0.691l-0.036,0.692l-0.035,0.692l-0.031,0.694l-0.03,0.693l-0.028,0.695l-0.025,0.694l-0.023,0.696l-0.021,0.696l-0.019,0.697l-0.016,0.697l-0.015,0.698l-0.012,0.699l-0.01,0.699l-0.008,0.699l-0.005,0.701l-0.004,0.701l-0.001,0.701l0.001,0.702l0.004,0.701l0.005,0.7l0.008,0.7l0.01,0.699l0.012,0.698l0.015,0.698l0.016,0.697l0.019,0.697l0.021,0.696l0.023,0.696l0.025,0.695l0.028,0.694l0.03,0.694l0.031,0.693l0.035,0.692l0.036,0.692l0.038,0.691l0.041,0.691l0.042,0.69l0.045,0.689l0.047,0.689l0.049,0.688l0.052,0.688l0.053,0.686l0.056,0.686l0.057,0.686l0.06,0.685l0.062,0.684l0.064,0.684l0.066,0.683l0.069,0.682l0.07,0.681l0.072,0.681l0.075,0.681l0.077,0.679l0.079,0.679l0.08,0.679l0.083,0.677l0.086,0.677l0.087,0.676l0.089,0.676l0.091,0.675l0.094,0.674l0.095,0.673l0.098,0.673l0.099,0.672l0.102,0.672l0.103,0.671l0.106,0.669l0.108,0.67l0.11,0.669l0.112,0.667l0.114,0.668l0.116,0.666l0.118,0.666l0.12,0.665l0.122,0.664l0.124,0.664l0.126,0.663l0.128,0.662l0.13,0.661l0.132,0.661l0.134,0.66l0.136,0.659l0.138,0.659l0.14,0.657l0.143,0.657l0.144,0.656l0.146,0.656l0.148,0.655l0.15,0.653l0.152,0.654l0.154,0.652l0.156,0.652l0.158,0.651l0.16,0.65l0.161,0.649l0.164,0.649l0.166,0.647l0.168,0.647l0.169,0.646l0.172,0.646l0.173,0.644l0.176,0.644l0.177,0.643l0.18,0.642l0.181,0.642l0.183,0.64l0.185,0.64l0.187,0.639l0.189,0.638l0.191,0.638l0.193,0.636l0.194,0.636l0.197,0.634l0.198,0.635l0.201,0.633l0.202,0.632l0.204,0.631l0.206,0.631l0.208,0.63l0.21,0.629l0.211,0.628l0.214,0.627l0.215,0.627l0.218,0.625l0.219,0.625l0.221,0.624l0.222,0.623l0.225,0.622l0.227,0.621l0.228,0.62l0.23,0.62l0.232,0.618l0.234,0.618l0.236,0.617l0.238,0.615l0.239,0.616l0.241,0.613l0.243,0.614l0.245,0.612l0.247,0.611l0.248,0.611l0.251,0.609l0.252,0.609l0.254,0.607l0.255,0.607l0.258,0.606l0.259,0.605l0.261,0.604l0.263,0.603l0.265,0.602l0.266,0.601l0.269,0.6l0.27,0.599l0.271,0.599l0.274,0.597l0.275,0.596l0.277,0.595l0.279,0.595l0.281,0.593l0.282,0.593l0.284,0.591l0.286,0.591l0.287,0.589l0.29,0.589l0.291,0.587l0.292,0.587l0.295,0.585l0.296,0.585l0.298,0.583l0.3,0.583l0.301,0.581l0.303,0.58l0.305,0.58l0.306,0.579l0.309,0.577l0.309,0.576l0.312,0.576l0.313,0.574l0.315,0.573l0.317,0.572l0.318,0.572l0.32,0.57l0.322,0.569l0.323,0.568l0.326,0.567l0.326,0.566l0.328,0.565l0.331,0.564l0.331,0.562l0.334,0.562l0.335,0.56l0.336,0.56l0.338,0.558l0.34,0.558l0.342,0.556l0.343,0.555l0.345,0.554l0.346,0.553l0.348,0.552l0.35,0.55l0.351,0.55l0.353,0.548l0.355,0.548l0.356,0.546l0.358,0.545l0.359,0.544l0.361,0.543l0.363,0.541l0.364,0.541l0.366,0.539l0.367,0.539l0.369,0.537l0.37,0.536l0.372,0.534l0.374,0.534l0.375,0.532l0.377,0.532l0.378,0.53l0.38,0.529l0.381,0.527l0.383,0.527l0.385,0.525l0.386,0.525l0.387,0.523l0.389,0.521l0.391,0.521l0.392,0.519l0.394,0.519l0.395,0.517l0.397,0.515l0.398,0.515l0.4,0.514l0.402,0.512l0.402,0.51l0.405,0.51l0.405,0.508l0.408,0.507l0.408,0.506l0.411,0.505l0.411,0.504l0.414,0.502l0.415,0.501l0.416,0.499l0.417,0.499l0.42,0.497l0.42,0.496l0.422,0.494l0.424,0.494l0.425,0.492l0.426,0.49l0.428,0.49l0.43,0.488l0.43,0.487l0.432,0.485l0.434,0.485l0.435,0.483l0.437,0.482l0.437,0.48l0.44,0.479l0.441,0.478l0.442,0.476l0.443,0.475l0.446,0.474l0.446,0.472l0.448,0.471l0.449,0.47l0.451,0.468l0.451,0.467l0.454,0.466l0.454,0.464l0.456,0.463l0.458,0.462l0.459,0.46l0.46,0.459l0.462,0.458l0.463,0.456l0.464,0.454l0.466,0.454l0.467,0.452l0.468,0.45l0.47,0.449l0.471,0.448l0.473,0.447l0.474,0.445l0.474,0.443l0.477,0.442l0.477,0.441l0.479,0.44l0.481,0.437l0.481,0.437l0.483,0.435l0.485,0.434l0.485,0.432l0.487,0.431l0.488,0.429l0.49,0.428l0.49,0.426l0.492,0.425l0.494,0.424l0.494,0.422l0.496,0.421l0.498,0.419l0.498,0.417l0.499,0.417l0.501,0.415l0.503,0.413l0.503,0.411l0.505,0.411l0.506,0.409l0.507,0.407l0.508,0.406l0.51,0.404l0.511,0.403l0.512,0.401l0.513,0.4l0.515,0.398l0.516,0.397l0.516,0.395l0.519,0.394l0.519,0.392l0.52,0.391l0.523,0.389l0.523,0.388l0.524,0.386l0.525,0.384l0.527,0.383l0.528,0.381l0.528,0.38l0.53,0.378l0.532,0.377l0.532,0.375l0.534,0.374l0.534,0.372l0.536,0.37l0.538,0.37l0.538,0.367l0.539,0.365l0.541,0.365l0.542,0.362l0.542,0.361l0.544,0.359l0.545,0.358l0.547,0.356l0.547,0.355l0.549,0.353l0.549,0.351l0.551,0.35l0.552,0.348l0.552,0.346l0.554,0.345l0.556,0.343l0.555,0.342l0.558,0.34l0.558,0.338l0.56,0.337l0.56,0.335l0.562,0.333l0.563,0.332l0.564,0.33l0.564,0.328l0.566,0.327l0.567,0.325l0.568,0.323l0.569,0.322l0.57,0.32l0.572,0.318l0.572,0.317l0.573,0.315l0.574,0.313l0.576,0.312l0.577,0.31l0.576,0.308l0.579,0.306l0.58,0.305l0.58,0.303l0.582,0.302l0.582,0.299l0.583,0.298l0.585,0.296l0.586,0.295l0.587,0.293l0.586,0.29l0.589,0.29l0.59,0.288l0.59,0.285l0.592,0.284l0.592,0.283l0.593,0.28l0.595,0.279l0.595,0.277l0.597,0.275l0.597,0.274l0.598,0.272l0.599,0.27l0.6,0.268l0.602,0.266l0.602,0.265l0.603,0.263l0.603,0.261l0.605,0.259l0.606,0.258l0.607,0.255l0.607,0.254l0.609,0.252l0.61,0.251l0.61,0.248l0.611,0.247l0.613,0.245l0.613,0.243l0.614,0.241l0.615,0.239l0.615,0.238l0.617,0.236l0.618,0.234l0.618,0.232l0.62,0.23l0.62,0.228l0.621,0.227l0.623,0.225l0.623,0.223l0.623,0.22l0.624,0.219l0.627,0.218l0.626,0.215l0.627,0.214l0.628,0.212l0.629,0.209l0.63,0.208l0.63,0.206l0.632,0.204l0.633,0.203l0.633,0.2l0.634,0.198l0.634,0.197l0.636,0.195l0.637,0.192l0.637,0.191l0.638,0.189l0.639,0.187l0.639,0.185l0.641,0.183l0.642,0.182l0.642,0.179l0.643,0.177l0.644,0.176l0.644,0.173l0.646,0.172l0.646,0.17l0.647,0.167l0.648,0.166l0.648,0.164l0.65,0.162l0.65,0.16l0.65,0.157l0.652,0.156l0.653,0.154l0.653,0.152l0.654,0.15l0.654,0.148l0.656,0.147l0.656,0.144l0.657,0.142l0.658,0.14l0.658,0.138l0.659,0.136l0.66,0.134l0.661,0.132l0.661,0.13l0.663,0.129l0.663,0.126l0.663,0.124l0.664,0.122l0.666,0.12l0.665,0.118l0.666,0.116l0.668,0.113l0.668,0.112l0.668,0.11l0.67,0.108l0.669,0.106l0.672,0.103l0.671,0.102l0.672,0.1l0.673,0.097l0.673,0.096l0.674,0.093l0.675,0.091l0.676,0.09l0.676,0.087l0.677,0.085l0.678,0.083l0.678,0.081l0.679,0.078l0.679,0.077l0.681,0.075l0.681,0.072l0.681,0.071l0.683,0.068l0.683,0.066l0.683,0.064l0.684,0.062l0.686,0.06l0.684,0.058l0.687,0.055l0.687,0.054l0.687,0.051l0.688,0.049l0.689,0.047l0.689,0.045l0.69,0.043l0.691,0.04l0.691,0.038l0.692,0.037l0.692,0.034l0.694,0.032l0.693,0.029l0.694,0.028l0.695,0.025l0.696,0.023l0.696,0.021l0.697,0.019l0.697,0.017l0.698,0.014l0.698,0.012l0.699,0.01l0.7,0.008l0.701,0.006l0.7,0.003l0.702,0.001Z" style="fill:#000;"/><path d="M390.343,388.451c-34.228,34.713 -81.791,56.243 -134.343,56.243c-52.697,0 -100.377,-21.649 -134.626,-56.53c17.712,-7.134 35.982,-12.942 53.94,-19.007c8.153,-2.845 16.307,-5.617 23.555,-10.002c6.596,-3.914 9.042,-11.742 10.582,-18.808c0.453,-2.573 0.779,-5.164 0.996,-7.737c-25.675,-32.761 -42.943,-89.149 -42.943,-135.1c0,-69.253 38.939,-88.532 87.318,-88.532c48.379,0 87.518,19.279 87.518,88.532c0,44.357 -15.946,98.498 -40.226,131.657c0.181,3.769 0.544,7.592 1.269,11.307c1.63,7.03 3.986,15.039 10.69,18.953c7.357,4.384 15.565,7.483 23.628,10.291c17.547,5.896 35.367,11.716 52.642,18.733Z" style="fill:#000;fill-opacity:0.8;"/></g></svg>