<svg xmlns="http://www.w3.org/2000/svg" width="32" height="32" viewBox="0 0 32 32"><path d="M31.997 26.705s-.018-1.947-4.005-3.72c-1.934-.858-4.8-3.07-9.047-3.832 1.085-1.162 1.907-2.98 2.75-5.133.493-1.248.408-2.31.408-3.825 0-1.12.21-2.914-.068-3.9-.938-3.336-3.302-4.256-6.076-4.256s-5.146.923-6.08 4.264c-.274.983-.065 2.775-.065 3.894 0 1.517-.082 2.58.412 3.833.85 2.17 1.662 3.982 2.744 5.14-4.216.768-7.057 2.968-8.982 3.824-3.974 1.77-3.992 3.71-3.992 3.71V30l14.142-.002.76-3.627-1.56-2.097s1.637-1.752 2.645-1.752c1.013 0 2.637 1.745 2.637 1.747l-1.55 2.104.755 3.628h14.172v-3.293z"/></svg>