<svg xmlns="http://www.w3.org/2000/svg" width="30" height="32" viewBox="0 0 30 32"><path d="M15.2 3.2C7.69 3.2 1.6 9.29 1.6 16.8s6.09 13.6 13.6 13.6 13.6-6.09 13.6-13.6S22.71 3.2 15.2 3.2zm0 1.6c6.627 0 12 5.373 12 12 0 3.083-1.173 5.885-3.083 8.01-1.4-.74-2.93-1.232-4.424-1.734-.445-.155-.898-.326-1.304-.568-.37-.216-.5-.658-.59-1.046-.04-.205-.06-.416-.07-.624 1.34-1.83 2.22-4.818 2.22-7.266 0-3.822-2.16-4.886-4.83-4.886S10.3 9.75 10.3 13.572c0 2.536.953 5.648 2.37 7.456-.012.142-.03.285-.055.427-.085.39-.22.822-.584 1.038-.4.242-.85.395-1.3.552-1.51.51-3.06.987-4.48 1.74-1.9-2.127-3.06-4.917-3.06-7.985 0-6.627 5.377-12 12-12z"/></svg>