<svg xmlns="http://www.w3.org/2000/svg" width="30" height="32" viewBox="0 0 30 32"><path d="M15.2 3.2C7.69 3.2 1.6 9.29 1.6 16.8s6.09 13.6 13.6 13.6 13.6-6.09 13.6-13.6S22.71 3.2 15.2 3.2zm0 1.6c6.627 0 12 5.373 12 12 0 3.083-1.173 5.885-3.083 8.01-1.4-.74-2.93-1.232-4.424-1.734-.445-.155-.898-.326-1.304-.568-.364-.216-.5-.658-.585-1.046-.037-.205-.06-.416-.072-.624 1.338-1.83 2.226-4.818 2.226-7.266 0-3.822-2.16-4.886-4.825-4.886S10.31 9.75 10.31 13.572c0 2.536.953 5.648 2.37 7.456-.012.142-.03.285-.055.427-.085.39-.22.822-.584 1.038-.405.242-.858.395-1.303.552-1.515.51-3.066.987-4.482 1.74C4.362 22.658 3.2 19.868 3.2 16.8c0-6.627 5.374-12 12-12z"/></svg>