<svg xmlns="http://www.w3.org/2000/svg" width="32" height="32" viewBox="0 0 32 32"><path d="M31.997 26.705s-.018-1.947-4.005-3.72c-1.934-.858-4.8-3.07-9.047-3.832 1.085-1.162 1.907-2.98 2.75-5.133.493-1.248.408-2.31.408-3.825 0-1.12.21-2.914-.068-3.9-.938-3.336-3.302-4.256-6.076-4.256s-5.15.92-6.08 4.26c-.28.98-.07 2.77-.07 3.89 0 1.51-.08 2.58.41 3.83.85 2.17 1.66 3.98 2.74 5.14-4.22.76-7.06 2.96-8.988 3.82-3.97 1.77-3.99 3.71-3.99 3.71V30l14.142-.002.76-3.627-1.56-2.09s1.636-1.75 2.644-1.75c1.014 0 2.64 1.75 2.64 1.75l-1.55 2.108.752 3.628h14.17v-3.29z"/></svg>