<svg xmlns="http://www.w3.org/2000/svg" width="34" height="32" viewBox="0 0 34 32"><path d="M1.318 16.13c0-4.36 1.79-8.3 4.668-11.134l-.774-.776C2.13 7.257.214 11.472.214 16.13c0 4.627 1.888 8.82 4.934 11.85l.774-.775C3.08 24.375 1.318 20.46 1.318 16.13zM28.772 4.307l-.775.776c2.827 2.827 4.575 6.733 4.575 11.048 0 4.29-1.726 8.17-4.516 10.99l.774.78c2.994-3.02 4.846-7.18 4.846-11.76 0-4.61-1.875-8.79-4.904-11.82z"/><path d="M5.223 16.13c0 3.243 1.325 6.183 3.462 8.307l.776-.777c-1.93-1.923-3.13-4.587-3.13-7.53 0-2.975 1.23-5.66 3.2-7.588l-.77-.777c-2.17 2.13-3.52 5.09-3.52 8.365zm22.34 0c0 2.898-1.163 5.522-3.046 7.438l.776.777c2.083-2.118 3.374-5.017 3.374-8.215 0-3.23-1.313-6.157-3.432-8.28l-.776.778c1.91 1.92 3.1 4.573 3.1 7.502zm-10.46-6.2c-3.352 0-6.07 2.718-6.07 6.07s2.718 6.07 6.07 6.07c3.352 0 6.07-2.718 6.07-6.07s-2.718-6.07-6.07-6.07zm0 2.208c2.133 0 3.862 1.73 3.862 3.862s-1.73 3.862-3.862 3.862c-2.133 0-3.862-1.73-3.862-3.862s1.73-3.862 3.87-3.862z"/></svg>