<svg xmlns="http://www.w3.org/2000/svg" width="34" height="32" viewBox="0 0 34 32"><path d="M1.318 16.13c0-4.36 1.79-8.3 4.668-11.134l-.774-.776C2.13 7.257.214 11.472.214 16.13c0 4.627 1.888 8.82 4.934 11.85l.774-.775C3.08 24.375 1.318 20.46 1.318 16.13zM28.772 4.307l-.775.776c2.827 2.827 4.575 6.733 4.575 11.048 0 4.285-1.726 8.162-4.516 10.985l.774.776c2.994-3.024 4.846-7.178 4.846-11.758 0-4.612-1.875-8.794-4.904-11.823z"/><path d="M5.223 16.13c0 3.243 1.325 6.183 3.462 8.307l.776-.777c-1.933-1.923-3.133-4.587-3.133-7.53 0-2.975 1.227-5.66 3.198-7.588l-.776-.777c-2.174 2.13-3.527 5.09-3.527 8.365zM27.564 16.13c0 2.898-1.164 5.522-3.047 7.438l.776.777c2.083-2.118 3.374-5.017 3.374-8.215 0-3.23-1.313-6.157-3.432-8.28l-.776.778c1.917 1.92 3.103 4.573 3.103 7.502zM17.103 9.93c-3.352 0-6.07 2.718-6.07 6.07s2.718 6.07 6.07 6.07c3.352 0 6.07-2.718 6.07-6.07s-2.718-6.07-6.07-6.07zm0 2.208c2.133 0 3.862 1.73 3.862 3.862s-1.73 3.862-3.862 3.862c-2.133 0-3.862-1.73-3.862-3.862s1.73-3.862 3.863-3.862z"/></svg>