<?xml version="1.0" standalone="no"?><!DOCTYPE svg PUBLIC "-//W3C//DTD SVG 1.1//EN" "http://www.w3.org/Graphics/SVG/1.1/DTD/svg11.dtd"><svg width="100%" height="100%" viewBox="0 0 512 512" version="1.1" xmlns="http://www.w3.org/2000/svg" xmlns:xlink="http://www.w3.org/1999/xlink" xml:space="preserve" style="fill-rule:evenodd;clip-rule:evenodd;stroke-linejoin:round;stroke-miterlimit:1.41421;"><path d="M24.85,256.444c0,-64.492 26.477,-122.771 69.048,-164.691l-11.449,-11.478c-45.588,44.922 -73.929,107.269 -73.929,176.169c0,68.441 27.927,130.462 72.982,175.281l11.449,-11.463c-42.038,-41.861 -68.101,-99.77 -68.101,-163.818ZM430.941,81.562l-11.463,11.478c41.816,41.816 67.672,99.592 67.672,163.419c0,63.456 -25.531,120.848 -66.8,162.56l11.449,11.538c44.287,-44.671 71.681,-106.205 71.681,-173.951c0,-68.189 -27.735,-130.018 -72.539,-174.837l0,-0.207Z" style="fill:#000;fill-rule:nonzero;"/><path d="M82.612,256.444c0,47.969 19.599,91.457 51.209,122.874l11.478,-11.493c-28.548,-28.444 -46.298,-67.849 -46.298,-111.381c0,-44.006 18.194,-83.721 47.333,-112.24l-11.389,-11.493c-32.098,31.507 -52.067,75.29 -52.067,123.733l-0.266,0ZM413.058,256.444c0,42.866 -17.203,81.679 -45.055,110.02l11.478,11.493c30.811,-31.328 49.907,-74.209 49.907,-121.513c0,-47.777 -19.421,-91.073 -50.765,-122.475l-11.478,11.508c28.252,28.4 45.854,67.642 45.854,110.967l0.059,0ZM258.337,164.735c-49.582,0 -89.785,40.204 -89.785,89.786c0,49.582 40.203,89.785 89.785,89.785c49.582,0 89.786,-40.203 89.786,-89.785c0,-49.582 -40.204,-89.786 -89.786,-89.786ZM258.337,197.395c31.551,0 57.126,25.59 57.126,57.126c0,31.536 -25.59,57.125 -57.126,57.125c-31.551,0 -57.125,-25.589 -57.125,-57.125c0,-31.536 25.589,-57.126 57.243,-57.126l-0.118,0Z" style="fill:#000;fill-rule:nonzero;"/></svg>