<svg xmlns="http://www.w3.org/2000/svg" width="32" height="32" viewBox="0 0 32 32"><path d="M24 2.667q2.208 0 3.77 1.563T29.335 8t-1.563 3.772T24 13.335q-1.177 0-2.224-.484t-1.797-1.348l-6.76 3.385q.114.552.114 1.115t-.115 1.115l6.76 3.385q.75-.865 1.796-1.35T24 18.67q2.208 0 3.77 1.562t1.564 3.77-1.563 3.772T24 29.337t-3.77-1.563-1.564-3.77q0-.564.115-1.116l-6.76-3.385q-.75.865-1.796 1.35T8 21.335q-2.208 0-3.77-1.563t-1.564-3.77T4.23 12.23 8 10.67q1.177 0 2.224.484t1.797 1.35l6.76-3.386q-.114-.552-.114-1.115 0-2.207 1.563-3.77T24 2.667zM8 13.333q-1.104 0-1.885.78T5.335 16t.78 1.884 1.885.78 1.885-.78.78-1.885-.78-1.886T8 13.334zm16 8q-1.104 0-1.885.78T21.335 24t.78 1.884 1.885.78 1.885-.78.78-1.885-.78-1.886-1.885-.78zm0-16q-1.104 0-1.885.78T21.335 8t.78 1.884 1.885.78 1.885-.78.78-1.885-.78-1.886T24 5.334z"/></svg>