<svg xmlns="http://www.w3.org/2000/svg" width="32" height="32" viewBox="0 0 32 32"><path d="M24 2.667q2.208 0 3.77 1.563T29.335 8t-1.563 3.772T24 13.335q-1.177 0-2.224-.484t-1.796-1.34l-6.76 3.39q.11.55.11 1.12t-.117 1.116l6.76 3.383q.75-.866 1.796-1.35t2.23-.49q2.2 0 3.77 1.562t1.56 3.77-1.567 3.77-3.77 1.56-3.77-1.56-1.564-3.77q0-.565.115-1.117l-6.76-3.385q-.75.865-1.79 1.35t-2.23.48q-2.208 0-3.77-1.562t-1.564-3.77 1.57-3.778T8 10.67q1.177 0 2.224.484t1.797 1.35l6.76-3.386q-.11-.552-.11-1.115 0-2.207 1.57-3.77T24 2.667zM8 13.333q-1.104 0-1.885.78T5.335 16t.78 1.884 1.885.78 1.885-.78.78-1.885-.78-1.89T8 13.33zm16 8q-1.104 0-1.885.78T21.335 24t.78 1.884 1.885.78 1.885-.78.78-1.885-.78-1.89T24 21.33zm0-16q-1.104 0-1.885.78T21.335 8t.78 1.884 1.885.78 1.885-.78.78-1.885-.78-1.89T24 5.33z"/></svg>