<svg xmlns="http://www.w3.org/2000/svg" width="29" height="32" viewBox="0 0 29 32"><path d="M16.533 10.06l-4.105 6.197c-.114.172-.114.395 0 .566l4.088 6.146c.1.15.265.23.434.23.098 0 .197-.03.285-.09.24-.16.306-.48.148-.72l-3.9-5.867 3.92-5.915c.156-.24.09-.558-.15-.714s-.56-.09-.72.146zM1.983 4.632c-.257 0-.467.212-.467.474V9.21c0 .263.21.475.468.475H6.1c.26 0 .47-.212.47-.474s-.21-.47-.47-.47H3.15c2.427-3.7 6.557-6.12 11.245-6.12 7.385 0 13.393 6 13.393 13.38S21.78 29.39 14.395 29.39c-7.23 0-13.138-5.76-13.38-12.93 0 0 0-.504-.494-.504S0 16.46 0 16.46C.246 24.187 6.606 30.4 14.396 30.4 22.34 30.4 28.8 23.94 28.8 16S22.34 1.6 14.396 1.6c-4.906 0-9.34 2.607-11.943 6.36V5.106c0-.262-.21-.474-.468-.474z"/></svg>