<svg xmlns="http://www.w3.org/2000/svg" width="29" height="32" viewBox="0 0 29 32"><path d="M16.533 10.06l-4.105 6.197c-.114.172-.114.395 0 .566l4.088 6.146c.1.15.265.23.434.23.098 0 .197-.027.285-.085.24-.156.306-.475.148-.713l-3.9-5.863 3.92-5.915c.156-.238.09-.557-.15-.713s-.56-.09-.72.147zM1.983 4.632c-.257 0-.467.212-.467.474V9.21c0 .263.21.475.468.475H6.1c.26 0 .47-.212.47-.474s-.21-.473-.47-.473H3.15c2.427-3.702 6.557-6.124 11.245-6.124C21.78 2.613 27.788 8.62 27.788 16S21.78 29.39 14.395 29.39c-7.23 0-13.138-5.76-13.38-12.93 0 0 0-.504-.494-.504S0 16.46 0 16.46C.246 24.187 6.606 30.4 14.396 30.4 22.34 30.4 28.8 23.94 28.8 16S22.34 1.6 14.396 1.6c-4.906 0-9.34 2.607-11.943 6.36V5.106c0-.262-.21-.474-.468-.474z"/></svg>