<svg xmlns="http://www.w3.org/2000/svg" width="32" height="32" viewBox="0 0 32 32"><path d="M23.457 13.59C19.807 5.74 17.912 2.76 11.95 2.88c-2.123.045-1.613-1.537-3.232-.937-1.618.6-.23 1.478-1.885 2.836C2.19 8.59 2.617 12.11 4.77 20.52c.908 3.54-2.187 3.714-.962 7.146.894 2.502 7.486 3.548 14.44.968 6.956-2.58 11.346-7.703 10.452-10.205-1.225-3.43-3.706-1.54-5.243-4.85zm-5.963 12.934c-6.21 2.305-11.317.95-11.532.346-.37-1.04 2.005-4.506 9.107-7.14 7.1-2.636 11.06-1.66 11.47-.498.24.686-2.84 4.987-9.06 7.29zm-1.996-5.592c-3.248 1.205-5.505 2.584-6.964 3.825 1.027.933 2.954 1.162 4.873.45 2.444-.908 3.945-2.99 3.35-4.65-.006-.02-.017-.038-.024-.058-.4.13-.812.27-1.235.43z"/></svg>