<svg viewBox="0 0 512 512" xmlns="http://www.w3.org/2000/svg" fill-rule="evenodd" clip-rule="evenodd" stroke-linejoin="round" stroke-miterlimit="1.414"><path d="M256.013 512c-7.17 0-14.077-1.694-19.447-4.797L48.138 398.39c-11.08-6.386-19.447-20.854-19.447-33.654V147.11c0-12.8 8.37-27.267 19.45-33.68L236.565 4.644c10.74-6.205 28.128-6.18 38.868 0l188.454 108.812c11.08 6.387 19.42 20.88 19.42 33.655v217.6c0 12.8-8.34 27.27-19.42 33.656l-188.454 108.81c-5.344 3.103-12.252 4.824-19.42 4.824zm0-488.665c-2.972 0-5.918.626-7.69 1.67L59.87 133.79c-3.807 2.216-7.69 8.94-7.69 13.32v217.6c0 4.405 3.883 11.13 7.69 13.32l188.427 108.813c3.545 2.034 11.835 2.034 15.38 0L452.13 378.057c3.807-2.19 7.665-8.916 7.665-13.32V147.11c0-4.405-3.884-11.13-7.664-13.32L263.705 25.004c-1.772-1.017-4.718-1.67-7.69-1.67z"/><path d="M381.986 409.043l-67.308-183.15v-53.897c12.696-4.418 21.836-16.51 21.836-30.685v-8.793c0-17.914-14.573-32.488-32.487-32.488H207.95c-17.922 0-32.496 14.572-32.496 32.486v8.794c0 14.16 9.12 26.238 21.85 30.67v53.91l-67.184 182.8c-4.092 10.02-5.68 24.045 3.127 30.394 83.675 60.33 140.676 79.036 245.484-.01 8.655-6.53 7.212-20.355 3.254-30.028l.002-.003zM287.24 343.37c13.057 0 23.603 10.59 23.603 23.56 0 13.03-10.546 23.62-23.602 23.62-13.058 0-23.585-10.59-23.585-23.62 0-12.97 10.53-23.56 23.586-23.56zm-68.448-113.66v-66.657l-.1-10.752H207.95c-6.065 0-11.008-4.927-11.008-10.988v-8.795c0-6.073 4.943-11 11.007-11h96.077c6.064 0 10.993 4.927 10.993 11v8.794c0 6.062-4.928 10.993-11.09 10.993h-10.746v77.405l18.852 51.28c-.256.25 37.55-15.43-.73.666-68.316 28.726-131.947 20.74-116.597 16.26h-.986l25.07-68.206h-.002z"/><path d="M253.023 256.345c9.253 0 16.793-7.55 16.793-16.842 0-9.244-7.54-16.815-16.793-16.815-9.31 0-16.84 7.57-16.84 16.816 0 9.294 7.53 16.842 16.84 16.842z"/></svg>