<?xml version="1.0" standalone="no"?><!DOCTYPE svg PUBLIC "-//W3C//DTD SVG 1.1//EN" "http://www.w3.org/Graphics/SVG/1.1/DTD/svg11.dtd"><svg width="100%" height="100%" viewBox="0 0 512 512" version="1.1" xmlns="http://www.w3.org/2000/svg" xmlns:xlink="http://www.w3.org/1999/xlink" xml:space="preserve" style="fill-rule:evenodd;clip-rule:evenodd;stroke-linejoin:round;stroke-miterlimit:1.41421;"><path d="M256.013,512c-7.17,0 -14.077,-1.694 -19.447,-4.797l-188.428,-108.813c-11.08,-6.386 -19.447,-20.854 -19.447,-33.654l0,-217.626c0,-12.8 8.37,-27.267 19.45,-33.68l188.424,-108.786c10.74,-6.205 28.128,-6.18 38.868,0l188.454,108.812c11.08,6.387 19.42,20.88 19.42,33.655l0,217.6c0,12.8 -8.34,27.27 -19.42,33.656l-188.454,108.81c-5.344,3.103 -12.252,4.824 -19.42,4.824l0,-0.001ZM256.013,23.335c-2.972,0 -5.918,0.626 -7.69,1.67l-188.453,108.785c-3.807,2.216 -7.69,8.94 -7.69,13.32l0,217.6c0,4.405 3.883,11.13 7.69,13.32l188.427,108.813c3.545,2.034 11.835,2.034 15.38,0l188.453,-108.786c3.807,-2.19 7.665,-8.916 7.665,-13.32l0,-217.627c0,-4.405 -3.884,-11.13 -7.664,-13.32l-188.426,-108.786c-1.772,-1.017 -4.718,-1.67 -7.69,-1.67l-0.002,0.001Z" style="fill:#000;"/><path d="M373.59,395.958l-0.1,0.027l0.1,-0.027c0.136,-0.038 0.27,-0.078 0.4,-0.12l-0.098,0.03c-0.1,0.032 -0.2,0.06 -0.3,0.09l-0.002,0Z" style="fill:#000;"/><path d="M256.024,256.346c9.253,0 16.793,-7.55 16.793,-16.842c0,-9.244 -7.54,-16.815 -16.793,-16.815c-9.31,0 -16.84,7.57 -16.84,16.816c0,9.294 7.53,16.842 16.84,16.842l0,-0.001Z" style="fill:#000;fill-opacity:0.74902;"/><path d="M329.78,261.062l51.783,120.578c0.468,1.11 0.696,2.325 0.696,3.59c0,3.792 -2.05,7.147 -5.196,9.162l-113.386,65.452c-3.545,2.034 -11.835,2.034 -15.38,0l-113.233,-65.389c-3.155,-2.02 -5.21,-5.377 -5.21,-9.173c0,-1.306 0.243,-2.56 0.747,-3.738l46.125,-107.631c18.469,5.295 38.766,8.219 60.057,8.219c34.857,0 67.052,-7.838 92.997,-21.07ZM292.94,333.071c-15.435,0.001 -27.883,12.521 -27.883,27.855c0,15.404 12.445,27.925 27.883,27.925c15.436,0 27.904,-12.521 27.904,-27.925c0,-15.334 -12.468,-27.854 -27.904,-27.855l0.001,0l-0.002,0l0.001,0ZM227.024,336.346c9.253,0 16.793,-7.55 16.793,-16.842c0,-9.244 -7.54,-16.815 -16.793,-16.815c-9.31,0 -16.84,7.57 -16.84,16.816c0,9.294 7.53,16.842 16.84,16.842l0,-0.001Z" style="fill:#000;fill-opacity:0.752941;"/><path d="M255.987,461.37l-0.277,-0.002l-0.277,-0.004l-0.277,-0.008l-0.138,-0.005l-0.138,-0.005l-0.138,-0.007l-0.137,-0.007l-0.138,-0.008l-0.136,-0.008l-0.137,-0.009l-0.136,-0.01l-0.136,-0.011l-0.136,-0.012l-0.135,-0.012l-0.134,-0.013l-0.134,-0.014l-0.134,-0.014l-0.133,-0.016l-0.132,-0.016l-0.132,-0.017l-0.131,-0.017l-0.131,-0.018l-0.129,-0.019l-0.13,-0.02l-0.128,-0.02l-0.128,-0.022l-0.127,-0.022l-0.126,-0.022l-0.125,-0.024l-0.124,-0.024l-0.124,-0.025l-0.122,-0.026l-0.122,-0.026l-0.12,-0.027l-0.12,-0.028l-0.119,-0.029l-0.117,-0.029l-0.116,-0.031l-0.116,-0.03l-0.114,-0.032l-0.113,-0.033l-0.112,-0.033l-0.11,-0.034l-0.11,-0.034l-0.108,-0.036l-0.106,-0.036l-0.106,-0.037l-0.104,-0.037l-0.103,-0.039l-0.101,-0.039l-0.1,-0.04l-0.098,-0.04l-0.097,-0.041l-0.095,-0.043l-0.094,-0.042l-0.092,-0.044l-0.091,-0.044l-0.089,-0.045l-0.087,-0.046l-0.086,-0.047l-0.084,-0.047l-113.233,-65.389l-0.147,-0.096l-0.146,-0.097l-0.143,-0.1l-0.142,-0.101l-0.141,-0.103l-0.139,-0.106l-0.137,-0.107l-0.135,-0.108l-0.133,-0.111l-0.132,-0.112l-0.129,-0.114l-0.128,-0.116l-0.126,-0.118l-0.125,-0.119l-0.122,-0.121l-0.12,-0.123l-0.118,-0.124l-0.117,-0.126l-0.114,-0.127l-0.112,-0.129l-0.111,-0.131l-0.108,-0.132l-0.106,-0.133l-0.104,-0.135l-0.102,-0.137l-0.099,-0.138l-0.098,-0.139l-0.095,-0.141l-0.093,-0.142l-0.091,-0.143l-0.089,-0.145l-0.086,-0.147l-0.084,-0.147l-0.082,-0.149l-0.079,-0.15l-0.077,-0.151l-0.074,-0.153l-0.073,-0.153l-0.069,-0.155l-0.067,-0.156l-0.065,-0.157l-0.062,-0.158l-0.06,-0.16l-0.057,-0.16l-0.055,-0.162l-0.052,-0.162l-0.049,-0.164l-0.047,-0.164l-0.044,-0.166l-0.041,-0.166l-0.039,-0.168l-0.036,-0.168l-0.033,-0.169l-0.03,-0.17l-0.028,-0.171l-0.025,-0.172l-0.021,-0.172l-0.02,-0.174l-0.016,-0.174l-0.013,-0.175l-0.011,-0.175l-0.007,-0.176l-0.004,-0.177l-0.002,-0.089l0,-0.089l0.001,-0.122l0.002,-0.122l0.003,-0.122l0.005,-0.121l0.007,-0.121l0.008,-0.121l0.009,-0.12l0.011,-0.12l0.012,-0.12l0.014,-0.119l0.015,-0.119l0.016,-0.119l0.019,-0.118l0.019,-0.118l0.021,-0.118l0.023,-0.117l0.023,-0.117l0.026,-0.116l0.027,-0.116l0.028,-0.116l0.03,-0.115l0.031,-0.115l0.033,-0.115l0.035,-0.114l0.036,-0.113l0.037,-0.114l0.039,-0.112l0.04,-0.113l0.042,-0.112l0.044,-0.111l0.045,-0.111l0.046,-0.111l66.704,-155.651l0,-53.91l-0.149,-0.052l-0.149,-0.053l-0.148,-0.054l-0.148,-0.054l-0.148,-0.055l-0.147,-0.056l-0.147,-0.057l-0.147,-0.057l-0.146,-0.058l-0.146,-0.058l-0.146,-0.059l-0.145,-0.06l-0.145,-0.061l-0.144,-0.061l-0.144,-0.062l-0.144,-0.062l-0.144,-0.063l-0.143,-0.064l-0.143,-0.065l-0.142,-0.065l-0.142,-0.066l-0.141,-0.066l-0.142,-0.068l-0.141,-0.068l-0.14,-0.068l-0.14,-0.069l-0.14,-0.07l-0.139,-0.07l-0.278,-0.143l-0.276,-0.146l-0.274,-0.147l-0.273,-0.151l-0.271,-0.153l-0.27,-0.155l-0.268,-0.158l-0.266,-0.161l-0.265,-0.162l-0.263,-0.166l-0.261,-0.167l-0.259,-0.171l-0.258,-0.172l-0.256,-0.175l-0.254,-0.177l-0.253,-0.18l-0.251,-0.182l-0.249,-0.184l-0.247,-0.186l-0.245,-0.189l-0.243,-0.191l-0.242,-0.193l-0.239,-0.196l-0.238,-0.197l-0.236,-0.2l-0.234,-0.202l-0.231,-0.204l-0.23,-0.207l-0.228,-0.208l-0.226,-0.211l-0.224,-0.213l-0.222,-0.214l-0.22,-0.217l-0.218,-0.219l-0.215,-0.221l-0.214,-0.223l-0.212,-0.225l-0.209,-0.227l-0.207,-0.229l-0.205,-0.231l-0.203,-0.233l-0.201,-0.235l-0.198,-0.236l-0.197,-0.239l-0.194,-0.24l-0.191,-0.243l-0.19,-0.244l-0.187,-0.246l-0.185,-0.247l-0.183,-0.25l-0.18,-0.251l-0.178,-0.253l-0.176,-0.255l-0.173,-0.257l-0.171,-0.258l-0.168,-0.26l-0.166,-0.262l-0.164,-0.263l-0.161,-0.265l-0.158,-0.267l-0.156,-0.268l-0.154,-0.27l-0.151,-0.272l-0.149,-0.273l-0.146,-0.275l-0.143,-0.276l-0.141,-0.277l-0.069,-0.14l-0.069,-0.14l-0.068,-0.14l-0.068,-0.14l-0.067,-0.141l-0.066,-0.142l-0.065,-0.141l-0.065,-0.142l-0.064,-0.143l-0.064,-0.142l-0.063,-0.143l-0.062,-0.144l-0.061,-0.144l-0.061,-0.144l-0.06,-0.144l-0.06,-0.145l-0.059,-0.145l-0.058,-0.146l-0.057,-0.146l-0.057,-0.146l-0.056,-0.146l-0.055,-0.147l-0.055,-0.148l-0.054,-0.147l-0.053,-0.148l-0.053,-0.148l-0.052,-0.149l-0.051,-0.149l-0.05,-0.149l-0.05,-0.149l-0.049,-0.15l-0.048,-0.15l-0.048,-0.151l-0.047,-0.15l-0.046,-0.152l-0.046,-0.151l-0.044,-0.152l-0.044,-0.152l-0.044,-0.152l-0.042,-0.153l-0.042,-0.152l-0.041,-0.154l-0.041,-0.153l-0.039,-0.154l-0.039,-0.154l-0.038,-0.154l-0.038,-0.155l-0.037,-0.155l-0.036,-0.155l-0.035,-0.156l-0.034,-0.155l-0.034,-0.156l-0.033,-0.157l-0.032,-0.156l-0.031,-0.157l-0.031,-0.157l-0.03,-0.158l-0.029,-0.157l-0.029,-0.158l-0.027,-0.158l-0.027,-0.159l-0.026,-0.158l-0.026,-0.159l-0.024,-0.16l-0.024,-0.159l-0.023,-0.16l-0.022,-0.16l-0.022,-0.16l-0.02,-0.16l-0.02,-0.161l-0.019,-0.161l-0.018,-0.161l-0.018,-0.161l-0.017,-0.162l-0.016,-0.162l-0.015,-0.162l-0.014,-0.162l-0.013,-0.163l-0.013,-0.163l-0.012,-0.162l-0.011,-0.164l-0.01,-0.163l-0.01,-0.164l-0.009,-0.163l-0.007,-0.165l-0.007,-0.164l-0.007,-0.164l-0.005,-0.165l-0.005,-0.165l-0.003,-0.165l-0.003,-0.165l-0.002,-0.166l-0.002,-0.165l0,-0.166l0,-8.794l0.001,-0.21l0.002,-0.209l0.003,-0.209l0.005,-0.209l0.006,-0.209l0.007,-0.208l0.008,-0.208l0.01,-0.207l0.012,-0.207l0.012,-0.207l0.014,-0.207l0.015,-0.206l0.016,-0.206l0.018,-0.205l0.019,-0.205l0.02,-0.205l0.022,-0.204l0.022,-0.204l0.024,-0.204l0.026,-0.203l0.026,-0.203l0.028,-0.202l0.029,-0.202l0.03,-0.202l0.032,-0.201l0.032,-0.201l0.034,-0.2l0.035,-0.2l0.037,-0.2l0.037,-0.199l0.039,-0.199l0.04,-0.198l0.041,-0.198l0.043,-0.197l0.044,-0.197l0.044,-0.197l0.046,-0.196l0.048,-0.196l0.048,-0.195l0.05,-0.195l0.05,-0.194l0.052,-0.194l0.053,-0.193l0.055,-0.193l0.055,-0.192l0.057,-0.192l0.057,-0.191l0.059,-0.191l0.06,-0.191l0.061,-0.189l0.062,-0.19l0.064,-0.189l0.064,-0.188l0.066,-0.188l0.067,-0.187l0.068,-0.187l0.069,-0.186l0.07,-0.186l0.071,-0.185l0.072,-0.185l0.074,-0.184l0.074,-0.183l0.076,-0.183l0.076,-0.183l0.078,-0.181l0.079,-0.182l0.08,-0.18l0.08,-0.181l0.082,-0.179l0.083,-0.179l0.085,-0.178l0.085,-0.178l0.086,-0.177l0.087,-0.177l0.088,-0.176l0.09,-0.175l0.09,-0.175l0.091,-0.174l0.093,-0.174l0.093,-0.173l0.095,-0.172l0.095,-0.172l0.096,-0.171l0.098,-0.17l0.098,-0.17l0.1,-0.169l0.1,-0.168l0.101,-0.168l0.103,-0.167l0.103,-0.167l0.104,-0.166l0.106,-0.165l0.106,-0.164l0.107,-0.164l0.108,-0.163l0.109,-0.162l0.11,-0.162l0.111,-0.161l0.112,-0.16l0.113,-0.16l0.114,-0.159l0.115,-0.158l0.116,-0.158l0.116,-0.156l0.118,-0.156l0.118,-0.156l0.119,-0.154l0.121,-0.154l0.121,-0.153l0.122,-0.153l0.123,-0.151l0.124,-0.151l0.124,-0.15l0.126,-0.15l0.126,-0.148l0.128,-0.148l0.128,-0.147l0.129,-0.146l0.13,-0.146l0.131,-0.144l0.131,-0.144l0.133,-0.143l0.133,-0.143l0.134,-0.141l0.135,-0.141l0.136,-0.14l0.137,-0.139l0.137,-0.138l0.138,-0.138l0.14,-0.136l0.139,-0.136l0.141,-0.135l0.142,-0.134l0.142,-0.134l0.143,-0.132l0.144,-0.132l0.145,-0.13l0.145,-0.13l0.147,-0.129l0.147,-0.129l0.148,-0.127l0.148,-0.126l0.15,-0.126l0.15,-0.124l0.151,-0.124l0.151,-0.123l0.153,-0.122l0.153,-0.121l0.154,-0.121l0.154,-0.119l0.156,-0.118l0.156,-0.118l0.156,-0.116l0.158,-0.116l0.158,-0.115l0.159,-0.113l0.16,-0.113l0.16,-0.112l0.161,-0.111l0.162,-0.11l0.162,-0.109l0.164,-0.109l0.163,-0.107l0.165,-0.106l0.165,-0.105l0.166,-0.105l0.166,-0.103l0.167,-0.102l0.168,-0.102l0.169,-0.1l0.169,-0.099l0.17,-0.099l0.17,-0.097l0.171,-0.097l0.172,-0.095l0.172,-0.094l0.173,-0.094l0.174,-0.092l0.174,-0.091l0.175,-0.091l0.175,-0.089l0.176,-0.088l0.177,-0.087l0.177,-0.087l0.178,-0.085l0.178,-0.084l0.179,-0.083l0.18,-0.082l0.18,-0.081l0.181,-0.08l0.181,-0.078l0.182,-0.078l0.183,-0.077l0.183,-0.075l0.183,-0.075l0.184,-0.073l0.185,-0.072l0.185,-0.072l0.186,-0.07l0.186,-0.069l0.187,-0.067l0.188,-0.067l0.187,-0.066l0.189,-0.064l0.189,-0.064l0.189,-0.062l0.19,-0.061l0.19,-0.06l0.191,-0.059l0.192,-0.058l0.192,-0.056l0.192,-0.056l0.193,-0.054l0.193,-0.053l0.194,-0.052l0.195,-0.05l0.194,-0.05l0.196,-0.048l0.195,-0.048l0.196,-0.046l0.197,-0.045l0.197,-0.043l0.198,-0.043l0.197,-0.041l0.199,-0.04l0.199,-0.039l0.199,-0.037l0.199,-0.037l0.201,-0.035l0.2,-0.034l0.201,-0.033l0.201,-0.031l0.202,-0.03l0.202,-0.029l0.203,-0.028l0.202,-0.027l0.204,-0.025l0.203,-0.024l0.204,-0.022l0.205,-0.022l0.205,-0.02l0.205,-0.019l0.205,-0.018l0.206,-0.016l0.206,-0.015l0.207,-0.014l0.207,-0.012l0.207,-0.012l0.208,-0.01l0.208,-0.008l0.208,-0.007l0.208,-0.006l0.209,-0.005l0.21,-0.003l0.209,-0.002l0.21,-0.001l96.077,0l0.21,0.001l0.209,0.002l0.209,0.003l0.209,0.005l0.209,0.006l0.208,0.007l0.208,0.008l0.207,0.01l0.207,0.012l0.207,0.012l0.207,0.014l0.206,0.015l0.206,0.016l0.205,0.018l0.205,0.019l0.205,0.02l0.204,0.022l0.204,0.022l0.204,0.024l0.203,0.025l0.203,0.027l0.202,0.028l0.202,0.029l0.202,0.03l0.201,0.031l0.201,0.033l0.2,0.034l0.2,0.035l0.2,0.037l0.199,0.037l0.199,0.039l0.198,0.04l0.198,0.041l0.197,0.043l0.197,0.043l0.197,0.045l0.196,0.046l0.196,0.048l0.195,0.048l0.195,0.05l0.194,0.05l0.194,0.052l0.193,0.053l0.193,0.054l0.192,0.056l0.192,0.056l0.191,0.058l0.191,0.059l0.191,0.06l0.189,0.061l0.19,0.062l0.189,0.064l0.188,0.064l0.188,0.066l0.187,0.067l0.187,0.067l0.186,0.069l0.186,0.07l0.185,0.072l0.185,0.072l0.184,0.073l0.183,0.075l0.183,0.075l0.183,0.077l0.181,0.078l0.182,0.078l0.18,0.08l0.181,0.081l0.179,0.082l0.179,0.083l0.178,0.084l0.178,0.085l0.177,0.087l0.177,0.087l0.176,0.088l0.175,0.089l0.175,0.091l0.174,0.091l0.174,0.092l0.173,0.094l0.172,0.094l0.172,0.095l0.171,0.097l0.17,0.097l0.17,0.099l0.169,0.099l0.168,0.1l0.168,0.102l0.167,0.102l0.167,0.103l0.166,0.105l0.165,0.105l0.164,0.106l0.164,0.107l0.163,0.109l0.162,0.109l0.162,0.11l0.161,0.111l0.16,0.112l0.16,0.113l0.159,0.113l0.158,0.115l0.158,0.116l0.156,0.116l0.156,0.118l0.156,0.118l0.154,0.119l0.154,0.121l0.153,0.121l0.153,0.122l0.151,0.123l0.151,0.124l0.15,0.124l0.15,0.126l0.148,0.126l0.148,0.127l0.147,0.129l0.146,0.129l0.146,0.13l0.144,0.13l0.144,0.132l0.143,0.132l0.143,0.134l0.141,0.134l0.141,0.135l0.14,0.136l0.139,0.136l0.138,0.138l0.138,0.138l0.136,0.139l0.136,0.14l0.135,0.141l0.134,0.141l0.134,0.143l0.132,0.143l0.132,0.144l0.13,0.144l0.13,0.146l0.129,0.146l0.129,0.147l0.127,0.148l0.126,0.148l0.126,0.15l0.124,0.15l0.124,0.151l0.123,0.151l0.122,0.153l0.121,0.153l0.121,0.154l0.119,0.154l0.118,0.156l0.118,0.156l0.116,0.156l0.116,0.158l0.115,0.158l0.113,0.159l0.113,0.16l0.112,0.16l0.111,0.161l0.11,0.162l0.109,0.162l0.109,0.163l0.107,0.164l0.106,0.164l0.105,0.165l0.105,0.166l0.103,0.167l0.102,0.167l0.102,0.168l0.1,0.168l0.099,0.169l0.099,0.17l0.097,0.17l0.097,0.171l0.095,0.172l0.094,0.172l0.094,0.173l0.092,0.174l0.091,0.174l0.091,0.175l0.089,0.175l0.088,0.176l0.087,0.177l0.087,0.177l0.085,0.178l0.084,0.178l0.083,0.179l0.082,0.179l0.081,0.181l0.08,0.18l0.078,0.182l0.078,0.181l0.077,0.183l0.075,0.183l0.075,0.183l0.073,0.184l0.072,0.185l0.072,0.185l0.07,0.186l0.069,0.186l0.067,0.187l0.067,0.187l0.066,0.188l0.064,0.188l0.064,0.189l0.062,0.19l0.061,0.189l0.06,0.191l0.059,0.191l0.058,0.191l0.056,0.192l0.056,0.192l0.054,0.193l0.053,0.193l0.052,0.194l0.05,0.194l0.05,0.195l0.048,0.195l0.048,0.196l0.046,0.196l0.045,0.197l0.043,0.197l0.043,0.197l0.041,0.198l0.04,0.198l0.039,0.199l0.037,0.199l0.037,0.2l0.035,0.2l0.034,0.2l0.033,0.201l0.031,0.201l0.03,0.202l0.029,0.202l0.028,0.202l0.027,0.203l0.025,0.203l0.024,0.204l0.022,0.204l0.022,0.204l0.02,0.205l0.019,0.205l0.018,0.205l0.016,0.206l0.015,0.206l0.014,0.207l0.012,0.207l0.012,0.207l0.01,0.207l0.008,0.208l0.007,0.208l0.006,0.209l0.005,0.209l0.003,0.209l0.002,0.209l0.001,0.21l0,8.794l0,0.166l-0.002,0.166l-0.002,0.166l-0.003,0.165l-0.003,0.165l-0.005,0.165l-0.005,0.165l-0.007,0.165l-0.007,0.164l-0.008,0.164l-0.008,0.164l-0.01,0.164l-0.01,0.164l-0.011,0.163l-0.012,0.163l-0.013,0.163l-0.013,0.163l-0.015,0.162l-0.015,0.163l-0.016,0.162l-0.016,0.161l-0.018,0.162l-0.018,0.161l-0.019,0.161l-0.02,0.161l-0.021,0.161l-0.021,0.16l-0.023,0.16l-0.023,0.16l-0.024,0.16l-0.024,0.159l-0.026,0.159l-0.026,0.159l-0.027,0.159l-0.027,0.158l-0.029,0.158l-0.029,0.158l-0.03,0.158l-0.031,0.157l-0.031,0.157l-0.032,0.157l-0.033,0.156l-0.034,0.156l-0.035,0.156l-0.035,0.156l-0.036,0.155l-0.037,0.156l-0.037,0.154l-0.038,0.155l-0.039,0.154l-0.04,0.154l-0.041,0.154l-0.041,0.153l-0.042,0.153l-0.042,0.153l-0.044,0.152l-0.044,0.152l-0.045,0.152l-0.045,0.152l-0.046,0.151l-0.047,0.151l-0.048,0.151l-0.048,0.15l-0.05,0.15l-0.049,0.15l-0.051,0.149l-0.051,0.149l-0.052,0.149l-0.053,0.148l-0.053,0.148l-0.054,0.148l-0.055,0.147l-0.055,0.147l-0.056,0.147l-0.057,0.146l-0.058,0.146l-0.058,0.146l-0.059,0.145l-0.059,0.145l-0.06,0.145l-0.061,0.144l-0.062,0.144l-0.062,0.144l-0.063,0.143l-0.064,0.143l-0.064,0.142l-0.065,0.142l-0.065,0.142l-0.066,0.142l-0.067,0.141l-0.068,0.14l-0.068,0.141l-0.069,0.14l-0.07,0.139l-0.14,0.278l-0.144,0.276l-0.146,0.275l-0.149,0.274l-0.151,0.271l-0.154,0.271l-0.156,0.268l-0.159,0.267l-0.161,0.265l-0.163,0.264l-0.166,0.262l-0.169,0.26l-0.171,0.259l-0.173,0.256l-0.176,0.255l-0.178,0.254l-0.18,0.251l-0.183,0.25l-0.185,0.248l-0.187,0.246l-0.189,0.244l-0.192,0.243l-0.194,0.24l-0.197,0.239l-0.198,0.237l-0.201,0.235l-0.203,0.233l-0.205,0.231l-0.207,0.229l-0.209,0.227l-0.212,0.225l-0.213,0.223l-0.216,0.221l-0.217,0.219l-0.22,0.217l-0.222,0.215l-0.224,0.213l-0.225,0.21l-0.228,0.209l-0.23,0.206l-0.232,0.204l-0.233,0.203l-0.236,0.199l-0.237,0.198l-0.24,0.196l-0.241,0.193l-0.243,0.191l-0.245,0.189l-0.247,0.186l-0.249,0.184l-0.25,0.182l-0.252,0.179l-0.254,0.178l-0.256,0.174l-0.257,0.173l-0.259,0.17l-0.261,0.167l-0.263,0.166l-0.264,0.162l-0.266,0.161l-0.268,0.157l-0.269,0.156l-0.27,0.152l-0.273,0.151l-0.274,0.147l-0.275,0.146l-0.277,0.142l-0.139,0.071l-0.14,0.069l-0.139,0.069l-0.141,0.069l-0.14,0.067l-0.141,0.068l-0.141,0.066l-0.142,0.066l-0.142,0.065l-0.143,0.064l-0.142,0.064l-0.144,0.063l-0.143,0.062l-0.144,0.062l-0.144,0.061l-0.145,0.061l-0.145,0.059l-0.145,0.059l-0.145,0.059l-0.146,0.058l-0.147,0.056l-0.146,0.057l-0.147,0.055l-0.148,0.055l-0.147,0.055l-0.148,0.053l-0.148,0.053l-0.149,0.052l0,53.897l66.885,155.744l0.043,0.104l0.042,0.105l0.04,0.106l0.039,0.106l0.038,0.107l0.036,0.107l0.035,0.108l0.033,0.108l0.032,0.109l0.031,0.11l0.029,0.11l0.028,0.11l0.026,0.111l0.025,0.112l0.024,0.111l0.022,0.113l0.021,0.113l0.02,0.113l0.018,0.114l0.017,0.114l0.016,0.114l0.014,0.115l0.013,0.116l0.011,0.115l0.01,0.117l0.009,0.116l0.007,0.117l0.006,0.117l0.005,0.118l0.003,0.117l0.002,0.119l0.001,0.118l0,0.089l-0.001,0.088l-0.005,0.177l-0.007,0.176l-0.011,0.176l-0.013,0.174l-0.016,0.174l-0.019,0.173l-0.022,0.173l-0.025,0.171l-0.028,0.171l-0.03,0.17l-0.033,0.169l-0.036,0.168l-0.038,0.167l-0.042,0.167l-0.043,0.165l-0.047,0.164l-0.049,0.164l-0.052,0.162l-0.054,0.161l-0.057,0.161l-0.06,0.159l-0.062,0.158l-0.065,0.157l-0.067,0.156l-0.069,0.155l-0.072,0.153l-0.074,0.152l-0.077,0.152l-0.079,0.149l-0.081,0.149l-0.084,0.147l-0.086,0.146l-0.089,0.145l-0.09,0.143l-0.093,0.142l-0.095,0.141l-0.097,0.139l-0.1,0.138l-0.101,0.136l-0.104,0.135l-0.106,0.134l-0.108,0.132l-0.11,0.13l-0.112,0.129l-0.114,0.127l-0.116,0.126l-0.118,0.124l-0.12,0.122l-0.122,0.121l-0.124,0.119l-0.125,0.117l-0.128,0.116l-0.129,0.114l-0.131,0.112l-0.133,0.11l-0.135,0.109l-0.137,0.107l-0.138,0.105l-0.14,0.103l-0.142,0.101l-0.143,0.099l-0.145,0.098l-0.147,0.095l-113.386,65.452l-0.084,0.047l-0.086,0.047l-0.087,0.046l-0.089,0.045l-0.091,0.044l-0.092,0.044l-0.094,0.042l-0.095,0.043l-0.097,0.041l-0.098,0.04l-0.1,0.04l-0.101,0.039l-0.103,0.039l-0.104,0.037l-0.106,0.037l-0.106,0.036l-0.108,0.036l-0.11,0.034l-0.11,0.034l-0.112,0.033l-0.113,0.033l-0.114,0.032l-0.116,0.03l-0.116,0.031l-0.117,0.029l-0.119,0.029l-0.12,0.028l-0.12,0.027l-0.122,0.026l-0.122,0.026l-0.124,0.025l-0.124,0.024l-0.125,0.024l-0.126,0.022l-0.127,0.022l-0.128,0.022l-0.128,0.02l-0.13,0.02l-0.129,0.019l-0.131,0.018l-0.131,0.017l-0.132,0.017l-0.132,0.016l-0.133,0.016l-0.134,0.014l-0.134,0.014l-0.134,0.013l-0.135,0.012l-0.136,0.012l-0.136,0.011l-0.136,0.01l-0.137,0.009l-0.136,0.008l-0.138,0.008l-0.137,0.007l-0.138,0.007l-0.138,0.005l-0.138,0.005l-0.277,0.008l-0.277,0.004l-0.277,0.001ZM255.988,440.035l102.41,-59.117l-64.72,-150.703l0,-73.105l14.151,-4.963l0.051,-0.018l0.05,-0.018l0.053,-0.02l0.051,-0.019l0.051,-0.019l0.051,-0.02l0.051,-0.019l0.051,-0.021l0.052,-0.02l0.05,-0.021l0.05,-0.02l0.051,-0.022l0.051,-0.021l0.05,-0.022l0.049,-0.021l0.051,-0.022l0.05,-0.023l0.05,-0.022l0.049,-0.023l0.051,-0.024l0.049,-0.023l0.049,-0.023l0.05,-0.024l0.049,-0.024l0.05,-0.025l0.048,-0.024l0.026,-0.013l0.121,-0.062l0.096,-0.051l0.097,-0.052l0.097,-0.053l0.095,-0.054l0.095,-0.055l0.095,-0.056l0.095,-0.057l0.093,-0.058l0.094,-0.059l0.092,-0.059l0.092,-0.06l0.092,-0.062l0.091,-0.062l0.09,-0.063l0.091,-0.065l0.09,-0.065l0.088,-0.065l0.088,-0.067l0.088,-0.068l0.088,-0.068l0.086,-0.069l0.086,-0.07l0.085,-0.071l0.085,-0.072l0.083,-0.072l0.084,-0.074l0.083,-0.074l0.081,-0.075l0.081,-0.076l0.08,-0.076l0.081,-0.078l0.079,-0.078l0.078,-0.078l0.077,-0.08l0.077,-0.08l0.076,-0.081l0.075,-0.081l0.075,-0.083l0.074,-0.083l0.072,-0.084l0.073,-0.084l0.071,-0.085l0.07,-0.085l0.07,-0.087l0.069,-0.087l0.067,-0.087l0.067,-0.088l0.066,-0.089l0.066,-0.089l0.064,-0.09l0.064,-0.091l0.062,-0.091l0.062,-0.091l0.061,-0.092l0.06,-0.093l0.059,-0.092l0.058,-0.094l0.057,-0.094l0.057,-0.095l0.054,-0.095l0.055,-0.096l0.054,-0.096l0.052,-0.096l0.052,-0.097l0.05,-0.098l0.061,-0.119l0.013,-0.027l0.025,-0.05l0.023,-0.048l0.024,-0.05l0.024,-0.051l0.024,-0.05l0.022,-0.049l0.023,-0.048l0.022,-0.05l0.023,-0.051l0.021,-0.05l0.022,-0.049l0.022,-0.052l0.022,-0.051l0.02,-0.05l0.021,-0.05l0.02,-0.05l0.021,-0.052l0.02,-0.051l0.02,-0.051l0.02,-0.052l0.018,-0.05l0.02,-0.052l0.018,-0.051l0.019,-0.051l0.019,-0.053l0.017,-0.05l0.018,-0.052l0.018,-0.055l0.017,-0.051l0.017,-0.051l0.017,-0.051l0.017,-0.054l0.016,-0.053l0.016,-0.05l0.016,-0.055l0.016,-0.054l0.015,-0.051l0.015,-0.053l0.014,-0.052l0.015,-0.053l0.015,-0.055l0.014,-0.053l0.013,-0.053l0.014,-0.054l0.013,-0.054l0.013,-0.054l0.013,-0.053l0.012,-0.054l0.013,-0.054l0.012,-0.054l0.012,-0.055l0.011,-0.055l0.011,-0.054l0.011,-0.054l0.011,-0.054l0.01,-0.055l0.011,-0.057l0.01,-0.056l0.009,-0.052l0.009,-0.056l0.01,-0.057l0.008,-0.055l0.009,-0.057l0.009,-0.056l0.007,-0.054l0.008,-0.055l0.008,-0.057l0.007,-0.059l0.007,-0.056l0.007,-0.054l0.006,-0.059l0.006,-0.057l0.006,-0.055l0.006,-0.058l0.005,-0.058l0.005,-0.059l0.005,-0.057l0.005,-0.057l0.004,-0.058l0.004,-0.056l0.003,-0.059l0.004,-0.061l0.003,-0.058l0.003,-0.058l0.002,-0.06l0.003,-0.059l0.001,-0.057l0.002,-0.059l0.002,-0.062l0.001,-0.059l0,-0.059l0.001,-0.061l0,-0.087l0,-8.733l0,-0.109l-0.001,-0.078l-0.001,-0.075l-0.002,-0.075l-0.002,-0.077l-0.003,-0.073l-0.003,-0.075l-0.003,-0.075l-0.004,-0.074l-0.005,-0.074l-0.005,-0.073l-0.005,-0.074l-0.006,-0.072l-0.006,-0.073l-0.007,-0.075l-0.007,-0.071l-0.008,-0.071l-0.008,-0.073l-0.008,-0.071l-0.009,-0.072l-0.009,-0.072l-0.01,-0.071l-0.01,-0.071l-0.011,-0.07l-0.011,-0.07l-0.011,-0.072l-0.012,-0.069l-0.013,-0.07l-0.012,-0.071l-0.013,-0.068l-0.014,-0.068l-0.014,-0.071l-0.014,-0.069l-0.015,-0.068l-0.015,-0.069l-0.016,-0.069l-0.016,-0.068l-0.016,-0.069l-0.017,-0.068l-0.017,-0.066l-0.018,-0.068l-0.018,-0.068l-0.018,-0.066l-0.019,-0.067l-0.02,-0.068l-0.019,-0.067l-0.021,-0.067l-0.02,-0.065l-0.02,-0.066l-0.022,-0.066l-0.022,-0.066l-0.022,-0.066l-0.022,-0.066l-0.023,-0.066l-0.023,-0.064l-0.024,-0.065l-0.024,-0.066l-0.024,-0.064l-0.025,-0.064l-0.026,-0.066l-0.025,-0.063l-0.026,-0.065l-0.026,-0.064l-0.027,-0.063l-0.028,-0.064l-0.027,-0.063l-0.028,-0.063l-0.028,-0.064l-0.029,-0.063l-0.03,-0.063l-0.028,-0.062l-0.031,-0.063l-0.03,-0.062l-0.03,-0.061l-0.031,-0.062l-0.032,-0.063l-0.032,-0.062l-0.032,-0.061l-0.033,-0.061l-0.032,-0.06l-0.034,-0.061l-0.033,-0.061l-0.035,-0.061l-0.034,-0.06l-0.034,-0.059l-0.036,-0.061l-0.036,-0.061l-0.036,-0.059l-0.035,-0.058l-0.038,-0.06l-0.037,-0.058l-0.037,-0.059l-0.038,-0.059l-0.037,-0.057l-0.039,-0.059l-0.039,-0.058l-0.04,-0.059l-0.04,-0.057l-0.038,-0.055l-0.041,-0.057l-0.041,-0.058l-0.041,-0.056l-0.041,-0.056l-0.042,-0.056l-0.042,-0.056l-0.043,-0.056l-0.042,-0.055l-0.043,-0.055l-0.044,-0.056l-0.043,-0.053l-0.044,-0.055l-0.044,-0.054l-0.045,-0.054l-0.045,-0.054l-0.045,-0.052l-0.046,-0.054l-0.047,-0.053l-0.046,-0.053l-0.046,-0.051l-0.047,-0.052l-0.047,-0.052l-0.048,-0.052l-0.048,-0.051l-0.048,-0.051l-0.049,-0.05l-0.048,-0.05l-0.049,-0.05l-0.05,-0.05l-0.05,-0.049l-0.049,-0.049l-0.051,-0.049l-0.051,-0.049l-0.05,-0.048l-0.052,-0.048l-0.051,-0.048l-0.052,-0.047l-0.052,-0.047l-0.052,-0.046l-0.052,-0.047l-0.054,-0.046l-0.052,-0.045l-0.054,-0.046l-0.053,-0.045l-0.054,-0.044l-0.054,-0.045l-0.055,-0.044l-0.054,-0.044l-0.055,-0.043l-0.055,-0.043l-0.055,-0.043l-0.056,-0.042l-0.056,-0.042l-0.055,-0.042l-0.057,-0.041l-0.057,-0.041l-0.056,-0.041l-0.057,-0.04l-0.057,-0.04l-0.058,-0.039l-0.057,-0.04l-0.058,-0.038l-0.058,-0.039l-0.059,-0.038l-0.058,-0.038l-0.059,-0.037l-0.058,-0.037l-0.06,-0.037l-0.059,-0.037l-0.059,-0.035l-0.06,-0.036l-0.06,-0.035l-0.06,-0.035l-0.06,-0.034l-0.061,-0.034l-0.06,-0.034l-0.061,-0.033l-0.061,-0.033l-0.062,-0.033l-0.061,-0.032l-0.06,-0.032l-0.063,-0.032l-0.063,-0.031l-0.061,-0.03l-0.062,-0.03l-0.063,-0.03l-0.063,-0.03l-0.062,-0.029l-0.063,-0.029l-0.063,-0.028l-0.063,-0.028l-0.064,-0.028l-0.064,-0.027l-0.064,-0.027l-0.063,-0.026l-0.064,-0.026l-0.065,-0.026l-0.064,-0.025l-0.064,-0.025l-0.066,-0.024l-0.065,-0.024l-0.065,-0.024l-0.065,-0.023l-0.065,-0.023l-0.066,-0.023l-0.065,-0.021l-0.066,-0.022l-0.067,-0.021l-0.066,-0.021l-0.066,-0.021l-0.066,-0.02l-0.068,-0.02l-0.066,-0.019l-0.067,-0.018l-0.067,-0.019l-0.068,-0.018l-0.068,-0.018l-0.067,-0.017l-0.068,-0.017l-0.068,-0.016l-0.068,-0.016l-0.069,-0.016l-0.069,-0.015l-0.068,-0.015l-0.069,-0.014l-0.069,-0.014l-0.069,-0.014l-0.07,-0.013l-0.07,-0.013l-0.07,-0.012l-0.07,-0.012l-0.07,-0.011l-0.071,-0.011l-0.07,-0.011l-0.071,-0.01l-0.071,-0.01l-0.072,-0.009l-0.072,-0.009l-0.071,-0.008l-0.072,-0.008l-0.072,-0.008l-0.073,-0.007l-0.072,-0.007l-0.073,-0.006l-0.073,-0.006l-0.074,-0.005l-0.073,-0.005l-0.074,-0.005l-0.074,-0.004l-0.074,-0.003l-0.076,-0.003l-0.074,-0.003l-0.075,-0.002l-0.076,-0.002l-0.076,-0.001l-0.076,-0.001l-0.11,0l-96.009,0l-0.11,0l-0.077,0.001l-0.075,0.001l-0.076,0.002l-0.076,0.002l-0.074,0.003l-0.075,0.003l-0.075,0.003l-0.074,0.004l-0.074,0.005l-0.074,0.005l-0.073,0.005l-0.074,0.006l-0.073,0.006l-0.072,0.007l-0.073,0.007l-0.072,0.008l-0.072,0.008l-0.072,0.008l-0.072,0.009l-0.071,0.009l-0.072,0.01l-0.07,0.01l-0.071,0.011l-0.071,0.011l-0.071,0.012l-0.07,0.011l-0.069,0.013l-0.07,0.012l-0.07,0.014l-0.069,0.013l-0.07,0.014l-0.068,0.014l-0.069,0.015l-0.069,0.016l-0.069,0.015l-0.068,0.016l-0.068,0.017l-0.068,0.016l-0.068,0.018l-0.067,0.017l-0.068,0.018l-0.068,0.019l-0.066,0.019l-0.067,0.019l-0.067,0.02l-0.067,0.02l-0.066,0.02l-0.067,0.021l-0.066,0.021l-0.066,0.022l-0.065,0.022l-0.066,0.023l-0.066,0.023l-0.065,0.023l-0.065,0.024l-0.065,0.024l-0.065,0.024l-0.065,0.025l-0.064,0.025l-0.064,0.026l-0.065,0.026l-0.064,0.026l-0.063,0.027l-0.064,0.027l-0.064,0.028l-0.063,0.028l-0.063,0.028l-0.063,0.029l-0.063,0.029l-0.063,0.03l-0.062,0.03l-0.062,0.03l-0.062,0.03l-0.062,0.031l-0.063,0.032l-0.061,0.032l-0.061,0.032l-0.062,0.033l-0.061,0.033l-0.061,0.033l-0.06,0.034l-0.061,0.034l-0.06,0.034l-0.06,0.035l-0.06,0.035l-0.06,0.036l-0.059,0.036l-0.06,0.036l-0.059,0.037l-0.058,0.037l-0.06,0.037l-0.058,0.038l-0.058,0.038l-0.058,0.039l-0.059,0.039l-0.057,0.039l-0.058,0.04l-0.056,0.039l-0.057,0.04l-0.057,0.041l-0.057,0.041l-0.056,0.041l-0.056,0.042l-0.056,0.042l-0.056,0.043l-0.055,0.043l-0.055,0.042l-0.055,0.044l-0.055,0.044l-0.054,0.044l-0.054,0.044l-0.054,0.045l-0.054,0.045l-0.052,0.045l-0.053,0.045l-0.054,0.047l-0.052,0.046l-0.052,0.047l-0.052,0.047l-0.052,0.047l-0.051,0.048l-0.051,0.047l-0.051,0.049l-0.051,0.048l-0.05,0.049l-0.05,0.049l-0.05,0.05l-0.049,0.049l-0.049,0.05l-0.05,0.051l-0.048,0.05l-0.048,0.051l-0.048,0.051l-0.048,0.051l-0.047,0.052l-0.047,0.052l-0.046,0.052l-0.047,0.053l-0.046,0.052l-0.045,0.053l-0.046,0.054l-0.045,0.053l-0.044,0.054l-0.045,0.055l-0.044,0.054l-0.044,0.054l-0.043,0.055l-0.043,0.055l-0.043,0.055l-0.042,0.056l-0.042,0.056l-0.042,0.056l-0.041,0.056l-0.041,0.057l-0.041,0.057l-0.04,0.056l-0.04,0.057l-0.04,0.058l-0.039,0.058l-0.038,0.057l-0.039,0.058l-0.039,0.059l-0.037,0.058l-0.038,0.059l-0.037,0.059l-0.036,0.058l-0.036,0.06l-0.037,0.06l-0.035,0.059l-0.035,0.06l-0.035,0.06l-0.035,0.06l-0.034,0.061l-0.033,0.06l-0.034,0.061l-0.033,0.061l-0.032,0.061l-0.032,0.062l-0.032,0.061l-0.032,0.063l-0.031,0.061l-0.03,0.062l-0.031,0.062l-0.03,0.063l-0.029,0.063l-0.029,0.062l-0.029,0.063l-0.028,0.063l-0.028,0.063l-0.028,0.064l-0.027,0.063l-0.027,0.065l-0.026,0.064l-0.026,0.063l-0.026,0.065l-0.025,0.064l-0.025,0.064l-0.024,0.066l-0.024,0.065l-0.024,0.064l-0.023,0.065l-0.023,0.066l-0.023,0.066l-0.022,0.065l-0.021,0.066l-0.022,0.066l-0.02,0.066l-0.021,0.066l-0.02,0.067l-0.019,0.067l-0.02,0.067l-0.019,0.067l-0.018,0.067l-0.018,0.067l-0.018,0.068l-0.017,0.067l-0.017,0.069l-0.016,0.068l-0.016,0.068l-0.016,0.068l-0.015,0.069l-0.015,0.069l-0.014,0.069l-0.014,0.068l-0.014,0.07l-0.013,0.07l-0.012,0.069l-0.013,0.07l-0.012,0.07l-0.011,0.071l-0.011,0.07l-0.011,0.07l-0.01,0.071l-0.01,0.071l-0.009,0.072l-0.009,0.072l-0.008,0.071l-0.008,0.072l-0.008,0.072l-0.007,0.073l-0.007,0.072l-0.006,0.073l-0.006,0.074l-0.005,0.073l-0.005,0.074l-0.005,0.073l-0.004,0.074l-0.003,0.075l-0.003,0.075l-0.003,0.074l-0.002,0.075l-0.002,0.077l-0.001,0.074l-0.001,0.076l0,0.111l0,8.734l0,0.086l0.001,0.06l0,0.06l0.001,0.06l0.002,0.059l0.001,0.059l0.002,0.059l0.003,0.06l0.002,0.059l0.003,0.057l0.003,0.059l0.003,0.059l0.004,0.059l0.004,0.057l0.004,0.057l0.005,0.058l0.005,0.058l0.005,0.057l0.005,0.057l0.006,0.057l0.005,0.058l0.007,0.056l0.006,0.057l0.007,0.056l0.007,0.057l0.007,0.056l0.007,0.056l0.008,0.056l0.008,0.056l0.009,0.056l0.008,0.056l0.009,0.056l0.009,0.054l0.009,0.055l0.01,0.056l0.01,0.055l0.01,0.054l0.01,0.054l0.011,0.056l0.011,0.054l0.011,0.054l0.012,0.055l0.011,0.054l0.012,0.053l0.012,0.054l0.013,0.055l0.013,0.054l0.013,0.052l0.013,0.055l0.013,0.053l0.014,0.053l0.014,0.053l0.015,0.054l0.014,0.052l0.014,0.053l0.016,0.053l0.015,0.053l0.015,0.052l0.016,0.052l0.016,0.053l0.017,0.052l0.016,0.052l0.017,0.052l0.017,0.052l0.017,0.052l0.018,0.052l0.017,0.051l0.018,0.051l0.019,0.053l0.018,0.051l0.018,0.05l0.02,0.052l0.019,0.052l0.019,0.049l0.02,0.051l0.02,0.052l0.02,0.05l0.02,0.05l0.021,0.051l0.022,0.051l0.021,0.05l0.021,0.049l0.022,0.051l0.021,0.05l0.023,0.05l0.022,0.05l0.023,0.049l0.022,0.049l0.024,0.05l0.023,0.049l0.024,0.049l0.024,0.05l0.024,0.048l0.013,0.026l0.061,0.12l0.05,0.097l0.052,0.097l0.051,0.096l0.054,0.096l0.054,0.095l0.055,0.095l0.056,0.094l0.057,0.093l0.058,0.094l0.059,0.092l0.059,0.092l0.061,0.092l0.061,0.091l0.063,0.091l0.063,0.09l0.064,0.089l0.065,0.089l0.067,0.089l0.066,0.088l0.068,0.087l0.068,0.086l0.07,0.087l0.07,0.085l0.071,0.084l0.072,0.084l0.073,0.084l0.074,0.083l0.074,0.082l0.075,0.081l0.076,0.081l0.076,0.08l0.078,0.079l0.078,0.079l0.079,0.078l0.08,0.077l0.08,0.076l0.082,0.076l0.082,0.075l0.082,0.075l0.083,0.073l0.084,0.072l0.085,0.072l0.085,0.071l0.086,0.07l0.087,0.07l0.087,0.068l0.089,0.068l0.088,0.067l0.089,0.065l0.09,0.066l0.09,0.064l0.091,0.063l0.091,0.063l0.093,0.062l0.093,0.06l0.093,0.06l0.093,0.059l0.095,0.058l0.095,0.057l0.095,0.057l0.096,0.055l0.096,0.054l0.098,0.054l0.097,0.052l0.098,0.052l0.121,0.062l0.027,0.014l0.049,0.024l0.049,0.024l0.05,0.025l0.051,0.024l0.05,0.024l0.049,0.023l0.051,0.024l0.05,0.023l0.05,0.022l0.05,0.023l0.052,0.023l0.051,0.022l0.05,0.021l0.051,0.022l0.052,0.021l0.051,0.021l0.051,0.021l0.052,0.021l0.051,0.02l0.052,0.02l0.051,0.02l0.052,0.02l0.053,0.02l0.052,0.019l0.051,0.018l0.053,0.019l14.148,4.965l0,73.106l-64.609,150.762l102.292,59.07Z" style="fill:#000;"/></svg>