<svg viewBox="0 0 512 512" xmlns="http://www.w3.org/2000/svg" fill-rule="evenodd" clip-rule="evenodd" stroke-linejoin="round" stroke-miterlimit="1.414"><path d="M256.013 512c-7.17 0-14.077-1.694-19.447-4.797L48.138 398.39c-11.08-6.386-19.447-20.854-19.447-33.654V147.11c0-12.8 8.37-27.267 19.45-33.68L236.565 4.644c10.74-6.205 28.128-6.18 38.868 0l188.454 108.812c11.08 6.387 19.42 20.88 19.42 33.655v217.6c0 12.8-8.34 27.27-19.42 33.656l-188.454 108.81c-5.344 3.103-12.252 4.824-19.42 4.824zm0-488.665c-2.972 0-5.918.626-7.69 1.67L59.87 133.79c-3.807 2.216-7.69 8.94-7.69 13.32v217.6c0 4.405 3.883 11.13 7.69 13.32l188.427 108.813c3.545 2.034 11.835 2.034 15.38 0L452.13 378.057c3.807-2.19 7.665-8.916 7.665-13.32V147.11c0-4.405-3.884-11.13-7.664-13.32L263.705 25.004c-1.772-1.017-4.718-1.67-7.69-1.67z" fill="#41586c"/><path d="M367.203 372.785l-59.41-161.66v-47.573c11.206-3.9 19.274-14.573 19.274-27.085v-7.762c0-15.812-12.863-28.676-28.675-28.676h-84.805c-15.818 0-28.682 12.862-28.682 28.674v7.762c0 12.5 8.05 23.16 19.286 27.072v47.585l-59.3 161.35c-3.612 8.844-2.58 18.872 2.76 26.828 5.34 7.94 14.228 12.67 23.8 12.67h169.08c9.565 0 18.46-4.73 23.8-12.68 5.332-7.944 6.365-17.965 2.872-26.503v-.002zm-84.826-49.677c10.558 0 19.086 8.563 19.086 19.05 0 10.538-8.528 19.102-19.086 19.102-10.56 0-19.073-8.564-19.073-19.1 0-10.49 8.514-19.052 19.073-19.052zm-55.952 2.45c6.89 0 12.443-5.532 12.443-12.41 0-6.88-5.554-12.4-12.443-12.4-6.834 0-12.377 5.52-12.377 12.4 0 6.878 5.543 12.41 12.377 12.41zm-3.267-111.065v-58.835l-.088-9.49h-9.483c-5.352 0-9.715-4.35-9.715-9.7v-7.763c0-5.36 4.363-9.71 9.715-9.71h84.805c5.352 0 9.703 4.35 9.703 9.71v7.762c0 5.35-4.35 9.702-9.79 9.702h-9.484v68.322l16.64 45.263c-.225.22-.42.357-.644.588-12.388 12.87-102.915 14.353-102.915 14.353h-.87l22.13-60.204h-.002z" fill="#41586c"/><path d="M258.735 250.313c9.253 0 16.793-7.55 16.793-16.842 0-9.243-7.54-16.814-16.793-16.814-9.31 0-16.84 7.57-16.84 16.816 0 9.294 7.53 16.842 16.84 16.842z" fill="#41586c"/></svg>