<svg xmlns="http://www.w3.org/2000/svg" width="32" height="32" viewBox="0 0 32 32"><path d="M16 8.5c.276 0 .5.225.5.5s-.225.5-.5.5c-5.326 0-9.998 2.805-9.998 6 0 .276-.224.5-.5.5s-.5-.224-.5-.5c0-3.793 5.036-7 10.998-7zm0-4.998C7.164 3.502.003 8.874.003 15.5c0 4.126 2.78 7.765 7.007 9.924 0 .027-.008.045-.008.074 0 1.793-1.34 3.722-1.928 4.735h.002c-.047.11-.074.23-.074.358 0 .5.405.907.906.907.094 0 .26-.025.255-.014 3.124-.512 6.068-3.382 6.752-4.214 1 .146 2.03.228 3.085.228 8.834 0 15.997-5.372 15.997-11.998S24.834 3.502 16 3.502z"/></svg>