<?xml version="1.0" standalone="no"?><!DOCTYPE svg PUBLIC "-//W3C//DTD SVG 1.1//EN" "http://www.w3.org/Graphics/SVG/1.1/DTD/svg11.dtd"><svg width="100%" height="100%" viewBox="0 0 32 32" version="1.1" xmlns="http://www.w3.org/2000/svg" xmlns:xlink="http://www.w3.org/1999/xlink" xml:space="preserve" style="fill-rule:evenodd;clip-rule:evenodd;stroke-linejoin:round;stroke-miterlimit:1.41421;"><path d="M16,3c-7.18,0 -13,5.82 -13,13c0,7.18 5.82,13 13,13c7.18,0 13,-5.82 13,-13c0,-7.18 -5.82,-13 -13,-13ZM23.258,12.307l-9.486,9.485c-0.238,0.237 -0.623,0.237 -0.86,0l-0.192,-0.19l-5.22,-5.256c-0.238,-0.238 -0.238,-0.624 0,-0.862l1.294,-1.293c0.238,-0.23 0.624,-0.23 0.862,0l3.69,3.72l7.754,-7.76c0.24,-0.23 0.625,-0.23 0.863,0l1.294,1.3c0.24,0.24 0.24,0.63 0,0.86l0.001,-0.004Z" style="fill:#000;fill-rule:nonzero;"/></svg>