<?xml version="1.0" standalone="no"?><!DOCTYPE svg PUBLIC "-//W3C//DTD SVG 1.1//EN" "http://www.w3.org/Graphics/SVG/1.1/DTD/svg11.dtd"><svg width="100%" height="100%" viewBox="0 0 32 32" version="1.1" xmlns="http://www.w3.org/2000/svg" xmlns:xlink="http://www.w3.org/1999/xlink" xml:space="preserve" style="fill-rule:evenodd;clip-rule:evenodd;stroke-linejoin:round;stroke-miterlimit:1.41421;"><path d="M21.82,13.03l-1.002,-1.002c-0.185,-0.185 -0.484,-0.185 -0.668,0l-6.014,6.013l-2.86,-2.88c-0.185,-0.18 -0.483,-0.18 -0.67,0l-1,1.01c-0.186,0.19 -0.186,0.49 0,0.67l4.192,4.23c0.185,0.184 0.484,0.184 0.668,0l7.354,-7.36c0.186,-0.185 0.186,-0.484 0,-0.67l0,-0.011ZM16,3c-7.18,0 -13,5.82 -13,13c0,7.18 5.82,13 13,13c7.18,0 13,-5.82 13,-13c0,-7.18 -5.82,-13 -13,-13ZM16,26c-5.522,0 -10,-4.478 -10,-10c0,-5.523 4.478,-10 10,-10c5.523,0 10,4.477 10,10c0,5.522 -4.477,10 -10,10Z" style="fill:#000;fill-rule:nonzero;"/></svg>