<?xml version="1.0" standalone="no"?><!DOCTYPE svg PUBLIC "-//W3C//DTD SVG 1.1//EN" "http://www.w3.org/Graphics/SVG/1.1/DTD/svg11.dtd"><svg width="100%" height="100%" viewBox="0 0 30 32" version="1.1" xmlns="http://www.w3.org/2000/svg" xmlns:xlink="http://www.w3.org/1999/xlink" xml:space="preserve" style="fill-rule:evenodd;clip-rule:evenodd;stroke-linejoin:round;stroke-miterlimit:1.41421;"><path d="M15.2,2.4c-7.51,0 -13.6,6.09 -13.6,13.6c0,7.51 6.09,13.6 13.6,13.6c7.51,0 13.6,-6.09 13.6,-13.6c0,-7.51 -6.09,-13.6 -13.6,-13.6ZM22.973,12.174c0,0 -8.706,8.707 -8.729,8.73c-0.312,0.31 -0.82,0.31 -1.13,0l-4.708,-4.716c-0.31,-0.31 -0.31,-0.82 0,-1.13c0.31,-0.31 0.82,-0.32 1.13,0l4.139,4.147l8.168,-8.161c0.31,-0.31 0.82,-0.31 1.13,0c0.31,0.31 0.32,0.82 0,1.13Z" style="fill:#000;"/></svg>