<svg xmlns="http://www.w3.org/2000/svg" width="38" height="32" viewBox="0 0 38 32"><path d="M34.416 1.908H3.4c-.606 0-1.145.54-1.145 1.146v25.89c0 .608.54 1.147 1.146 1.147h31.02c.61 0 1.15-.53 1.15-1.14V3.06c0-.61-.54-1.15-1.146-1.15zm-3.438 2.36c.674 0 1.146.54 1.146 1.146 0 .674-.54 1.146-1.146 1.146-.674 0-1.146-.54-1.146-1.146-.067-.607.472-1.146 1.146-1.146zm-4.18 0c.673 0 1.145.54 1.145 1.146 0 .674-.54 1.146-1.146 1.146-.674 0-1.146-.54-1.146-1.146-.06-.607.48-1.146 1.15-1.146zm-4.18 0c.673 0 1.145.54 1.145 1.146 0 .674-.54 1.146-1.146 1.146s-1.146-.54-1.146-1.146c0-.607.48-1.146 1.15-1.146zm10.652 23.53H4.547V8.72H33.27V27.8z"/><path d="M8.593 22.81c.067.067.135.067.202.067s.202 0 .27-.067l5.933-4.18c.135-.067.202-.202.202-.405v-1.753c0-.135-.067-.27-.202-.405l-5.933-4.113c-.135-.067-.337-.135-.472 0-.135.067-.27.27-.27.405v2.09c0 .13.067.27.202.33l3.236 2.56-3.23 2.63c-.133.068-.2.203-.2.338v2.09c.067.202.135.337.27.405zm6.067 0v.742c0 .405.338.674.675.674h7.686c.41 0 .68-.337.68-.674v-.742c0-.405-.335-.674-.672-.674H15.34c-.338 0-.675.337-.675.674z"/></svg>