<svg xmlns="http://www.w3.org/2000/svg" width="38" height="32" viewBox="0 0 38 32"><path d="M34.416 1.908H3.4c-.606 0-1.145.54-1.145 1.146v25.89c0 .608.54 1.147 1.146 1.147h31.016c.607 0 1.146-.538 1.146-1.145V3.055c0-.608-.54-1.147-1.146-1.147zm-3.438 2.36c.674 0 1.146.54 1.146 1.146 0 .674-.54 1.146-1.146 1.146-.674 0-1.146-.54-1.146-1.146-.067-.607.472-1.146 1.146-1.146zm-4.18 0c.673 0 1.145.54 1.145 1.146 0 .674-.54 1.146-1.146 1.146-.674 0-1.146-.54-1.146-1.146-.066-.607.473-1.146 1.147-1.146zm-4.18 0c.673 0 1.145.54 1.145 1.146 0 .674-.54 1.146-1.146 1.146s-1.146-.54-1.146-1.146c0-.607.473-1.146 1.147-1.146zm10.652 23.53H4.547V8.72H33.27v19.08z"/><path d="M8.593 22.81c.067.067.135.067.202.067s.202 0 .27-.067l5.933-4.18c.135-.067.202-.202.202-.405v-1.753c0-.135-.067-.27-.202-.405l-5.933-4.113c-.135-.067-.337-.135-.472 0-.135.067-.27.27-.27.405v2.09c0 .134.067.27.202.336l3.236 2.562-3.235 2.63c-.135.067-.202.202-.202.337v2.09c.067.202.135.337.27.405zM14.66 22.81v.742c0 .405.338.674.675.674h7.686c.406 0 .675-.337.675-.674v-.742c0-.405-.337-.674-.674-.674h-7.685c-.337 0-.674.337-.674.674z"/></svg>