<?xml version="1.0" standalone="no"?><!DOCTYPE svg PUBLIC "-//W3C//DTD SVG 1.1//EN" "http://www.w3.org/Graphics/SVG/1.1/DTD/svg11.dtd"><svg width="100%" height="100%" viewBox="0 0 20 20" version="1.1" xmlns="http://www.w3.org/2000/svg" xmlns:xlink="http://www.w3.org/1999/xlink" xml:space="preserve" style="fill-rule:evenodd;clip-rule:evenodd;stroke-linejoin:round;stroke-miterlimit:1.41421;"><path d="M18.028,18.028c-0.028,0.028 -0.057,0.056 -0.087,0.083c-0.06,0.053 -0.123,0.102 -0.189,0.148c-0.197,0.136 -0.418,0.237 -0.65,0.295c-0.105,0.027 -0.213,0.044 -0.321,0.053c-0.051,0.004 -0.103,0.007 -0.154,0.007c-4.418,0.014 -8.836,0.014 -13.254,0c-0.077,-0.001 -0.153,-0.005 -0.229,-0.014c-0.144,-0.018 -0.286,-0.051 -0.423,-0.099c-0.137,-0.048 -0.269,-0.112 -0.393,-0.189c-0.129,-0.081 -0.249,-0.176 -0.356,-0.284c-0.108,-0.107 -0.203,-0.227 -0.284,-0.356c-0.077,-0.124 -0.141,-0.256 -0.189,-0.393c-0.048,-0.137 -0.081,-0.279 -0.099,-0.423c-0.009,-0.076 -0.013,-0.152 -0.014,-0.229c-0.014,-4.418 -0.014,-8.836 0,-13.254c0.001,-0.077 0.005,-0.153 0.014,-0.229c0.018,-0.144 0.051,-0.286 0.099,-0.423c0.048,-0.137 0.112,-0.269 0.189,-0.393c0.081,-0.129 0.176,-0.249 0.284,-0.356c0.107,-0.108 0.227,-0.203 0.356,-0.284c0.124,-0.077 0.256,-0.141 0.393,-0.189c0.137,-0.048 0.279,-0.081 0.423,-0.099c0.076,-0.009 0.152,-0.013 0.229,-0.014c4.418,-0.014 8.836,-0.014 13.254,0c0.077,0.001 0.153,0.005 0.229,0.014c0.144,0.018 0.286,0.051 0.423,0.099c0.137,0.048 0.269,0.112 0.393,0.189c0.129,0.081 0.249,0.176 0.356,0.284c0.108,0.107 0.203,0.227 0.284,0.356c0.077,0.124 0.141,0.256 0.189,0.393c0.048,0.137 0.081,0.279 0.099,0.423c0.009,0.076 0.013,0.152 0.014,0.229c0.014,4.418 0.014,8.836 0,13.254c0,0.051 -0.003,0.103 -0.007,0.154c-0.009,0.108 -0.026,0.216 -0.053,0.321c-0.055,0.221 -0.149,0.431 -0.275,0.62c-0.044,0.067 -0.093,0.131 -0.145,0.192c-0.023,0.027 -0.047,0.054 -0.072,0.08c-0.011,0.011 -0.022,0.023 -0.034,0.034ZM17.083,17.083c0.028,-0.027 0.053,-0.057 0.075,-0.089c0.045,-0.063 0.078,-0.134 0.098,-0.209c0.014,-0.054 0.021,-0.11 0.022,-0.166c0.014,-4.414 0.042,-8.828 0,-13.242c-0.001,-0.027 -0.003,-0.054 -0.006,-0.081c-0.007,-0.049 -0.018,-0.096 -0.036,-0.142c-0.03,-0.081 -0.077,-0.156 -0.136,-0.22c-0.07,-0.075 -0.157,-0.135 -0.254,-0.17c-0.046,-0.018 -0.093,-0.029 -0.142,-0.036c-0.027,-0.003 -0.054,-0.005 -0.081,-0.006c-4.415,-0.042 -8.831,-0.042 -13.246,0c-0.027,0.001 -0.054,0.003 -0.081,0.006c-0.049,0.007 -0.096,0.018 -0.142,0.036c-0.081,0.03 -0.156,0.077 -0.22,0.136c-0.075,0.07 -0.135,0.157 -0.17,0.254c-0.017,0.044 -0.029,0.09 -0.035,0.137c-0.004,0.029 -0.006,0.057 -0.007,0.086c-0.042,4.415 -0.042,8.831 0,13.246c0.001,0.029 0.003,0.057 0.007,0.086c0.006,0.047 0.018,0.093 0.035,0.137c0.035,0.097 0.095,0.184 0.17,0.254c0.064,0.059 0.139,0.106 0.22,0.136c0.046,0.018 0.093,0.029 0.142,0.036c0.027,0.003 0.054,0.005 0.081,0.006c4.415,0.042 8.831,0.042 13.246,0c0.055,-0.001 0.109,-0.008 0.162,-0.022c0.069,-0.018 0.136,-0.049 0.196,-0.089c0.033,-0.022 0.065,-0.047 0.094,-0.075l0.008,-0.009l0,0ZM3.783,12.839l12.446,0l0,2.809c0,0.165 -0.066,0.323 -0.182,0.44c-0.117,0.117 -0.276,0.183 -0.441,0.183l-11.2,0c-0.166,0 -0.324,-0.066 -0.441,-0.183c-0.117,-0.117 -0.182,-0.275 -0.182,-0.44l0,-2.809l0,0ZM14.883,13.755l-1.241,0l0,1.241l1.241,0l0,-1.241ZM16.229,11.708l-12.446,0l0,-3.417l12.446,0l0,3.417ZM14.883,9.379l-1.241,0l0,1.241l1.241,0l0,-1.241ZM16.229,7.198l-12.446,0l0,-2.808c0,-0.166 0.065,-0.324 0.182,-0.441c0.117,-0.117 0.275,-0.182 0.441,-0.182l11.2,0c0.165,0 0.324,0.065 0.441,0.182c0.116,0.117 0.182,0.275 0.182,0.441l0,2.808ZM14.883,4.862l-1.241,0l0,1.241l1.241,0l0,-1.241Z" style="fill:#000;"/></svg>