<?xml version="1.0" standalone="no"?><!DOCTYPE svg PUBLIC "-//W3C//DTD SVG 1.1//EN" "http://www.w3.org/Graphics/SVG/1.1/DTD/svg11.dtd"><svg width="100%" height="100%" viewBox="0 0 512 512" version="1.1" xmlns="http://www.w3.org/2000/svg" xmlns:xlink="http://www.w3.org/1999/xlink" xml:space="preserve" style="fill-rule:evenodd;clip-rule:evenodd;stroke-linejoin:round;stroke-miterlimit:1.41421;"><g id="Layer1"><path d="M436.239,436.239c-0.637,0.633 -1.288,1.251 -1.96,1.847c-1.345,1.193 -2.761,2.306 -4.239,3.33c-4.418,3.063 -9.383,5.322 -14.598,6.629c-2.366,0.593 -4.781,0.991 -7.213,1.191c-1.147,0.095 -2.297,0.142 -3.449,0.153c-99.186,0.314 -198.374,0.314 -297.56,0c-1.721,-0.016 -3.439,-0.118 -5.147,-0.325c-3.23,-0.389 -6.416,-1.132 -9.484,-2.213c-3.084,-1.086 -6.048,-2.514 -8.823,-4.245c-2.898,-1.809 -5.589,-3.95 -8.005,-6.367c-2.417,-2.416 -4.558,-5.107 -6.367,-8.005c-1.731,-2.775 -3.159,-5.739 -4.245,-8.823c-1.081,-3.068 -1.824,-6.254 -2.213,-9.484c-0.207,-1.708 -0.309,-3.426 -0.325,-5.147c-0.314,-99.186 -0.314,-198.374 0,-297.56c0.016,-1.721 0.118,-3.439 0.325,-5.147c0.389,-3.23 1.132,-6.416 2.213,-9.484c1.086,-3.084 2.514,-6.048 4.245,-8.823c1.809,-2.898 3.95,-5.589 6.367,-8.005c2.416,-2.417 5.107,-4.558 8.005,-6.367c2.775,-1.731 5.739,-3.159 8.823,-4.245c3.068,-1.081 6.254,-1.824 9.484,-2.213c1.708,-0.207 3.426,-0.309 5.147,-0.325c99.186,-0.314 198.374,-0.314 297.56,0c1.721,0.016 3.439,0.118 5.147,0.325c3.23,0.389 6.416,1.132 9.484,2.213c3.084,1.086 6.048,2.514 8.823,4.245c2.898,1.809 5.589,3.95 8.005,6.367c2.417,2.416 4.558,5.107 6.367,8.005c1.731,2.775 3.159,5.739 4.245,8.823c1.081,3.068 1.824,6.254 2.213,9.484c0.207,1.708 0.309,3.426 0.325,5.147c0.314,99.186 0.314,198.374 0,297.56c-0.011,1.152 -0.058,2.302 -0.153,3.449c-0.2,2.432 -0.598,4.847 -1.191,7.213c-1.241,4.953 -3.34,9.68 -6.173,13.927c-0.998,1.497 -2.085,2.934 -3.255,4.301c-0.526,0.614 -1.069,1.212 -1.625,1.799c-0.249,0.258 -0.499,0.516 -0.753,0.77l0,0ZM415.025,415.025c0.617,-0.619 1.182,-1.287 1.685,-2.003c0.998,-1.422 1.746,-3.018 2.19,-4.698c0.321,-1.219 0.478,-2.473 0.489,-3.733c0.31,-99.094 0.943,-198.192 -0.001,-297.281c-0.009,-0.612 -0.051,-1.222 -0.132,-1.828c-0.144,-1.085 -0.41,-2.154 -0.793,-3.18c-0.682,-1.827 -1.732,-3.51 -3.06,-4.937c-1.575,-1.692 -3.538,-3.02 -5.705,-3.828c-1.026,-0.383 -2.094,-0.648 -3.18,-0.793c-0.606,-0.081 -1.216,-0.123 -1.828,-0.132c-99.122,-0.945 -198.258,-0.942 -297.38,0c-0.612,0.009 -1.222,0.051 -1.828,0.132c-1.085,0.144 -2.154,0.41 -3.179,0.793c-1.828,0.682 -3.511,1.732 -4.938,3.06c-1.692,1.576 -3.02,3.538 -3.828,5.706c-0.372,0.996 -0.633,2.032 -0.78,3.085c-0.09,0.637 -0.135,1.278 -0.145,1.922c-0.942,99.122 -0.942,198.258 0,297.38c0.01,0.644 0.055,1.285 0.145,1.922c0.147,1.053 0.408,2.089 0.78,3.085c0.808,2.168 2.136,4.13 3.828,5.706c1.427,1.328 3.11,2.378 4.938,3.06c1.025,0.383 2.094,0.649 3.179,0.793c0.606,0.081 1.216,0.123 1.828,0.132c99.122,0.942 198.258,0.945 297.38,0c1.227,-0.019 2.447,-0.175 3.634,-0.488c1.563,-0.413 3.054,-1.089 4.4,-1.986c0.752,-0.502 1.455,-1.072 2.107,-1.697l0.194,-0.192Z" style="fill:#000;fill-rule:nonzero;"/><path d="M395.809,194.955l-279.618,0l0,-64.464c0,-3.793 1.507,-7.429 4.189,-10.111c2.682,-2.682 6.318,-4.189 10.111,-4.189l251.018,0c3.793,0 7.429,1.507 10.111,4.189c2.682,2.682 4.189,6.318 4.189,10.111l0,64.464ZM368.005,141.335l-28.475,0l0,28.475l28.475,0l0,-28.475Z" style="fill:#000;"/><path d="M395.809,295.328l-279.618,0l0,-78.438l279.618,0l0,78.438ZM368.005,241.872l-28.475,0l0,28.474l28.475,0l0,-28.474Z" style="fill:#000;"/><path d="M395.809,317.264l0,64.245c0,3.793 -1.507,7.429 -4.189,10.111c-2.682,2.682 -6.318,4.189 -10.111,4.189c-47.997,0 -203.021,0 -251.018,0c-3.793,0 -7.429,-1.507 -10.111,-4.189c-2.682,-2.682 -4.189,-6.318 -4.189,-10.111l0,-64.245l279.618,0ZM368.005,342.299l-28.475,0l0,28.475l28.475,0l0,-28.475Z" style="fill:#000;"/></g></svg>