<svg xmlns="http://www.w3.org/2000/svg" width="29" height="32" viewBox="0 0 29 32"><path d="M3.2 27.2C1.43 27.195 0 25.768 0 24.01V3.19C0 1.433 1.437 0 3.21 0h17.58C22.564 0 24 1.428 24 3.19v.01h-1.6v-.01c0-.876-.72-1.59-1.61-1.59H3.21c-.89 0-1.61.716-1.61 1.59v20.82c0 .874.712 1.585 1.6 1.59v1.6z"/><path d="M3.2 6.39v20.82c0 1.762 1.435 3.19 3.21 3.19h17.58c1.773 0 3.21-1.43 3.21-3.19V6.39c0-1.76-1.436-3.19-3.21-3.19H6.41C4.636 3.2 3.2 4.63 3.2 6.39zM23.99 4.8c.893 0 1.61.714 1.61 1.59v20.82c0 .874-.72 1.59-1.61 1.59H6.41c-.892 0-1.61-.715-1.61-1.59V6.39c0-.875.72-1.59 1.61-1.59h17.58z"/><path d="M9.607 16.8H9.6v-.798s.853.203 1.61 0 1.062-.544 1.225-.76c.46-.617.36-1.017.36-1.35v-2.69c0-.41-.068-1.632.448-2.392S14.806 8 15.133 8h2.49v1.59s-2.737-.086-3.087 0-.206 1.696-.206 1.9v2.71c0 .447.114 1.14-.202 1.14-.134.315-.202.485-.47.78s-.75.654-.864.68H9.607v.776s2.366.167 2.827.783.36 1.01.36 1.34v2.69c0 .41-.068 1.63.448 2.39s1.563.81 1.89.81h2.486V24s-2.733.086-3.083 0-.206-1.696-.206-1.9v-2.7c0-.447-.07-.828-.21-1.14s-.2-.485-.47-.78c-.27-.292-.75-.654-.87-.68H9.6z"/></svg>