<?xml version="1.0" standalone="no"?><!DOCTYPE svg PUBLIC "-//W3C//DTD SVG 1.1//EN" "http://www.w3.org/Graphics/SVG/1.1/DTD/svg11.dtd"><svg width="100%" height="100%" viewBox="0 0 29 32" version="1.1" xmlns="http://www.w3.org/2000/svg" xmlns:xlink="http://www.w3.org/1999/xlink" xml:space="preserve" style="fill-rule:evenodd;clip-rule:evenodd;stroke-linejoin:round;stroke-miterlimit:1.41421;"><path d="M3.2,27.2c-1.77,-0.005 -3.2,-1.432 -3.2,-3.19l0,-20.82c0,-1.757 1.437,-3.19 3.21,-3.19l17.58,0c1.774,0 3.21,1.428 3.21,3.19l0,0.01l-1.6,0l0,-0.01c0,-0.876 -0.72,-1.59 -1.61,-1.59l-17.58,0c-0.89,0 -1.61,0.716 -1.61,1.59l0,20.82c0,0.874 0.712,1.585 1.6,1.59l0,1.6Z" style="fill:#000;fill-rule:nonzero;"/><path d="M3.2,6.39l0,20.82c0,1.762 1.435,3.19 3.21,3.19l17.58,0c1.773,0 3.21,-1.43 3.21,-3.19l0,-20.82c0,-1.76 -1.436,-3.19 -3.21,-3.19l-17.58,0c-1.774,0 -3.21,1.43 -3.21,3.19ZM23.99,4.8c0.893,0 1.61,0.714 1.61,1.59l0,20.82c0,0.874 -0.72,1.59 -1.61,1.59l-17.58,0c-0.892,0 -1.61,-0.715 -1.61,-1.59l0,-20.82c0,-0.875 0.72,-1.59 1.61,-1.59l17.58,0Z" style="fill:#000;fill-rule:nonzero;"/><rect x="7.992" y="8.883" width="14.416" height="1.599" style="fill:#000;"/><rect x="7.992" y="13.063" width="14.416" height="1.599" style="fill:#000;"/><rect x="7.992" y="17.243" width="14.416" height="1.599" style="fill:#000;"/><rect x="7.992" y="21.422" width="9.344" height="1.599" style="fill:#000;"/></svg>