<?xml version="1.0" standalone="no"?><!DOCTYPE svg PUBLIC "-//W3C//DTD SVG 1.1//EN" "http://www.w3.org/Graphics/SVG/1.1/DTD/svg11.dtd"><svg width="100%" height="100%" viewBox="0 0 30 32" version="1.1" xmlns="http://www.w3.org/2000/svg" xmlns:xlink="http://www.w3.org/1999/xlink" xml:space="preserve" style="fill-rule:evenodd;clip-rule:evenodd;stroke-linejoin:round;stroke-miterlimit:1.41421;"><path d="M28.6,16c0,-7.51 -6.09,-13.6 -13.6,-13.6c-7.51,0 -13.6,6.09 -13.6,13.6c0,7.51 6.09,13.6 13.6,13.6c7.51,0 13.6,-6.09 13.6,-13.6l0,0ZM3,16c0,-6.627 5.373,-12 12,-12c6.627,0 12,5.373 12,12c0,6.627 -5.373,12 -12,12c-6.627,0 -12,-5.373 -12,-12Z" style="fill:#000;fill-rule:nonzero;"/><path d="M23.009,16.8l-16.005,-0.004c-0.44,0.001 -0.8,-0.36 -0.799,-0.799c0.002,-0.44 0.361,-0.799 0.799,-0.799l16.005,0.004c0.44,-0.002 0.8,0.359 0.799,0.799c-0.002,0.44 -0.354,0.806 -0.799,0.799Z" style="fill:#000;fill-rule:nonzero;"/></svg>