<?xml version="1.0" standalone="no"?><!DOCTYPE svg PUBLIC "-//W3C//DTD SVG 1.1//EN" "http://www.w3.org/Graphics/SVG/1.1/DTD/svg11.dtd"><svg width="100%" height="100%" viewBox="0 0 32 32" version="1.1" xmlns="http://www.w3.org/2000/svg" xmlns:xlink="http://www.w3.org/1999/xlink" xml:space="preserve" style="fill-rule:evenodd;clip-rule:evenodd;stroke-linejoin:round;stroke-miterlimit:1.41421;"><path d="M25.192,6.808c-5.077,-5.077 -13.307,-5.077 -18.384,0c-5.077,5.077 -5.077,13.307 0,18.384c5.077,5.077 13.307,5.077 18.384,0c5.077,-5.077 5.077,-13.307 0,-18.384ZM8.929,23.071c-3.905,-3.905 -3.905,-10.237 0,-14.142c3.905,-3.905 10.237,-3.905 14.142,0c3.905,3.905 3.905,10.237 0,14.142c-3.905,3.905 -10.237,3.905 -14.142,0Z" style="fill:#000;fill-rule:nonzero;"/><path d="M23.014,17.499l-13.983,0l0,-3.04l13.983,0l0,3.04Z" style="fill:#000;fill-rule:nonzero;"/></svg>