<svg xmlns="http://www.w3.org/2000/svg" width="32" height="32" viewBox="0 0 32 32"><path d="M26.884 22.84c-.32.262-.657.503-1.018.738-.1.064-.206.13-.312.194C23.06 25.29 19.7 26.192 16 26.195c-2.778 0-5.363-.51-7.534-1.406-.843-.35-1.628-.76-2.336-1.21-.36-.24-.698-.49-1.018-.75-.368-.3-.707-.62-1.016-.96v3.06c0 1.1.412 2.12 1.075 2.99 1 1.29 2.54 2.28 4.4 2.98 1.86.7 4.06 1.1 6.43 1.1 3.16-.006 6.02-.697 8.18-1.89 1.08-.595 1.99-1.32 2.65-2.184.666-.86 1.08-1.89 1.078-2.99v-3.06c-.312.34-.647.657-1.022.96zm-3.375 5.423c-.16.558-.63 1.013-1.21 1.106-.07 0-.14.01-.2.01-.25 0-.48-.08-.67-.22-.285-.21-.46-.55-.46-.96 0-.73.552-1.38 1.26-1.495.064-.01.127-.01.192-.01.31-.004.593.12.8.33.202.206.324.506.324.834 0 .14-.02.265-.06.39z"/><path d="M26.884 15.215c-.32.267-.657.51-1.018.738-.103.068-.21.133-.317.2-2.51 1.498-5.87 2.295-9.55 2.3-2.77 0-5.35-.45-7.52-1.294-.85-.34-1.64-.73-2.35-1.19-.36-.23-.7-.48-1.02-.74-.37-.3-.71-.63-1.02-.97v4.59c.14.38.34.75.61 1.11.12.164.25.326.4.483.29.304.63.604 1.02.886.325.24.69.47 1.085.68 2.184 1.19 5.313 1.9 8.78 1.896 2.6 0 5.01-.4 6.97-1.1 1.13-.405 2.11-.91 2.9-1.48.382-.28.725-.584 1.015-.89.15-.16.283-.32.403-.48.266-.36.466-.73.61-1.12v-4.61c-.313.34-.647.664-1.02.97zm-4.58 6.335c-.067.012-.134.017-.195.017h-.01c-.31 0-.6-.122-.8-.337-.21-.208-.33-.503-.33-.835 0-.728.553-1.382 1.26-1.495.066-.01.13-.015.194-.015.31 0 .593.125.8.33.202.213.324.507.324.838-.004.733-.56 1.377-1.26 1.496z"/><path d="M27.9 7.182c.002-.47-.14-.928-.36-1.313-.394-.68-1-1.18-1.728-1.62-1.096-.65-2.525-1.13-4.196-1.48-1.668-.35-3.582-.54-5.617-.54-3.11 0-5.92.44-8.03 1.2-1.07.38-1.96.832-2.65 1.42-.35.29-.65.62-.87 1.004-.22.384-.36.84-.36 1.312v3.93c.14.44.35.85.62 1.236.12.164.25.33.39.49.29.325.63.625 1.02.906.326.243.687.47 1.087.672 2.17 1.15 5.3 1.77 8.787 1.764 2.61 0 5.02-.354 6.98-1.017 1.133-.386 2.105-.874 2.885-1.447.383-.284.726-.586 1.02-.907.14-.15.273-.32.39-.49.27-.38.48-.78.624-1.22V7.18h-.01zm-5.596 6.47c-.067.013-.134.015-.195.015h-.01c-.31 0-.6-.12-.8-.33-.21-.212-.33-.506-.33-.837 0-.39.16-.758.41-1.03.225-.24.518-.414.85-.462.06-.014.127-.017.19-.017.19 0 .363.05.52.12.365.19.605.58.605 1.05 0 .73-.556 1.38-1.256 1.49zm3.563-6.47c0 .066-.014.134-.08.255-.115.21-.44.543-.984.855-.812.482-2.07.93-3.586 1.244-1.523.316-3.307.498-5.22.497-2.908.005-5.543-.43-7.363-1.082-.91-.32-1.61-.7-2.02-1.06-.206-.17-.336-.33-.405-.45-.07-.12-.08-.19-.08-.25v-.01c0-.06.01-.13.08-.25.11-.21.44-.54.98-.86.81-.48 2.07-.93 3.58-1.24s3.3-.5 5.21-.5c2.91 0 5.545.43 7.363 1.09.905.33 1.61.71 2.023 1.06.203.17.33.34.4.46.067.12.083.19.083.253h-.003z"/></svg>