<svg xmlns="http://www.w3.org/2000/svg" width="32" height="32" viewBox="0 0 32 32"><path d="M26.884 22.84c-.32.262-.657.503-1.018.738-.1.064-.206.13-.312.194C23.06 25.29 19.7 26.192 16 26.195c-2.778 0-5.363-.51-7.534-1.406-.843-.35-1.628-.76-2.336-1.21-.36-.24-.698-.49-1.018-.75-.368-.3-.707-.62-1.016-.956v3.06c0 1.1.412 2.125 1.075 2.99 1 1.292 2.54 2.28 4.4 2.982C11.43 31.606 13.63 32 16 32c3.155-.002 6.018-.693 8.18-1.885 1.08-.596 1.988-1.322 2.65-2.185.662-.86 1.077-1.89 1.074-2.99v-3.06c-.312.34-.647.658-1.022.96zm-3.375 5.423c-.16.558-.63 1.013-1.21 1.106-.07 0-.137.01-.198.01-.248 0-.478-.08-.665-.216-.283-.206-.46-.55-.46-.956.002-.73.554-1.38 1.262-1.494.064-.01.127-.012.192-.012.31-.003.594.12.8.33.203.207.325.507.325.835 0 .14-.02.265-.06.39z"/><path d="M26.884 15.215c-.32.267-.657.51-1.018.738-.103.068-.21.133-.317.2-2.51 1.498-5.87 2.295-9.55 2.3-2.77 0-5.35-.45-7.52-1.294-.85-.34-1.64-.73-2.35-1.19-.36-.23-.7-.477-1.02-.74-.37-.3-.71-.625-1.02-.967v4.59c.142.385.343.754.61 1.117.123.164.257.326.407.483.29.305.63.605 1.02.887.327.24.693.47 1.087.68 2.184 1.19 5.313 1.9 8.78 1.897 2.6 0 5.01-.4 6.97-1.1 1.13-.404 2.11-.91 2.898-1.48.383-.28.726-.583 1.016-.89.15-.158.282-.32.402-.48.268-.36.468-.73.612-1.118v-4.61c-.313.34-.647.663-1.022.97zm-4.58 6.335c-.067.012-.134.017-.195.017h-.01c-.31 0-.598-.122-.8-.337-.204-.208-.324-.503-.324-.835.004-.728.556-1.382 1.264-1.495.066-.01.13-.015.194-.015.31 0 .593.125.8.33.202.213.324.507.324.838-.004.733-.56 1.377-1.26 1.496z"/><path d="M27.9 7.182c.002-.47-.14-.928-.36-1.313-.394-.68-1-1.18-1.728-1.62-1.096-.646-2.525-1.13-4.196-1.478-1.668-.343-3.582-.536-5.617-.536-3.11.003-5.92.443-8.03 1.2-1.07.38-1.96.835-2.65 1.42-.35.29-.646.62-.87 1.007-.22.384-.36.84-.36 1.312V11.1c.147.44.356.85.625 1.237.12.164.25.33.394.49.29.325.63.625 1.02.906.326.244.687.47 1.087.673 2.17 1.15 5.3 1.77 8.787 1.764 2.61 0 5.02-.353 6.98-1.016 1.133-.385 2.105-.873 2.885-1.446.384-.284.727-.586 1.02-.907.14-.155.274-.32.39-.49.27-.38.48-.785.625-1.222V7.18h-.01zm-5.596 6.47c-.067.013-.134.015-.195.015h-.01c-.31 0-.598-.12-.8-.33-.204-.212-.324-.506-.324-.837 0-.39.16-.758.414-1.03.225-.24.518-.414.85-.462.062-.014.127-.017.19-.017.19 0 .363.05.52.12.365.19.605.58.605 1.05 0 .73-.556 1.38-1.256 1.49zm3.563-6.47c0 .066-.014.134-.08.255-.115.21-.44.543-.984.855-.812.482-2.07.93-3.586 1.244-1.523.316-3.307.498-5.22.497-2.908.005-5.543-.43-7.363-1.082-.91-.32-1.61-.7-2.02-1.06-.206-.17-.336-.33-.405-.45-.07-.12-.08-.19-.08-.25v-.01c0-.06.01-.13.08-.25.11-.213.44-.54.98-.86.81-.48 2.07-.93 3.583-1.24s3.306-.5 5.214-.5h.003c2.91 0 5.545.43 7.363 1.085.906.325 1.612.706 2.024 1.06.203.168.33.337.4.455.067.12.083.19.083.253h-.002z"/></svg>