<svg xmlns="http://www.w3.org/2000/svg" width="32" height="32" viewBox="0 0 32 32"><path d="M26.884 22.84c-.32.262-.657.503-1.018.738-.1.064-.206.13-.312.194C23.06 25.29 19.7 26.192 16 26.195c-2.778 0-5.363-.51-7.534-1.406-.843-.348-1.628-.754-2.336-1.21-.36-.235-.698-.482-1.018-.742-.368-.3-.707-.622-1.016-.957v3.06c0 1.1.412 2.126 1.075 2.99 1 1.293 2.532 2.28 4.395 2.983C11.432 31.607 13.632 32 16 32c3.155-.002 6.018-.693 8.18-1.885 1.08-.596 1.988-1.322 2.65-2.185.662-.86 1.077-1.89 1.074-2.99v-3.06c-.312.34-.647.658-1.022.96zm-3.375 5.423c-.16.558-.627 1.013-1.206 1.106-.067.008-.134.018-.195.018-.248 0-.478-.08-.665-.217-.283-.205-.46-.55-.46-.955.002-.73.554-1.38 1.262-1.494.065-.01.128-.013.193-.013.31-.003.594.12.8.33.203.207.325.507.325.835 0 .14-.023.265-.06.39z"/><path d="M26.884 15.215c-.32.267-.657.51-1.018.738-.103.068-.21.133-.317.2-2.507 1.498-5.864 2.295-9.55 2.3-2.767 0-5.345-.45-7.52-1.294-.85-.333-1.637-.73-2.35-1.187-.36-.226-.698-.473-1.018-.735-.366-.3-.707-.626-1.016-.968v4.59c.143.386.344.755.612 1.118.122.163.256.325.406.482.29.306.63.606 1.02.888.327.238.693.47 1.087.68 2.185 1.19 5.314 1.9 8.782 1.896 2.6 0 5.01-.4 6.97-1.1 1.13-.403 2.11-.908 2.897-1.48.384-.28.727-.582 1.017-.89.148-.157.282-.32.402-.48.268-.36.468-.73.612-1.117v-4.61c-.313.34-.647.666-1.022.97zm-4.58 6.335c-.067.012-.134.017-.195.017h-.004c-.31 0-.596-.122-.8-.337-.202-.208-.322-.503-.322-.835.003-.728.555-1.382 1.263-1.495.065-.01.13-.015.193-.015.31 0 .594.125.8.33.203.213.325.507.325.838-.005.733-.56 1.377-1.26 1.496z"/><path d="M27.9 7.182c.002-.47-.14-.928-.36-1.313-.394-.68-1-1.178-1.728-1.615-1.096-.644-2.525-1.13-4.196-1.476-1.668-.343-3.582-.536-5.617-.536-3.103.003-5.915.443-8.03 1.2-1.063.38-1.956.835-2.646 1.42-.346.29-.643.618-.867 1.007-.22.385-.36.842-.36 1.313v3.925c.147.438.356.85.625 1.236.118.162.25.33.394.487.288.326.63.626 1.02.907.326.244.687.47 1.087.673 2.17 1.15 5.3 1.77 8.787 1.766 2.61 0 5.023-.353 6.983-1.016 1.132-.384 2.104-.872 2.884-1.445.385-.284.728-.586 1.02-.907.14-.158.275-.32.39-.49.27-.383.48-.788.626-1.225V7.18h-.01zm-5.596 6.47c-.067.013-.134.015-.195.015h-.004c-.31 0-.596-.12-.8-.33-.202-.212-.322-.506-.322-.837 0-.39.16-.758.413-1.03.224-.24.517-.414.848-.462.063-.014.128-.017.19-.017.19 0 .364.045.52.12.366.188.606.58.606 1.05 0 .727-.555 1.377-1.255 1.49zm3.563-6.47c0 .066-.014.134-.08.255-.115.21-.44.543-.984.855-.812.482-2.07.93-3.586 1.244-1.523.316-3.307.498-5.22.497-2.908.005-5.543-.43-7.363-1.082-.91-.322-1.61-.705-2.02-1.06-.206-.17-.336-.333-.405-.45-.07-.12-.08-.192-.08-.254V7.18c0-.063.01-.133.08-.255.114-.212.44-.54.983-.86.81-.48 2.068-.928 3.587-1.24s3.307-.498 5.215-.498h.003c2.91 0 5.544.43 7.362 1.085.907.325 1.613.706 2.025 1.06.203.168.33.337.4.455.067.123.083.192.083.255h-.002z"/></svg>