<?xml version="1.0" standalone="no"?><!DOCTYPE svg PUBLIC "-//W3C//DTD SVG 1.1//EN" "http://www.w3.org/Graphics/SVG/1.1/DTD/svg11.dtd"><svg width="100%" height="100%" viewBox="0 0 32 32" version="1.1" xmlns="http://www.w3.org/2000/svg" xmlns:xlink="http://www.w3.org/1999/xlink" xml:space="preserve" style="fill-rule:evenodd;clip-rule:evenodd;stroke-linejoin:round;stroke-miterlimit:1.41421;"><path d="M22.28,14.154c-0.078,0.015 -0.155,0.018 -0.227,0.018l-0.005,0c-0.366,0 -0.7,-0.14 -0.94,-0.38c-0.238,-0.25 -0.378,-0.59 -0.378,-0.98c0,-0.45 0.19,-0.89 0.486,-1.21c0.262,-0.28 0.606,-0.48 0.997,-0.54c0.073,-0.012 0.15,-0.02 0.224,-0.02c0.22,0 0.425,0.057 0.61,0.14c0.43,0.22 0.713,0.688 0.713,1.238c-0.002,0.857 -0.654,1.62 -1.477,1.755l-0.003,0l0,-0.021Z" style="fill:#000;fill-rule:nonzero;"/><path d="M3.046,26.624c1.822,2.201 7.098,3.852 12.953,3.852c5.855,0 11.132,-1.651 12.954,-3.852l0,-4.029c-2.687,2.018 -7.609,3.309 -12.953,3.309c-5.344,0 -10.268,-1.29 -12.954,-3.309l0,4.029ZM3.046,20.527c1.822,2.198 7.098,3.852 12.953,3.852c5.855,0 11.132,-1.655 12.954,-3.853l0,-5.032c-2.69,2.094 -7.612,3.438 -12.951,3.438c-0.085,0 -0.169,0 -0.253,-0.001c-5.244,-0.042 -10.056,-1.376 -12.703,-3.439l0,5.035ZM30.477,13.879l0,13.253l-0.147,0.2c-2.022,2.778 -7.868,4.668 -14.33,4.668c-6.462,0 -12.31,-1.888 -14.33,-4.668l-0.146,-0.2l0,-0.248l-0.001,0l0,-15.456l0.001,0l0,-4.368c0,-4.06 6.53,-7.06 14.476,-7.06c7.946,0 14.476,3 14.476,7.06l0.002,0l0,6.818l-0.001,0.001ZM3.048,13.385c1.815,2.3 7.092,4.025 12.952,4.025c5.86,0 11.137,-1.727 12.952,-4.025l0,-6.324c0,-2.898 -5.75,-5.538 -12.952,-5.538c-7.202,0 -12.952,2.642 -12.952,5.537l0,6.325ZM28.952,13.385l0.001,-0.001l-0.001,0.001ZM3.046,13.383l0.002,0.002l-0.002,-0.002Z" style="fill:#000;"/><path d="M23.046,13.383l0.002,0.002l-0.002,-0.002Z" style="fill:#000;"/></svg>