<?xml version="1.0" standalone="no"?><!DOCTYPE svg PUBLIC "-//W3C//DTD SVG 1.1//EN" "http://www.w3.org/Graphics/SVG/1.1/DTD/svg11.dtd"><svg width="100%" height="100%" viewBox="0 0 32 32" version="1.1" xmlns="http://www.w3.org/2000/svg" xmlns:xlink="http://www.w3.org/1999/xlink" xml:space="preserve" style="fill-rule:evenodd;clip-rule:evenodd;stroke-linejoin:round;stroke-miterlimit:1.41421;"><path d="M4.622,16.758l0,4.551l22.755,0l0,-4.551l-22.755,0.001ZM4.622,22.825l0,2.278c0,1.252 0.53,2.276 3.034,2.276l16.687,0c2.503,0 3.034,-1.024 3.034,-2.276l0,-2.278l-22.755,0ZM27.378,15.242l0,-8.345c0,-1.252 -0.53,-2.275 -3.034,-2.275l-16.687,0c-2.503,0 -3.034,1.024 -3.034,2.276l0,8.344l22.755,0ZM22.828,12.208l-3.035,0l0,-3.034l3.034,0l0,3.034l0.001,0Z" style="fill:#000;fill-rule:nonzero;"/></svg>