<svg xmlns="http://www.w3.org/2000/svg" width="32" height="32" viewBox="0 0 32 32"><path d="M22.28 12.983c-.078.015-.155.018-.227.018h-.005c-.366 0-.7-.14-.94-.386-.238-.25-.378-.596-.378-.984 0-.457.19-.89.486-1.21.262-.28.606-.487.997-.543.073-.017.15-.02.224-.02.22 0 .425.052.61.14.43.22.713.683.713 1.233-.002.856-.654 1.62-1.477 1.754h-.003z"/><path d="M30.476 7.06C30.476 3 23.946 0 16 0S1.524 3 1.524 7.06v6.818l.138.197c2.02 2.888 7.875 4.857 14.34 4.857s12.317-1.97 14.338-4.857l.138-.197V7.06zM29.09 13.2C27.418 15.59 22.016 17.41 16 17.41S4.582 15.592 2.91 13.2l.138.438V7.06c0-2.895 5.75-5.537 12.952-5.537s12.952 2.64 12.952 5.538v6.578l.138-.437z"/><path d="M1.524 26.884v.248l.146.2C3.69 30.112 9.538 32 16 32s12.308-1.89 14.33-4.668l.147-.2v-9.61h-1.524v9.362l.146-.448c-1.67 2.294-7.077 4.04-13.1 4.04S4.57 28.73 2.903 26.436l.146.448v-9.36H1.524v9.36z"/><path d="M1.524 20.79v.247l.146.2c2.02 2.78 7.868 4.667 14.33 4.667s12.308-1.888 14.33-4.667l.147-.2v-9.61h-1.524v9.362l.146-.45c-1.67 2.295-7.077 4.04-13.1 4.04S4.57 22.636 2.903 20.34l.146.45v-9.362H1.524v9.36z"/></svg>