<?xml version="1.0" standalone="no"?><!DOCTYPE svg PUBLIC "-//W3C//DTD SVG 1.1//EN" "http://www.w3.org/Graphics/SVG/1.1/DTD/svg11.dtd"><svg width="100%" height="100%" viewBox="0 0 512 512" version="1.1" xmlns="http://www.w3.org/2000/svg" xmlns:xlink="http://www.w3.org/1999/xlink" xml:space="preserve" style="fill-rule:evenodd;clip-rule:evenodd;stroke-linejoin:round;stroke-miterlimit:1.41421;"><g id="Layer1"><path d="M256,510.897l-0.269,-0.001l-0.27,-0.003l-0.269,-0.004l-0.269,-0.005l-0.269,-0.007l-0.27,-0.009l-0.269,-0.011l-0.269,-0.012l-0.269,-0.013l-0.269,-0.016l-0.269,-0.017l-0.269,-0.018l-0.268,-0.02l-0.269,-0.022l-0.268,-0.023l-0.269,-0.025l-0.268,-0.026l-0.268,-0.028l-0.268,-0.03l-0.268,-0.031l-0.268,-0.033l-0.267,-0.035l-0.268,-0.036l-0.267,-0.038l-0.267,-0.039l-0.266,-0.041l-0.267,-0.043l-0.266,-0.044l-0.267,-0.045l-0.265,-0.048l-0.266,-0.049l-0.266,-0.05l-0.265,-0.053l-0.265,-0.053l-0.264,-0.056l-0.265,-0.057l-0.264,-0.058l-0.264,-0.06l-0.263,-0.062l-0.264,-0.064l-0.263,-0.065l-0.262,-0.066l-0.262,-0.069l-0.262,-0.069l-0.262,-0.072l-0.261,-0.073l-0.261,-0.075l-0.261,-0.076l-0.26,-0.078l-0.26,-0.079l-0.259,-0.081l-0.259,-0.083l-0.259,-0.084l-0.258,-0.086l-0.257,-0.087l-0.258,-0.09l-0.257,-0.09l-0.256,-0.093l-0.256,-0.093l-0.256,-0.096l-0.255,-0.097l-0.254,-0.099l-0.254,-0.1l-0.254,-0.102l-0.253,-0.104l-0.253,-0.105l-0.252,-0.107l-0.251,-0.108l-0.251,-0.11l-0.251,-0.111l-0.25,-0.114l-0.249,-0.114l-0.249,-0.117l-0.248,-0.118l-0.248,-0.119l-0.247,-0.122l-0.247,-0.122l-0.246,-0.125l-0.245,-0.126l-0.245,-0.127l-0.244,-0.13l-0.243,-0.131l-0.243,-0.132l-0.242,-0.134l-0.241,-0.136l-0.241,-0.137l-0.24,-0.139l-0.24,-0.14l-0.239,-0.142l-0.238,-0.144l-0.237,-0.145l-0.237,-0.147l-0.236,-0.149l-0.235,-0.15l-0.235,-0.151l-0.234,-0.154l-0.233,-0.155l-0.232,-0.156l-0.231,-0.158l-0.231,-0.16l-0.23,-0.161l-0.229,-0.163l-0.229,-0.165l-0.227,-0.166l-0.227,-0.168l-0.226,-0.169l-0.225,-0.171l-0.224,-0.173l-0.224,-0.174l-0.222,-0.176l-0.222,-0.177l-0.221,-0.179l-0.22,-0.181l-0.219,-0.182l-0.218,-0.184l-0.218,-0.185l-0.216,-0.187l-0.216,-0.189l-0.214,-0.19l-0.214,-0.192l-0.213,-0.193l-0.212,-0.195l-0.21,-0.197l-0.21,-0.198l-0.209,-0.2l-0.208,-0.202l-0.207,-0.203l-0.206,-0.204l-209.997,-209.997l-0.204,-0.206l-0.203,-0.207l-0.202,-0.208l-0.2,-0.209l-0.198,-0.21l-0.197,-0.21l-0.195,-0.212l-0.193,-0.213l-0.192,-0.214l-0.19,-0.214l-0.189,-0.216l-0.187,-0.216l-0.185,-0.218l-0.184,-0.218l-0.182,-0.219l-0.181,-0.22l-0.179,-0.221l-0.177,-0.222l-0.176,-0.222l-0.174,-0.224l-0.173,-0.224l-0.171,-0.225l-0.169,-0.226l-0.168,-0.227l-0.166,-0.227l-0.165,-0.229l-0.163,-0.229l-0.161,-0.23l-0.16,-0.231l-0.158,-0.231l-0.156,-0.232l-0.155,-0.233l-0.154,-0.234l-0.151,-0.235l-0.15,-0.235l-0.149,-0.236l-0.147,-0.237l-0.145,-0.237l-0.144,-0.238l-0.142,-0.239l-0.14,-0.24l-0.139,-0.24l-0.137,-0.241l-0.136,-0.241l-0.134,-0.242l-0.132,-0.243l-0.131,-0.243l-0.13,-0.244l-0.127,-0.245l-0.126,-0.245l-0.125,-0.246l-0.122,-0.247l-0.122,-0.247l-0.119,-0.248l-0.118,-0.248l-0.117,-0.249l-0.114,-0.249l-0.114,-0.25l-0.111,-0.251l-0.11,-0.251l-0.108,-0.251l-0.107,-0.252l-0.105,-0.253l-0.104,-0.253l-0.102,-0.254l-0.1,-0.254l-0.099,-0.254l-0.097,-0.255l-0.096,-0.256l-0.093,-0.256l-0.093,-0.256l-0.09,-0.257l-0.09,-0.258l-0.087,-0.257l-0.086,-0.258l-0.084,-0.259l-0.083,-0.259l-0.081,-0.259l-0.079,-0.26l-0.078,-0.26l-0.076,-0.261l-0.075,-0.261l-0.073,-0.261l-0.072,-0.262l-0.069,-0.262l-0.069,-0.262l-0.066,-0.262l-0.065,-0.263l-0.064,-0.264l-0.062,-0.263l-0.06,-0.264l-0.058,-0.264l-0.057,-0.265l-0.056,-0.264l-0.053,-0.265l-0.053,-0.265l-0.05,-0.266l-0.049,-0.266l-0.048,-0.265l-0.045,-0.267l-0.044,-0.266l-0.043,-0.267l-0.041,-0.266l-0.039,-0.267l-0.038,-0.267l-0.036,-0.268l-0.035,-0.267l-0.033,-0.268l-0.031,-0.268l-0.03,-0.268l-0.028,-0.268l-0.026,-0.268l-0.025,-0.269l-0.023,-0.268l-0.022,-0.269l-0.02,-0.268l-0.018,-0.269l-0.017,-0.269l-0.016,-0.269l-0.013,-0.269l-0.012,-0.269l-0.011,-0.269l-0.009,-0.27l-0.007,-0.269l-0.005,-0.269l-0.004,-0.269l-0.003,-0.27l-0.001,-0.269l0.001,-0.269l0.003,-0.27l0.004,-0.269l0.005,-0.269l0.007,-0.269l0.009,-0.27l0.011,-0.269l0.012,-0.269l0.013,-0.269l0.016,-0.269l0.017,-0.269l0.018,-0.269l0.02,-0.268l0.022,-0.269l0.023,-0.268l0.025,-0.269l0.026,-0.268l0.028,-0.268l0.03,-0.268l0.031,-0.268l0.033,-0.268l0.035,-0.267l0.036,-0.268l0.038,-0.267l0.039,-0.267l0.041,-0.266l0.043,-0.267l0.044,-0.266l0.045,-0.267l0.048,-0.265l0.049,-0.266l0.05,-0.266l0.053,-0.265l0.053,-0.265l0.056,-0.264l0.057,-0.265l0.058,-0.264l0.06,-0.264l0.062,-0.263l0.064,-0.264l0.065,-0.263l0.066,-0.262l0.069,-0.262l0.069,-0.262l0.072,-0.262l0.073,-0.261l0.075,-0.261l0.076,-0.261l0.078,-0.26l0.079,-0.26l0.081,-0.259l0.083,-0.259l0.084,-0.259l0.086,-0.258l0.087,-0.257l0.09,-0.258l0.09,-0.257l0.093,-0.256l0.093,-0.256l0.096,-0.256l0.097,-0.255l0.099,-0.254l0.1,-0.254l0.102,-0.254l0.104,-0.253l0.105,-0.253l0.107,-0.252l0.108,-0.251l0.11,-0.251l0.111,-0.251l0.114,-0.25l0.114,-0.249l0.117,-0.249l0.118,-0.248l0.119,-0.248l0.122,-0.247l0.122,-0.247l0.125,-0.246l0.126,-0.245l0.127,-0.245l0.13,-0.244l0.131,-0.243l0.132,-0.243l0.134,-0.242l0.136,-0.241l0.137,-0.241l0.139,-0.24l0.14,-0.24l0.142,-0.239l0.144,-0.238l0.145,-0.237l0.147,-0.237l0.149,-0.236l0.15,-0.235l0.151,-0.235l0.154,-0.234l0.155,-0.233l0.156,-0.232l0.158,-0.231l0.16,-0.231l0.161,-0.23l0.163,-0.229l0.165,-0.229l0.166,-0.227l0.168,-0.227l0.169,-0.226l0.171,-0.225l0.173,-0.224l0.174,-0.224l0.176,-0.222l0.177,-0.222l0.179,-0.221l0.181,-0.22l0.182,-0.219l0.184,-0.218l0.185,-0.218l0.187,-0.216l0.189,-0.216l0.19,-0.214l0.192,-0.214l0.193,-0.213l0.195,-0.212l0.197,-0.21l0.198,-0.21l0.2,-0.209l0.202,-0.208l0.203,-0.207l0.204,-0.206l209.997,-209.997l0.206,-0.204l0.207,-0.203l0.208,-0.202l0.209,-0.2l0.21,-0.198l0.21,-0.197l0.212,-0.195l0.213,-0.193l0.214,-0.192l0.214,-0.19l0.216,-0.189l0.216,-0.187l0.218,-0.185l0.218,-0.184l0.219,-0.182l0.22,-0.181l0.221,-0.179l0.222,-0.177l0.222,-0.176l0.224,-0.174l0.224,-0.173l0.225,-0.171l0.226,-0.169l0.227,-0.168l0.227,-0.166l0.229,-0.165l0.229,-0.163l0.23,-0.161l0.231,-0.16l0.231,-0.158l0.232,-0.156l0.233,-0.155l0.234,-0.154l0.235,-0.151l0.235,-0.15l0.236,-0.149l0.237,-0.147l0.237,-0.145l0.238,-0.144l0.239,-0.142l0.24,-0.14l0.24,-0.139l0.241,-0.137l0.241,-0.136l0.242,-0.134l0.243,-0.132l0.243,-0.131l0.244,-0.13l0.245,-0.127l0.245,-0.126l0.246,-0.125l0.247,-0.122l0.247,-0.122l0.248,-0.119l0.248,-0.118l0.249,-0.117l0.249,-0.114l0.25,-0.114l0.251,-0.111l0.251,-0.11l0.251,-0.108l0.252,-0.107l0.253,-0.105l0.253,-0.104l0.254,-0.102l0.254,-0.1l0.254,-0.099l0.255,-0.097l0.256,-0.096l0.256,-0.093l0.256,-0.093l0.257,-0.09l0.258,-0.09l0.257,-0.087l0.258,-0.086l0.259,-0.084l0.259,-0.083l0.259,-0.081l0.26,-0.079l0.26,-0.078l0.261,-0.076l0.261,-0.075l0.261,-0.073l0.262,-0.072l0.262,-0.069l0.262,-0.069l0.262,-0.066l0.263,-0.065l0.264,-0.064l0.263,-0.062l0.264,-0.06l0.264,-0.058l0.265,-0.057l0.264,-0.056l0.265,-0.053l0.265,-0.053l0.266,-0.05l0.266,-0.049l0.265,-0.048l0.267,-0.045l0.266,-0.044l0.267,-0.043l0.266,-0.041l0.267,-0.039l0.267,-0.038l0.268,-0.036l0.267,-0.035l0.268,-0.033l0.268,-0.031l0.268,-0.03l0.268,-0.028l0.268,-0.026l0.269,-0.025l0.268,-0.023l0.269,-0.022l0.268,-0.02l0.269,-0.018l0.269,-0.017l0.269,-0.016l0.269,-0.013l0.269,-0.012l0.269,-0.011l0.27,-0.009l0.269,-0.007l0.269,-0.005l0.269,-0.004l0.27,-0.003l0.269,-0.001l0.269,0.001l0.27,0.003l0.269,0.004l0.269,0.005l0.269,0.007l0.27,0.009l0.269,0.011l0.269,0.012l0.269,0.013l0.269,0.016l0.269,0.017l0.269,0.018l0.268,0.02l0.269,0.022l0.268,0.023l0.269,0.025l0.268,0.026l0.268,0.028l0.268,0.03l0.268,0.031l0.268,0.033l0.267,0.035l0.268,0.036l0.267,0.038l0.267,0.039l0.266,0.041l0.267,0.043l0.266,0.044l0.267,0.045l0.265,0.048l0.266,0.049l0.266,0.05l0.265,0.053l0.265,0.053l0.264,0.056l0.265,0.057l0.264,0.058l0.264,0.06l0.263,0.062l0.264,0.064l0.263,0.065l0.262,0.066l0.262,0.069l0.262,0.069l0.262,0.072l0.261,0.073l0.261,0.075l0.261,0.076l0.26,0.078l0.26,0.079l0.259,0.081l0.259,0.083l0.259,0.084l0.258,0.086l0.257,0.087l0.258,0.09l0.257,0.09l0.256,0.093l0.256,0.093l0.256,0.096l0.255,0.097l0.254,0.099l0.254,0.1l0.254,0.102l0.253,0.104l0.253,0.105l0.252,0.107l0.251,0.108l0.251,0.11l0.251,0.111l0.25,0.114l0.249,0.114l0.249,0.117l0.248,0.118l0.248,0.119l0.247,0.122l0.247,0.122l0.246,0.125l0.245,0.126l0.245,0.127l0.244,0.13l0.243,0.131l0.243,0.132l0.242,0.134l0.241,0.136l0.241,0.137l0.24,0.139l0.24,0.14l0.239,0.142l0.238,0.144l0.237,0.145l0.237,0.147l0.236,0.149l0.235,0.15l0.235,0.151l0.234,0.154l0.233,0.155l0.232,0.156l0.231,0.158l0.231,0.16l0.23,0.161l0.229,0.163l0.229,0.165l0.227,0.166l0.227,0.168l0.226,0.169l0.225,0.171l0.224,0.173l0.224,0.174l0.222,0.176l0.222,0.177l0.221,0.179l0.22,0.181l0.219,0.182l0.218,0.184l0.218,0.185l0.216,0.187l0.216,0.189l0.214,0.19l0.214,0.192l0.213,0.193l0.212,0.195l0.21,0.197l0.21,0.198l0.209,0.2l0.208,0.202l0.207,0.203l0.206,0.204l209.997,209.997l0.204,0.206l0.203,0.207l0.202,0.208l0.2,0.209l0.198,0.21l0.197,0.21l0.195,0.212l0.193,0.213l0.192,0.214l0.19,0.214l0.189,0.216l0.187,0.216l0.185,0.218l0.184,0.218l0.182,0.219l0.181,0.22l0.179,0.221l0.177,0.222l0.176,0.222l0.174,0.224l0.173,0.224l0.171,0.225l0.169,0.226l0.168,0.227l0.166,0.227l0.165,0.229l0.163,0.229l0.161,0.23l0.16,0.231l0.158,0.231l0.156,0.232l0.155,0.233l0.154,0.234l0.151,0.235l0.15,0.235l0.149,0.236l0.147,0.237l0.145,0.237l0.144,0.238l0.142,0.239l0.14,0.24l0.139,0.24l0.137,0.241l0.136,0.241l0.134,0.242l0.132,0.243l0.131,0.243l0.13,0.244l0.127,0.245l0.126,0.245l0.125,0.246l0.122,0.247l0.122,0.247l0.119,0.248l0.118,0.248l0.117,0.249l0.114,0.249l0.114,0.25l0.111,0.251l0.11,0.251l0.108,0.251l0.107,0.252l0.105,0.253l0.104,0.253l0.102,0.254l0.1,0.254l0.099,0.254l0.097,0.255l0.096,0.256l0.093,0.256l0.093,0.256l0.09,0.257l0.09,0.258l0.087,0.257l0.086,0.258l0.084,0.259l0.083,0.259l0.081,0.259l0.079,0.26l0.078,0.26l0.076,0.261l0.075,0.261l0.073,0.261l0.072,0.262l0.069,0.262l0.069,0.262l0.066,0.262l0.065,0.263l0.064,0.264l0.062,0.263l0.06,0.264l0.058,0.264l0.057,0.265l0.056,0.264l0.053,0.265l0.053,0.265l0.05,0.266l0.049,0.266l0.048,0.265l0.045,0.267l0.044,0.266l0.043,0.267l0.041,0.266l0.039,0.267l0.038,0.267l0.036,0.268l0.035,0.267l0.033,0.268l0.031,0.268l0.03,0.268l0.028,0.268l0.026,0.268l0.025,0.269l0.023,0.268l0.022,0.269l0.02,0.268l0.018,0.269l0.017,0.269l0.016,0.269l0.013,0.269l0.012,0.269l0.011,0.269l0.009,0.27l0.007,0.269l0.005,0.269l0.004,0.269l0.003,0.27l0.001,0.269l-0.001,0.269l-0.003,0.27l-0.004,0.269l-0.005,0.269l-0.007,0.269l-0.009,0.27l-0.011,0.269l-0.012,0.269l-0.013,0.269l-0.016,0.269l-0.017,0.269l-0.018,0.269l-0.02,0.268l-0.022,0.269l-0.023,0.268l-0.025,0.269l-0.026,0.268l-0.028,0.268l-0.03,0.268l-0.031,0.268l-0.033,0.268l-0.035,0.267l-0.036,0.268l-0.038,0.267l-0.039,0.267l-0.041,0.266l-0.043,0.267l-0.044,0.266l-0.045,0.267l-0.048,0.265l-0.049,0.266l-0.05,0.266l-0.053,0.265l-0.053,0.265l-0.056,0.264l-0.057,0.265l-0.058,0.264l-0.06,0.264l-0.062,0.263l-0.064,0.264l-0.065,0.263l-0.066,0.262l-0.069,0.262l-0.069,0.262l-0.072,0.262l-0.073,0.261l-0.075,0.261l-0.076,0.261l-0.078,0.26l-0.079,0.26l-0.081,0.259l-0.083,0.259l-0.084,0.259l-0.086,0.258l-0.087,0.257l-0.09,0.258l-0.09,0.257l-0.093,0.256l-0.093,0.256l-0.096,0.256l-0.097,0.255l-0.099,0.254l-0.1,0.254l-0.102,0.254l-0.104,0.253l-0.105,0.253l-0.107,0.252l-0.108,0.251l-0.11,0.251l-0.111,0.251l-0.114,0.25l-0.114,0.249l-0.117,0.249l-0.118,0.248l-0.119,0.248l-0.122,0.247l-0.122,0.247l-0.125,0.246l-0.126,0.245l-0.127,0.245l-0.13,0.244l-0.131,0.243l-0.132,0.243l-0.134,0.242l-0.136,0.241l-0.137,0.241l-0.139,0.24l-0.14,0.24l-0.142,0.239l-0.144,0.238l-0.145,0.237l-0.147,0.237l-0.149,0.236l-0.15,0.235l-0.151,0.235l-0.154,0.234l-0.155,0.233l-0.156,0.232l-0.158,0.231l-0.16,0.231l-0.161,0.23l-0.163,0.229l-0.165,0.229l-0.166,0.227l-0.168,0.227l-0.169,0.226l-0.171,0.225l-0.173,0.224l-0.174,0.224l-0.176,0.222l-0.177,0.222l-0.179,0.221l-0.181,0.22l-0.182,0.219l-0.184,0.218l-0.185,0.218l-0.187,0.216l-0.189,0.216l-0.19,0.214l-0.192,0.214l-0.193,0.213l-0.195,0.212l-0.197,0.21l-0.198,0.21l-0.2,0.209l-0.202,0.208l-0.203,0.207l-0.204,0.206l-209.997,209.997l-0.206,0.204l-0.207,0.203l-0.208,0.202l-0.209,0.2l-0.21,0.198l-0.21,0.197l-0.212,0.195l-0.213,0.193l-0.214,0.192l-0.214,0.19l-0.216,0.189l-0.216,0.187l-0.218,0.185l-0.218,0.184l-0.219,0.182l-0.22,0.181l-0.221,0.179l-0.222,0.177l-0.222,0.176l-0.224,0.174l-0.224,0.173l-0.225,0.171l-0.226,0.169l-0.227,0.168l-0.227,0.166l-0.229,0.165l-0.229,0.163l-0.23,0.161l-0.231,0.16l-0.231,0.158l-0.232,0.156l-0.233,0.155l-0.234,0.154l-0.235,0.151l-0.235,0.15l-0.236,0.149l-0.237,0.147l-0.237,0.145l-0.238,0.144l-0.239,0.142l-0.24,0.14l-0.24,0.139l-0.241,0.137l-0.241,0.136l-0.242,0.134l-0.243,0.132l-0.243,0.131l-0.244,0.13l-0.245,0.127l-0.245,0.126l-0.246,0.125l-0.247,0.122l-0.247,0.122l-0.248,0.119l-0.248,0.118l-0.249,0.117l-0.249,0.114l-0.25,0.114l-0.251,0.111l-0.251,0.11l-0.251,0.108l-0.252,0.107l-0.253,0.105l-0.253,0.104l-0.254,0.102l-0.254,0.1l-0.254,0.099l-0.255,0.097l-0.256,0.096l-0.256,0.093l-0.256,0.093l-0.257,0.09l-0.258,0.09l-0.257,0.087l-0.258,0.086l-0.259,0.084l-0.259,0.083l-0.259,0.081l-0.26,0.079l-0.26,0.078l-0.261,0.076l-0.261,0.075l-0.261,0.073l-0.262,0.072l-0.262,0.069l-0.262,0.069l-0.262,0.066l-0.263,0.065l-0.264,0.064l-0.263,0.062l-0.264,0.06l-0.264,0.058l-0.265,0.057l-0.264,0.056l-0.265,0.053l-0.265,0.053l-0.266,0.05l-0.266,0.049l-0.265,0.048l-0.267,0.045l-0.266,0.044l-0.267,0.043l-0.266,0.041l-0.267,0.039l-0.267,0.038l-0.268,0.036l-0.267,0.035l-0.268,0.033l-0.268,0.031l-0.268,0.03l-0.268,0.028l-0.268,0.026l-0.269,0.025l-0.268,0.023l-0.269,0.022l-0.268,0.02l-0.269,0.018l-0.269,0.017l-0.269,0.016l-0.269,0.013l-0.269,0.012l-0.269,0.011l-0.27,0.009l-0.269,0.007l-0.269,0.005l-0.269,0.004l-0.27,0.003l-0.269,0.001ZM256,480.896l0.091,0l0.091,-0.001l0.091,-0.001l0.089,-0.002l0.09,-0.002l0.091,-0.003l0.089,-0.004l0.091,-0.004l0.091,-0.004l0.09,-0.006l0.091,-0.005l0.089,-0.006l0.09,-0.007l0.093,-0.007l0.088,-0.008l0.089,-0.008l0.092,-0.009l0.088,-0.01l0.091,-0.01l0.09,-0.01l0.088,-0.011l0.091,-0.012l0.09,-0.012l0.088,-0.012l0.088,-0.013l0.09,-0.014l0.09,-0.015l0.09,-0.015l0.088,-0.015l0.087,-0.015l0.089,-0.016l0.09,-0.018l0.089,-0.017l0.087,-0.018l0.086,-0.018l0.089,-0.019l0.09,-0.02l0.086,-0.02l0.088,-0.02l0.088,-0.021l0.086,-0.022l0.087,-0.022l0.087,-0.022l0.087,-0.024l0.087,-0.023l0.087,-0.025l0.084,-0.024l0.087,-0.025l0.086,-0.026l0.085,-0.026l0.086,-0.027l0.087,-0.028l0.084,-0.027l0.084,-0.028l0.086,-0.029l0.085,-0.03l0.084,-0.029l0.084,-0.031l0.085,-0.031l0.083,-0.031l0.084,-0.032l0.085,-0.032l0.082,-0.033l0.082,-0.033l0.085,-0.035l0.083,-0.034l0.081,-0.035l0.083,-0.035l0.082,-0.036l0.081,-0.036l0.082,-0.037l0.082,-0.038l0.081,-0.038l0.082,-0.039l0.08,-0.039l0.08,-0.039l0.081,-0.04l0.081,-0.041l0.08,-0.041l0.079,-0.042l0.08,-0.042l0.08,-0.043l0.079,-0.043l0.08,-0.044l0.078,-0.044l0.079,-0.045l0.078,-0.045l0.078,-0.046l0.08,-0.047l0.076,-0.047l0.078,-0.047l0.078,-0.048l0.078,-0.049l0.077,-0.05l0.075,-0.048l0.077,-0.051l0.078,-0.051l0.075,-0.051l0.076,-0.052l0.078,-0.054l0.074,-0.052l0.076,-0.054l0.076,-0.054l0.074,-0.055l0.075,-0.056l0.075,-0.056l0.075,-0.057l0.075,-0.057l0.074,-0.058l0.073,-0.058l0.075,-0.059l0.074,-0.06l0.072,-0.06l0.075,-0.062l0.073,-0.061l0.073,-0.063l0.073,-0.063l0.073,-0.063l0.072,-0.064l0.073,-0.066l0.073,-0.066l0.071,-0.066l0.072,-0.067l0.073,-0.069l0.071,-0.068l0.071,-0.069l0.071,-0.07l0.105,-0.104l209.93,-209.93l0.104,-0.105l0.07,-0.071l0.069,-0.071l0.068,-0.071l0.069,-0.073l0.067,-0.072l0.066,-0.071l0.066,-0.073l0.066,-0.073l0.064,-0.072l0.063,-0.073l0.063,-0.073l0.063,-0.073l0.061,-0.073l0.062,-0.075l0.06,-0.072l0.06,-0.074l0.059,-0.075l0.058,-0.073l0.058,-0.074l0.057,-0.075l0.057,-0.075l0.056,-0.075l0.056,-0.075l0.055,-0.074l0.054,-0.076l0.054,-0.076l0.052,-0.074l0.054,-0.078l0.052,-0.076l0.051,-0.075l0.051,-0.078l0.051,-0.077l0.048,-0.075l0.05,-0.077l0.049,-0.078l0.048,-0.078l0.047,-0.078l0.047,-0.076l0.047,-0.08l0.046,-0.078l0.045,-0.078l0.045,-0.079l0.044,-0.078l0.044,-0.08l0.043,-0.079l0.043,-0.08l0.042,-0.08l0.042,-0.079l0.041,-0.08l0.041,-0.081l0.04,-0.081l0.039,-0.08l0.039,-0.08l0.039,-0.082l0.038,-0.081l0.038,-0.082l0.037,-0.082l0.036,-0.081l0.036,-0.082l0.035,-0.083l0.035,-0.081l0.034,-0.083l0.035,-0.085l0.033,-0.082l0.033,-0.082l0.032,-0.085l0.032,-0.084l0.031,-0.083l0.031,-0.085l0.031,-0.084l0.029,-0.084l0.03,-0.085l0.029,-0.086l0.028,-0.084l0.027,-0.084l0.028,-0.087l0.027,-0.086l0.026,-0.085l0.026,-0.086l0.025,-0.087l0.024,-0.084l0.025,-0.087l0.023,-0.087l0.024,-0.087l0.022,-0.087l0.022,-0.087l0.022,-0.086l0.021,-0.088l0.02,-0.088l0.02,-0.086l0.02,-0.09l0.019,-0.089l0.018,-0.086l0.018,-0.087l0.017,-0.089l0.018,-0.09l0.016,-0.089l0.015,-0.087l0.015,-0.088l0.015,-0.09l0.015,-0.09l0.014,-0.09l0.013,-0.088l0.012,-0.088l0.012,-0.09l0.012,-0.091l0.011,-0.088l0.01,-0.09l0.01,-0.091l0.01,-0.088l0.009,-0.092l0.008,-0.089l0.008,-0.088l0.007,-0.093l0.007,-0.09l0.006,-0.089l0.005,-0.091l0.006,-0.09l0.004,-0.091l0.004,-0.091l0.004,-0.089l0.003,-0.091l0.002,-0.09l0.002,-0.089l0.001,-0.091l0.001,-0.091l0,-0.091l0,-0.091l-0.001,-0.091l-0.001,-0.091l-0.002,-0.089l-0.002,-0.09l-0.003,-0.091l-0.004,-0.089l-0.004,-0.091l-0.004,-0.091l-0.006,-0.09l-0.005,-0.091l-0.006,-0.089l-0.007,-0.09l-0.007,-0.092l-0.008,-0.089l-0.008,-0.089l-0.009,-0.092l-0.01,-0.088l-0.01,-0.091l-0.01,-0.09l-0.011,-0.088l-0.012,-0.091l-0.012,-0.09l-0.012,-0.088l-0.013,-0.088l-0.014,-0.09l-0.015,-0.091l-0.014,-0.089l-0.016,-0.087l-0.015,-0.088l-0.016,-0.089l-0.018,-0.09l-0.017,-0.089l-0.018,-0.087l-0.018,-0.086l-0.019,-0.089l-0.02,-0.09l-0.02,-0.086l-0.02,-0.088l-0.021,-0.087l-0.022,-0.087l-0.022,-0.087l-0.022,-0.087l-0.024,-0.087l-0.023,-0.087l-0.025,-0.087l-0.024,-0.085l-0.025,-0.086l-0.026,-0.086l-0.026,-0.085l-0.027,-0.086l-0.028,-0.087l-0.027,-0.084l-0.028,-0.084l-0.029,-0.087l-0.03,-0.085l-0.029,-0.083l-0.031,-0.084l-0.031,-0.085l-0.03,-0.082l-0.032,-0.084l-0.034,-0.086l-0.032,-0.082l-0.033,-0.082l-0.035,-0.085l-0.034,-0.083l-0.035,-0.081l-0.035,-0.083l-0.036,-0.082l-0.036,-0.081l-0.037,-0.082l-0.038,-0.082l-0.038,-0.081l-0.039,-0.082l-0.038,-0.079l-0.04,-0.081l-0.04,-0.081l-0.041,-0.081l-0.042,-0.08l-0.041,-0.079l-0.042,-0.08l-0.043,-0.08l-0.043,-0.079l-0.044,-0.08l-0.044,-0.078l-0.045,-0.079l-0.045,-0.078l-0.046,-0.079l-0.047,-0.078l-0.046,-0.077l-0.048,-0.078l-0.048,-0.078l-0.049,-0.078l-0.049,-0.076l-0.049,-0.076l-0.051,-0.078l-0.051,-0.076l-0.051,-0.076l-0.052,-0.076l-0.054,-0.077l-0.052,-0.075l-0.054,-0.076l-0.054,-0.076l-0.055,-0.074l-0.055,-0.075l-0.057,-0.075l-0.057,-0.075l-0.057,-0.075l-0.058,-0.074l-0.058,-0.074l-0.059,-0.074l-0.06,-0.074l-0.06,-0.073l-0.061,-0.073l-0.062,-0.074l-0.063,-0.073l-0.063,-0.073l-0.064,-0.073l-0.063,-0.072l-0.066,-0.073l-0.066,-0.072l-0.065,-0.072l-0.069,-0.073l-0.068,-0.072l-0.067,-0.07l-0.07,-0.072l-0.07,-0.072l-0.104,-0.104l-209.93,-209.93l-0.105,-0.105l-0.071,-0.069l-0.071,-0.069l-0.072,-0.069l-0.073,-0.069l-0.07,-0.066l-0.073,-0.066l-0.072,-0.066l-0.073,-0.065l-0.073,-0.065l-0.072,-0.063l-0.073,-0.063l-0.073,-0.063l-0.073,-0.061l-0.074,-0.062l-0.073,-0.06l-0.074,-0.06l-0.074,-0.059l-0.074,-0.059l-0.074,-0.057l-0.075,-0.057l-0.075,-0.057l-0.074,-0.056l-0.076,-0.056l-0.075,-0.055l-0.076,-0.054l-0.075,-0.054l-0.075,-0.053l-0.077,-0.053l-0.075,-0.051l-0.077,-0.052l-0.077,-0.051l-0.076,-0.05l-0.077,-0.05l-0.077,-0.049l-0.077,-0.049l-0.078,-0.048l-0.077,-0.047l-0.078,-0.047l-0.079,-0.047l-0.078,-0.046l-0.078,-0.045l-0.079,-0.045l-0.079,-0.044l-0.079,-0.044l-0.079,-0.043l-0.079,-0.043l-0.08,-0.042l-0.08,-0.042l-0.081,-0.041l-0.08,-0.041l-0.08,-0.04l-0.081,-0.039l-0.081,-0.039l-0.081,-0.039l-0.081,-0.038l-0.082,-0.037l-0.081,-0.037l-0.083,-0.037l-0.082,-0.036l-0.082,-0.035l-0.082,-0.035l-0.083,-0.035l-0.083,-0.034l-0.083,-0.033l-0.084,-0.033l-0.083,-0.032l-0.083,-0.032l-0.085,-0.032l-0.084,-0.03l-0.084,-0.031l-0.085,-0.03l-0.084,-0.029l-0.085,-0.029l-0.085,-0.028l-0.085,-0.028l-0.085,-0.027l-0.086,-0.027l-0.086,-0.026l-0.086,-0.026l-0.086,-0.025l-0.086,-0.025l-0.086,-0.024l-0.087,-0.023l-0.087,-0.023l-0.087,-0.023l-0.087,-0.022l-0.087,-0.022l-0.088,-0.021l-0.087,-0.02l-0.087,-0.02l-0.088,-0.02l-0.088,-0.019l-0.088,-0.018l-0.089,-0.018l-0.088,-0.018l-0.088,-0.016l-0.089,-0.017l-0.088,-0.015l-0.089,-0.016l-0.09,-0.014l-0.088,-0.015l-0.089,-0.013l-0.09,-0.013l-0.089,-0.013l-0.089,-0.012l-0.09,-0.012l-0.09,-0.011l-0.089,-0.01l-0.09,-0.01l-0.09,-0.01l-0.09,-0.008l-0.09,-0.009l-0.09,-0.008l-0.09,-0.007l-0.09,-0.007l-0.09,-0.006l-0.091,-0.005l-0.09,-0.006l-0.09,-0.004l-0.091,-0.004l-0.09,-0.004l-0.091,-0.003l-0.09,-0.002l-0.091,-0.002l-0.09,-0.001l-0.091,-0.001l-0.09,0l-0.09,0l-0.091,0.001l-0.09,0.001l-0.091,0.002l-0.09,0.002l-0.091,0.003l-0.09,0.004l-0.091,0.004l-0.09,0.004l-0.09,0.006l-0.09,0.005l-0.091,0.006l-0.09,0.007l-0.09,0.007l-0.09,0.008l-0.09,0.009l-0.09,0.008l-0.09,0.01l-0.09,0.01l-0.089,0.01l-0.09,0.011l-0.089,0.012l-0.09,0.012l-0.089,0.013l-0.089,0.013l-0.09,0.013l-0.089,0.015l-0.088,0.014l-0.089,0.016l-0.089,0.015l-0.089,0.017l-0.088,0.017l-0.089,0.017l-0.088,0.018l-0.088,0.018l-0.088,0.019l-0.088,0.02l-0.087,0.02l-0.088,0.02l-0.087,0.021l-0.087,0.022l-0.087,0.022l-0.087,0.022l-0.087,0.024l-0.087,0.023l-0.086,0.024l-0.086,0.025l-0.086,0.025l-0.086,0.026l-0.086,0.026l-0.085,0.027l-0.086,0.027l-0.085,0.028l-0.085,0.028l-0.085,0.029l-0.085,0.029l-0.084,0.03l-0.084,0.031l-0.084,0.03l-0.084,0.032l-0.084,0.032l-0.084,0.032l-0.083,0.033l-0.083,0.033l-0.083,0.034l-0.083,0.035l-0.082,0.035l-0.082,0.035l-0.083,0.036l-0.082,0.037l-0.081,0.037l-0.082,0.037l-0.081,0.038l-0.081,0.039l-0.081,0.039l-0.081,0.039l-0.08,0.04l-0.081,0.041l-0.08,0.041l-0.079,0.042l-0.08,0.042l-0.08,0.043l-0.079,0.043l-0.079,0.044l-0.079,0.044l-0.079,0.045l-0.078,0.045l-0.078,0.046l-0.079,0.047l-0.077,0.047l-0.078,0.047l-0.078,0.048l-0.077,0.049l-0.077,0.049l-0.077,0.05l-0.077,0.05l-0.076,0.051l-0.076,0.051l-0.077,0.053l-0.075,0.052l-0.076,0.053l-0.076,0.054l-0.075,0.054l-0.075,0.055l-0.075,0.055l-0.075,0.057l-0.075,0.056l-0.074,0.058l-0.075,0.058l-0.074,0.058l-0.074,0.059l-0.074,0.06l-0.073,0.061l-0.074,0.061l-0.073,0.061l-0.073,0.063l-0.073,0.063l-0.073,0.063l-0.072,0.065l-0.073,0.065l-0.072,0.066l-0.072,0.066l-0.072,0.067l-0.072,0.068l-0.071,0.068l-0.072,0.07l-0.072,0.07l-0.104,0.104l-209.93,209.93l-0.104,0.104l-0.07,0.072l-0.07,0.072l-0.068,0.071l-0.068,0.072l-0.067,0.072l-0.066,0.072l-0.066,0.072l-0.065,0.073l-0.065,0.072l-0.063,0.073l-0.063,0.073l-0.063,0.073l-0.061,0.073l-0.061,0.074l-0.061,0.073l-0.06,0.074l-0.059,0.074l-0.058,0.074l-0.058,0.075l-0.058,0.074l-0.056,0.075l-0.057,0.075l-0.055,0.075l-0.055,0.075l-0.054,0.075l-0.054,0.076l-0.053,0.076l-0.052,0.075l-0.053,0.077l-0.051,0.076l-0.051,0.076l-0.05,0.077l-0.05,0.077l-0.049,0.077l-0.049,0.077l-0.048,0.078l-0.047,0.078l-0.047,0.077l-0.047,0.079l-0.046,0.078l-0.045,0.078l-0.045,0.079l-0.044,0.079l-0.044,0.079l-0.043,0.079l-0.043,0.08l-0.042,0.08l-0.042,0.079l-0.041,0.08l-0.041,0.081l-0.04,0.08l-0.039,0.081l-0.039,0.081l-0.039,0.081l-0.038,0.081l-0.037,0.082l-0.037,0.081l-0.037,0.082l-0.036,0.083l-0.035,0.082l-0.035,0.082l-0.035,0.083l-0.034,0.083l-0.033,0.083l-0.033,0.083l-0.032,0.084l-0.032,0.084l-0.032,0.084l-0.03,0.084l-0.031,0.084l-0.03,0.084l-0.029,0.085l-0.029,0.085l-0.028,0.085l-0.028,0.085l-0.027,0.086l-0.027,0.085l-0.026,0.086l-0.026,0.086l-0.025,0.086l-0.025,0.086l-0.024,0.086l-0.023,0.087l-0.024,0.087l-0.022,0.087l-0.022,0.087l-0.022,0.087l-0.021,0.087l-0.02,0.088l-0.02,0.087l-0.02,0.088l-0.019,0.088l-0.018,0.088l-0.018,0.088l-0.017,0.089l-0.017,0.088l-0.017,0.089l-0.015,0.089l-0.016,0.089l-0.014,0.088l-0.015,0.089l-0.013,0.09l-0.013,0.089l-0.013,0.089l-0.012,0.09l-0.012,0.089l-0.011,0.09l-0.01,0.089l-0.01,0.09l-0.01,0.09l-0.008,0.09l-0.009,0.09l-0.008,0.09l-0.007,0.09l-0.007,0.09l-0.006,0.091l-0.005,0.09l-0.006,0.09l-0.004,0.09l-0.004,0.091l-0.004,0.09l-0.003,0.091l-0.002,0.09l-0.002,0.091l-0.001,0.09l-0.001,0.091l0,0.09l0,0.09l0.001,0.091l0.001,0.09l0.002,0.091l0.002,0.09l0.003,0.091l0.004,0.09l0.004,0.091l0.004,0.09l0.006,0.09l0.005,0.091l0.006,0.09l0.007,0.09l0.007,0.09l0.008,0.09l0.009,0.09l0.008,0.09l0.01,0.09l0.01,0.09l0.01,0.089l0.011,0.09l0.012,0.09l0.012,0.089l0.013,0.089l0.013,0.09l0.013,0.089l0.015,0.088l0.014,0.09l0.016,0.089l0.015,0.088l0.017,0.089l0.016,0.088l0.018,0.088l0.018,0.089l0.018,0.088l0.019,0.088l0.02,0.088l0.02,0.087l0.02,0.087l0.021,0.088l0.022,0.087l0.022,0.087l0.023,0.087l0.023,0.087l0.023,0.087l0.024,0.086l0.025,0.086l0.025,0.086l0.026,0.086l0.026,0.086l0.027,0.086l0.027,0.085l0.028,0.085l0.028,0.085l0.029,0.085l0.029,0.084l0.03,0.085l0.031,0.084l0.03,0.084l0.032,0.085l0.032,0.083l0.032,0.083l0.033,0.084l0.033,0.083l0.034,0.083l0.035,0.083l0.035,0.082l0.035,0.082l0.036,0.082l0.037,0.083l0.037,0.081l0.037,0.082l0.038,0.081l0.039,0.081l0.039,0.081l0.039,0.081l0.04,0.08l0.041,0.08l0.041,0.081l0.042,0.08l0.042,0.08l0.043,0.079l0.043,0.079l0.044,0.079l0.044,0.079l0.045,0.079l0.045,0.078l0.046,0.078l0.047,0.079l0.047,0.078l0.047,0.077l0.048,0.078l0.049,0.077l0.049,0.077l0.05,0.077l0.05,0.076l0.051,0.077l0.052,0.077l0.051,0.075l0.053,0.077l0.053,0.075l0.054,0.075l0.054,0.076l0.055,0.075l0.056,0.076l0.056,0.074l0.057,0.075l0.057,0.075l0.057,0.074l0.059,0.074l0.059,0.074l0.06,0.074l0.06,0.073l0.062,0.074l0.061,0.073l0.063,0.073l0.063,0.073l0.063,0.072l0.065,0.073l0.065,0.073l0.066,0.072l0.066,0.073l0.066,0.07l0.069,0.073l0.069,0.072l0.069,0.071l0.069,0.071l0.105,0.105l209.93,209.93l0.104,0.104l0.072,0.07l0.072,0.07l0.07,0.067l0.072,0.068l0.073,0.069l0.072,0.065l0.072,0.066l0.073,0.066l0.072,0.063l0.073,0.064l0.073,0.063l0.073,0.063l0.074,0.062l0.073,0.061l0.073,0.06l0.074,0.06l0.074,0.059l0.074,0.058l0.074,0.058l0.075,0.057l0.075,0.057l0.075,0.057l0.075,0.055l0.074,0.055l0.076,0.054l0.076,0.054l0.075,0.052l0.077,0.054l0.076,0.052l0.076,0.051l0.076,0.051l0.077,0.05l0.077,0.05l0.077,0.049l0.077,0.049l0.078,0.048l0.078,0.048l0.077,0.046l0.078,0.047l0.079,0.046l0.078,0.045l0.079,0.045l0.078,0.044l0.08,0.044l0.079,0.043l0.08,0.043l0.08,0.042l0.079,0.041l0.08,0.042l0.081,0.041l0.081,0.04l0.081,0.04l0.079,0.038l0.082,0.039l0.081,0.038l0.082,0.038l0.082,0.037l0.081,0.036l0.082,0.036l0.083,0.035l0.081,0.035l0.083,0.034l0.085,0.035l0.082,0.033l0.082,0.032l0.086,0.034l0.084,0.032l0.082,0.03l0.085,0.031l0.084,0.031l0.083,0.029l0.085,0.03l0.087,0.029l0.084,0.028l0.084,0.027l0.087,0.028l0.086,0.027l0.085,0.026l0.086,0.026l0.086,0.025l0.085,0.024l0.087,0.025l0.087,0.023l0.087,0.024l0.087,0.022l0.087,0.022l0.087,0.022l0.087,0.021l0.088,0.02l0.086,0.02l0.09,0.02l0.089,0.019l0.086,0.018l0.087,0.018l0.089,0.017l0.09,0.018l0.089,0.016l0.088,0.015l0.087,0.016l0.089,0.014l0.091,0.015l0.09,0.014l0.088,0.013l0.088,0.012l0.09,0.012l0.091,0.012l0.088,0.011l0.09,0.01l0.091,0.01l0.088,0.01l0.092,0.009l0.089,0.008l0.089,0.008l0.092,0.007l0.09,0.007l0.089,0.006l0.091,0.005l0.09,0.006l0.091,0.004l0.091,0.004l0.089,0.004l0.091,0.003l0.09,0.002l0.089,0.002l0.091,0.001l0.091,0.001l0.091,0Z" style="fill:#000;"/><path d="M279.612,430.108l-13.5,13.5c-2.682,2.682 -6.319,4.188 -10.112,4.188c-3.793,0 -7.43,-1.506 -10.112,-4.188c-33.939,-33.939 -143.557,-143.557 -177.496,-177.496c-2.682,-2.682 -4.188,-6.319 -4.188,-10.112c0,-3.793 1.506,-7.43 4.188,-10.112c33.939,-33.939 143.557,-143.557 177.496,-177.496c2.682,-2.682 6.319,-4.188 10.112,-4.188c3.793,0 7.43,1.506 10.112,4.188l64.505,64.506l0,86.943c-1.64,0.453 -3.249,1.019 -4.812,1.692c-4.292,1.847 -8.226,4.504 -11.549,7.788c-3.159,3.121 -5.758,6.801 -7.638,10.824c-1.637,3.502 -2.723,7.256 -3.211,11.09c-0.501,3.938 -0.377,7.956 0.371,11.854c0.651,3.398 1.778,6.701 3.337,9.789c1.965,3.893 4.613,7.434 7.787,10.425c3.071,2.893 6.629,5.265 10.484,6.981c3.178,1.415 6.553,2.381 9.999,2.864c1.734,0.243 3.481,0.358 5.232,0.363c0.322,-0.001 0.643,-0.005 0.964,-0.012c1.743,-0.05 3.48,-0.208 5.201,-0.494c3.422,-0.568 6.762,-1.615 9.896,-3.102c3.875,-1.84 7.427,-4.349 10.46,-7.382c3.033,-3.034 5.542,-6.585 7.382,-10.461c1.521,-3.204 2.582,-6.625 3.14,-10.128c0.613,-3.844 0.625,-7.784 0.036,-11.632c-0.582,-3.81 -1.759,-7.525 -3.475,-10.976c-1.976,-3.972 -4.66,-7.585 -7.889,-10.627c-3.405,-3.208 -7.406,-5.772 -11.747,-7.516c-1.296,-0.521 -2.622,-0.968 -3.968,-1.34l0,-66.943l92.991,92.99c2.682,2.682 4.188,6.319 4.188,10.112c0,3.793 -1.506,7.43 -4.188,10.112l-105.768,105.768l-71.84,-71.84l0,-103.693c2.08,-0.575 4.11,-1.33 6.06,-2.256c3.876,-1.839 7.427,-4.348 10.461,-7.382c2.979,-2.979 5.454,-6.459 7.284,-10.255c1.539,-3.193 2.62,-6.604 3.2,-10.101c0.65,-3.917 0.675,-7.939 0.074,-11.864c-0.583,-3.81 -1.759,-7.525 -3.475,-10.976c-1.975,-3.972 -4.66,-7.585 -7.889,-10.627c-3.405,-3.208 -7.407,-5.773 -11.748,-7.517c-2.293,-0.921 -4.678,-1.613 -7.109,-2.064c-2.418,-0.448 -4.881,-0.656 -7.34,-0.625c-2.373,0.03 -4.742,0.284 -7.067,0.76c-2.49,0.51 -4.928,1.276 -7.263,2.281c-4.292,1.848 -8.226,4.505 -11.55,7.789c-3.158,3.121 -5.758,6.801 -7.638,10.824c-1.636,3.502 -2.722,7.256 -3.21,11.09c-0.501,3.937 -0.378,7.955 0.37,11.854c0.652,3.397 1.779,6.701 3.338,9.789c1.931,3.826 4.522,7.313 7.624,10.27c3.108,2.963 6.723,5.389 10.647,7.135c1.694,0.755 3.444,1.381 5.231,1.875l0,107.835c0.034,0.774 0.017,0.972 0.152,1.736c0.253,1.434 0.822,2.807 1.656,4c0.446,0.636 0.598,0.764 1.121,1.335l74.769,74.769l-29.944,29.944l-110.905,-110.906l0,-12.901c2.08,-0.575 4.11,-1.331 6.06,-2.256c3.876,-1.84 7.427,-4.349 10.461,-7.382c3.033,-3.034 5.542,-6.585 7.382,-10.461c1.521,-3.204 2.581,-6.625 3.14,-10.128c0.612,-3.844 0.625,-7.783 0.036,-11.631c-0.583,-3.81 -1.759,-7.525 -3.475,-10.976c-1.975,-3.973 -4.66,-7.586 -7.889,-10.628c-3.405,-3.208 -7.407,-5.772 -11.748,-7.516c-2.293,-0.921 -4.678,-1.614 -7.109,-2.064c-2.418,-0.448 -4.881,-0.657 -7.34,-0.625c-2.451,0.031 -4.898,0.3 -7.296,0.807c-2.411,0.51 -4.771,1.259 -7.035,2.234c-4.291,1.847 -8.226,4.504 -11.549,7.788c-3.158,3.121 -5.758,6.801 -7.638,10.825c-1.636,3.502 -2.722,7.255 -3.21,11.089c-0.502,3.938 -0.378,7.955 0.37,11.854c0.68,3.546 1.878,6.99 3.545,10.194c1.977,3.801 4.608,7.255 7.744,10.174c3.033,2.824 6.533,5.142 10.319,6.827c1.695,0.754 3.445,1.381 5.232,1.875l0,17.043c0.022,0.634 0.011,0.795 0.102,1.424c0.203,1.414 0.713,2.781 1.485,3.983c0.258,0.4 0.543,0.782 0.855,1.142c0.156,0.18 0.325,0.348 0.487,0.522l113.834,113.835ZM172.849,273.511c0.895,-0.002 1.789,-0.066 2.675,-0.202c1.524,-0.233 3.015,-0.67 4.424,-1.297c1.641,-0.731 3.167,-1.717 4.511,-2.91c1.448,-1.285 2.683,-2.807 3.638,-4.491c0.825,-1.453 1.439,-3.024 1.815,-4.652c0.468,-2.026 0.57,-4.136 0.307,-6.198c-0.222,-1.745 -0.711,-3.454 -1.446,-5.053c-0.883,-1.921 -2.117,-3.676 -3.621,-5.161c-1.553,-1.536 -3.392,-2.78 -5.399,-3.644c-2.105,-0.906 -4.384,-1.384 -6.675,-1.413c-2.303,-0.029 -4.604,0.391 -6.741,1.249c-1.996,0.802 -3.837,1.977 -5.411,3.443c-1.547,1.439 -2.832,3.156 -3.773,5.048c-0.78,1.569 -1.32,3.256 -1.596,4.987c-0.328,2.054 -0.29,4.17 0.115,6.211c0.319,1.609 0.868,3.17 1.625,4.625c0.845,1.624 1.946,3.113 3.248,4.4c1.378,1.361 2.979,2.495 4.724,3.336c1.416,0.683 2.924,1.172 4.472,1.448c0.876,0.157 1.763,0.243 2.652,0.269c0.152,0.003 0.304,0.005 0.456,0.005ZM340.617,273.511c0.896,-0.002 1.79,-0.066 2.675,-0.202c1.524,-0.233 3.016,-0.67 4.424,-1.297c1.706,-0.759 3.287,-1.795 4.669,-3.051c1.38,-1.255 2.561,-2.728 3.481,-4.35c0.807,-1.422 1.412,-2.957 1.79,-4.547c0.489,-2.058 0.598,-4.206 0.331,-6.304c-0.222,-1.745 -0.71,-3.454 -1.445,-5.052c-0.883,-1.921 -2.118,-3.676 -3.621,-5.161c-1.554,-1.536 -3.393,-2.78 -5.399,-3.644c-2.106,-0.906 -4.385,-1.384 -6.676,-1.413c-2.302,-0.029 -4.603,0.391 -6.74,1.25c-1.996,0.801 -3.838,1.976 -5.412,3.442c-1.546,1.439 -2.832,3.156 -3.772,5.048c-0.781,1.569 -1.321,3.256 -1.597,4.987c-0.327,2.054 -0.289,4.17 0.115,6.211c0.333,1.678 0.917,3.305 1.724,4.813c0.898,1.675 2.07,3.202 3.454,4.505c1.307,1.232 2.802,2.263 4.419,3.043c1.417,0.683 2.925,1.172 4.473,1.448c0.876,0.157 1.762,0.243 2.652,0.269c0.152,0.003 0.303,0.005 0.455,0.005ZM256,177.7c0.896,-0.003 1.79,-0.067 2.676,-0.202c1.523,-0.233 3.015,-0.671 4.423,-1.297c1.642,-0.731 3.168,-1.718 4.512,-2.91c1.447,-1.285 2.683,-2.808 3.638,-4.491c0.806,-1.422 1.411,-2.957 1.789,-4.548c0.489,-2.057 0.599,-4.205 0.332,-6.303c-0.222,-1.745 -0.711,-3.454 -1.445,-5.053c-0.883,-1.92 -2.118,-3.675 -3.621,-5.16c-1.554,-1.536 -3.392,-2.781 -5.4,-3.644c-2.105,-0.907 -4.384,-1.384 -6.676,-1.413c-2.302,-0.03 -4.603,0.391 -6.74,1.249c-1.996,0.802 -3.837,1.977 -5.411,3.443c-1.546,1.439 -2.832,3.155 -3.773,5.047c-0.78,1.57 -1.32,3.256 -1.596,4.987c-0.328,2.055 -0.29,4.171 0.115,6.212c0.333,1.678 0.916,3.304 1.724,4.812c0.914,1.707 2.113,3.259 3.53,4.578c1.289,1.2 2.757,2.206 4.343,2.971c1.45,0.698 2.995,1.194 4.581,1.467c0.841,0.145 1.691,0.225 2.543,0.249c0.152,0.003 0.304,0.005 0.456,0.006Z" style="fill:#000;"/></g></svg>