<?xml version="1.0" standalone="no"?><!DOCTYPE svg PUBLIC "-//W3C//DTD SVG 1.1//EN" "http://www.w3.org/Graphics/SVG/1.1/DTD/svg11.dtd"><svg width="100%" height="100%" viewBox="0 0 512 512" version="1.1" xmlns="http://www.w3.org/2000/svg" xmlns:xlink="http://www.w3.org/1999/xlink" xml:space="preserve" style="fill-rule:evenodd;clip-rule:evenodd;stroke-linejoin:round;stroke-miterlimit:1.41421;"><g id="Layer1"><path d="M256.036,511.998c-2.004,-0.004 -4.007,-0.097 -6.003,-0.291c-4.007,-0.39 -7.975,-1.171 -11.831,-2.33c-3.006,-0.905 -5.943,-2.038 -8.778,-3.388c-1.396,-0.665 -2.765,-1.385 -4.109,-2.15c-56.329,-32.354 -112.726,-64.594 -168.784,-97.417c-1.551,-0.917 -3.065,-1.894 -4.533,-2.94c-2.827,-2.014 -5.485,-4.267 -7.934,-6.727c-3.721,-3.736 -6.96,-7.95 -9.616,-12.506c-2.655,-4.554 -4.725,-9.448 -6.143,-14.525c-0.979,-3.506 -1.648,-7.098 -1.995,-10.721c-0.173,-1.794 -0.262,-3.594 -0.281,-5.396c-0.416,-65.045 -0.425,-130.094 -0.028,-195.139c0.018,-1.801 0.108,-3.601 0.279,-5.395c0.347,-3.623 1.014,-7.216 1.992,-10.722c1.417,-5.078 3.486,-9.972 6.14,-14.527c2.654,-4.557 5.892,-8.771 9.612,-12.509c2.449,-2.46 5.105,-4.714 7.932,-6.729c1.468,-1.046 2.982,-2.024 4.532,-2.941c56.123,-32.882 112.452,-65.415 168.982,-97.593c1.569,-0.885 3.173,-1.708 4.812,-2.456c3.158,-1.442 6.438,-2.616 9.793,-3.508c5.097,-1.354 10.365,-2.053 15.638,-2.075c5.272,-0.022 10.545,0.632 15.652,1.943c3.525,0.905 6.97,2.122 10.282,3.633c1.639,0.748 3.243,1.57 4.813,2.454c56.538,32.162 112.877,64.679 169.009,97.545c1.551,0.917 3.065,1.895 4.533,2.94c2.964,2.112 5.742,4.486 8.289,7.086c3.689,3.766 6.893,8.005 9.512,12.581c2.618,4.577 4.649,9.488 6.026,14.578c0.907,3.352 1.53,6.779 1.861,10.235c0.173,1.794 0.262,3.593 0.281,5.395c0.416,65.045 0.425,130.094 0.028,195.139c-0.018,1.802 -0.108,3.602 -0.279,5.395c-0.331,3.456 -0.953,6.884 -1.859,10.235c-1.375,5.091 -3.405,10.003 -6.022,14.581c-2.617,4.576 -5.82,8.816 -9.508,12.583c-2.547,2.601 -5.323,4.976 -8.287,7.088c-1.468,1.046 -2.982,2.024 -4.532,2.941c-56.123,32.883 -112.452,65.415 -168.982,97.594c-1.346,0.759 -2.717,1.473 -4.115,2.132c-2.839,1.338 -5.779,2.46 -8.788,3.353c-3.699,1.097 -7.5,1.846 -11.338,2.236c-1.912,0.195 -3.831,0.296 -5.752,0.315c-0.167,0.001 -0.334,0.002 -0.501,0.003ZM256.033,484.997c1.13,-0.002 2.26,-0.055 3.385,-0.164c2.353,-0.23 4.682,-0.699 6.941,-1.399c1.644,-0.509 3.25,-1.142 4.801,-1.889c0.743,-0.358 1.472,-0.743 2.189,-1.151c56.264,-32.341 112.734,-64.333 168.591,-97.371c0.873,-0.521 1.724,-1.076 2.549,-1.669c1.586,-1.141 3.077,-2.415 4.45,-3.806c2.055,-2.083 3.847,-4.424 5.319,-6.952c1.497,-2.569 2.664,-5.328 3.462,-8.192c0.551,-1.974 0.927,-3.998 1.122,-6.038c0.102,-1.061 0.152,-2.126 0.159,-3.191c0.122,-64.897 0.651,-129.797 -0.03,-194.69c-0.014,-0.967 -0.065,-1.934 -0.157,-2.898c-0.187,-1.946 -0.538,-3.876 -1.048,-5.763c-0.801,-2.962 -1.995,-5.815 -3.541,-8.466c-1.473,-2.528 -3.265,-4.868 -5.32,-6.95c-1.407,-1.424 -2.938,-2.727 -4.568,-3.889c-0.869,-0.618 -1.766,-1.195 -2.686,-1.733c-56.137,-32.559 -112.08,-65.463 -168.62,-97.319c-0.888,-0.495 -1.794,-0.955 -2.72,-1.372c-1.782,-0.804 -3.631,-1.457 -5.522,-1.951c-2.877,-0.751 -5.849,-1.131 -8.821,-1.131c-2.973,0 -5.945,0.382 -8.822,1.133c-1.937,0.507 -3.83,1.181 -5.652,2.012c-0.97,0.443 -1.917,0.931 -2.843,1.459c-56.265,32.339 -112.735,64.329 -168.591,97.37c-0.872,0.521 -1.724,1.076 -2.549,1.67c-1.548,1.113 -3.005,2.353 -4.35,3.705c-2.131,2.141 -3.981,4.559 -5.49,7.175c-1.487,2.575 -2.642,5.34 -3.429,8.206c-0.531,1.931 -0.894,3.908 -1.084,5.902c-0.102,1.061 -0.152,2.125 -0.159,3.191c-0.126,64.896 -0.655,129.796 0.03,194.689c0.014,0.968 0.065,1.935 0.157,2.898c0.187,1.947 0.538,3.877 1.048,5.764c0.814,3.007 2.032,5.902 3.612,8.587c1.459,2.481 3.227,4.78 5.25,6.829c1.407,1.424 2.937,2.727 4.568,3.889c0.868,0.618 1.765,1.194 2.685,1.733c56.136,32.561 112.077,65.468 168.62,97.318c0.761,0.425 1.536,0.824 2.326,1.192c1.602,0.747 3.26,1.371 4.956,1.866c1.996,0.583 4.045,0.986 6.113,1.204c1.031,0.109 2.066,0.169 3.103,0.188c0.189,0.003 0.377,0.004 0.566,0.004Z" style="fill:#000;fill-rule:nonzero;"/><path d="M256.003,398.555l-0.003,35.148c-5.415,-0.019 -10.744,-1.408 -15.523,-4.166c-30.257,-17.463 -96.694,-55.808 -126.95,-73.271c-9.63,-5.558 -15.563,-15.831 -15.565,-26.95l-0.003,-22.008l158.044,91.247ZM256.005,367.045l-158.05,-91.251l-0.006,-40.646l158.059,91.255l-0.003,40.642ZM256.013,270.869l0,24.027l-158.069,-91.261l-0.003,-20.896c-0.001,-11.119 5.929,-21.393 15.557,-26.954c30.252,-17.472 96.678,-55.835 126.93,-73.307c9.628,-5.561 21.491,-5.562 31.121,-0.004c30.257,17.463 96.694,55.808 126.95,73.27c4.823,2.784 8.718,6.749 11.405,11.412l-0.011,0.006c0,0 -114.833,66.299 -146.1,84.351c-4.815,2.78 -7.78,7.916 -7.781,13.475l0.001,5.881Z" style="fill:#000;"/><path d="M256.013,433.703l0,-35.142l-0.01,-0.006l158.065,-91.236l0.003,21.953c0.002,11.118 -5.928,21.393 -15.556,26.953c-30.252,17.472 -96.678,55.836 -126.93,73.307c-4.793,2.768 -10.14,4.159 -15.572,4.171ZM256.013,367.04l0,-40.634l-0.005,-0.003l158.05,-91.238l0.004,40.644l-158.049,91.231ZM409.893,167.162c2.691,4.688 4.157,10.006 4.158,15.532l0.001,20.961l-158.036,91.242l-0.003,-24.028l0,-5.854c0,-5.575 2.975,-10.727 7.803,-13.515l146.077,-84.338Z" style="fill:#000;fill-opacity:0.8;"/></g></svg>