<?xml version="1.0" standalone="no"?><!DOCTYPE svg PUBLIC "-//W3C//DTD SVG 1.1//EN" "http://www.w3.org/Graphics/SVG/1.1/DTD/svg11.dtd"><svg width="100%" height="100%" viewBox="0 0 512 512" version="1.1" xmlns="http://www.w3.org/2000/svg" xmlns:xlink="http://www.w3.org/1999/xlink" xml:space="preserve" style="fill-rule:evenodd;clip-rule:evenodd;stroke-linejoin:round;stroke-miterlimit:1.41421;"><path d="M256.036,512c-2.004,-0.004 -4.007,-0.097 -6.003,-0.291c-4.007,-0.39 -7.975,-1.171 -11.831,-2.33c-3.006,-0.905 -5.943,-2.038 -8.778,-3.388c-1.396,-0.665 -2.765,-1.385 -4.109,-2.15c-56.329,-32.354 -112.726,-64.594 -168.784,-97.417c-1.551,-0.917 -3.065,-1.894 -4.533,-2.94c-2.827,-2.014 -5.485,-4.267 -7.934,-6.727c-3.721,-3.736 -6.96,-7.95 -9.616,-12.506c-2.655,-4.554 -4.725,-9.448 -6.143,-14.525c-0.979,-3.506 -1.648,-7.098 -1.995,-10.721c-0.173,-1.794 -0.262,-3.594 -0.281,-5.396c-0.416,-65.045 -0.425,-130.094 -0.028,-195.139c0.018,-1.801 0.108,-3.601 0.279,-5.395c0.347,-3.623 1.014,-7.216 1.992,-10.722c1.417,-5.078 3.486,-9.972 6.14,-14.527c2.654,-4.557 5.892,-8.771 9.612,-12.509c2.449,-2.46 5.105,-4.714 7.932,-6.729c1.468,-1.046 2.982,-2.024 4.532,-2.941c56.123,-32.882 112.452,-65.415 168.982,-97.593c1.569,-0.885 3.173,-1.708 4.812,-2.456c3.158,-1.442 6.438,-2.616 9.793,-3.508c5.097,-1.354 10.365,-2.053 15.638,-2.075c5.272,-0.022 10.545,0.632 15.652,1.943c3.525,0.905 6.97,2.122 10.282,3.633c1.639,0.748 3.243,1.57 4.813,2.454c56.538,32.162 112.877,64.679 169.009,97.545c1.551,0.917 3.065,1.895 4.533,2.94c2.964,2.112 5.742,4.486 8.289,7.086c3.689,3.766 6.893,8.005 9.512,12.581c2.618,4.577 4.649,9.488 6.026,14.578c0.907,3.352 1.53,6.779 1.861,10.235c0.173,1.794 0.262,3.593 0.281,5.395c0.416,65.045 0.425,130.094 0.028,195.139c-0.018,1.802 -0.108,3.602 -0.279,5.395c-0.331,3.456 -0.953,6.884 -1.859,10.235c-1.375,5.091 -3.405,10.003 -6.022,14.581c-2.617,4.576 -5.82,8.816 -9.508,12.583c-2.547,2.601 -5.323,4.976 -8.287,7.088c-1.468,1.046 -2.982,2.024 -4.532,2.941c-56.123,32.883 -112.452,65.415 -168.982,97.594c-1.346,0.759 -2.717,1.473 -4.115,2.132c-2.839,1.338 -5.779,2.46 -8.788,3.353c-3.699,1.097 -7.5,1.846 -11.338,2.236c-1.912,0.195 -3.831,0.296 -5.752,0.315c-0.167,0.001 -0.334,0.002 -0.501,0.003l0,0ZM260.06,345.623l-41.44,-73.08c19.6,-8.68 32.48,-25.76 32.48,-52.64c0,-43.4 -31.64,-56.84 -70.28,-56.84l-65.8,0l0,182.56l41.16,0l0,-65.8l22.68,0l35,65.8l46.2,0ZM342.66,348.983c16.52,0 35,-5.88 49.28,-15.68l-13.72,-24.92c-10.08,6.16 -19.6,9.24 -29.96,9.24c-18.48,0 -32.48,-9.24 -36.12,-29.4l83.16,0c0.84,-3.36 1.68,-10.92 1.68,-18.2c0,-37.8 -19.6,-66.64 -59.08,-66.64c-33.32,0 -65.52,27.72 -65.52,72.8c0,45.92 30.52,72.8 70.28,72.8ZM311.86,261.063c2.8,-17.64 14,-26.32 26.88,-26.32c16.52,0 23.24,10.92 23.24,26.32l-50.12,0ZM156.18,195.823l21.28,0c21.56,0 33.32,6.16 33.32,24.08c0,17.92 -11.76,27.16 -33.32,27.16l-21.28,0l0,-51.24Z" style="fill:#000;"/></svg>