<svg viewBox="0 0 512 512" xmlns="http://www.w3.org/2000/svg" fill-rule="evenodd" clip-rule="evenodd" stroke-linejoin="round" stroke-miterlimit="1.414"><path d="M256.013 512c-7.17 0-14.077-1.694-19.447-4.797L48.138 398.39c-11.08-6.386-19.447-20.854-19.447-33.654V147.11c0-12.8 8.37-27.267 19.45-33.68L236.567 4.644c10.74-6.205 28.128-6.18 38.868 0l188.454 108.812c11.08 6.387 19.42 20.88 19.42 33.655v217.6c0 12.8-8.34 27.27-19.42 33.658l-188.454 108.81C270.09 510.28 263.18 512 256.014 512zm0-488.665c-2.972 0-5.918.626-7.69 1.67L59.87 133.79c-3.807 2.216-7.69 8.94-7.69 13.32v217.6c0 4.405 3.883 11.13 7.69 13.32l188.427 108.813c3.545 2.034 11.835 2.034 15.38 0L452.13 378.057c3.807-2.19 7.665-8.916 7.665-13.32V147.11c0-4.405-3.884-11.13-7.664-13.32L263.707 25.004c-1.772-1.017-4.718-1.67-7.69-1.67zm-.037 368.516l-153.484-88.58v40.1l153.484 88.584v-40.1zm0-67.042L102.492 236.16v40.003l153.484 88.598V324.81zm-.016-27.49l-153.484-88.583v-40.1L255.96 80.05l153.5 88.2-153.484 89.175v39.88l-.016.01z"/><path d="M255.976 391.995v39.955l153.484-89.03v-39.956l-153.484 89.03zm0-67.19v39.955l153.484-89.03v-39.956l-153.484 89.03zm0-27.5v-39.88L409.46 168.25l-.016 39.97-153.468 89.086z" fill-opacity=".8"/></svg>