<?xml version="1.0" standalone="no"?><!DOCTYPE svg PUBLIC "-//W3C//DTD SVG 1.1//EN" "http://www.w3.org/Graphics/SVG/1.1/DTD/svg11.dtd"><svg width="100%" height="100%" viewBox="0 0 512 512" version="1.1" xmlns="http://www.w3.org/2000/svg" xmlns:xlink="http://www.w3.org/1999/xlink" xml:space="preserve" style="fill-rule:evenodd;clip-rule:evenodd;stroke-linejoin:round;stroke-miterlimit:1.41421;"><g id="Layer1"><path d="M256.214,0.013c2.005,0.012 4.008,0.113 6.002,0.315c3.923,0.398 7.806,1.17 11.582,2.306c3.006,0.904 5.943,2.038 8.778,3.388c1.396,0.665 2.765,1.384 4.109,2.149c56.329,32.355 112.726,64.594 168.784,97.417c1.551,0.917 3.065,1.895 4.533,2.94c2.827,2.015 5.485,4.267 7.934,6.727c3.721,3.737 6.96,7.95 9.616,12.506c2.655,4.555 4.725,9.448 6.143,14.526c0.979,3.506 1.648,7.098 1.995,10.721c0.173,1.794 0.262,3.593 0.281,5.395c0.416,65.045 0.425,130.094 0.028,195.139c-0.018,1.802 -0.108,3.602 -0.279,5.395c-0.347,3.624 -1.014,7.216 -1.992,10.722c-1.417,5.078 -3.486,9.972 -6.14,14.528c-2.654,4.556 -5.892,8.77 -9.612,12.508c-2.449,2.461 -5.105,4.714 -7.932,6.729c-1.468,1.046 -2.982,2.024 -4.532,2.941c-56.123,32.883 -112.452,65.415 -168.982,97.594c-1.569,0.885 -3.173,1.707 -4.812,2.455c-3.311,1.512 -6.756,2.73 -10.281,3.636c-5.106,1.312 -10.379,1.968 -15.651,1.947c-5.273,-0.021 -10.542,-0.717 -15.639,-2.07c-3.355,-0.891 -6.635,-2.065 -9.794,-3.505c-1.639,-0.748 -3.243,-1.57 -4.813,-2.455c-56.538,-32.162 -112.877,-64.678 -169.009,-97.545c-1.551,-0.917 -3.065,-1.894 -4.533,-2.94c-2.964,-2.112 -5.742,-4.486 -8.289,-7.086c-3.689,-3.766 -6.893,-8.004 -9.512,-12.58c-2.618,-4.577 -4.649,-9.489 -6.026,-14.579c-0.907,-3.351 -1.53,-6.779 -1.861,-10.234c-0.173,-1.794 -0.262,-3.594 -0.281,-5.396c-0.416,-65.045 -0.425,-130.094 -0.028,-195.139c0.018,-1.801 0.108,-3.601 0.279,-5.395c0.347,-3.623 1.014,-7.216 1.992,-10.722c1.417,-5.078 3.486,-9.972 6.14,-14.527c2.654,-4.557 5.892,-8.771 9.612,-12.509c2.449,-2.46 5.105,-4.714 7.932,-6.729c1.468,-1.046 2.982,-2.024 4.532,-2.941c56.123,-32.882 112.452,-65.415 168.982,-97.593c1.346,-0.759 2.717,-1.473 4.115,-2.132c2.839,-1.339 5.779,-2.461 8.788,-3.353c3.699,-1.098 7.5,-1.847 11.338,-2.237c1.912,-0.194 3.831,-0.295 5.752,-0.315c0.25,-0.002 0.501,-0.002 0.751,-0.002ZM255.826,27.013c-1.131,0.007 -2.261,0.065 -3.386,0.179c-2.305,0.234 -4.586,0.698 -6.799,1.384c-1.598,0.496 -3.16,1.107 -4.671,1.826c-0.788,0.376 -1.561,0.783 -2.319,1.215c-56.265,32.339 -112.735,64.329 -168.591,97.37c-0.872,0.521 -1.724,1.076 -2.549,1.67c-1.548,1.113 -3.005,2.353 -4.35,3.705c-2.131,2.141 -3.981,4.559 -5.49,7.175c-1.487,2.575 -2.642,5.34 -3.429,8.206c-0.531,1.931 -0.894,3.908 -1.084,5.902c-0.102,1.061 -0.152,2.125 -0.159,3.191c-0.126,64.896 -0.655,129.796 0.03,194.689c0.014,0.968 0.065,1.935 0.157,2.898c0.187,1.947 0.538,3.877 1.048,5.764c0.814,3.007 2.032,5.902 3.612,8.587c1.459,2.481 3.227,4.78 5.25,6.829c1.407,1.424 2.937,2.727 4.568,3.889c0.868,0.618 1.765,1.194 2.685,1.733c56.136,32.561 112.077,65.468 168.62,97.318c0.887,0.495 1.794,0.955 2.72,1.373c1.738,0.784 3.541,1.425 5.384,1.914c2.828,0.751 5.75,1.143 8.676,1.166c3.02,0.024 6.042,-0.345 8.967,-1.096c1.986,-0.511 3.926,-1.197 5.791,-2.048c0.969,-0.443 1.916,-0.931 2.842,-1.458c56.264,-32.341 112.734,-64.333 168.591,-97.371c0.873,-0.521 1.724,-1.076 2.549,-1.669c1.586,-1.141 3.077,-2.415 4.45,-3.806c2.055,-2.083 3.847,-4.424 5.319,-6.952c1.497,-2.569 2.664,-5.328 3.462,-8.192c0.551,-1.974 0.927,-3.998 1.122,-6.038c0.102,-1.061 0.152,-2.126 0.159,-3.191c0.122,-64.897 0.651,-129.797 -0.03,-194.69c-0.014,-0.967 -0.065,-1.934 -0.157,-2.898c-0.187,-1.946 -0.538,-3.876 -1.048,-5.763c-0.801,-2.962 -1.995,-5.815 -3.541,-8.466c-1.473,-2.528 -3.265,-4.868 -5.32,-6.95c-1.407,-1.424 -2.938,-2.727 -4.568,-3.889c-0.869,-0.618 -1.766,-1.195 -2.686,-1.733c-56.137,-32.559 -112.08,-65.463 -168.62,-97.319c-0.761,-0.424 -1.536,-0.824 -2.327,-1.192c-1.558,-0.726 -3.17,-1.337 -4.819,-1.826c-2.084,-0.617 -4.227,-1.039 -6.39,-1.258c-1.031,-0.105 -2.067,-0.161 -3.104,-0.176c-0.188,-0.001 -0.376,-0.002 -0.565,-0.002Z" style="fill:#000;fill-rule:nonzero;"/><path d="M165.321,345.623l36.96,0l0,-66.92c0,-17.92 -3.36,-44.52 -5.32,-62.16l1.12,0l14.56,43.4l26.04,69.72l22.68,0l26.04,-69.72l14.84,-43.4l1.12,0c-1.96,17.64 -5.32,44.24 -5.32,62.16l0,66.92l37.52,0l0,-182.56l-44.8,0l-28.84,81.2c-3.64,10.64 -6.72,22.4 -10.36,33.6l-1.12,0c-3.64,-11.2 -7,-22.96 -10.64,-33.6l-29.4,-81.2l-45.08,0l0,182.56Z" style="fill:#000;"/></g></svg>