<?xml version="1.0" standalone="no"?><!DOCTYPE svg PUBLIC "-//W3C//DTD SVG 1.1//EN" "http://www.w3.org/Graphics/SVG/1.1/DTD/svg11.dtd"><svg width="100%" height="100%" viewBox="0 0 512 512" version="1.1" xmlns="http://www.w3.org/2000/svg" xmlns:xlink="http://www.w3.org/1999/xlink" xml:space="preserve" style="fill-rule:evenodd;clip-rule:evenodd;stroke-linejoin:round;stroke-miterlimit:1.41421;"><path d="M256.036,511.998c-2.004,-0.004 -4.007,-0.097 -6.003,-0.291c-4.007,-0.39 -7.975,-1.171 -11.831,-2.33c-3.006,-0.905 -5.943,-2.038 -8.778,-3.388c-1.396,-0.665 -2.765,-1.385 -4.109,-2.15c-56.329,-32.354 -112.726,-64.594 -168.784,-97.417c-1.551,-0.917 -3.065,-1.894 -4.533,-2.94c-2.827,-2.014 -5.485,-4.267 -7.934,-6.727c-3.721,-3.736 -6.96,-7.95 -9.616,-12.506c-2.655,-4.554 -4.725,-9.448 -6.143,-14.525c-0.979,-3.506 -1.648,-7.098 -1.995,-10.721c-0.173,-1.794 -0.262,-3.594 -0.281,-5.396c-0.416,-65.045 -0.425,-130.094 -0.028,-195.139c0.018,-1.801 0.108,-3.601 0.279,-5.395c0.347,-3.623 1.014,-7.216 1.992,-10.722c1.417,-5.078 3.486,-9.972 6.14,-14.527c2.654,-4.557 5.892,-8.771 9.612,-12.509c2.449,-2.46 5.105,-4.714 7.932,-6.729c1.468,-1.046 2.982,-2.024 4.532,-2.941c56.123,-32.882 112.452,-65.415 168.982,-97.593c1.569,-0.885 3.173,-1.708 4.812,-2.456c3.158,-1.442 6.438,-2.616 9.793,-3.508c5.097,-1.354 10.365,-2.053 15.638,-2.075c5.272,-0.022 10.545,0.632 15.652,1.943c3.525,0.905 6.97,2.122 10.282,3.633c1.639,0.748 3.243,1.57 4.813,2.454c56.538,32.162 112.877,64.679 169.009,97.545c1.551,0.917 3.065,1.895 4.533,2.94c2.964,2.112 5.742,4.486 8.289,7.086c3.689,3.766 6.893,8.005 9.512,12.581c2.618,4.577 4.649,9.488 6.026,14.578c0.907,3.352 1.53,6.779 1.861,10.235c0.173,1.794 0.262,3.593 0.281,5.395c0.416,65.045 0.425,130.094 0.028,195.139c-0.018,1.802 -0.108,3.602 -0.279,5.395c-0.331,3.456 -0.953,6.884 -1.859,10.235c-1.375,5.091 -3.405,10.003 -6.022,14.581c-2.617,4.576 -5.82,8.816 -9.508,12.583c-2.547,2.601 -5.323,4.976 -8.287,7.088c-1.468,1.046 -2.982,2.024 -4.532,2.941c-56.123,32.883 -112.452,65.415 -168.982,97.594c-1.346,0.759 -2.717,1.473 -4.115,2.132c-2.839,1.338 -5.779,2.46 -8.788,3.353c-3.699,1.097 -7.5,1.846 -11.338,2.236c-1.912,0.195 -3.831,0.296 -5.752,0.315c-0.167,0.001 -0.334,0.002 -0.501,0.003ZM256.033,484.997c1.13,-0.002 2.26,-0.055 3.385,-0.164c2.353,-0.23 4.682,-0.699 6.941,-1.399c1.644,-0.509 3.25,-1.142 4.801,-1.889c0.743,-0.358 1.472,-0.743 2.189,-1.151c56.264,-32.341 112.734,-64.333 168.591,-97.371c0.873,-0.521 1.724,-1.076 2.549,-1.669c1.586,-1.141 3.077,-2.415 4.45,-3.806c2.055,-2.083 3.847,-4.424 5.319,-6.952c1.497,-2.569 2.664,-5.328 3.462,-8.192c0.551,-1.974 0.927,-3.998 1.122,-6.038c0.102,-1.061 0.152,-2.126 0.159,-3.191c0.122,-64.897 0.651,-129.797 -0.03,-194.69c-0.014,-0.967 -0.065,-1.934 -0.157,-2.898c-0.187,-1.946 -0.538,-3.876 -1.048,-5.763c-0.801,-2.962 -1.995,-5.815 -3.541,-8.466c-1.473,-2.528 -3.265,-4.868 -5.32,-6.95c-1.407,-1.424 -2.938,-2.727 -4.568,-3.889c-0.869,-0.618 -1.766,-1.195 -2.686,-1.733c-56.137,-32.559 -112.08,-65.463 -168.62,-97.319c-0.888,-0.495 -1.794,-0.955 -2.72,-1.372c-1.782,-0.804 -3.631,-1.457 -5.522,-1.951c-2.877,-0.751 -5.849,-1.131 -8.821,-1.131c-2.973,0 -5.945,0.382 -8.822,1.133c-1.937,0.507 -3.83,1.181 -5.652,2.012c-0.97,0.443 -1.917,0.931 -2.843,1.459c-56.265,32.339 -112.735,64.329 -168.591,97.37c-0.872,0.521 -1.724,1.076 -2.549,1.67c-1.548,1.113 -3.005,2.353 -4.35,3.705c-2.131,2.141 -3.981,4.559 -5.49,7.175c-1.487,2.575 -2.642,5.34 -3.429,8.206c-0.531,1.931 -0.894,3.908 -1.084,5.902c-0.102,1.061 -0.152,2.125 -0.159,3.191c-0.126,64.896 -0.655,129.796 0.03,194.689c0.014,0.968 0.065,1.935 0.157,2.898c0.187,1.947 0.538,3.877 1.048,5.764c0.814,3.007 2.032,5.902 3.612,8.587c1.459,2.481 3.227,4.78 5.25,6.829c1.407,1.424 2.937,2.727 4.568,3.889c0.868,0.618 1.765,1.194 2.685,1.733c56.136,32.561 112.077,65.468 168.62,97.318c0.761,0.425 1.536,0.824 2.326,1.192c1.602,0.747 3.26,1.371 4.956,1.866c1.996,0.583 4.045,0.986 6.113,1.204c1.031,0.109 2.066,0.169 3.103,0.188c0.189,0.003 0.377,0.004 0.566,0.004Z" style="fill:#000;fill-rule:nonzero;"/><g id="Layer1"><path d="M256.036,511.998l-0.25,-0.001l-0.251,-0.001l-0.25,-0.003l-0.25,-0.003l-0.251,-0.005l-0.25,-0.005l-0.251,-0.007l-0.25,-0.008l-0.25,-0.008l-0.251,-0.01l-0.25,-0.01l-0.25,-0.012l-0.25,-0.013l-0.25,-0.013l-0.25,-0.015l-0.251,-0.015l-0.25,-0.017l-0.249,-0.018l-0.25,-0.018l-0.25,-0.02l-0.25,-0.021l-0.25,-0.022l-0.249,-0.022l-0.25,-0.024l-0.249,-0.025l-0.25,-0.026l-0.249,-0.026l-0.249,-0.028l-0.249,-0.029l-0.25,-0.03l-0.248,-0.031l-0.249,-0.032l-0.249,-0.032l-0.249,-0.034l-0.248,-0.035l-0.249,-0.036l-0.248,-0.037l-0.248,-0.038l-0.248,-0.039l-0.248,-0.04l-0.248,-0.041l-0.248,-0.042l-0.247,-0.043l-0.248,-0.044l-0.247,-0.045l-0.247,-0.046l-0.247,-0.047l-0.247,-0.048l-0.247,-0.049l-0.246,-0.05l-0.247,-0.051l-0.246,-0.052l-0.246,-0.053l-0.246,-0.054l-0.246,-0.055l-0.245,-0.057l-0.246,-0.057l-0.245,-0.058l-0.245,-0.059l-0.245,-0.06l-0.244,-0.061l-0.245,-0.063l-0.244,-0.063l-0.244,-0.064l-0.244,-0.065l-0.243,-0.067l-0.244,-0.067l-0.243,-0.068l-0.243,-0.07l-0.243,-0.07l-0.242,-0.071l-0.243,-0.072l-0.242,-0.074l-0.242,-0.074l-0.241,-0.076l-0.242,-0.076l-0.241,-0.077l-0.241,-0.079l-0.24,-0.079l-0.241,-0.081l-0.24,-0.081l-0.24,-0.082l-0.239,-0.084l-0.24,-0.084l-0.239,-0.086l-0.239,-0.086l-0.238,-0.088l-0.239,-0.088l-0.238,-0.09l-0.237,-0.091l-0.238,-0.091l-0.237,-0.093l-0.237,-0.093l-0.236,-0.095l-0.236,-0.096l-0.236,-0.096l-0.236,-0.098l-0.235,-0.098l-0.235,-0.1l-0.235,-0.101l-0.235,-0.101l-0.234,-0.103l-0.233,-0.104l-0.234,-0.105l-0.233,-0.105l-0.233,-0.107l-0.232,-0.108l-0.232,-0.109l-0.232,-0.109l-0.231,-0.111l-0.231,-0.112l-0.231,-0.113l-0.23,-0.114l-0.23,-0.115l-0.23,-0.115l-0.229,-0.117l-0.229,-0.118l-0.229,-0.119l-0.228,-0.12l-0.228,-0.121l-0.227,-0.122l-0.227,-0.123l-0.227,-0.124l-0.226,-0.125l-0.226,-0.126l-0.225,-0.127l-0.225,-0.128l-0.225,-0.129l-168.111,-97.027l-0.224,-0.13l-0.224,-0.131l-0.223,-0.132l-0.222,-0.132l-0.221,-0.134l-0.221,-0.134l-0.22,-0.135l-0.219,-0.136l-0.219,-0.136l-0.218,-0.138l-0.217,-0.138l-0.216,-0.14l-0.216,-0.14l-0.216,-0.141l-0.214,-0.141l-0.214,-0.143l-0.213,-0.143l-0.212,-0.144l-0.212,-0.145l-0.211,-0.146l-0.21,-0.146l-0.21,-0.148l-0.209,-0.148l-0.208,-0.149l-0.207,-0.15l-0.207,-0.15l-0.206,-0.151l-0.205,-0.152l-0.205,-0.153l-0.204,-0.154l-0.203,-0.154l-0.202,-0.156l-0.202,-0.156l-0.201,-0.156l-0.2,-0.158l-0.2,-0.158l-0.199,-0.159l-0.198,-0.16l-0.197,-0.16l-0.197,-0.162l-0.196,-0.162l-0.195,-0.163l-0.194,-0.163l-0.194,-0.164l-0.193,-0.165l-0.192,-0.166l-0.191,-0.167l-0.191,-0.167l-0.19,-0.168l-0.189,-0.168l-0.188,-0.17l-0.188,-0.17l-0.187,-0.171l-0.186,-0.171l-0.185,-0.172l-0.185,-0.173l-0.184,-0.174l-0.183,-0.174l-0.182,-0.175l-0.182,-0.176l-0.181,-0.176l-0.18,-0.178l-0.179,-0.177l-0.178,-0.179l-0.178,-0.179l-0.177,-0.18l-0.176,-0.18l-0.175,-0.182l-0.175,-0.181l-0.174,-0.183l-0.173,-0.183l-0.172,-0.184l-0.171,-0.185l-0.171,-0.185l-0.17,-0.186l-0.169,-0.186l-0.168,-0.187l-0.168,-0.188l-0.167,-0.189l-0.165,-0.189l-0.165,-0.189l-0.165,-0.191l-0.163,-0.191l-0.163,-0.191l-0.162,-0.192l-0.161,-0.193l-0.16,-0.194l-0.16,-0.194l-0.158,-0.195l-0.158,-0.195l-0.157,-0.196l-0.156,-0.196l-0.156,-0.198l-0.154,-0.197l-0.154,-0.199l-0.153,-0.199l-0.152,-0.199l-0.151,-0.2l-0.15,-0.201l-0.15,-0.201l-0.149,-0.202l-0.148,-0.203l-0.147,-0.203l-0.146,-0.204l-0.145,-0.204l-0.145,-0.205l-0.144,-0.205l-0.143,-0.206l-0.142,-0.206l-0.141,-0.207l-0.14,-0.208l-0.14,-0.208l-0.138,-0.209l-0.138,-0.209l-0.137,-0.21l-0.136,-0.21l-0.135,-0.211l-0.135,-0.211l-0.133,-0.212l-0.133,-0.213l-0.132,-0.213l-0.131,-0.213l-0.13,-0.214l-0.129,-0.215l-0.128,-0.215l-0.127,-0.215l-0.127,-0.217l-0.126,-0.216l-0.125,-0.217l-0.123,-0.218l-0.124,-0.218l-0.122,-0.219l-0.121,-0.219l-0.12,-0.219l-0.12,-0.221l-0.119,-0.22l-0.117,-0.221l-0.117,-0.222l-0.116,-0.222l-0.115,-0.222l-0.114,-0.223l-0.114,-0.224l-0.112,-0.224l-0.111,-0.224l-0.111,-0.225l-0.11,-0.225l-0.108,-0.226l-0.108,-0.226l-0.107,-0.227l-0.106,-0.227l-0.105,-0.227l-0.105,-0.228l-0.103,-0.229l-0.102,-0.229l-0.102,-0.229l-0.1,-0.23l-0.1,-0.23l-0.099,-0.231l-0.097,-0.231l-0.097,-0.231l-0.096,-0.232l-0.095,-0.232l-0.094,-0.233l-0.093,-0.233l-0.093,-0.233l-0.091,-0.234l-0.09,-0.235l-0.089,-0.234l-0.089,-0.236l-0.087,-0.235l-0.087,-0.236l-0.086,-0.236l-0.084,-0.237l-0.084,-0.237l-0.083,-0.237l-0.082,-0.238l-0.08,-0.238l-0.08,-0.239l-0.079,-0.239l-0.078,-0.239l-0.077,-0.24l-0.076,-0.24l-0.076,-0.24l-0.074,-0.241l-0.073,-0.241l-0.072,-0.241l-0.071,-0.242l-0.071,-0.242l-0.069,-0.243l-0.068,-0.242l-0.068,-0.244l-0.066,-0.243l-0.065,-0.244l-0.065,-0.244l-0.063,-0.244l-0.063,-0.245l-0.061,-0.245l-0.061,-0.246l-0.059,-0.245l-0.059,-0.246l-0.057,-0.247l-0.057,-0.246l-0.055,-0.247l-0.055,-0.247l-0.054,-0.248l-0.052,-0.248l-0.052,-0.248l-0.05,-0.248l-0.05,-0.249l-0.048,-0.249l-0.048,-0.249l-0.046,-0.25l-0.046,-0.25l-0.044,-0.25l-0.044,-0.25l-0.042,-0.251l-0.042,-0.251l-0.04,-0.251l-0.04,-0.251l-0.038,-0.252l-0.037,-0.252l-0.037,-0.252l-0.035,-0.252l-0.034,-0.253l-0.034,-0.253l-0.032,-0.253l-0.031,-0.253l-0.03,-0.254l-0.029,-0.254l-0.028,-0.254l-0.027,-0.254l-0.026,-0.255l-0.025,-0.254l-0.024,-0.255l-0.023,-0.256l-0.022,-0.255l-0.021,-0.256l-0.02,-0.255l-0.018,-0.256l-0.018,-0.257l-0.017,-0.256l-0.015,-0.257l-0.015,-0.256l-0.013,-0.257l-0.012,-0.257l-0.012,-0.258l-0.01,-0.257l-0.009,-0.258l-0.008,-0.258l-0.007,-0.258l-0.006,-0.258l-0.005,-0.259l-0.004,-0.258l-0.002,-0.259l-0.002,-0.259l-0.001,-0.259l-0.027,-194.103l0,-0.259l0.002,-0.259l0.003,-0.258l0.003,-0.259l0.005,-0.258l0.006,-0.258l0.007,-0.258l0.008,-0.258l0.009,-0.258l0.01,-0.258l0.011,-0.257l0.013,-0.257l0.013,-0.257l0.014,-0.257l0.016,-0.256l0.016,-0.257l0.018,-0.256l0.019,-0.256l0.019,-0.256l0.021,-0.255l0.022,-0.256l0.022,-0.255l0.024,-0.255l0.025,-0.255l0.026,-0.254l0.027,-0.255l0.028,-0.254l0.029,-0.254l0.03,-0.253l0.032,-0.254l0.032,-0.253l0.033,-0.253l0.034,-0.252l0.035,-0.253l0.037,-0.252l0.037,-0.252l0.038,-0.251l0.04,-0.252l0.04,-0.251l0.041,-0.251l0.043,-0.251l0.043,-0.25l0.045,-0.25l0.045,-0.25l0.046,-0.249l0.048,-0.25l0.048,-0.249l0.05,-0.248l0.05,-0.249l0.052,-0.248l0.052,-0.248l0.054,-0.247l0.054,-0.248l0.056,-0.247l0.056,-0.246l0.058,-0.247l0.058,-0.246l0.06,-0.245l0.06,-0.246l0.061,-0.245l0.063,-0.245l0.063,-0.244l0.064,-0.244l0.066,-0.244l0.066,-0.243l0.067,-0.244l0.069,-0.242l0.069,-0.243l0.07,-0.242l0.071,-0.242l0.072,-0.241l0.074,-0.241l0.074,-0.241l0.075,-0.24l0.076,-0.241l0.077,-0.239l0.078,-0.239l0.079,-0.239l0.079,-0.239l0.081,-0.238l0.082,-0.238l0.083,-0.237l0.083,-0.238l0.085,-0.236l0.085,-0.237l0.087,-0.235l0.087,-0.236l0.089,-0.235l0.089,-0.235l0.09,-0.234l0.092,-0.234l0.092,-0.234l0.093,-0.233l0.094,-0.233l0.095,-0.232l0.096,-0.232l0.096,-0.231l0.098,-0.231l0.099,-0.231l0.099,-0.23l0.101,-0.23l0.101,-0.229l0.102,-0.229l0.104,-0.229l0.104,-0.228l0.105,-0.227l0.106,-0.227l0.107,-0.227l0.108,-0.226l0.108,-0.226l0.11,-0.225l0.11,-0.225l0.112,-0.225l0.112,-0.224l0.113,-0.223l0.114,-0.223l0.115,-0.223l0.116,-0.222l0.117,-0.221l0.118,-0.221l0.118,-0.221l0.12,-0.22l0.12,-0.22l0.121,-0.219l0.122,-0.219l0.123,-0.218l0.124,-0.217l0.125,-0.218l0.126,-0.216l0.126,-0.216l0.127,-0.216l0.129,-0.215l0.129,-0.215l0.13,-0.214l0.131,-0.213l0.131,-0.213l0.133,-0.213l0.133,-0.212l0.135,-0.211l0.135,-0.211l0.136,-0.21l0.137,-0.21l0.138,-0.21l0.138,-0.208l0.14,-0.208l0.14,-0.208l0.141,-0.207l0.142,-0.207l0.143,-0.206l0.143,-0.205l0.145,-0.205l0.145,-0.204l0.146,-0.204l0.147,-0.203l0.148,-0.202l0.149,-0.202l0.15,-0.202l0.15,-0.2l0.151,-0.201l0.152,-0.199l0.153,-0.199l0.154,-0.199l0.154,-0.197l0.155,-0.198l0.157,-0.196l0.156,-0.196l0.158,-0.196l0.159,-0.194l0.159,-0.195l0.16,-0.193l0.161,-0.193l0.162,-0.192l0.163,-0.192l0.163,-0.191l0.165,-0.19l0.165,-0.19l0.165,-0.189l0.167,-0.189l0.167,-0.188l0.169,-0.187l0.169,-0.186l0.169,-0.186l0.171,-0.185l0.171,-0.185l0.173,-0.184l0.173,-0.183l0.173,-0.183l0.175,-0.182l0.175,-0.181l0.176,-0.181l0.177,-0.179l0.178,-0.18l0.178,-0.178l0.179,-0.178l0.18,-0.177l0.181,-0.177l0.182,-0.176l0.182,-0.175l0.183,-0.174l0.184,-0.174l0.184,-0.173l0.186,-0.172l0.186,-0.172l0.187,-0.17l0.187,-0.171l0.189,-0.169l0.189,-0.169l0.19,-0.168l0.19,-0.167l0.192,-0.166l0.192,-0.166l0.192,-0.165l0.194,-0.165l0.194,-0.163l0.195,-0.163l0.196,-0.162l0.197,-0.161l0.197,-0.161l0.198,-0.16l0.199,-0.159l0.199,-0.158l0.201,-0.158l0.2,-0.157l0.202,-0.156l0.203,-0.155l0.203,-0.154l0.203,-0.154l0.205,-0.153l0.205,-0.152l0.206,-0.152l0.207,-0.15l0.207,-0.15l0.208,-0.149l0.209,-0.148l0.21,-0.147l0.21,-0.147l0.211,-0.146l0.212,-0.145l0.212,-0.144l0.213,-0.143l0.214,-0.143l0.214,-0.142l0.215,-0.141l0.216,-0.14l0.217,-0.139l0.217,-0.139l0.218,-0.137l0.219,-0.137l0.219,-0.136l0.22,-0.135l0.22,-0.134l0.222,-0.134l0.222,-0.132l0.222,-0.132l0.224,-0.131l0.224,-0.13l168.084,-97.075l0.225,-0.129l0.225,-0.128l0.225,-0.127l0.226,-0.126l0.226,-0.125l0.227,-0.124l0.227,-0.123l0.227,-0.122l0.228,-0.121l0.228,-0.12l0.228,-0.119l0.229,-0.118l0.229,-0.117l0.23,-0.116l0.23,-0.115l0.23,-0.114l0.231,-0.113l0.231,-0.112l0.231,-0.111l0.232,-0.109l0.232,-0.109l0.232,-0.108l0.233,-0.107l0.233,-0.106l0.234,-0.105l0.233,-0.103l0.234,-0.103l0.235,-0.102l0.234,-0.101l0.235,-0.099l0.236,-0.099l0.235,-0.098l0.236,-0.096l0.236,-0.096l0.237,-0.095l0.237,-0.093l0.237,-0.093l0.237,-0.092l0.238,-0.09l0.238,-0.09l0.238,-0.089l0.239,-0.087l0.239,-0.087l0.239,-0.085l0.239,-0.085l0.24,-0.083l0.24,-0.083l0.24,-0.081l0.24,-0.081l0.241,-0.079l0.241,-0.079l0.241,-0.077l0.241,-0.077l0.242,-0.075l0.241,-0.075l0.243,-0.073l0.242,-0.072l0.242,-0.072l0.243,-0.07l0.243,-0.07l0.243,-0.068l0.244,-0.067l0.243,-0.067l0.244,-0.065l0.244,-0.064l0.244,-0.064l0.245,-0.062l0.244,-0.061l0.245,-0.06l0.245,-0.06l0.245,-0.058l0.246,-0.057l0.245,-0.056l0.246,-0.055l0.246,-0.055l0.246,-0.053l0.246,-0.052l0.246,-0.051l0.247,-0.05l0.247,-0.049l0.246,-0.049l0.247,-0.047l0.248,-0.046l0.247,-0.045l0.247,-0.044l0.248,-0.043l0.248,-0.042l0.247,-0.041l0.248,-0.04l0.248,-0.039l0.249,-0.038l0.248,-0.037l0.248,-0.036l0.249,-0.035l0.248,-0.034l0.249,-0.033l0.249,-0.032l0.249,-0.031l0.249,-0.029l0.249,-0.029l0.249,-0.028l0.25,-0.027l0.249,-0.026l0.25,-0.025l0.249,-0.024l0.25,-0.022l0.25,-0.022l0.249,-0.021l0.25,-0.02l0.25,-0.019l0.25,-0.017l0.25,-0.017l0.25,-0.016l0.25,-0.014l0.25,-0.014l0.25,-0.013l0.251,-0.011l0.25,-0.011l0.25,-0.01l0.251,-0.008l0.25,-0.008l0.25,-0.007l0.251,-0.005l0.25,-0.005l0.25,-0.003l0.251,-0.003l0.25,-0.002l0.251,0l0.25,0l0.251,0.002l0.25,0.002l0.25,0.004l0.251,0.004l0.25,0.006l0.251,0.006l0.25,0.008l0.25,0.009l0.251,0.009l0.25,0.011l0.25,0.011l0.25,0.013l0.25,0.014l0.25,0.014l0.251,0.016l0.25,0.017l0.249,0.017l0.25,0.019l0.25,0.02l0.25,0.02l0.25,0.022l0.249,0.023l0.25,0.024l0.249,0.024l0.25,0.026l0.249,0.027l0.249,0.028l0.249,0.028l0.25,0.03l0.248,0.031l0.249,0.032l0.249,0.033l0.249,0.034l0.248,0.035l0.249,0.035l0.248,0.037l0.248,0.038l0.248,0.039l0.248,0.04l0.248,0.041l0.248,0.042l0.247,0.043l0.248,0.044l0.247,0.045l0.247,0.046l0.247,0.047l0.247,0.048l0.247,0.049l0.246,0.05l0.247,0.051l0.246,0.052l0.246,0.054l0.246,0.054l0.246,0.055l0.245,0.056l0.246,0.057l0.245,0.058l0.245,0.059l0.245,0.061l0.244,0.061l0.245,0.062l0.244,0.063l0.244,0.065l0.244,0.065l0.243,0.066l0.244,0.067l0.243,0.069l0.243,0.069l0.243,0.07l0.242,0.072l0.243,0.072l0.242,0.073l0.242,0.075l0.241,0.075l0.242,0.076l0.241,0.078l0.241,0.078l0.24,0.08l0.241,0.08l0.24,0.081l0.24,0.083l0.239,0.083l0.24,0.085l0.239,0.085l0.239,0.087l0.238,0.087l0.239,0.089l0.238,0.089l0.237,0.091l0.238,0.092l0.237,0.092l0.237,0.094l0.236,0.094l0.236,0.096l0.236,0.097l0.236,0.097l0.235,0.099l0.235,0.1l0.235,0.1l0.235,0.102l0.234,0.103l0.233,0.103l0.234,0.105l0.233,0.106l0.233,0.107l0.232,0.107l0.232,0.109l0.232,0.11l0.231,0.111l0.231,0.111l0.231,0.113l0.23,0.114l0.23,0.115l0.23,0.116l0.229,0.117l0.229,0.118l0.229,0.118l0.228,0.12l0.228,0.121l0.227,0.122l0.227,0.123l0.227,0.124l0.226,0.125l0.226,0.126l0.225,0.127l0.225,0.128l0.225,0.129l168.111,97.028l0.224,0.13l0.224,0.13l0.223,0.132l0.222,0.133l0.221,0.133l0.221,0.134l0.22,0.135l0.219,0.136l0.219,0.137l0.218,0.137l0.217,0.139l0.216,0.139l0.216,0.14l0.216,0.141l0.214,0.142l0.214,0.142l0.213,0.143l0.212,0.145l0.212,0.144l0.211,0.146l0.21,0.147l0.21,0.147l0.209,0.148l0.208,0.149l0.207,0.15l0.207,0.15l0.206,0.152l0.205,0.152l0.205,0.153l0.204,0.153l0.203,0.155l0.202,0.155l0.202,0.156l0.201,0.157l0.2,0.157l0.2,0.158l0.199,0.16l0.198,0.159l0.197,0.161l0.197,0.161l0.196,0.162l0.195,0.163l0.194,0.163l0.194,0.165l0.193,0.165l0.192,0.165l0.191,0.167l0.191,0.167l0.19,0.168l0.189,0.169l0.188,0.169l0.188,0.17l0.187,0.171l0.186,0.171l0.185,0.173l0.185,0.173l0.184,0.173l0.183,0.175l0.182,0.175l0.182,0.175l0.181,0.177l0.18,0.177l0.179,0.178l0.178,0.178l0.178,0.179l0.177,0.18l0.176,0.181l0.175,0.181l0.175,0.182l0.174,0.182l0.173,0.184l0.172,0.183l0.171,0.185l0.171,0.185l0.17,0.186l0.169,0.187l0.168,0.187l0.168,0.187l0.167,0.189l0.165,0.189l0.165,0.19l0.165,0.19l0.163,0.191l0.163,0.192l0.162,0.192l0.161,0.193l0.16,0.193l0.16,0.194l0.158,0.195l0.158,0.195l0.157,0.196l0.156,0.197l0.156,0.197l0.154,0.198l0.154,0.198l0.153,0.199l0.152,0.2l0.151,0.2l0.15,0.201l0.15,0.201l0.149,0.202l0.148,0.202l0.147,0.203l0.146,0.204l0.145,0.204l0.145,0.205l0.144,0.205l0.143,0.206l0.142,0.207l0.141,0.207l0.14,0.207l0.14,0.208l0.138,0.209l0.138,0.209l0.137,0.21l0.136,0.21l0.135,0.211l0.135,0.212l0.133,0.212l0.133,0.212l0.132,0.213l0.131,0.214l0.13,0.214l0.129,0.214l0.128,0.215l0.127,0.216l0.127,0.216l0.126,0.217l0.125,0.217l0.123,0.217l0.124,0.218l0.122,0.219l0.121,0.219l0.12,0.22l0.12,0.22l0.119,0.22l0.117,0.222l0.117,0.221l0.116,0.222l0.115,0.223l0.114,0.223l0.114,0.223l0.112,0.224l0.111,0.224l0.111,0.225l0.11,0.226l0.108,0.225l0.108,0.226l0.107,0.227l0.106,0.227l0.105,0.228l0.105,0.228l0.103,0.228l0.102,0.229l0.102,0.229l0.1,0.23l0.1,0.23l0.099,0.231l0.097,0.231l0.097,0.231l0.096,0.232l0.095,0.233l0.094,0.232l0.093,0.233l0.093,0.234l0.091,0.234l0.09,0.234l0.089,0.235l0.089,0.235l0.087,0.235l0.087,0.236l0.086,0.237l0.084,0.236l0.084,0.237l0.083,0.238l0.082,0.238l0.08,0.238l0.08,0.238l0.079,0.239l0.078,0.239l0.077,0.24l0.076,0.24l0.076,0.24l0.074,0.241l0.073,0.241l0.072,0.242l0.071,0.241l0.071,0.243l0.069,0.242l0.068,0.243l0.068,0.243l0.066,0.243l0.065,0.244l0.065,0.244l0.063,0.245l0.063,0.245l0.061,0.245l0.061,0.245l0.059,0.246l0.059,0.246l0.057,0.246l0.057,0.247l0.055,0.247l0.055,0.247l0.054,0.247l0.052,0.248l0.052,0.248l0.05,0.249l0.05,0.248l0.048,0.249l0.048,0.25l0.046,0.249l0.046,0.25l0.044,0.25l0.044,0.251l0.042,0.25l0.042,0.251l0.04,0.251l0.04,0.252l0.038,0.251l0.037,0.252l0.037,0.252l0.035,0.253l0.034,0.252l0.034,0.253l0.032,0.253l0.031,0.254l0.03,0.253l0.029,0.254l0.028,0.254l0.027,0.255l0.026,0.254l0.025,0.255l0.024,0.255l0.023,0.255l0.022,0.255l0.021,0.256l0.02,0.256l0.018,0.256l0.018,0.256l0.017,0.256l0.015,0.257l0.015,0.257l0.013,0.257l0.012,0.257l0.012,0.257l0.01,0.258l0.009,0.257l0.008,0.258l0.007,0.258l0.006,0.259l0.005,0.258l0.004,0.259l0.002,0.258l0.002,0.259l0.001,0.259l0.027,194.103l0,0.259l-0.002,0.259l-0.003,0.259l-0.003,0.258l-0.005,0.259l-0.006,0.258l-0.007,0.258l-0.008,0.258l-0.009,0.257l-0.01,0.258l-0.011,0.257l-0.013,0.258l-0.013,0.257l-0.014,0.256l-0.016,0.257l-0.016,0.256l-0.018,0.256l-0.019,0.256l-0.019,0.256l-0.021,0.256l-0.022,0.255l-0.022,0.255l-0.024,0.255l-0.025,0.255l-0.026,0.255l-0.027,0.254l-0.028,0.254l-0.029,0.254l-0.03,0.254l-0.032,0.253l-0.032,0.253l-0.033,0.253l-0.034,0.253l-0.035,0.252l-0.037,0.252l-0.037,0.252l-0.038,0.252l-0.04,0.251l-0.04,0.251l-0.041,0.251l-0.043,0.251l-0.043,0.25l-0.045,0.25l-0.045,0.25l-0.046,0.25l-0.048,0.249l-0.048,0.249l-0.05,0.249l-0.05,0.248l-0.052,0.248l-0.052,0.248l-0.054,0.248l-0.054,0.247l-0.056,0.247l-0.056,0.247l-0.058,0.246l-0.058,0.246l-0.06,0.246l-0.06,0.245l-0.061,0.245l-0.063,0.245l-0.063,0.244l-0.064,0.245l-0.066,0.243l-0.066,0.244l-0.067,0.243l-0.069,0.243l-0.069,0.242l-0.07,0.242l-0.071,0.242l-0.072,0.242l-0.074,0.241l-0.074,0.24l-0.075,0.241l-0.076,0.24l-0.077,0.24l-0.078,0.239l-0.079,0.239l-0.079,0.238l-0.081,0.239l-0.082,0.237l-0.083,0.238l-0.083,0.237l-0.085,0.237l-0.085,0.236l-0.087,0.236l-0.087,0.235l-0.089,0.236l-0.089,0.234l-0.09,0.235l-0.092,0.234l-0.092,0.233l-0.093,0.233l-0.094,0.233l-0.095,0.232l-0.096,0.232l-0.096,0.232l-0.098,0.231l-0.099,0.23l-0.099,0.23l-0.101,0.23l-0.101,0.23l-0.102,0.228l-0.104,0.229l-0.104,0.228l-0.105,0.228l-0.106,0.227l-0.107,0.226l-0.108,0.227l-0.108,0.225l-0.11,0.226l-0.11,0.225l-0.112,0.224l-0.112,0.224l-0.113,0.223l-0.114,0.223l-0.115,0.223l-0.116,0.222l-0.117,0.222l-0.118,0.221l-0.118,0.22l-0.12,0.221l-0.12,0.219l-0.121,0.219l-0.122,0.219l-0.123,0.218l-0.124,0.218l-0.125,0.217l-0.126,0.217l-0.126,0.216l-0.127,0.215l-0.129,0.215l-0.129,0.215l-0.13,0.214l-0.131,0.214l-0.131,0.213l-0.133,0.212l-0.133,0.212l-0.135,0.212l-0.135,0.211l-0.136,0.21l-0.137,0.21l-0.138,0.209l-0.138,0.209l-0.14,0.208l-0.14,0.207l-0.141,0.208l-0.142,0.206l-0.143,0.206l-0.143,0.205l-0.145,0.205l-0.145,0.204l-0.146,0.204l-0.147,0.203l-0.148,0.203l-0.149,0.202l-0.15,0.201l-0.15,0.201l-0.151,0.2l-0.152,0.2l-0.153,0.199l-0.154,0.198l-0.154,0.198l-0.155,0.197l-0.157,0.197l-0.156,0.196l-0.158,0.195l-0.159,0.195l-0.159,0.194l-0.16,0.193l-0.161,0.193l-0.162,0.193l-0.163,0.191l-0.163,0.191l-0.165,0.191l-0.165,0.19l-0.165,0.189l-0.167,0.188l-0.167,0.188l-0.169,0.187l-0.169,0.187l-0.169,0.186l-0.171,0.185l-0.171,0.184l-0.173,0.184l-0.173,0.184l-0.173,0.182l-0.175,0.182l-0.175,0.181l-0.176,0.181l-0.177,0.18l-0.178,0.179l-0.178,0.179l-0.179,0.177l-0.18,0.178l-0.181,0.176l-0.182,0.176l-0.182,0.175l-0.183,0.174l-0.184,0.174l-0.184,0.173l-0.186,0.172l-0.186,0.172l-0.187,0.171l-0.187,0.17l-0.189,0.169l-0.189,0.169l-0.19,0.168l-0.19,0.167l-0.192,0.167l-0.192,0.166l-0.192,0.165l-0.194,0.164l-0.194,0.164l-0.195,0.162l-0.196,0.162l-0.197,0.162l-0.197,0.16l-0.198,0.16l-0.199,0.159l-0.199,0.159l-0.201,0.157l-0.2,0.157l-0.202,0.156l-0.203,0.155l-0.203,0.155l-0.203,0.153l-0.205,0.153l-0.205,0.153l-0.206,0.151l-0.207,0.151l-0.207,0.149l-0.208,0.149l-0.209,0.148l-0.21,0.148l-0.21,0.147l-0.211,0.145l-0.212,0.145l-0.212,0.144l-0.213,0.144l-0.214,0.142l-0.214,0.142l-0.215,0.141l-0.216,0.14l-0.217,0.139l-0.217,0.139l-0.218,0.138l-0.219,0.136l-0.219,0.136l-0.22,0.135l-0.22,0.135l-0.222,0.133l-0.222,0.133l-0.222,0.131l-0.224,0.131l-0.224,0.13l-168.084,97.076l-0.225,0.129l-0.225,0.128l-0.225,0.127l-0.226,0.126l-0.226,0.125l-0.227,0.124l-0.227,0.123l-0.227,0.122l-0.228,0.121l-0.228,0.12l-0.228,0.119l-0.229,0.118l-0.229,0.117l-0.23,0.116l-0.23,0.114l-0.23,0.114l-0.231,0.113l-0.231,0.112l-0.231,0.111l-0.232,0.11l-0.232,0.109l-0.232,0.108l-0.233,0.106l-0.233,0.106l-0.234,0.105l-0.233,0.104l-0.234,0.102l-0.235,0.102l-0.234,0.101l-0.235,0.1l-0.236,0.098l-0.235,0.098l-0.236,0.097l-0.236,0.096l-0.237,0.094l-0.237,0.094l-0.237,0.092l-0.237,0.092l-0.238,0.091l-0.238,0.089l-0.238,0.089l-0.239,0.088l-0.239,0.086l-0.239,0.086l-0.239,0.084l-0.24,0.084l-0.24,0.082l-0.24,0.082l-0.24,0.08l-0.241,0.08l-0.241,0.078l-0.241,0.078l-0.241,0.076l-0.242,0.076l-0.241,0.074l-0.243,0.073l-0.242,0.073l-0.242,0.071l-0.243,0.071l-0.243,0.069l-0.243,0.068l-0.244,0.068l-0.243,0.066l-0.244,0.065l-0.244,0.065l-0.244,0.063l-0.245,0.062l-0.244,0.062l-0.245,0.06l-0.245,0.059l-0.245,0.058l-0.246,0.057l-0.245,0.057l-0.246,0.055l-0.246,0.054l-0.246,0.053l-0.246,0.052l-0.246,0.052l-0.247,0.05l-0.247,0.049l-0.246,0.048l-0.247,0.047l-0.248,0.046l-0.247,0.045l-0.247,0.044l-0.248,0.043l-0.248,0.042l-0.247,0.041l-0.248,0.04l-0.248,0.039l-0.249,0.038l-0.248,0.037l-0.248,0.036l-0.249,0.035l-0.248,0.034l-0.249,0.033l-0.249,0.032l-0.249,0.031l-0.249,0.03l-0.249,0.029l-0.249,0.028l-0.25,0.026l-0.249,0.026l-0.25,0.025l-0.249,0.024l-0.25,0.023l-0.25,0.022l-0.249,0.02l-0.25,0.02l-0.25,0.019l-0.25,0.018l-0.25,0.016l-0.25,0.016l-0.25,0.015l-0.25,0.014l-0.25,0.012l-0.251,0.012l-0.25,0.011l-0.25,0.009l-0.251,0.009l-0.25,0.007l-0.25,0.007l-0.251,0.006l-0.25,0.004l-0.25,0.004l-0.251,0.002l-0.25,0.002l-0.251,0.001ZM256.033,484.997l0.14,0l0.142,-0.001l0.142,-0.001l0.14,-0.002l0.142,-0.003l0.142,-0.003l0.14,-0.004l0.142,-0.004l0.142,-0.005l0.14,-0.005l0.141,-0.006l0.142,-0.007l0.14,-0.007l0.142,-0.008l0.142,-0.008l0.139,-0.009l0.142,-0.009l0.142,-0.01l0.14,-0.011l0.141,-0.011l0.141,-0.012l0.142,-0.012l0.14,-0.013l0.139,-0.013l0.141,-0.014l0.142,-0.015l0.141,-0.015l0.141,-0.016l0.139,-0.016l0.14,-0.017l0.141,-0.017l0.141,-0.019l0.14,-0.018l0.141,-0.019l0.139,-0.02l0.139,-0.02l0.142,-0.021l0.139,-0.021l0.139,-0.022l0.142,-0.023l0.138,-0.023l0.14,-0.024l0.141,-0.024l0.138,-0.025l0.138,-0.025l0.14,-0.026l0.14,-0.027l0.139,-0.027l0.14,-0.028l0.138,-0.028l0.139,-0.029l0.138,-0.029l0.139,-0.03l0.139,-0.031l0.138,-0.031l0.138,-0.031l0.139,-0.033l0.137,-0.032l0.139,-0.034l0.138,-0.034l0.137,-0.034l0.138,-0.035l0.138,-0.036l0.138,-0.036l0.136,-0.037l0.136,-0.037l0.139,-0.038l0.138,-0.039l0.134,-0.038l0.138,-0.04l0.137,-0.041l0.136,-0.04l0.137,-0.042l0.136,-0.042l0.136,-0.042l0.135,-0.043l0.136,-0.044l0.136,-0.044l0.135,-0.045l0.136,-0.045l0.135,-0.046l0.136,-0.047l0.134,-0.046l0.135,-0.048l0.135,-0.049l0.134,-0.048l0.134,-0.049l0.134,-0.05l0.134,-0.051l0.134,-0.051l0.133,-0.051l0.134,-0.052l0.134,-0.053l0.133,-0.054l0.132,-0.053l0.134,-0.055l0.133,-0.055l0.132,-0.055l0.133,-0.057l0.132,-0.056l0.131,-0.058l0.132,-0.057l0.131,-0.059l0.133,-0.059l0.132,-0.06l0.131,-0.06l0.13,-0.061l0.131,-0.061l0.131,-0.062l0.13,-0.063l0.131,-0.063l0.13,-0.064l0.13,-0.064l0.129,-0.065l0.13,-0.065l0.129,-0.066l0.129,-0.066l0.128,-0.067l0.13,-0.068l0.128,-0.068l0.129,-0.07l0.13,-0.07l0.125,-0.069l0.128,-0.07l0.13,-0.073l0.126,-0.071l0.127,-0.072l0.152,-0.087l168.036,-97.048l0.15,-0.087l0.126,-0.074l0.127,-0.075l0.126,-0.075l0.124,-0.075l0.125,-0.076l0.125,-0.076l0.123,-0.077l0.124,-0.077l0.122,-0.078l0.123,-0.078l0.122,-0.078l0.121,-0.079l0.123,-0.081l0.121,-0.08l0.12,-0.079l0.12,-0.081l0.12,-0.082l0.12,-0.082l0.119,-0.082l0.117,-0.082l0.118,-0.083l0.119,-0.084l0.117,-0.084l0.117,-0.084l0.116,-0.085l0.117,-0.086l0.115,-0.085l0.116,-0.087l0.114,-0.086l0.114,-0.087l0.115,-0.088l0.113,-0.087l0.113,-0.088l0.113,-0.089l0.113,-0.09l0.112,-0.089l0.112,-0.091l0.11,-0.09l0.109,-0.089l0.111,-0.092l0.111,-0.092l0.11,-0.093l0.108,-0.092l0.109,-0.093l0.108,-0.093l0.107,-0.093l0.108,-0.095l0.107,-0.095l0.107,-0.096l0.105,-0.094l0.106,-0.096l0.105,-0.096l0.105,-0.096l0.104,-0.098l0.104,-0.097l0.105,-0.099l0.101,-0.096l0.102,-0.099l0.104,-0.1l0.102,-0.1l0.101,-0.099l0.1,-0.1l0.101,-0.101l0.1,-0.1l0.1,-0.102l0.099,-0.101l0.098,-0.102l0.1,-0.104l0.098,-0.103l0.096,-0.102l0.097,-0.104l0.097,-0.104l0.096,-0.105l0.096,-0.104l0.094,-0.104l0.096,-0.107l0.095,-0.106l0.093,-0.106l0.093,-0.106l0.093,-0.107l0.094,-0.108l0.092,-0.108l0.091,-0.107l0.09,-0.107l0.091,-0.11l0.091,-0.11l0.09,-0.109l0.089,-0.109l0.089,-0.11l0.088,-0.111l0.089,-0.111l0.087,-0.111l0.088,-0.112l0.087,-0.112l0.085,-0.112l0.086,-0.112l0.085,-0.113l0.084,-0.112l0.085,-0.115l0.085,-0.115l0.083,-0.113l0.082,-0.114l0.083,-0.116l0.082,-0.115l0.081,-0.115l0.081,-0.116l0.081,-0.117l0.079,-0.115l0.081,-0.118l0.079,-0.117l0.079,-0.117l0.078,-0.119l0.078,-0.118l0.077,-0.118l0.076,-0.118l0.077,-0.119l0.075,-0.119l0.076,-0.12l0.075,-0.12l0.074,-0.12l0.073,-0.12l0.074,-0.122l0.073,-0.121l0.072,-0.12l0.072,-0.123l0.071,-0.121l0.071,-0.122l0.071,-0.124l0.069,-0.122l0.07,-0.122l0.069,-0.125l0.069,-0.124l0.067,-0.123l0.068,-0.125l0.067,-0.125l0.066,-0.124l0.065,-0.124l0.065,-0.124l0.066,-0.128l0.065,-0.126l0.063,-0.125l0.064,-0.127l0.063,-0.127l0.062,-0.126l0.062,-0.127l0.061,-0.127l0.061,-0.128l0.06,-0.129l0.06,-0.127l0.059,-0.128l0.059,-0.131l0.059,-0.128l0.057,-0.128l0.057,-0.13l0.057,-0.13l0.056,-0.128l0.055,-0.131l0.055,-0.13l0.055,-0.131l0.055,-0.132l0.053,-0.13l0.052,-0.13l0.053,-0.131l0.053,-0.134l0.051,-0.131l0.05,-0.131l0.051,-0.133l0.049,-0.132l0.05,-0.135l0.049,-0.133l0.048,-0.131l0.047,-0.133l0.048,-0.136l0.046,-0.133l0.046,-0.133l0.046,-0.136l0.045,-0.134l0.044,-0.133l0.044,-0.136l0.044,-0.135l0.043,-0.135l0.042,-0.136l0.041,-0.134l0.042,-0.138l0.04,-0.135l0.04,-0.136l0.04,-0.137l0.039,-0.136l0.038,-0.137l0.038,-0.137l0.038,-0.137l0.037,-0.137l0.036,-0.138l0.036,-0.138l0.035,-0.138l0.034,-0.137l0.034,-0.138l0.034,-0.139l0.033,-0.139l0.032,-0.137l0.032,-0.141l0.031,-0.139l0.031,-0.138l0.03,-0.14l0.03,-0.14l0.028,-0.139l0.029,-0.14l0.028,-0.14l0.027,-0.14l0.027,-0.14l0.026,-0.141l0.025,-0.141l0.025,-0.14l0.025,-0.142l0.024,-0.142l0.023,-0.139l0.023,-0.142l0.022,-0.142l0.021,-0.141l0.021,-0.142l0.021,-0.143l0.02,-0.142l0.019,-0.142l0.019,-0.143l0.018,-0.142l0.017,-0.142l0.017,-0.143l0.017,-0.144l0.016,-0.143l0.015,-0.142l0.014,-0.144l0.014,-0.144l0.014,-0.145l0.013,-0.143l0.012,-0.143l0.012,-0.145l0.011,-0.144l0.01,-0.143l0.01,-0.145l0.009,-0.146l0.009,-0.145l0.008,-0.144l0.008,-0.144l0.007,-0.147l0.006,-0.144l0.006,-0.145l0.005,-0.147l0.004,-0.144l0.004,-0.146l0.004,-0.148l0.002,-0.145l0.002,-0.145l0.002,-0.147l0.001,-0.146l0,-0.175l-0.027,-194.047l-0.001,-0.173l-0.001,-0.148l-0.001,-0.147l-0.002,-0.145l-0.003,-0.146l-0.003,-0.147l-0.004,-0.145l-0.005,-0.146l-0.005,-0.145l-0.006,-0.146l-0.006,-0.144l-0.007,-0.146l-0.008,-0.146l-0.008,-0.144l-0.009,-0.144l-0.009,-0.144l-0.01,-0.147l-0.011,-0.144l-0.011,-0.142l-0.011,-0.146l-0.013,-0.145l-0.013,-0.143l-0.013,-0.143l-0.014,-0.144l-0.015,-0.143l-0.015,-0.142l-0.016,-0.145l-0.016,-0.143l-0.017,-0.141l-0.018,-0.144l-0.018,-0.143l-0.019,-0.142l-0.019,-0.143l-0.02,-0.142l-0.02,-0.141l-0.022,-0.142l-0.021,-0.142l-0.022,-0.141l-0.023,-0.143l-0.024,-0.141l-0.023,-0.14l-0.025,-0.142l-0.025,-0.141l-0.026,-0.141l-0.026,-0.139l-0.027,-0.141l-0.027,-0.14l-0.028,-0.139l-0.028,-0.141l-0.029,-0.14l-0.03,-0.14l-0.03,-0.138l-0.031,-0.14l-0.031,-0.139l-0.032,-0.138l-0.032,-0.14l-0.033,-0.138l-0.033,-0.137l-0.035,-0.139l-0.034,-0.139l-0.035,-0.137l-0.036,-0.138l-0.037,-0.138l-0.036,-0.136l-0.038,-0.137l-0.038,-0.139l-0.038,-0.135l-0.039,-0.136l-0.04,-0.137l-0.04,-0.137l-0.041,-0.137l-0.041,-0.135l-0.041,-0.134l-0.043,-0.136l-0.043,-0.137l-0.043,-0.135l-0.044,-0.132l-0.045,-0.136l-0.045,-0.135l-0.045,-0.134l-0.046,-0.133l-0.047,-0.134l-0.048,-0.136l-0.047,-0.132l-0.048,-0.133l-0.049,-0.133l-0.049,-0.132l-0.05,-0.133l-0.05,-0.132l-0.052,-0.133l-0.051,-0.132l-0.052,-0.131l-0.052,-0.131l-0.053,-0.132l-0.054,-0.131l-0.054,-0.13l-0.054,-0.13l-0.056,-0.131l-0.056,-0.131l-0.056,-0.129l-0.056,-0.129l-0.057,-0.129l-0.059,-0.131l-0.058,-0.129l-0.058,-0.127l-0.059,-0.128l-0.061,-0.129l-0.06,-0.129l-0.061,-0.126l-0.061,-0.127l-0.062,-0.128l-0.063,-0.128l-0.062,-0.125l-0.063,-0.126l-0.065,-0.127l-0.064,-0.125l-0.065,-0.126l-0.066,-0.126l-0.065,-0.125l-0.066,-0.123l-0.067,-0.125l-0.068,-0.126l-0.068,-0.122l-0.068,-0.124l-0.07,-0.124l-0.069,-0.123l-0.07,-0.122l-0.07,-0.124l-0.072,-0.122l-0.07,-0.121l-0.072,-0.121l-0.073,-0.123l-0.073,-0.12l-0.073,-0.121l-0.074,-0.121l-0.074,-0.119l-0.075,-0.121l-0.076,-0.12l-0.075,-0.118l-0.076,-0.119l-0.077,-0.119l-0.077,-0.117l-0.078,-0.118l-0.079,-0.12l-0.079,-0.117l-0.078,-0.116l-0.08,-0.117l-0.08,-0.117l-0.08,-0.116l-0.082,-0.116l-0.082,-0.116l-0.081,-0.114l-0.083,-0.115l-0.083,-0.115l-0.083,-0.115l-0.084,-0.113l-0.085,-0.114l-0.085,-0.114l-0.085,-0.112l-0.085,-0.112l-0.087,-0.113l-0.086,-0.111l-0.087,-0.112l-0.088,-0.111l-0.087,-0.11l-0.089,-0.111l-0.09,-0.111l-0.089,-0.11l-0.09,-0.108l-0.09,-0.11l-0.092,-0.109l-0.09,-0.108l-0.092,-0.107l-0.092,-0.109l-0.093,-0.107l-0.092,-0.106l-0.094,-0.107l-0.094,-0.106l-0.095,-0.106l-0.095,-0.106l-0.095,-0.105l-0.095,-0.105l-0.096,-0.104l-0.097,-0.103l-0.097,-0.104l-0.097,-0.103l-0.098,-0.103l-0.099,-0.103l-0.098,-0.101l-0.1,-0.103l-0.099,-0.101l-0.1,-0.101l-0.101,-0.1l-0.101,-0.1l-0.101,-0.1l-0.102,-0.1l-0.102,-0.098l-0.103,-0.099l-0.103,-0.098l-0.104,-0.098l-0.104,-0.098l-0.104,-0.096l-0.104,-0.096l-0.106,-0.097l-0.106,-0.096l-0.106,-0.096l-0.106,-0.094l-0.106,-0.094l-0.108,-0.094l-0.108,-0.095l-0.108,-0.093l-0.109,-0.093l-0.109,-0.092l-0.11,-0.092l-0.11,-0.092l-0.11,-0.091l-0.11,-0.091l-0.112,-0.09l-0.111,-0.09l-0.112,-0.09l-0.112,-0.089l-0.113,-0.089l-0.113,-0.088l-0.114,-0.088l-0.114,-0.087l-0.114,-0.087l-0.115,-0.086l-0.116,-0.087l-0.115,-0.086l-0.116,-0.085l-0.117,-0.085l-0.117,-0.084l-0.116,-0.084l-0.118,-0.083l-0.119,-0.084l-0.118,-0.082l-0.12,-0.083l-0.119,-0.081l-0.119,-0.081l-0.121,-0.081l-0.12,-0.081l-0.121,-0.079l-0.122,-0.08l-0.121,-0.079l-0.123,-0.079l-0.122,-0.078l-0.123,-0.077l-0.124,-0.078l-0.124,-0.076l-0.124,-0.077l-0.125,-0.075l-0.125,-0.076l-0.125,-0.075l-0.126,-0.074l-0.127,-0.074l-0.151,-0.088l-168.063,-96.999l-0.151,-0.087l-0.128,-0.073l-0.127,-0.072l-0.127,-0.07l-0.128,-0.071l-0.129,-0.07l-0.127,-0.07l-0.129,-0.069l-0.129,-0.068l-0.129,-0.068l-0.128,-0.067l-0.129,-0.066l-0.13,-0.066l-0.13,-0.066l-0.13,-0.065l-0.129,-0.064l-0.13,-0.063l-0.131,-0.063l-0.13,-0.063l-0.131,-0.062l-0.131,-0.061l-0.131,-0.061l-0.131,-0.06l-0.131,-0.059l-0.131,-0.059l-0.132,-0.059l-0.132,-0.058l-0.132,-0.057l-0.133,-0.057l-0.132,-0.056l-0.132,-0.055l-0.133,-0.055l-0.133,-0.055l-0.133,-0.054l-0.133,-0.053l-0.134,-0.053l-0.133,-0.052l-0.135,-0.052l-0.133,-0.051l-0.134,-0.05l-0.134,-0.05l-0.135,-0.049l-0.134,-0.049l-0.135,-0.048l-0.134,-0.047l-0.135,-0.047l-0.136,-0.047l-0.134,-0.046l-0.136,-0.045l-0.135,-0.045l-0.136,-0.044l-0.136,-0.044l-0.135,-0.042l-0.137,-0.043l-0.136,-0.042l-0.136,-0.041l-0.137,-0.041l-0.136,-0.04l-0.137,-0.04l-0.137,-0.038l-0.137,-0.039l-0.137,-0.038l-0.137,-0.037l-0.138,-0.037l-0.137,-0.036l-0.137,-0.036l-0.138,-0.035l-0.138,-0.034l-0.138,-0.034l-0.138,-0.033l-0.138,-0.033l-0.138,-0.032l-0.138,-0.032l-0.139,-0.031l-0.139,-0.031l-0.138,-0.03l-0.139,-0.029l-0.139,-0.029l-0.139,-0.028l-0.139,-0.028l-0.139,-0.027l-0.139,-0.026l-0.139,-0.026l-0.14,-0.025l-0.139,-0.025l-0.14,-0.024l-0.139,-0.024l-0.14,-0.023l-0.14,-0.023l-0.139,-0.022l-0.14,-0.021l-0.141,-0.021l-0.14,-0.02l-0.14,-0.02l-0.14,-0.019l-0.14,-0.018l-0.141,-0.018l-0.14,-0.018l-0.14,-0.017l-0.141,-0.016l-0.141,-0.015l-0.14,-0.016l-0.141,-0.014l-0.14,-0.014l-0.141,-0.013l-0.141,-0.013l-0.141,-0.013l-0.141,-0.011l-0.141,-0.011l-0.141,-0.011l-0.141,-0.01l-0.141,-0.009l-0.141,-0.009l-0.141,-0.008l-0.141,-0.008l-0.141,-0.007l-0.141,-0.007l-0.142,-0.006l-0.141,-0.005l-0.141,-0.005l-0.141,-0.004l-0.142,-0.004l-0.141,-0.003l-0.141,-0.003l-0.142,-0.002l-0.141,-0.001l-0.141,-0.001l-0.141,0l-0.142,0l-0.141,0.001l-0.141,0.002l-0.142,0.002l-0.141,0.002l-0.141,0.003l-0.142,0.004l-0.141,0.004l-0.141,0.005l-0.141,0.006l-0.141,0.006l-0.142,0.006l-0.141,0.007l-0.141,0.008l-0.141,0.008l-0.141,0.009l-0.141,0.01l-0.141,0.01l-0.141,0.01l-0.141,0.012l-0.141,0.011l-0.141,0.013l-0.141,0.012l-0.14,0.014l-0.141,0.014l-0.141,0.014l-0.14,0.016l-0.141,0.015l-0.14,0.017l-0.141,0.016l-0.14,0.018l-0.141,0.018l-0.14,0.018l-0.14,0.02l-0.14,0.019l-0.14,0.021l-0.14,0.02l-0.14,0.022l-0.14,0.022l-0.14,0.022l-0.14,0.024l-0.139,0.023l-0.14,0.024l-0.139,0.025l-0.139,0.026l-0.14,0.026l-0.139,0.026l-0.139,0.027l-0.139,0.028l-0.139,0.028l-0.139,0.029l-0.139,0.03l-0.138,0.029l-0.139,0.031l-0.138,0.031l-0.139,0.032l-0.138,0.032l-0.138,0.033l-0.138,0.033l-0.138,0.034l-0.138,0.035l-0.137,0.035l-0.138,0.035l-0.137,0.037l-0.137,0.036l-0.138,0.038l-0.137,0.038l-0.137,0.038l-0.137,0.039l-0.136,0.04l-0.137,0.04l-0.136,0.041l-0.137,0.041l-0.136,0.042l-0.136,0.043l-0.136,0.043l-0.135,0.043l-0.136,0.044l-0.136,0.045l-0.135,0.046l-0.135,0.045l-0.135,0.047l-0.135,0.047l-0.135,0.047l-0.134,0.049l-0.135,0.048l-0.134,0.05l-0.134,0.05l-0.134,0.05l-0.134,0.051l-0.134,0.052l-0.133,0.052l-0.134,0.053l-0.133,0.053l-0.133,0.054l-0.133,0.054l-0.132,0.055l-0.133,0.056l-0.132,0.056l-0.133,0.057l-0.132,0.057l-0.132,0.058l-0.131,0.059l-0.132,0.059l-0.131,0.059l-0.132,0.061l-0.131,0.06l-0.13,0.062l-0.131,0.061l-0.13,0.063l-0.13,0.063l-0.131,0.064l-0.13,0.064l-0.129,0.065l-0.13,0.065l-0.129,0.066l-0.13,0.067l-0.129,0.067l-0.128,0.068l-0.129,0.068l-0.128,0.069l-0.128,0.069l-0.128,0.07l-0.128,0.071l-0.128,0.071l-0.127,0.072l-0.127,0.073l-0.152,0.087l-168.035,97.047l-0.152,0.088l-0.126,0.074l-0.126,0.074l-0.125,0.075l-0.125,0.075l-0.125,0.076l-0.124,0.077l-0.124,0.076l-0.124,0.078l-0.122,0.077l-0.123,0.078l-0.123,0.079l-0.121,0.079l-0.122,0.08l-0.121,0.08l-0.12,0.08l-0.12,0.081l-0.12,0.081l-0.119,0.082l-0.119,0.082l-0.119,0.083l-0.118,0.083l-0.118,0.083l-0.117,0.085l-0.117,0.084l-0.116,0.085l-0.116,0.085l-0.116,0.086l-0.115,0.086l-0.115,0.086l-0.114,0.087l-0.114,0.088l-0.114,0.088l-0.113,0.088l-0.113,0.089l-0.112,0.089l-0.112,0.089l-0.112,0.09l-0.111,0.091l-0.111,0.091l-0.11,0.091l-0.11,0.092l-0.109,0.092l-0.109,0.092l-0.109,0.093l-0.108,0.094l-0.108,0.094l-0.107,0.094l-0.107,0.094l-0.106,0.095l-0.106,0.096l-0.106,0.095l-0.105,0.096l-0.105,0.097l-0.104,0.097l-0.104,0.098l-0.104,0.097l-0.103,0.098l-0.102,0.099l-0.102,0.099l-0.102,0.1l-0.102,0.099l-0.1,0.1l-0.101,0.101l-0.1,0.101l-0.1,0.101l-0.099,0.102l-0.099,0.102l-0.098,0.103l-0.098,0.102l-0.097,0.104l-0.097,0.103l-0.097,0.104l-0.096,0.105l-0.096,0.104l-0.095,0.105l-0.095,0.106l-0.094,0.106l-0.094,0.106l-0.093,0.107l-0.093,0.107l-0.093,0.107l-0.092,0.107l-0.092,0.109l-0.091,0.108l-0.091,0.109l-0.09,0.109l-0.09,0.109l-0.089,0.11l-0.089,0.11l-0.089,0.111l-0.088,0.11l-0.087,0.111l-0.087,0.112l-0.087,0.112l-0.086,0.112l-0.086,0.113l-0.085,0.113l-0.085,0.113l-0.084,0.114l-0.084,0.113l-0.083,0.114l-0.083,0.115l-0.083,0.115l-0.082,0.115l-0.081,0.116l-0.081,0.115l-0.081,0.117l-0.08,0.116l-0.08,0.117l-0.079,0.117l-0.078,0.117l-0.079,0.118l-0.078,0.119l-0.077,0.118l-0.076,0.119l-0.076,0.118l-0.076,0.12l-0.076,0.12l-0.074,0.119l-0.075,0.12l-0.074,0.121l-0.073,0.121l-0.073,0.121l-0.072,0.121l-0.072,0.122l-0.071,0.122l-0.071,0.122l-0.071,0.122l-0.07,0.123l-0.069,0.124l-0.069,0.123l-0.069,0.124l-0.067,0.124l-0.068,0.124l-0.067,0.124l-0.066,0.125l-0.066,0.125l-0.065,0.125l-0.065,0.126l-0.064,0.126l-0.064,0.126l-0.064,0.126l-0.063,0.127l-0.062,0.127l-0.062,0.127l-0.061,0.127l-0.061,0.128l-0.06,0.128l-0.06,0.127l-0.059,0.129l-0.059,0.129l-0.058,0.129l-0.058,0.129l-0.057,0.129l-0.057,0.13l-0.056,0.129l-0.055,0.131l-0.056,0.13l-0.054,0.13l-0.054,0.131l-0.054,0.131l-0.053,0.131l-0.052,0.132l-0.052,0.132l-0.052,0.131l-0.05,0.132l-0.051,0.133l-0.05,0.132l-0.049,0.133l-0.049,0.133l-0.048,0.133l-0.048,0.134l-0.047,0.133l-0.046,0.134l-0.046,0.134l-0.046,0.134l-0.045,0.135l-0.044,0.135l-0.044,0.134l-0.044,0.135l-0.043,0.136l-0.042,0.135l-0.042,0.136l-0.041,0.136l-0.04,0.135l-0.04,0.137l-0.04,0.136l-0.039,0.137l-0.038,0.136l-0.038,0.137l-0.038,0.137l-0.037,0.138l-0.036,0.137l-0.035,0.138l-0.036,0.138l-0.034,0.138l-0.034,0.138l-0.034,0.139l-0.033,0.138l-0.032,0.139l-0.032,0.138l-0.031,0.139l-0.031,0.14l-0.03,0.139l-0.029,0.14l-0.029,0.139l-0.029,0.14l-0.028,0.14l-0.027,0.14l-0.027,0.141l-0.026,0.14l-0.025,0.141l-0.025,0.141l-0.025,0.141l-0.024,0.141l-0.023,0.141l-0.023,0.142l-0.022,0.141l-0.021,0.142l-0.021,0.142l-0.021,0.142l-0.02,0.142l-0.019,0.142l-0.019,0.143l-0.018,0.142l-0.017,0.143l-0.017,0.143l-0.017,0.143l-0.015,0.143l-0.016,0.143l-0.014,0.144l-0.014,0.144l-0.014,0.143l-0.013,0.144l-0.012,0.144l-0.012,0.144l-0.011,0.144l-0.01,0.145l-0.01,0.144l-0.009,0.145l-0.009,0.145l-0.008,0.144l-0.008,0.146l-0.007,0.145l-0.006,0.145l-0.006,0.145l-0.005,0.146l-0.004,0.145l-0.004,0.146l-0.004,0.146l-0.002,0.146l-0.002,0.146l-0.002,0.147l-0.001,0.146l0,0.175l0.027,194.046l0.001,0.175l0.001,0.146l0.001,0.147l0.002,0.146l0.003,0.146l0.003,0.146l0.004,0.145l0.005,0.146l0.005,0.146l0.006,0.145l0.006,0.145l0.007,0.145l0.008,0.145l0.008,0.145l0.009,0.145l0.009,0.145l0.01,0.144l0.011,0.145l0.011,0.144l0.011,0.144l0.013,0.144l0.013,0.144l0.013,0.143l0.014,0.144l0.015,0.144l0.015,0.143l0.016,0.143l0.016,0.143l0.017,0.143l0.018,0.143l0.018,0.142l0.019,0.143l0.019,0.142l0.02,0.142l0.021,0.142l0.021,0.142l0.021,0.142l0.022,0.141l0.023,0.142l0.023,0.141l0.024,0.141l0.025,0.141l0.025,0.141l0.026,0.141l0.026,0.14l0.027,0.14l0.027,0.141l0.028,0.139l0.028,0.14l0.029,0.14l0.03,0.14l0.03,0.139l0.031,0.139l0.031,0.139l0.032,0.139l0.032,0.139l0.033,0.138l0.034,0.139l0.034,0.138l0.034,0.138l0.036,0.138l0.035,0.137l0.037,0.138l0.036,0.137l0.038,0.137l0.038,0.137l0.038,0.137l0.039,0.136l0.04,0.137l0.04,0.136l0.041,0.136l0.041,0.136l0.042,0.135l0.042,0.136l0.043,0.135l0.043,0.135l0.044,0.135l0.045,0.135l0.045,0.134l0.045,0.134l0.046,0.135l0.047,0.133l0.047,0.133l0.048,0.134l0.048,0.134l0.049,0.132l0.049,0.133l0.05,0.132l0.051,0.133l0.051,0.132l0.051,0.132l0.052,0.131l0.052,0.132l0.053,0.131l0.054,0.131l0.054,0.131l0.055,0.13l0.055,0.131l0.056,0.13l0.056,0.129l0.056,0.13l0.058,0.129l0.058,0.13l0.058,0.129l0.058,0.127l0.06,0.129l0.06,0.129l0.06,0.127l0.061,0.128l0.061,0.128l0.062,0.126l0.062,0.127l0.063,0.127l0.064,0.126l0.063,0.126l0.065,0.126l0.065,0.126l0.066,0.125l0.065,0.125l0.067,0.124l0.066,0.125l0.068,0.124l0.068,0.124l0.069,0.124l0.068,0.123l0.07,0.123l0.069,0.123l0.071,0.122l0.071,0.123l0.072,0.122l0.071,0.121l0.073,0.121l0.073,0.121l0.073,0.122l0.074,0.12l0.074,0.12l0.075,0.12l0.075,0.119l0.076,0.12l0.077,0.119l0.076,0.119l0.077,0.118l0.078,0.117l0.079,0.119l0.078,0.117l0.079,0.117l0.08,0.117l0.08,0.116l0.081,0.117l0.081,0.115l0.081,0.116l0.083,0.116l0.082,0.114l0.083,0.115l0.083,0.114l0.084,0.113l0.084,0.114l0.085,0.113l0.085,0.113l0.087,0.113l0.086,0.112l0.086,0.112l0.088,0.111l0.087,0.111l0.088,0.111l0.089,0.111l0.089,0.11l0.089,0.11l0.089,0.108l0.091,0.11l0.091,0.109l0.091,0.108l0.092,0.108l0.092,0.108l0.093,0.107l0.092,0.107l0.095,0.107l0.093,0.105l0.094,0.107l0.096,0.105l0.095,0.105l0.095,0.105l0.096,0.104l0.097,0.104l0.097,0.103l0.097,0.104l0.098,0.103l0.099,0.102l0.098,0.102l0.1,0.102l0.1,0.102l0.1,0.1l0.1,0.101l0.101,0.1l0.101,0.1l0.102,0.098l0.102,0.1l0.103,0.098l0.103,0.098l0.104,0.099l0.103,0.097l0.104,0.096l0.106,0.097l0.106,0.097l0.105,0.096l0.106,0.094l0.105,0.095l0.108,0.095l0.108,0.094l0.107,0.094l0.109,0.093l0.108,0.093l0.109,0.093l0.11,0.092l0.109,0.091l0.11,0.091l0.112,0.092l0.111,0.09l0.111,0.09l0.112,0.089l0.112,0.089l0.113,0.089l0.113,0.089l0.113,0.087l0.115,0.088l0.114,0.087l0.115,0.086l0.116,0.087l0.115,0.085l0.116,0.085l0.116,0.085l0.118,0.085l0.117,0.084l0.117,0.082l0.119,0.084l0.119,0.083l0.118,0.082l0.12,0.082l0.12,0.081l0.12,0.081l0.12,0.08l0.121,0.08l0.122,0.08l0.122,0.079l0.121,0.078l0.123,0.078l0.124,0.078l0.123,0.077l0.124,0.077l0.123,0.075l0.125,0.076l0.127,0.077l0.125,0.075l0.124,0.073l0.128,0.075l0.152,0.088l168.062,96.999l0.151,0.087l0.126,0.071l0.129,0.073l0.129,0.072l0.125,0.069l0.129,0.07l0.13,0.071l0.127,0.068l0.128,0.068l0.129,0.068l0.13,0.067l0.129,0.067l0.129,0.066l0.129,0.064l0.131,0.066l0.13,0.064l0.129,0.063l0.13,0.063l0.132,0.064l0.13,0.061l0.13,0.061l0.132,0.061l0.131,0.06l0.131,0.06l0.132,0.059l0.132,0.058l0.131,0.058l0.132,0.057l0.133,0.057l0.133,0.057l0.131,0.055l0.134,0.055l0.133,0.055l0.132,0.053l0.132,0.053l0.134,0.053l0.136,0.053l0.133,0.051l0.132,0.051l0.135,0.05l0.135,0.05l0.133,0.049l0.135,0.049l0.135,0.048l0.134,0.048l0.135,0.047l0.136,0.046l0.136,0.046l0.134,0.045l0.134,0.045l0.136,0.044l0.137,0.044l0.136,0.043l0.137,0.043l0.135,0.041l0.135,0.041l0.139,0.041l0.135,0.04l0.136,0.04l0.139,0.039l0.136,0.038l0.137,0.038l0.138,0.038l0.136,0.036l0.137,0.036l0.138,0.036l0.138,0.035l0.138,0.035l0.139,0.034l0.137,0.033l0.137,0.032l0.139,0.033l0.14,0.032l0.137,0.031l0.138,0.03l0.139,0.03l0.139,0.029l0.138,0.029l0.14,0.028l0.139,0.028l0.138,0.027l0.14,0.027l0.14,0.026l0.138,0.025l0.14,0.025l0.14,0.024l0.139,0.023l0.14,0.024l0.14,0.022l0.139,0.022l0.141,0.021l0.14,0.021l0.139,0.02l0.141,0.02l0.141,0.019l0.139,0.019l0.141,0.018l0.141,0.017l0.139,0.017l0.141,0.016l0.141,0.016l0.14,0.015l0.141,0.015l0.141,0.014l0.14,0.013l0.141,0.013l0.142,0.012l0.139,0.012l0.142,0.011l0.141,0.01l0.14,0.01l0.142,0.01l0.141,0.009l0.14,0.008l0.142,0.007l0.142,0.008l0.14,0.006l0.142,0.006l0.141,0.006l0.141,0.004l0.141,0.005l0.142,0.003l0.14,0.003l0.142,0.003l0.142,0.002l0.14,0.001l0.142,0.001l0.142,0Z" style="fill:#000;"/><g><path d="M414.03,307.106l0.017,-0.009l0.003,21.95c0.001,11.118 -5.928,21.391 -15.555,26.951c-30.249,17.47 -96.669,55.83 -126.918,73.3c-4.821,2.785 -10.203,4.175 -15.583,4.171l0.002,-35.146l0.013,-0.007l-0.003,-133.546c0,-5.559 2.966,-10.695 7.779,-13.474c31.264,-18.05 146.087,-84.343 146.087,-84.343c2.673,4.624 4.156,9.972 4.157,15.53l0.001,124.623Z" style="fill:#000;fill-opacity:0.74902;"/><path d="M97.97,307.106l-0.017,-0.009l-0.003,21.95c-0.001,11.118 5.928,21.391 15.555,26.951c30.249,17.47 96.669,55.83 126.918,73.3c4.821,2.785 10.203,4.175 15.583,4.171l-0.002,-35.146l-0.013,-0.007l0.003,-133.546c0,-5.559 -2.966,-10.695 -7.779,-13.474c-31.264,-18.05 -146.087,-84.343 -146.087,-84.343c-2.673,4.624 -4.156,9.972 -4.157,15.53l-0.001,124.623Z" style="fill:#000;fill-opacity:0.901961;"/><path d="M102.385,167.005c0,0 1.747,-5.806 11.358,-11.357c30.198,-17.441 96.507,-55.737 126.706,-73.177c9.611,-5.551 21.453,-5.553 31.066,-0.005c30.203,17.432 96.523,55.71 126.726,73.142c4.814,2.778 8.702,6.737 11.385,11.391c0,0 -114.583,66.154 -145.83,84.195c-4.82,2.783 -7.79,7.926 -7.79,13.492l-0.012,-0.027c0,-5.549 -2.961,-10.677 -7.767,-13.451c-31.211,-18.021 -145.842,-84.203 -145.842,-84.203Z" style="fill:#000;"/></g></g></svg>