<?xml version="1.0" standalone="no"?><!DOCTYPE svg PUBLIC "-//W3C//DTD SVG 1.1//EN" "http://www.w3.org/Graphics/SVG/1.1/DTD/svg11.dtd"><svg width="100%" height="100%" viewBox="0 0 512 512" version="1.1" xmlns="http://www.w3.org/2000/svg" xmlns:xlink="http://www.w3.org/1999/xlink" xml:space="preserve" style="fill-rule:evenodd;clip-rule:evenodd;stroke-linejoin:round;stroke-miterlimit:1.41421;"><g id="Layer1"><path d="M256.036,511.998c-2.004,-0.004 -4.007,-0.097 -6.003,-0.291c-4.007,-0.39 -7.975,-1.171 -11.831,-2.33c-3.006,-0.905 -5.943,-2.038 -8.778,-3.388c-1.396,-0.665 -2.765,-1.385 -4.109,-2.15c-56.329,-32.354 -112.726,-64.594 -168.784,-97.417c-1.551,-0.917 -3.065,-1.894 -4.533,-2.94c-2.827,-2.014 -5.485,-4.267 -7.934,-6.727c-3.721,-3.736 -6.96,-7.95 -9.616,-12.506c-2.655,-4.554 -4.725,-9.448 -6.143,-14.525c-0.979,-3.506 -1.648,-7.098 -1.995,-10.721c-0.173,-1.794 -0.262,-3.594 -0.281,-5.396c-0.416,-65.045 -0.425,-130.094 -0.028,-195.139c0.018,-1.801 0.108,-3.601 0.279,-5.395c0.347,-3.623 1.014,-7.216 1.992,-10.722c1.417,-5.078 3.486,-9.972 6.14,-14.527c2.654,-4.557 5.892,-8.771 9.612,-12.509c2.449,-2.46 5.105,-4.714 7.932,-6.729c1.468,-1.046 2.982,-2.024 4.532,-2.941c56.123,-32.882 112.452,-65.415 168.982,-97.593c1.569,-0.885 3.173,-1.708 4.812,-2.456c3.158,-1.442 6.438,-2.616 9.793,-3.508c5.097,-1.354 10.365,-2.053 15.638,-2.075c5.272,-0.022 10.545,0.632 15.652,1.943c3.525,0.905 6.97,2.122 10.282,3.633c1.639,0.748 3.243,1.57 4.813,2.454c56.538,32.162 112.877,64.679 169.009,97.545c1.551,0.917 3.065,1.895 4.533,2.94c2.964,2.112 5.742,4.486 8.289,7.086c3.689,3.766 6.893,8.005 9.512,12.581c2.618,4.577 4.649,9.488 6.026,14.578c0.907,3.352 1.53,6.779 1.861,10.235c0.173,1.794 0.262,3.593 0.281,5.395c0.416,65.045 0.425,130.094 0.028,195.139c-0.018,1.802 -0.108,3.602 -0.279,5.395c-0.331,3.456 -0.953,6.884 -1.859,10.235c-1.375,5.091 -3.405,10.003 -6.022,14.581c-2.617,4.576 -5.82,8.816 -9.508,12.583c-2.547,2.601 -5.323,4.976 -8.287,7.088c-1.468,1.046 -2.982,2.024 -4.532,2.941c-56.123,32.883 -112.452,65.415 -168.982,97.594c-1.346,0.759 -2.717,1.473 -4.115,2.132c-2.839,1.338 -5.779,2.46 -8.788,3.353c-3.699,1.097 -7.5,1.846 -11.338,2.236c-1.912,0.195 -3.831,0.296 -5.752,0.315c-0.167,0.001 -0.334,0.002 -0.501,0.003l0,0ZM256.033,484.997c1.13,-0.002 2.26,-0.055 3.385,-0.164c2.353,-0.23 4.682,-0.699 6.941,-1.399c1.644,-0.509 3.25,-1.142 4.801,-1.889c0.743,-0.358 1.472,-0.743 2.189,-1.151c56.264,-32.341 112.734,-64.333 168.591,-97.371c0.873,-0.521 1.724,-1.076 2.549,-1.669c1.586,-1.141 3.077,-2.415 4.45,-3.806c2.055,-2.083 3.847,-4.424 5.319,-6.952c1.497,-2.569 2.664,-5.328 3.462,-8.192c0.551,-1.974 0.927,-3.998 1.122,-6.038c0.102,-1.061 0.152,-2.126 0.159,-3.191c0.122,-64.897 0.651,-129.797 -0.03,-194.69c-0.014,-0.967 -0.065,-1.934 -0.157,-2.898c-0.187,-1.946 -0.538,-3.876 -1.048,-5.763c-0.801,-2.962 -1.995,-5.815 -3.541,-8.466c-1.473,-2.528 -3.265,-4.868 -5.32,-6.95c-1.407,-1.424 -2.938,-2.727 -4.568,-3.889c-0.869,-0.618 -1.766,-1.195 -2.686,-1.733c-56.137,-32.559 -112.08,-65.463 -168.62,-97.319c-0.888,-0.495 -1.794,-0.955 -2.72,-1.372c-1.782,-0.804 -3.631,-1.457 -5.522,-1.951c-2.877,-0.751 -5.849,-1.131 -8.821,-1.131c-2.973,0 -5.945,0.382 -8.822,1.133c-1.937,0.507 -3.83,1.181 -5.652,2.012c-0.97,0.443 -1.917,0.931 -2.843,1.459c-56.265,32.339 -112.735,64.329 -168.591,97.37c-0.872,0.521 -1.724,1.076 -2.549,1.67c-1.548,1.113 -3.005,2.353 -4.35,3.705c-2.131,2.141 -3.981,4.559 -5.49,7.175c-1.487,2.575 -2.642,5.34 -3.429,8.206c-0.531,1.931 -0.894,3.908 -1.084,5.902c-0.102,1.061 -0.152,2.125 -0.159,3.191c-0.126,64.896 -0.655,129.796 0.03,194.689c0.014,0.968 0.065,1.935 0.157,2.898c0.187,1.947 0.538,3.877 1.048,5.764c0.814,3.007 2.032,5.902 3.612,8.587c1.459,2.481 3.227,4.78 5.25,6.829c1.407,1.424 2.937,2.727 4.568,3.889c0.868,0.618 1.765,1.194 2.685,1.733c56.136,32.561 112.077,65.468 168.62,97.318c0.761,0.425 1.536,0.824 2.326,1.192c1.602,0.747 3.26,1.371 4.956,1.866c1.996,0.583 4.045,0.986 6.113,1.204c1.031,0.109 2.066,0.169 3.103,0.188c0.189,0.003 0.377,0.004 0.566,0.004l0,0Z" style="fill:#000;fill-rule:nonzero;"/><path d="M256.015,433.694c-1.196,-0.005 -2.391,-0.065 -3.581,-0.191c-2.892,-0.305 -5.747,-0.973 -8.473,-1.989c-1.077,-0.402 -2.135,-0.858 -3.166,-1.366c-0.598,-0.294 -1.185,-0.609 -1.767,-0.934c-3.65,-2.087 -7.3,-4.175 -10.949,-6.264c-16.42,-9.404 -32.829,-18.826 -49.223,-28.274c-5.465,-3.149 -10.928,-6.302 -16.39,-9.456c-1.82,-1.052 -3.641,-2.104 -5.461,-3.156c-1.903,-1.1 -3.809,-2.195 -5.708,-3.302c-0.247,-0.146 -0.493,-0.294 -0.739,-0.443c-1.377,-0.849 -2.713,-1.762 -3.995,-2.748c-2.542,-1.954 -4.878,-4.176 -6.957,-6.616c-2.501,-2.936 -4.63,-6.189 -6.32,-9.657c-1.624,-3.335 -2.842,-6.867 -3.618,-10.495c-0.653,-3.057 -0.993,-6.18 -1.012,-9.306c-0.02,-3.196 0.296,-6.395 0.94,-9.526c0.685,-3.327 1.74,-6.577 3.141,-9.671c0.668,-1.476 1.419,-2.913 2.235,-4.313c0.459,-0.775 0.927,-1.545 1.392,-2.317c1.474,-2.438 2.958,-4.87 4.454,-7.295c4.317,-6.997 8.723,-13.939 13.189,-20.841c4.303,-6.65 8.663,-13.262 13.068,-19.844c5.145,-7.69 10.352,-15.338 15.612,-22.95c4.558,-6.596 9.155,-13.166 13.808,-19.695l0.499,-0.699l0.409,-0.571l0,-54.109c-0.246,-0.076 -0.492,-0.155 -0.737,-0.236c-0.244,-0.083 -0.487,-0.167 -0.729,-0.255c-1.296,-0.475 -2.56,-1.031 -3.781,-1.675c-2.545,-1.341 -4.899,-3.043 -6.975,-5.034c-2.905,-2.785 -5.264,-6.133 -6.898,-9.811c-1.307,-2.943 -2.146,-6.091 -2.465,-9.296c-0.303,-3.048 -0.14,-6.144 0.476,-9.145c0.566,-2.758 1.518,-5.436 2.818,-7.933c1.675,-3.217 3.923,-6.129 6.605,-8.568c2.645,-2.406 5.708,-4.346 9.017,-5.701c2.335,-0.956 4.788,-1.619 7.286,-1.97c1.352,-0.19 2.714,-0.284 4.079,-0.297c33.648,-0.107 67.296,-0.107 100.944,0c1.432,0.013 2.862,0.117 4.28,0.324c2.747,0.403 5.437,1.182 7.974,2.309c3.663,1.628 6.996,3.979 9.765,6.876c2.6,2.719 4.697,5.913 6.148,9.385c1.246,2.984 2.009,6.164 2.256,9.388c0.254,3.319 -0.029,6.679 -0.845,9.907c-0.87,3.446 -2.349,6.732 -4.349,9.67c-2.331,3.425 -5.361,6.363 -8.856,8.586c-1.819,1.158 -3.76,2.121 -5.782,2.87c-1.005,0.373 -2.029,0.689 -3.066,0.957l0,53.758c1.161,2.577 2.513,5.064 3.927,7.509c1.676,2.897 3.448,5.738 5.258,8.553c2.123,3.302 4.303,6.568 6.506,9.817c2.644,3.899 5.324,7.773 8.011,11.642c3.687,5.303 7.388,10.596 11.077,15.897c6.314,9.086 12.587,18.2 18.673,27.44c1.929,2.93 3.84,5.872 5.726,8.829c0.564,0.884 1.126,1.769 1.685,2.655c0.497,0.788 0.993,1.575 1.459,2.381c0.77,1.337 1.474,2.713 2.106,4.121c1.293,2.879 2.287,5.891 2.961,8.974c0.694,3.168 1.05,6.408 1.06,9.651c0.02,5.979 -1.142,11.95 -3.403,17.485c-1.662,4.069 -3.911,7.894 -6.659,11.323c-2.331,2.911 -5.019,5.535 -7.985,7.797c-0.997,0.76 -2.026,1.479 -3.082,2.155c-0.49,0.314 -0.987,0.617 -1.488,0.913c-1.893,1.104 -3.791,2.198 -5.687,3.296c-1.813,1.049 -3.625,2.098 -5.437,3.147c-12.689,7.338 -25.385,14.664 -38.091,21.972c-12.706,7.308 -25.422,14.598 -38.144,21.878c-0.282,0.156 -0.281,0.156 -0.564,0.311c-0.568,0.304 -1.139,0.6 -1.722,0.874c-1.25,0.586 -2.531,1.102 -3.842,1.537c-2.198,0.729 -4.471,1.235 -6.77,1.511c-1.09,0.131 -2.185,0.204 -3.281,0.239c-0.283,0.006 -0.565,0.01 -0.847,0.012l0,0ZM235.744,367.735c13.411,0 24.242,-10.877 24.242,-24.26c0,-13.269 -10.747,-24.113 -24.084,-24.199l-0.158,0c-13.409,0 -24.223,10.877 -24.223,24.199c0,13.331 10.727,24.175 24.066,24.26l0.157,0ZM288.535,314.424c10.155,0 18.357,-8.237 18.357,-18.371c0,-10.049 -8.138,-18.26 -18.238,-18.325l-0.119,-0.001c-10.155,0.001 -18.344,8.238 -18.344,18.326c0,10.094 8.123,18.307 18.225,18.371l0.119,0ZM194.716,267.635c20.175,3.929 56.203,4.786 105.338,-22.412c-0.916,-1.5 -1.814,-3.011 -2.687,-4.536c-1.688,-2.949 -3.285,-5.954 -4.681,-9.053l-1.169,-3.176c-0.71,-3.305 -0.711,-3.31 -0.949,-6.683l0,-53.757c0.141,-1.498 0.142,-3.015 0.424,-4.492c0.565,-2.967 1.685,-5.801 3.302,-8.353c1.617,-2.552 3.701,-4.776 6.143,-6.554c3.265,-2.379 4.373,-2.481 8.122,-3.837c0.135,-0.035 0.271,-0.072 0.405,-0.113c0.775,-0.245 1.503,-0.627 2.138,-1.134c0.573,-0.458 1.067,-1.01 1.458,-1.63c0.299,-0.475 0.536,-0.988 0.701,-1.524c0.462,-1.498 0.387,-3.165 -0.244,-4.602c-0.646,-1.47 -1.84,-2.689 -3.285,-3.385c-0.521,-0.251 -1.075,-0.432 -1.643,-0.538c-0.351,-0.064 -0.706,-0.099 -1.062,-0.11c-33.628,-0.746 -67.281,-0.748 -100.909,0c-0.786,0.023 -1.562,0.178 -2.29,0.476c-1.623,0.665 -2.963,1.992 -3.647,3.607c-0.251,0.591 -0.41,1.218 -0.475,1.856c-0.062,0.608 -0.043,1.224 0.07,1.825c0.275,1.452 1.075,2.786 2.166,3.773c0.53,0.479 1.131,0.879 1.783,1.17c0.252,0.112 0.511,0.205 0.775,0.287l4.022,1.658c1.219,0.785 2.515,1.463 3.657,2.356c2.295,1.793 4.245,3.989 5.753,6.48c1.509,2.491 2.551,5.236 3.077,8.1c0.262,1.426 0.263,2.888 0.394,4.332l0,54.109c-0.256,3.289 -0.131,4.171 -1.15,7.341c-0.38,1.182 -0.853,2.339 -1.412,3.449c-0.558,1.109 -1.272,2.133 -1.928,3.188c-0.121,0.194 -0.267,0.372 -0.4,0.558c-0.383,0.535 -0.765,1.072 -1.147,1.609c-1.011,1.422 -2.02,2.845 -3.026,4.27c-5.899,8.366 -11.727,16.781 -17.487,25.244l-0.137,0.201l0,0Z" style="fill:#000;"/></g></svg>