<svg xmlns="http://www.w3.org/2000/svg" width="32" height="32" viewBox="0 0 32 32"><path d="M28.297 7.03L17.535.818c-.95-.548-2.12-.548-3.07 0L3.703 7.03c-.95.548-1.535 1.562-1.535 2.658v12.427c0 1.096.584 2.11 1.535 2.658l10.762 6.212c.95.548 2.12.548 3.07 0l10.762-6.212c.95-.548 1.535-1.562 1.535-2.658V9.688c0-1.096-.584-2.11-1.535-2.658zM26.61 21.507c0 .32-.172.62-.45.78l-9.71 5.605c-.278.16-.623.16-.9 0l-9.71-5.604c-.28-.16-.45-.457-.45-.78v-11.21c0-.322.172-.622.45-.782l9.71-5.607c.278-.16.623-.16.9 0l9.71 5.606c.28.16.45.457.45.78v11.21z"/><path d="M22.024 11.553L16.75 8.51c-.466-.265-1.038-.265-1.505 0l-5.27 3.043c-.467.266-.752.766-.752 1.302v6.09c0 .54.288 1.033.75 1.303l5.275 3.042c.466.266 1.038.266 1.505 0l5.274-3.046c.466-.266.75-.766.75-1.302v-6.088c0-.536-.287-1.032-.753-1.302zm-1.362 6.81c0 .143-.076.27-.2.343l-4.266 2.464c-.12.07-.272.07-.394 0l-4.266-2.464c-.12-.07-.2-.2-.2-.342V13.44c0-.143.076-.27.2-.343l4.266-2.464c.12-.07.272-.07.394 0l4.266 2.464c.12.07.2.2.2.342v4.924z"/></svg>