<?xml version="1.0" standalone="no"?><!DOCTYPE svg PUBLIC "-//W3C//DTD SVG 1.1//EN" "http://www.w3.org/Graphics/SVG/1.1/DTD/svg11.dtd"><svg width="100%" height="100%" viewBox="0 0 512 512" version="1.1" xmlns="http://www.w3.org/2000/svg" xmlns:xlink="http://www.w3.org/1999/xlink" xml:space="preserve" style="fill-rule:evenodd;clip-rule:evenodd;stroke-linejoin:round;stroke-miterlimit:1.41421;"><g id="Layer1"><path d="M256.024,406.693c0.439,-0.006 0.879,-0.073 1.297,-0.21c0.242,-0.079 0.474,-0.183 0.697,-0.306c42.612,-23.911 84.625,-48.872 126.936,-73.309c0.057,-0.033 0.112,-0.066 0.168,-0.1c0.276,-0.174 0.533,-0.377 0.762,-0.611c0.652,-0.666 1.061,-1.544 1.157,-2.47c4.668,-48.758 0,-97.961 0,-146.942c0,-0.064 -0.001,-0.128 -0.003,-0.192c-0.019,-0.503 -0.128,-0.996 -0.325,-1.459c-0.106,-0.25 -0.239,-0.486 -0.375,-0.721c-0.026,-0.046 -0.061,-0.089 -0.093,-0.131c-0.059,-0.081 -0.122,-0.16 -0.188,-0.236c-0.287,-0.334 -0.626,-0.617 -1.003,-0.845c-42.01,-24.952 -84.637,-48.851 -126.955,-73.275c-0.057,-0.033 -0.114,-0.065 -0.172,-0.096c-0.269,-0.142 -0.552,-0.257 -0.845,-0.337c-0.7,-0.192 -1.449,-0.195 -2.151,-0.008c-0.339,0.09 -0.663,0.225 -0.969,0.396c-42.403,24.254 -84.603,48.861 -126.905,73.292c-0.056,0.033 -0.113,0.066 -0.169,0.101c-0.257,0.162 -0.498,0.349 -0.714,0.563c-0.524,0.518 -0.905,1.178 -1.091,1.891c-0.095,0.36 -0.132,0.727 -0.134,1.099l0.003,125.255l0.015,0.009c0.001,7.067 0.002,14.135 0.003,21.202c0,0.066 0.001,0.131 0.003,0.197c0.011,0.304 0.054,0.606 0.131,0.901c0.183,0.702 0.556,1.352 1.068,1.866c0.247,0.249 0.526,0.462 0.828,0.641c42.208,24.594 84.617,48.839 126.926,73.258c0.056,0.032 0.113,0.064 0.17,0.095c0.252,0.133 0.516,0.241 0.79,0.319c0.305,0.087 0.618,0.135 0.933,0.155c0.068,0.004 0.136,0.007 0.205,0.008ZM256.012,433.694c-3.629,-0.004 -7.261,-0.648 -10.67,-1.893c-1.038,-0.38 -2.056,-0.815 -3.048,-1.303c-0.539,-0.265 -1.069,-0.548 -1.593,-0.842c-42.565,-24.333 -85.031,-48.841 -127.392,-73.526c-0.669,-0.397 -1.325,-0.813 -1.963,-1.256c-1.401,-0.972 -2.722,-2.059 -3.945,-3.248c-1.993,-1.936 -3.723,-4.141 -5.133,-6.536c-1.408,-2.394 -2.494,-4.976 -3.219,-7.657c-0.49,-1.81 -0.815,-3.663 -0.971,-5.531c-0.072,-0.862 -0.104,-1.725 -0.108,-2.589l-0.001,-5.675l-0.017,-0.01c-0.001,-47.052 -0.191,-94.104 -0.002,-141.156c0.011,-0.863 0.05,-1.725 0.129,-2.584c0.171,-1.866 0.51,-3.715 1.014,-5.52c0.746,-2.674 1.852,-5.247 3.279,-7.63c1.384,-2.312 3.07,-4.442 5.002,-6.321c1.222,-1.189 2.543,-2.276 3.944,-3.249c0.638,-0.443 1.294,-0.859 1.962,-1.256c42.356,-24.698 84.814,-49.22 127.374,-73.563c0.753,-0.423 1.519,-0.82 2.302,-1.182c1.701,-0.784 3.473,-1.415 5.287,-1.881c2.69,-0.692 5.471,-1.02 8.247,-0.976c2.695,0.044 5.383,0.438 7.976,1.172c1.641,0.464 3.243,1.064 4.785,1.791c0.704,0.331 1.392,0.691 2.07,1.071c42.567,24.332 85.032,48.841 127.395,73.527c0.595,0.354 1.181,0.722 1.753,1.112c1.131,0.771 2.211,1.617 3.231,2.531c1.637,1.467 3.118,3.107 4.41,4.886c0.643,0.885 1.234,1.805 1.785,2.751l-0.011,0.008c0.126,0.22 0.125,0.22 0.249,0.441c0.122,0.222 0.121,0.222 0.241,0.445c0.433,0.82 0.835,1.655 1.197,2.508c0.757,1.785 1.347,3.639 1.76,5.533c0.325,1.495 0.54,3.014 0.641,4.541c0.046,0.686 0.066,1.373 0.069,2.061l0.001,124.639l0.016,-0.01c0.001,7.404 0.032,14.808 0.002,22.212c-0.01,0.863 -0.049,1.725 -0.128,2.585c-0.171,1.865 -0.51,3.715 -1.014,5.519c-0.746,2.675 -1.852,5.248 -3.279,7.63c-1.384,2.312 -3.07,4.442 -5.002,6.321c-1.223,1.189 -2.543,2.277 -3.944,3.249c-0.638,0.443 -1.294,0.86 -1.962,1.257c-42.355,24.697 -84.814,49.218 -127.373,73.562c-0.675,0.379 -1.36,0.738 -2.06,1.068c-1.385,0.653 -2.818,1.204 -4.284,1.645c-1.78,0.536 -3.608,0.912 -5.454,1.123c-0.926,0.106 -1.854,0.167 -2.785,0.195c-0.254,0.006 -0.509,0.009 -0.763,0.011Z" style="fill:#000;fill-rule:nonzero;"/><path d="M256.036,511.998c-2.004,-0.004 -4.007,-0.097 -6.003,-0.291c-4.007,-0.39 -7.975,-1.171 -11.831,-2.33c-3.006,-0.905 -5.943,-2.038 -8.778,-3.388c-1.396,-0.665 -2.765,-1.385 -4.109,-2.15c-56.329,-32.354 -112.726,-64.594 -168.784,-97.417c-1.551,-0.917 -3.065,-1.894 -4.533,-2.94c-2.827,-2.014 -5.485,-4.267 -7.934,-6.727c-3.721,-3.736 -6.96,-7.95 -9.616,-12.506c-2.655,-4.554 -4.725,-9.448 -6.143,-14.525c-0.979,-3.506 -1.648,-7.098 -1.995,-10.721c-0.173,-1.794 -0.262,-3.594 -0.281,-5.396c-0.416,-65.045 -0.425,-130.094 -0.028,-195.139c0.018,-1.801 0.108,-3.601 0.279,-5.395c0.347,-3.623 1.014,-7.216 1.992,-10.722c1.417,-5.078 3.486,-9.972 6.14,-14.527c2.654,-4.557 5.892,-8.771 9.612,-12.509c2.449,-2.46 5.105,-4.714 7.932,-6.729c1.468,-1.046 2.982,-2.024 4.532,-2.941c56.123,-32.882 112.452,-65.415 168.982,-97.593c1.569,-0.885 3.173,-1.708 4.812,-2.456c3.158,-1.442 6.438,-2.616 9.793,-3.508c5.097,-1.354 10.365,-2.053 15.638,-2.075c5.272,-0.022 10.545,0.632 15.652,1.943c3.525,0.905 6.97,2.122 10.282,3.633c1.639,0.748 3.243,1.57 4.813,2.454c56.538,32.162 112.877,64.679 169.009,97.545c1.551,0.917 3.065,1.895 4.533,2.94c2.964,2.112 5.742,4.486 8.289,7.086c3.689,3.766 6.893,8.005 9.512,12.581c2.618,4.577 4.649,9.488 6.026,14.578c0.907,3.352 1.53,6.779 1.861,10.235c0.173,1.794 0.262,3.593 0.281,5.395c0.416,65.045 0.425,130.094 0.028,195.139c-0.018,1.802 -0.108,3.602 -0.279,5.395c-0.331,3.456 -0.953,6.884 -1.859,10.235c-1.375,5.091 -3.405,10.003 -6.022,14.581c-2.617,4.576 -5.82,8.816 -9.508,12.583c-2.547,2.601 -5.323,4.976 -8.287,7.088c-1.468,1.046 -2.982,2.024 -4.532,2.941c-56.123,32.883 -112.452,65.415 -168.982,97.594c-1.346,0.759 -2.717,1.473 -4.115,2.132c-2.839,1.338 -5.779,2.46 -8.788,3.353c-3.699,1.097 -7.5,1.846 -11.338,2.236c-1.912,0.195 -3.831,0.296 -5.752,0.315c-0.167,0.001 -0.334,0.002 -0.501,0.003ZM256.033,484.997c1.13,-0.002 2.26,-0.055 3.385,-0.164c2.353,-0.23 4.682,-0.699 6.941,-1.399c1.644,-0.509 3.25,-1.142 4.801,-1.889c0.743,-0.358 1.472,-0.743 2.189,-1.151c56.264,-32.341 112.734,-64.333 168.591,-97.371c0.873,-0.521 1.724,-1.076 2.549,-1.669c1.586,-1.141 3.077,-2.415 4.45,-3.806c2.055,-2.083 3.847,-4.424 5.319,-6.952c1.497,-2.569 2.664,-5.328 3.462,-8.192c0.551,-1.974 0.927,-3.998 1.122,-6.038c0.102,-1.061 0.152,-2.126 0.159,-3.191c0.122,-64.897 0.651,-129.797 -0.03,-194.69c-0.014,-0.967 -0.065,-1.934 -0.157,-2.898c-0.187,-1.946 -0.538,-3.876 -1.048,-5.763c-0.801,-2.962 -1.995,-5.815 -3.541,-8.466c-1.473,-2.528 -3.265,-4.868 -5.32,-6.95c-1.407,-1.424 -2.938,-2.727 -4.568,-3.889c-0.869,-0.618 -1.766,-1.195 -2.686,-1.733c-56.137,-32.559 -112.08,-65.463 -168.62,-97.319c-0.888,-0.495 -1.794,-0.955 -2.72,-1.372c-1.782,-0.804 -3.631,-1.457 -5.522,-1.951c-2.877,-0.751 -5.849,-1.131 -8.821,-1.131c-2.973,0 -5.945,0.382 -8.822,1.133c-1.937,0.507 -3.83,1.181 -5.652,2.012c-0.97,0.443 -1.917,0.931 -2.843,1.459c-56.265,32.339 -112.735,64.329 -168.591,97.37c-0.872,0.521 -1.724,1.076 -2.549,1.67c-1.548,1.113 -3.005,2.353 -4.35,3.705c-2.131,2.141 -3.981,4.559 -5.49,7.175c-1.487,2.575 -2.642,5.34 -3.429,8.206c-0.531,1.931 -0.894,3.908 -1.084,5.902c-0.102,1.061 -0.152,2.125 -0.159,3.191c-0.126,64.896 -0.655,129.796 0.03,194.689c0.014,0.968 0.065,1.935 0.157,2.898c0.187,1.947 0.538,3.877 1.048,5.764c0.814,3.007 2.032,5.902 3.612,8.587c1.459,2.481 3.227,4.78 5.25,6.829c1.407,1.424 2.937,2.727 4.568,3.889c0.868,0.618 1.765,1.194 2.685,1.733c56.136,32.561 112.077,65.468 168.62,97.318c0.761,0.425 1.536,0.824 2.326,1.192c1.602,0.747 3.26,1.371 4.956,1.866c1.996,0.583 4.045,0.986 6.113,1.204c1.031,0.109 2.066,0.169 3.103,0.188c0.189,0.003 0.377,0.004 0.566,0.004Z" style="fill:#000;fill-rule:nonzero;"/><path d="M414.03,307.106l0.017,-0.009l0.003,21.95c0.001,11.118 -5.928,21.391 -15.555,26.951c-30.249,17.47 -96.669,55.83 -126.918,73.3c-4.821,2.785 -10.203,4.175 -15.583,4.171l0.002,-35.146l0.013,-0.007l-0.003,-133.546c0,-5.559 2.966,-10.695 7.779,-13.474c31.264,-18.05 146.087,-84.343 146.087,-84.343c2.673,4.624 4.156,9.972 4.157,15.53l0.001,124.623Z" style="fill:#000;fill-opacity:0.447059;"/><path d="M97.97,307.106l-0.017,-0.009l-0.003,21.95c-0.001,11.118 5.928,21.391 15.555,26.951c30.249,17.47 96.669,55.83 126.918,73.3c4.821,2.785 10.203,4.175 15.583,4.171l-0.002,-35.146l-0.013,-0.007l0.003,-133.546c0,-5.559 -2.966,-10.695 -7.779,-13.474c-31.264,-18.05 -146.087,-84.343 -146.087,-84.343c-2.673,4.624 -4.156,9.972 -4.157,15.53l-0.001,124.623Z" style="fill:#000;fill-opacity:0.2;"/></g></svg>