<?xml version="1.0" standalone="no"?><!DOCTYPE svg PUBLIC "-//W3C//DTD SVG 1.1//EN" "http://www.w3.org/Graphics/SVG/1.1/DTD/svg11.dtd"><svg width="100%" height="100%" viewBox="0 0 512 512" version="1.1" xmlns="http://www.w3.org/2000/svg" xmlns:xlink="http://www.w3.org/1999/xlink" xml:space="preserve" style="fill-rule:evenodd;clip-rule:evenodd;stroke-linecap:round;stroke-linejoin:round;stroke-miterlimit:1.41421;"><g id="Layer1"><path d="M256,510.897c-0.898,-0.003 -1.795,-0.027 -2.692,-0.081c-1.795,-0.107 -3.583,-0.321 -5.352,-0.642c-5.29,-0.958 -10.398,-2.872 -15.01,-5.635c-2.092,-1.254 -4.081,-2.68 -5.942,-4.258c-0.879,-0.744 -1.725,-1.524 -2.547,-2.331c-70.358,-69.913 -140.494,-140.049 -210.407,-210.407c-1.206,-1.228 -2.348,-2.515 -3.41,-3.869c-2.008,-2.559 -3.736,-5.337 -5.141,-8.271c-1.413,-2.949 -2.499,-6.054 -3.237,-9.24c-0.77,-3.329 -1.159,-6.746 -1.159,-10.163c0,-3.417 0.389,-6.834 1.159,-10.163c0.738,-3.186 1.824,-6.291 3.237,-9.24c1.405,-2.934 3.133,-5.712 5.141,-8.271c1.062,-1.354 2.204,-2.641 3.41,-3.869c69.913,-70.358 140.049,-140.494 210.407,-210.407c1.228,-1.206 2.515,-2.348 3.869,-3.41c2.559,-2.008 5.337,-3.736 8.271,-5.141c2.949,-1.413 6.054,-2.499 9.24,-3.237c3.329,-0.77 6.746,-1.159 10.163,-1.159c3.417,0 6.834,0.389 10.163,1.159c3.186,0.738 6.291,1.824 9.24,3.237c2.934,1.405 5.712,3.133 8.271,5.141c1.354,1.062 2.641,2.204 3.869,3.41c70.358,69.913 140.494,140.049 210.407,210.407c1.206,1.228 2.348,2.515 3.41,3.869c2.008,2.559 3.736,5.337 5.141,8.271c1.413,2.949 2.499,6.054 3.237,9.24c0.77,3.329 1.159,6.746 1.159,10.163c0,3.417 -0.389,6.834 -1.159,10.163c-0.738,3.186 -1.824,6.291 -3.237,9.24c-1.405,2.934 -3.133,5.712 -5.141,8.271c-1.062,1.354 -2.204,2.641 -3.41,3.869c-69.913,70.358 -140.049,140.494 -210.407,210.407c-0.822,0.807 -1.668,1.587 -2.547,2.331c-1.861,1.578 -3.85,3.004 -5.942,4.258c-4.38,2.624 -9.207,4.483 -14.213,5.483c-1.764,0.353 -3.549,0.6 -5.343,0.739c-0.806,0.063 -1.613,0.101 -2.421,0.123c-0.359,0.007 -0.718,0.012 -1.077,0.013ZM256,480.896c0.874,-0.002 1.746,-0.075 2.608,-0.226c1.711,-0.299 3.368,-0.899 4.87,-1.773c1.089,-0.635 2.087,-1.411 2.986,-2.294c70.289,-69.85 140.81,-139.476 210.209,-210.21c0.426,-0.439 0.828,-0.9 1.199,-1.386c0.665,-0.869 1.233,-1.813 1.688,-2.809c0.809,-1.774 1.257,-3.707 1.327,-5.655c0.082,-2.31 -0.367,-4.637 -1.327,-6.741c-0.455,-0.996 -1.023,-1.939 -1.688,-2.809c-0.371,-0.486 -0.773,-0.947 -1.199,-1.386c-69.422,-70.758 -139.524,-140.856 -210.28,-210.28c-0.439,-0.426 -0.9,-0.828 -1.386,-1.199c-0.869,-0.665 -1.813,-1.233 -2.809,-1.687c-1.774,-0.81 -3.707,-1.258 -5.655,-1.328c-2.311,-0.082 -4.637,0.367 -6.741,1.328c-0.968,0.441 -1.885,0.989 -2.734,1.63c-0.514,0.387 -0.999,0.808 -1.461,1.256c-70.756,69.424 -140.856,139.524 -210.28,210.28c-0.448,0.462 -0.869,0.947 -1.256,1.461c-0.641,0.849 -1.189,1.766 -1.63,2.734c-0.961,2.104 -1.41,4.43 -1.328,6.741c0.07,1.948 0.518,3.881 1.328,5.655c0.454,0.996 1.022,1.94 1.687,2.809c0.371,0.486 0.773,0.947 1.199,1.386c69.424,70.756 139.522,140.858 210.28,210.28c0.881,0.854 1.854,1.606 2.915,2.224c1.397,0.813 2.929,1.39 4.515,1.707c0.887,0.177 1.787,0.271 2.69,0.29c0.091,0.001 0.182,0.002 0.273,0.002Z" style="fill:#000;fill-rule:nonzero;"/><path d="M245.888,68.392c2.682,-2.682 6.319,-4.188 10.112,-4.188c3.793,0 7.43,1.506 10.112,4.188c33.939,33.939 143.557,143.557 177.496,177.496c2.682,2.682 4.188,6.319 4.188,10.112c0,3.793 -1.506,7.43 -4.188,10.112c-33.939,33.939 -143.557,143.557 -177.496,177.496c-2.682,2.682 -6.319,4.188 -10.112,4.188c-3.793,0 -7.43,-1.506 -10.112,-4.188c-33.939,-33.939 -143.557,-143.557 -177.496,-177.496c-2.682,-2.682 -4.188,-6.319 -4.188,-10.112c0,-3.793 1.506,-7.43 4.188,-10.112c33.939,-33.939 143.557,-143.557 177.496,-177.496Z" style="fill:#000;"/><circle cx="256" cy="160.189" r="27.511" style="fill:none;stroke-width:20px;stroke:#fff;"/><circle cx="340.617" cy="256" r="27.511" style="fill:none;stroke-width:20px;stroke:#fff;"/><circle cx="172.849" cy="256" r="27.511" style="fill:none;stroke-width:20px;stroke:#fff;"/><path d="M256,187.7l0,116.482l84.617,84.617" style="fill:none;stroke-width:20px;stroke:#fff;"/><path d="M340.617,227.309l0,-98.539" style="fill:none;stroke-width:20px;stroke:#fff;"/><path d="M172.849,288.25l0,20.952l119.571,119.571" style="fill:none;stroke-width:20px;stroke:#fff;"/></g></svg>