<?xml version="1.0" standalone="no"?><!DOCTYPE svg PUBLIC "-//W3C//DTD SVG 1.1//EN" "http://www.w3.org/Graphics/SVG/1.1/DTD/svg11.dtd"><svg width="100%" height="100%" viewBox="0 0 512 512" version="1.1" xmlns="http://www.w3.org/2000/svg" xmlns:xlink="http://www.w3.org/1999/xlink" xml:space="preserve" style="fill-rule:evenodd;clip-rule:evenodd;stroke-linejoin:round;stroke-miterlimit:1.41421;"><g id="Layer1"><path d="M256,510.897c-0.898,-0.003 -1.795,-0.027 -2.692,-0.081c-1.795,-0.107 -3.583,-0.321 -5.352,-0.642c-5.29,-0.958 -10.398,-2.872 -15.01,-5.635c-2.092,-1.254 -4.081,-2.68 -5.942,-4.258c-0.879,-0.744 -1.725,-1.524 -2.547,-2.331c-70.358,-69.913 -140.494,-140.049 -210.407,-210.407c-1.206,-1.228 -2.348,-2.515 -3.41,-3.869c-2.008,-2.559 -3.736,-5.337 -5.141,-8.271c-1.413,-2.949 -2.499,-6.054 -3.237,-9.24c-0.77,-3.329 -1.159,-6.746 -1.159,-10.163c0,-3.417 0.389,-6.834 1.159,-10.163c0.738,-3.186 1.824,-6.291 3.237,-9.24c1.405,-2.934 3.133,-5.712 5.141,-8.271c1.062,-1.354 2.204,-2.641 3.41,-3.869c69.913,-70.358 140.049,-140.494 210.407,-210.407c1.228,-1.206 2.515,-2.348 3.869,-3.41c2.559,-2.008 5.337,-3.736 8.271,-5.141c2.949,-1.413 6.054,-2.499 9.24,-3.237c3.329,-0.77 6.746,-1.159 10.163,-1.159c3.417,0 6.834,0.389 10.163,1.159c3.186,0.738 6.291,1.824 9.24,3.237c2.934,1.405 5.712,3.133 8.271,5.141c1.354,1.062 2.641,2.204 3.869,3.41c70.358,69.913 140.494,140.049 210.407,210.407c1.206,1.228 2.348,2.515 3.41,3.869c2.008,2.559 3.736,5.337 5.141,8.271c1.413,2.949 2.499,6.054 3.237,9.24c0.77,3.329 1.159,6.746 1.159,10.163c0,3.417 -0.389,6.834 -1.159,10.163c-0.738,3.186 -1.824,6.291 -3.237,9.24c-1.405,2.934 -3.133,5.712 -5.141,8.271c-1.062,1.354 -2.204,2.641 -3.41,3.869c-69.913,70.358 -140.049,140.494 -210.407,210.407c-0.822,0.807 -1.668,1.587 -2.547,2.331c-1.861,1.578 -3.85,3.004 -5.942,4.258c-4.38,2.624 -9.207,4.483 -14.213,5.483c-1.764,0.353 -3.549,0.6 -5.343,0.739c-0.806,0.063 -1.613,0.101 -2.421,0.123c-0.359,0.007 -0.718,0.012 -1.077,0.013ZM256,480.896c0.874,-0.002 1.746,-0.075 2.608,-0.226c1.711,-0.299 3.368,-0.899 4.87,-1.773c1.089,-0.635 2.087,-1.411 2.986,-2.294c70.289,-69.85 140.81,-139.476 210.209,-210.21c0.426,-0.439 0.828,-0.9 1.199,-1.386c0.665,-0.869 1.233,-1.813 1.688,-2.809c0.809,-1.774 1.257,-3.707 1.327,-5.655c0.082,-2.31 -0.367,-4.637 -1.327,-6.741c-0.455,-0.996 -1.023,-1.939 -1.688,-2.809c-0.371,-0.486 -0.773,-0.947 -1.199,-1.386c-69.422,-70.758 -139.524,-140.856 -210.28,-210.28c-0.439,-0.426 -0.9,-0.828 -1.386,-1.199c-0.869,-0.665 -1.813,-1.233 -2.809,-1.687c-1.774,-0.81 -3.707,-1.258 -5.655,-1.328c-2.311,-0.082 -4.637,0.367 -6.741,1.328c-0.968,0.441 -1.885,0.989 -2.734,1.63c-0.514,0.387 -0.999,0.808 -1.461,1.256c-70.756,69.424 -140.856,139.524 -210.28,210.28c-0.448,0.462 -0.869,0.947 -1.256,1.461c-0.641,0.849 -1.189,1.766 -1.63,2.734c-0.961,2.104 -1.41,4.43 -1.328,6.741c0.07,1.948 0.518,3.881 1.328,5.655c0.454,0.996 1.022,1.94 1.687,2.809c0.371,0.486 0.773,0.947 1.199,1.386c69.424,70.756 139.522,140.858 210.28,210.28c0.881,0.854 1.854,1.606 2.915,2.224c1.397,0.813 2.929,1.39 4.515,1.707c0.887,0.177 1.787,0.271 2.69,0.29c0.091,0.001 0.182,0.002 0.273,0.002Z" style="fill:#000;fill-rule:nonzero;"/><path d="M279.612,430.108l-13.5,13.5c-2.682,2.682 -6.319,4.188 -10.112,4.188c-3.793,0 -7.43,-1.506 -10.112,-4.188c-33.939,-33.939 -143.557,-143.557 -177.496,-177.496c-2.682,-2.682 -4.188,-6.319 -4.188,-10.112c0,-3.793 1.506,-7.43 4.188,-10.112c33.939,-33.939 143.557,-143.557 177.496,-177.496c2.682,-2.682 6.319,-4.188 10.112,-4.188c3.793,0 7.43,1.506 10.112,4.188l64.505,64.506l0,86.943c-1.64,0.453 -3.249,1.019 -4.812,1.692c-4.292,1.847 -8.226,4.504 -11.549,7.788c-3.159,3.121 -5.758,6.801 -7.638,10.824c-1.637,3.502 -2.723,7.256 -3.211,11.09c-0.501,3.938 -0.377,7.956 0.371,11.854c0.651,3.398 1.778,6.701 3.337,9.789c1.965,3.893 4.613,7.434 7.787,10.425c3.071,2.893 6.629,5.265 10.484,6.981c3.178,1.415 6.553,2.381 9.999,2.864c1.734,0.243 3.481,0.358 5.232,0.363c0.322,-0.001 0.643,-0.005 0.964,-0.012c1.743,-0.05 3.48,-0.208 5.201,-0.494c3.422,-0.568 6.762,-1.615 9.896,-3.102c3.875,-1.84 7.427,-4.349 10.46,-7.382c3.033,-3.034 5.542,-6.585 7.382,-10.461c1.521,-3.204 2.582,-6.625 3.14,-10.128c0.613,-3.844 0.625,-7.784 0.036,-11.632c-0.582,-3.81 -1.759,-7.525 -3.475,-10.976c-1.976,-3.972 -4.66,-7.585 -7.889,-10.627c-3.405,-3.208 -7.406,-5.772 -11.747,-7.516c-1.296,-0.521 -2.622,-0.968 -3.968,-1.34l0,-66.943l92.991,92.99c2.682,2.682 4.188,6.319 4.188,10.112c0,3.793 -1.506,7.43 -4.188,10.112l-105.768,105.768l-71.84,-71.84l0,-103.693c2.08,-0.575 4.11,-1.33 6.06,-2.256c3.876,-1.839 7.427,-4.348 10.461,-7.382c2.979,-2.979 5.454,-6.459 7.284,-10.255c1.539,-3.193 2.62,-6.604 3.2,-10.101c0.65,-3.917 0.675,-7.939 0.074,-11.864c-0.583,-3.81 -1.759,-7.525 -3.475,-10.976c-1.975,-3.972 -4.66,-7.585 -7.889,-10.627c-3.405,-3.208 -7.407,-5.773 -11.748,-7.517c-2.293,-0.921 -4.678,-1.613 -7.109,-2.064c-2.418,-0.448 -4.881,-0.656 -7.34,-0.625c-2.373,0.03 -4.742,0.284 -7.067,0.76c-2.49,0.51 -4.928,1.276 -7.263,2.281c-4.292,1.848 -8.226,4.505 -11.55,7.789c-3.158,3.121 -5.758,6.801 -7.638,10.824c-1.636,3.502 -2.722,7.256 -3.21,11.09c-0.501,3.937 -0.378,7.955 0.37,11.854c0.652,3.397 1.779,6.701 3.338,9.789c1.931,3.826 4.522,7.313 7.624,10.27c3.108,2.963 6.723,5.389 10.647,7.135c1.694,0.755 3.444,1.381 5.231,1.875l0,107.835c0.034,0.774 0.017,0.972 0.152,1.736c0.253,1.434 0.822,2.807 1.656,4c0.446,0.636 0.598,0.764 1.121,1.335l74.769,74.769l-29.944,29.944l-110.905,-110.906l0,-12.901c2.08,-0.575 4.11,-1.331 6.06,-2.256c3.876,-1.84 7.427,-4.349 10.461,-7.382c3.033,-3.034 5.542,-6.585 7.382,-10.461c1.521,-3.204 2.581,-6.625 3.14,-10.128c0.612,-3.844 0.625,-7.783 0.036,-11.631c-0.583,-3.81 -1.759,-7.525 -3.475,-10.976c-1.975,-3.973 -4.66,-7.586 -7.889,-10.628c-3.405,-3.208 -7.407,-5.772 -11.748,-7.516c-2.293,-0.921 -4.678,-1.614 -7.109,-2.064c-2.418,-0.448 -4.881,-0.657 -7.34,-0.625c-2.451,0.031 -4.898,0.3 -7.296,0.807c-2.411,0.51 -4.771,1.259 -7.035,2.234c-4.291,1.847 -8.226,4.504 -11.549,7.788c-3.158,3.121 -5.758,6.801 -7.638,10.825c-1.636,3.502 -2.722,7.255 -3.21,11.089c-0.502,3.938 -0.378,7.955 0.37,11.854c0.68,3.546 1.878,6.99 3.545,10.194c1.977,3.801 4.608,7.255 7.744,10.174c3.033,2.824 6.533,5.142 10.319,6.827c1.695,0.754 3.445,1.381 5.232,1.875l0,17.043c0.022,0.634 0.011,0.795 0.102,1.424c0.203,1.414 0.713,2.781 1.485,3.983c0.258,0.4 0.543,0.782 0.855,1.142c0.156,0.18 0.325,0.348 0.487,0.522l113.834,113.835ZM172.849,273.511c0.895,-0.002 1.789,-0.066 2.675,-0.202c1.524,-0.233 3.015,-0.67 4.424,-1.297c1.641,-0.731 3.167,-1.717 4.511,-2.91c1.448,-1.285 2.683,-2.807 3.638,-4.491c0.825,-1.453 1.439,-3.024 1.815,-4.652c0.468,-2.026 0.57,-4.136 0.307,-6.198c-0.222,-1.745 -0.711,-3.454 -1.446,-5.053c-0.883,-1.921 -2.117,-3.676 -3.621,-5.161c-1.553,-1.536 -3.392,-2.78 -5.399,-3.644c-2.105,-0.906 -4.384,-1.384 -6.675,-1.413c-2.303,-0.029 -4.604,0.391 -6.741,1.249c-1.996,0.802 -3.837,1.977 -5.411,3.443c-1.547,1.439 -2.832,3.156 -3.773,5.048c-0.78,1.569 -1.32,3.256 -1.596,4.987c-0.328,2.054 -0.29,4.17 0.115,6.211c0.319,1.609 0.868,3.17 1.625,4.625c0.845,1.624 1.946,3.113 3.248,4.4c1.378,1.361 2.979,2.495 4.724,3.336c1.416,0.683 2.924,1.172 4.472,1.448c0.876,0.157 1.763,0.243 2.652,0.269c0.152,0.003 0.304,0.005 0.456,0.005ZM340.617,273.511c0.896,-0.002 1.79,-0.066 2.675,-0.202c1.524,-0.233 3.016,-0.67 4.424,-1.297c1.706,-0.759 3.287,-1.795 4.669,-3.051c1.38,-1.255 2.561,-2.728 3.481,-4.35c0.807,-1.422 1.412,-2.957 1.79,-4.547c0.489,-2.058 0.598,-4.206 0.331,-6.304c-0.222,-1.745 -0.71,-3.454 -1.445,-5.052c-0.883,-1.921 -2.118,-3.676 -3.621,-5.161c-1.554,-1.536 -3.393,-2.78 -5.399,-3.644c-2.106,-0.906 -4.385,-1.384 -6.676,-1.413c-2.302,-0.029 -4.603,0.391 -6.74,1.25c-1.996,0.801 -3.838,1.976 -5.412,3.442c-1.546,1.439 -2.832,3.156 -3.772,5.048c-0.781,1.569 -1.321,3.256 -1.597,4.987c-0.327,2.054 -0.289,4.17 0.115,6.211c0.333,1.678 0.917,3.305 1.724,4.813c0.898,1.675 2.07,3.202 3.454,4.505c1.307,1.232 2.802,2.263 4.419,3.043c1.417,0.683 2.925,1.172 4.473,1.448c0.876,0.157 1.762,0.243 2.652,0.269c0.152,0.003 0.303,0.005 0.455,0.005ZM256,177.7c0.896,-0.003 1.79,-0.067 2.676,-0.202c1.523,-0.233 3.015,-0.671 4.423,-1.297c1.642,-0.731 3.168,-1.718 4.512,-2.91c1.447,-1.285 2.683,-2.808 3.638,-4.491c0.806,-1.422 1.411,-2.957 1.789,-4.548c0.489,-2.057 0.599,-4.205 0.332,-6.303c-0.222,-1.745 -0.711,-3.454 -1.445,-5.053c-0.883,-1.92 -2.118,-3.675 -3.621,-5.16c-1.554,-1.536 -3.392,-2.781 -5.4,-3.644c-2.105,-0.907 -4.384,-1.384 -6.676,-1.413c-2.302,-0.03 -4.603,0.391 -6.74,1.249c-1.996,0.802 -3.837,1.977 -5.411,3.443c-1.546,1.439 -2.832,3.155 -3.773,5.047c-0.78,1.57 -1.32,3.256 -1.596,4.987c-0.328,2.055 -0.29,4.171 0.115,6.212c0.333,1.678 0.916,3.304 1.724,4.812c0.914,1.707 2.113,3.259 3.53,4.578c1.289,1.2 2.757,2.206 4.343,2.971c1.45,0.698 2.995,1.194 4.581,1.467c0.841,0.145 1.691,0.225 2.543,0.249c0.152,0.003 0.304,0.005 0.456,0.006Z" style="fill:#000;"/></g></svg>