<?xml version="1.0" standalone="no"?><!DOCTYPE svg PUBLIC "-//W3C//DTD SVG 1.1//EN" "http://www.w3.org/Graphics/SVG/1.1/DTD/svg11.dtd"><svg width="100%" height="100%" viewBox="0 0 512 512" version="1.1" xmlns="http://www.w3.org/2000/svg" xmlns:xlink="http://www.w3.org/1999/xlink" xml:space="preserve" style="fill-rule:evenodd;clip-rule:evenodd;stroke-linejoin:round;stroke-miterlimit:1.41421;"><g id="Layer1"><path d="M256.036,511.998c-2.004,-0.004 -4.007,-0.097 -6.003,-0.291c-4.007,-0.39 -7.975,-1.171 -11.831,-2.33c-3.006,-0.905 -5.943,-2.038 -8.778,-3.388c-1.396,-0.665 -2.765,-1.385 -4.109,-2.15c-56.329,-32.354 -112.726,-64.594 -168.784,-97.417c-1.551,-0.917 -3.065,-1.894 -4.533,-2.94c-2.827,-2.014 -5.485,-4.267 -7.934,-6.727c-3.721,-3.736 -6.96,-7.95 -9.616,-12.506c-2.655,-4.554 -4.725,-9.448 -6.143,-14.525c-0.979,-3.506 -1.648,-7.098 -1.995,-10.721c-0.173,-1.794 -0.262,-3.594 -0.281,-5.396c-0.416,-65.045 -0.425,-130.094 -0.028,-195.139c0.018,-1.801 0.108,-3.601 0.279,-5.395c0.347,-3.623 1.014,-7.216 1.992,-10.722c1.417,-5.078 3.486,-9.972 6.14,-14.527c2.654,-4.557 5.892,-8.771 9.612,-12.509c2.449,-2.46 5.105,-4.714 7.932,-6.729c1.468,-1.046 2.982,-2.024 4.532,-2.941c56.123,-32.882 112.452,-65.415 168.982,-97.593c1.569,-0.885 3.173,-1.708 4.812,-2.456c3.158,-1.442 6.438,-2.616 9.793,-3.508c5.097,-1.354 10.365,-2.053 15.638,-2.075c5.272,-0.022 10.545,0.632 15.652,1.943c3.525,0.905 6.97,2.122 10.282,3.633c1.639,0.748 3.243,1.57 4.813,2.454c56.538,32.162 112.877,64.679 169.009,97.545c1.551,0.917 3.065,1.895 4.533,2.94c2.964,2.112 5.742,4.486 8.289,7.086c3.689,3.766 6.893,8.005 9.512,12.581c2.618,4.577 4.649,9.488 6.026,14.578c0.907,3.352 1.53,6.779 1.861,10.235c0.173,1.794 0.262,3.593 0.281,5.395c0.416,65.045 0.425,130.094 0.028,195.139c-0.018,1.802 -0.108,3.602 -0.279,5.395c-0.331,3.456 -0.953,6.884 -1.859,10.235c-1.375,5.091 -3.405,10.003 -6.022,14.581c-2.617,4.576 -5.82,8.816 -9.508,12.583c-2.547,2.601 -5.323,4.976 -8.287,7.088c-1.468,1.046 -2.982,2.024 -4.532,2.941c-56.123,32.883 -112.452,65.415 -168.982,97.594c-1.346,0.759 -2.717,1.473 -4.115,2.132c-2.839,1.338 -5.779,2.46 -8.788,3.353c-3.699,1.097 -7.5,1.846 -11.338,2.236c-1.912,0.195 -3.831,0.296 -5.752,0.315c-0.167,0.001 -0.334,0.002 -0.501,0.003ZM256.033,484.997c1.13,-0.002 2.26,-0.055 3.385,-0.164c2.353,-0.23 4.682,-0.699 6.941,-1.399c1.644,-0.509 3.25,-1.142 4.801,-1.889c0.743,-0.358 1.472,-0.743 2.189,-1.151c56.264,-32.341 112.734,-64.333 168.591,-97.371c0.873,-0.521 1.724,-1.076 2.549,-1.669c1.586,-1.141 3.077,-2.415 4.45,-3.806c2.055,-2.083 3.847,-4.424 5.319,-6.952c1.497,-2.569 2.664,-5.328 3.462,-8.192c0.551,-1.974 0.927,-3.998 1.122,-6.038c0.102,-1.061 0.152,-2.126 0.159,-3.191c0.122,-64.897 0.651,-129.797 -0.03,-194.69c-0.014,-0.967 -0.065,-1.934 -0.157,-2.898c-0.187,-1.946 -0.538,-3.876 -1.048,-5.763c-0.801,-2.962 -1.995,-5.815 -3.541,-8.466c-1.473,-2.528 -3.265,-4.868 -5.32,-6.95c-1.407,-1.424 -2.938,-2.727 -4.568,-3.889c-0.869,-0.618 -1.766,-1.195 -2.686,-1.733c-56.137,-32.559 -112.08,-65.463 -168.62,-97.319c-0.888,-0.495 -1.794,-0.955 -2.72,-1.372c-1.782,-0.804 -3.631,-1.457 -5.522,-1.951c-2.877,-0.751 -5.849,-1.131 -8.821,-1.131c-2.973,0 -5.945,0.382 -8.822,1.133c-1.937,0.507 -3.83,1.181 -5.652,2.012c-0.97,0.443 -1.917,0.931 -2.843,1.459c-56.265,32.339 -112.735,64.329 -168.591,97.37c-0.872,0.521 -1.724,1.076 -2.549,1.67c-1.548,1.113 -3.005,2.353 -4.35,3.705c-2.131,2.141 -3.981,4.559 -5.49,7.175c-1.487,2.575 -2.642,5.34 -3.429,8.206c-0.531,1.931 -0.894,3.908 -1.084,5.902c-0.102,1.061 -0.152,2.125 -0.159,3.191c-0.126,64.896 -0.655,129.796 0.03,194.689c0.014,0.968 0.065,1.935 0.157,2.898c0.187,1.947 0.538,3.877 1.048,5.764c0.814,3.007 2.032,5.902 3.612,8.587c1.459,2.481 3.227,4.78 5.25,6.829c1.407,1.424 2.937,2.727 4.568,3.889c0.868,0.618 1.765,1.194 2.685,1.733c56.136,32.561 112.077,65.468 168.62,97.318c0.761,0.425 1.536,0.824 2.326,1.192c1.602,0.747 3.26,1.371 4.956,1.866c1.996,0.583 4.045,0.986 6.113,1.204c1.031,0.109 2.066,0.169 3.103,0.188c0.189,0.003 0.377,0.004 0.566,0.004Z" style="fill:#000;fill-rule:nonzero;"/><path d="M414.03,307.106l0.017,-0.009l0.003,21.95c0.001,11.118 -5.928,21.391 -15.555,26.951c-30.249,17.47 -96.669,55.83 -126.918,73.3c-4.821,2.785 -10.203,4.175 -15.583,4.171l0.002,-35.146l0.013,-0.007l-0.003,-133.546c0,-5.559 2.966,-10.695 7.779,-13.474c31.264,-18.05 146.087,-84.343 146.087,-84.343c2.673,4.624 4.156,9.972 4.157,15.53l0.001,124.623Z" style="fill:#000;fill-opacity:0.694118;"/><path d="M97.97,307.106l-0.017,-0.009l-0.003,21.95c-0.001,11.118 5.928,21.391 15.555,26.951c30.249,17.47 96.669,55.83 126.918,73.3c4.821,2.785 10.203,4.175 15.583,4.171l-0.002,-35.146l-0.013,-0.007l0.003,-133.546c0,-5.559 -2.966,-10.695 -7.779,-13.474c-31.264,-18.05 -146.087,-84.343 -146.087,-84.343c-2.673,4.624 -4.156,9.972 -4.157,15.53l-0.001,124.623Z" style="fill:#000;fill-opacity:0.407843;"/><path d="M102.379,167.005c0,0 1.747,-5.806 11.359,-11.357c30.198,-17.441 96.507,-55.737 126.705,-73.177c9.611,-5.551 21.454,-5.553 31.066,-0.005c30.204,17.432 96.523,55.71 126.727,73.142c4.813,2.778 8.702,6.737 11.385,11.391c0,0 -114.583,66.154 -145.831,84.195c-4.82,2.783 -7.789,7.926 -7.789,13.492l-0.012,-0.027c-0.001,-5.549 -2.961,-10.677 -7.767,-13.451c-31.212,-18.021 -145.843,-84.203 -145.843,-84.203Z" style="fill:#000;fill-opacity:0.117647;"/><path d="M256.025,433.747c-1.053,-0.004 -2.104,-0.055 -3.152,-0.165c-2.104,-0.222 -4.184,-0.667 -6.195,-1.326c-1.252,-0.411 -2.477,-0.904 -3.665,-1.475c-0.6,-0.289 -1.189,-0.601 -1.77,-0.926c-42.935,-24.543 -85.767,-49.264 -128.496,-74.163c-0.644,-0.383 -1.276,-0.783 -1.892,-1.211c-1.351,-0.937 -2.624,-1.985 -3.803,-3.131c-1.863,-1.81 -3.488,-3.864 -4.824,-6.092c-1.376,-2.296 -2.443,-4.777 -3.163,-7.355c-0.486,-1.739 -0.814,-3.522 -0.979,-5.32c-0.076,-0.829 -0.114,-1.66 -0.124,-2.492c-0.213,-49.453 -0.22,-98.908 -0.021,-148.361c0.009,-0.75 0.04,-1.498 0.102,-2.245c0.136,-1.638 0.407,-3.265 0.81,-4.858c0.637,-2.519 1.602,-4.954 2.864,-7.224c1.301,-2.34 2.915,-4.504 4.788,-6.417c1.264,-1.29 2.644,-2.466 4.119,-3.508c0.679,-0.48 1.38,-0.929 2.095,-1.354c42.721,-24.911 85.547,-49.644 128.474,-74.199c0.654,-0.366 1.317,-0.714 1.995,-1.033c1.487,-0.701 3.031,-1.28 4.613,-1.728c2.499,-0.708 5.091,-1.089 7.688,-1.131c2.677,-0.044 5.358,0.272 7.951,0.938c1.749,0.449 3.457,1.056 5.097,1.812c0.756,0.349 1.494,0.731 2.22,1.138c42.935,24.542 85.767,49.264 128.496,74.163c0.644,0.382 1.276,0.783 1.892,1.21c1.351,0.937 2.624,1.986 3.803,3.131c1.863,1.811 3.488,3.864 4.824,6.093c1.376,2.296 2.443,4.776 3.163,7.355c0.486,1.739 0.814,3.522 0.979,5.32c0.076,0.829 0.114,1.66 0.124,2.492c0.213,49.453 0.22,98.908 0.021,148.361c-0.01,0.832 -0.048,1.663 -0.124,2.492c-0.164,1.798 -0.492,3.581 -0.977,5.321c-0.719,2.578 -1.785,5.059 -3.161,7.355c-1.335,2.229 -2.96,4.283 -4.822,6.094c-1.179,1.146 -2.452,2.195 -3.802,3.132c-0.616,0.428 -1.248,0.829 -1.892,1.211c-42.721,24.912 -85.547,49.645 -128.474,74.199c-0.581,0.326 -1.17,0.638 -1.771,0.927c-1.187,0.572 -2.412,1.065 -3.664,1.476c-1.857,0.609 -3.773,1.036 -5.712,1.273c-0.965,0.118 -1.935,0.184 -2.906,0.212c-0.243,0.005 -0.486,0.008 -0.729,0.009ZM256.022,406.747c0.518,-0.002 1.024,-0.136 1.476,-0.389c42.773,-24.468 85.343,-49.288 128.014,-73.933c0.053,-0.031 0.106,-0.062 0.158,-0.095c0.615,-0.393 1.072,-1.002 1.274,-1.703c0.068,-0.236 0.105,-0.479 0.114,-0.724c0.002,-0.054 0.002,-0.107 0.002,-0.16c-0.007,-49.249 -0.014,-98.499 -0.021,-147.748c0,-0.061 0,-0.123 -0.003,-0.185c-0.033,-0.719 -0.324,-1.413 -0.821,-1.936c-0.174,-0.184 -0.372,-0.344 -0.588,-0.479c-0.045,-0.028 -0.091,-0.055 -0.137,-0.081c-42.654,-24.619 -85.308,-49.237 -127.963,-73.856c-0.053,-0.03 -0.106,-0.061 -0.161,-0.089c-0.647,-0.336 -1.404,-0.428 -2.112,-0.252c-0.239,0.059 -0.468,0.149 -0.685,0.264c-0.047,0.025 -0.093,0.051 -0.139,0.078c-42.647,24.63 -85.295,49.261 -127.942,73.891c-0.053,0.031 -0.107,0.063 -0.159,0.096c-0.614,0.392 -1.072,1.001 -1.273,1.702c-0.068,0.237 -0.105,0.48 -0.114,0.725c-0.002,0.054 -0.002,0.107 -0.002,0.16c0.007,49.249 0.014,98.498 0.021,147.747c0,0.062 0,0.123 0.003,0.185c0.033,0.728 0.331,1.429 0.838,1.954c0.17,0.177 0.363,0.331 0.57,0.462c0.046,0.028 0.092,0.054 0.138,0.081c42.654,24.619 85.309,49.237 127.963,73.856c0.053,0.03 0.107,0.06 0.161,0.089c0.393,0.204 0.823,0.318 1.265,0.337c0.041,0.002 0.082,0.003 0.123,0.003Z" style="fill:#000;fill-rule:nonzero;"/></g></svg>