<?xml version="1.0" standalone="no"?><!DOCTYPE svg PUBLIC "-//W3C//DTD SVG 1.1//EN" "http://www.w3.org/Graphics/SVG/1.1/DTD/svg11.dtd"><svg width="100%" height="100%" viewBox="0 0 512 512" version="1.1" xmlns="http://www.w3.org/2000/svg" xmlns:xlink="http://www.w3.org/1999/xlink" xml:space="preserve" style="fill-rule:evenodd;clip-rule:evenodd;stroke-linejoin:round;stroke-miterlimit:1.41421;"><g id="Layer1"><path d="M256.036,511.998c-2.004,-0.004 -4.007,-0.097 -6.003,-0.291c-4.007,-0.39 -7.975,-1.171 -11.831,-2.33c-3.006,-0.905 -5.943,-2.038 -8.778,-3.388c-1.396,-0.665 -2.765,-1.385 -4.109,-2.15c-56.329,-32.354 -112.726,-64.594 -168.784,-97.417c-1.551,-0.917 -3.065,-1.894 -4.533,-2.94c-2.827,-2.014 -5.485,-4.267 -7.934,-6.727c-3.721,-3.736 -6.96,-7.95 -9.616,-12.506c-2.655,-4.554 -4.725,-9.448 -6.143,-14.525c-0.979,-3.506 -1.648,-7.098 -1.995,-10.721c-0.173,-1.794 -0.262,-3.594 -0.281,-5.396c-0.416,-65.045 -0.425,-130.094 -0.028,-195.139c0.018,-1.801 0.108,-3.601 0.279,-5.395c0.347,-3.623 1.014,-7.216 1.992,-10.722c1.417,-5.078 3.486,-9.972 6.14,-14.527c2.654,-4.557 5.892,-8.771 9.612,-12.509c2.449,-2.46 5.105,-4.714 7.932,-6.729c1.468,-1.046 2.982,-2.024 4.532,-2.941c56.123,-32.882 112.452,-65.415 168.982,-97.593c1.569,-0.885 3.173,-1.708 4.812,-2.456c3.158,-1.442 6.438,-2.616 9.793,-3.508c5.097,-1.354 10.365,-2.053 15.638,-2.075c5.272,-0.022 10.545,0.632 15.652,1.943c3.525,0.905 6.97,2.122 10.282,3.633c1.639,0.748 3.243,1.57 4.813,2.454c56.538,32.162 112.877,64.679 169.009,97.545c1.551,0.917 3.065,1.895 4.533,2.94c2.964,2.112 5.742,4.486 8.289,7.086c3.689,3.766 6.893,8.005 9.512,12.581c2.618,4.577 4.649,9.488 6.026,14.578c0.907,3.352 1.53,6.779 1.861,10.235c0.173,1.794 0.262,3.593 0.281,5.395c0.416,65.045 0.425,130.094 0.028,195.139c-0.018,1.802 -0.108,3.602 -0.279,5.395c-0.331,3.456 -0.953,6.884 -1.859,10.235c-1.375,5.091 -3.405,10.003 -6.022,14.581c-2.617,4.576 -5.82,8.816 -9.508,12.583c-2.547,2.601 -5.323,4.976 -8.287,7.088c-1.468,1.046 -2.982,2.024 -4.532,2.941c-56.123,32.883 -112.452,65.415 -168.982,97.594c-1.346,0.759 -2.717,1.473 -4.115,2.132c-2.839,1.338 -5.779,2.46 -8.788,3.353c-3.699,1.097 -7.5,1.846 -11.338,2.236c-1.912,0.195 -3.831,0.296 -5.752,0.315c-0.167,0.001 -0.334,0.002 -0.501,0.003ZM256.033,484.997c1.13,-0.002 2.26,-0.055 3.385,-0.164c2.353,-0.23 4.682,-0.699 6.941,-1.399c1.644,-0.509 3.25,-1.142 4.801,-1.889c0.743,-0.358 1.472,-0.743 2.189,-1.151c56.264,-32.341 112.734,-64.333 168.591,-97.371c0.873,-0.521 1.724,-1.076 2.549,-1.669c1.586,-1.141 3.077,-2.415 4.45,-3.806c2.055,-2.083 3.847,-4.424 5.319,-6.952c1.497,-2.569 2.664,-5.328 3.462,-8.192c0.551,-1.974 0.927,-3.998 1.122,-6.038c0.102,-1.061 0.152,-2.126 0.159,-3.191c0.122,-64.897 0.651,-129.797 -0.03,-194.69c-0.014,-0.967 -0.065,-1.934 -0.157,-2.898c-0.187,-1.946 -0.538,-3.876 -1.048,-5.763c-0.801,-2.962 -1.995,-5.815 -3.541,-8.466c-1.473,-2.528 -3.265,-4.868 -5.32,-6.95c-1.407,-1.424 -2.938,-2.727 -4.568,-3.889c-0.869,-0.618 -1.766,-1.195 -2.686,-1.733c-56.137,-32.559 -112.08,-65.463 -168.62,-97.319c-0.888,-0.495 -1.794,-0.955 -2.72,-1.372c-1.782,-0.804 -3.631,-1.457 -5.522,-1.951c-2.877,-0.751 -5.849,-1.131 -8.821,-1.131c-2.973,0 -5.945,0.382 -8.822,1.133c-1.937,0.507 -3.83,1.181 -5.652,2.012c-0.97,0.443 -1.917,0.931 -2.843,1.459c-56.265,32.339 -112.735,64.329 -168.591,97.37c-0.872,0.521 -1.724,1.076 -2.549,1.67c-1.548,1.113 -3.005,2.353 -4.35,3.705c-2.131,2.141 -3.981,4.559 -5.49,7.175c-1.487,2.575 -2.642,5.34 -3.429,8.206c-0.531,1.931 -0.894,3.908 -1.084,5.902c-0.102,1.061 -0.152,2.125 -0.159,3.191c-0.126,64.896 -0.655,129.796 0.03,194.689c0.014,0.968 0.065,1.935 0.157,2.898c0.187,1.947 0.538,3.877 1.048,5.764c0.814,3.007 2.032,5.902 3.612,8.587c1.459,2.481 3.227,4.78 5.25,6.829c1.407,1.424 2.937,2.727 4.568,3.889c0.868,0.618 1.765,1.194 2.685,1.733c56.136,32.561 112.077,65.468 168.62,97.318c0.761,0.425 1.536,0.824 2.326,1.192c1.602,0.747 3.26,1.371 4.956,1.866c1.996,0.583 4.045,0.986 6.113,1.204c1.031,0.109 2.066,0.169 3.103,0.188c0.189,0.003 0.377,0.004 0.566,0.004Z" style="fill:#000;fill-rule:nonzero;"/><path d="M256.012,433.694c-1.021,-0.004 -2.042,-0.053 -3.058,-0.154c-2.54,-0.254 -5.049,-0.819 -7.452,-1.682c-1.094,-0.392 -2.166,-0.846 -3.208,-1.36c-0.472,-0.232 -0.936,-0.479 -1.396,-0.732c-1.693,-0.943 -3.365,-1.922 -5.047,-2.884c-16.166,-9.251 -32.32,-18.523 -48.458,-27.822c-4.842,-2.79 -9.682,-5.582 -14.521,-8.377c-1.613,-0.931 -3.225,-1.863 -4.838,-2.795c-1.692,-0.978 -3.387,-1.951 -5.075,-2.935c-0.237,-0.14 -0.473,-0.281 -0.707,-0.423c-1.389,-0.853 -2.735,-1.771 -4.029,-2.762c-2.456,-1.883 -4.72,-4.016 -6.745,-6.357c-2.043,-2.362 -3.843,-4.934 -5.363,-7.662c-1.55,-2.781 -2.809,-5.723 -3.753,-8.763c-1.82,-5.866 -2.452,-12.087 -1.835,-18.198c0.329,-3.263 1.012,-6.489 2.032,-9.606c0.508,-1.555 1.104,-3.08 1.77,-4.575c1.145,-2.481 2.292,-4.963 3.439,-7.443c8.516,-18.388 17.102,-36.743 25.721,-55.082c8.74,-18.597 17.517,-37.178 26.317,-55.747l1.832,-3.861l1.545,-3.254l0,-48.771c-0.267,-0.083 -0.266,-0.083 -0.533,-0.169c-0.264,-0.089 -0.263,-0.089 -0.527,-0.18c-0.349,-0.125 -0.696,-0.253 -1.04,-0.39c-0.77,-0.307 -1.525,-0.649 -2.264,-1.024c-2.435,-1.237 -4.682,-2.837 -6.653,-4.727c-2.684,-2.574 -4.851,-5.68 -6.327,-9.093c-1.284,-2.97 -2.039,-6.163 -2.208,-9.394c-0.149,-2.848 0.148,-5.72 0.877,-8.478c0.66,-2.495 1.675,-4.894 3.003,-7.107c1.651,-2.752 3.782,-5.212 6.269,-7.24c2.329,-1.9 4.965,-3.419 7.781,-4.472c1.975,-0.739 4.036,-1.248 6.128,-1.515c1.105,-0.141 2.217,-0.211 3.332,-0.221c30.328,-0.097 60.657,-0.096 90.985,0c1.117,0.01 2.232,0.08 3.34,0.221c2.098,0.267 4.163,0.776 6.144,1.515c3.134,1.169 6.047,2.912 8.565,5.114c2.798,2.448 5.099,5.455 6.718,8.802c1.06,2.189 1.826,4.519 2.271,6.91c0.571,3.066 0.615,6.23 0.139,9.312c-0.485,3.146 -1.519,6.202 -3.047,8.994c-1.702,3.109 -4.008,5.88 -6.755,8.119c-1.97,1.607 -4.163,2.938 -6.498,3.944c-1.237,0.533 -2.512,0.971 -3.812,1.322l-0.141,0.037l-0.142,0.036l0,48.455c2.069,4.601 4.205,9.172 6.344,13.741c2.65,5.663 5.318,11.318 7.987,16.972c6.091,12.892 12.193,25.778 18.284,38.669c8.805,18.651 17.589,37.312 26.254,56.028c0.112,0.251 0.222,0.503 0.331,0.755c0.637,1.501 1.203,3.03 1.682,4.589c0.935,3.043 1.551,6.183 1.834,9.354c0.553,6.197 -0.177,12.493 -2.12,18.404c-1.917,5.83 -5.007,11.262 -9.048,15.881c-2.157,2.465 -4.581,4.696 -7.214,6.644c-1.314,0.971 -2.681,1.867 -4.088,2.698c-1.687,0.984 -3.38,1.958 -5.07,2.936c-1.612,0.932 -3.223,1.863 -4.835,2.795c-11.281,6.518 -22.568,13.026 -33.863,19.521c-11.296,6.494 -22.599,12.974 -33.908,19.445c-0.253,0.141 -0.253,0.141 -0.508,0.28c-0.512,0.275 -1.027,0.54 -1.552,0.788c-1.038,0.49 -2.104,0.922 -3.191,1.294c-2.066,0.707 -4.206,1.194 -6.374,1.454c-0.983,0.118 -1.969,0.183 -2.958,0.215c-0.254,0.005 -0.509,0.009 -0.763,0.011ZM255.971,409.693c0.287,-0.003 0.575,-0.017 0.861,-0.049c0.555,-0.064 1.103,-0.19 1.628,-0.381c0.217,-0.079 0.431,-0.168 0.639,-0.269c0.142,-0.068 0.281,-0.143 0.419,-0.219c1.599,-0.889 3.176,-1.816 4.764,-2.725c1.613,-0.923 3.226,-1.847 4.839,-2.771c14.514,-8.318 29.019,-16.651 43.511,-25.009c4.831,-2.785 9.66,-5.573 14.488,-8.363c1.609,-0.931 3.218,-1.861 4.827,-2.792c1.686,-0.974 3.379,-1.936 5.055,-2.926c0.189,-0.114 0.377,-0.229 0.563,-0.347c0.654,-0.418 1.288,-0.866 1.896,-1.35c1.145,-0.911 2.198,-1.937 3.136,-3.06c1.822,-2.182 3.206,-4.722 4.063,-7.431c0.87,-2.75 1.196,-5.667 0.939,-8.54c-0.134,-1.504 -0.426,-2.992 -0.87,-4.435c-0.256,-0.833 -0.564,-1.648 -0.913,-2.446c-0.312,-0.7 -0.643,-1.391 -0.965,-2.086c-0.693,-1.494 -1.387,-2.988 -2.08,-4.483c-13.643,-29.343 -27.531,-58.571 -41.354,-87.83c-1.15,-2.438 -2.3,-4.876 -3.45,-7.314c-1.977,-4.199 -3.953,-8.4 -5.915,-12.606c-1.738,-3.725 -3.469,-7.453 -5.154,-11.202l-1.164,-3.169c-0.707,-3.299 -0.708,-3.305 -0.946,-6.67l0,-48.455c0.375,-3.968 0.196,-5.067 1.682,-8.824c1.11,-2.809 2.742,-5.384 4.807,-7.588c2.066,-2.204 4.53,-3.999 7.262,-5.289c1.359,-0.642 2.828,-1.023 4.242,-1.535c0.102,-0.026 0.204,-0.054 0.304,-0.086c0.469,-0.156 0.902,-0.405 1.268,-0.736c0.327,-0.295 0.598,-0.651 0.794,-1.046c0.168,-0.34 0.278,-0.708 0.328,-1.084c0.07,-0.529 0.036,-1.076 -0.127,-1.586c-0.336,-1.054 -1.195,-1.93 -2.226,-2.322c-0.381,-0.145 -0.784,-0.218 -1.191,-0.229c-30.224,-0.672 -60.462,-0.002 -90.694,-0.002c-0.063,0 -0.125,0.001 -0.188,0.003c-0.426,0.018 -0.844,0.107 -1.236,0.276c-0.876,0.378 -1.602,1.115 -1.963,1.998c-0.225,0.55 -0.308,1.168 -0.227,1.757c0.114,0.839 0.57,1.615 1.182,2.19c0.388,0.365 0.847,0.652 1.353,0.822l0.031,0.01l0.149,0.046l4.01,1.664c1.215,0.787 2.506,1.467 3.645,2.36c2.287,1.793 4.229,3.987 5.732,6.475c1.503,2.487 2.542,5.227 3.065,8.086c0.261,1.424 0.262,2.883 0.393,4.324l0,48.771c-0.232,3.129 -0.119,3.962 -1.04,6.989c-0.344,1.13 -0.853,2.203 -1.28,3.304c-1.939,4.086 -3.877,8.173 -5.814,12.26c-12.108,25.572 -24.174,51.163 -36.156,76.794c-3.676,7.863 -7.342,15.731 -10.994,23.605c-1.171,2.524 -2.34,5.047 -3.507,7.572c-0.381,0.824 -0.761,1.648 -1.142,2.472c-0.361,0.782 -0.732,1.56 -1.082,2.347c-0.089,0.202 -0.176,0.406 -0.26,0.61c-0.291,0.722 -0.549,1.457 -0.764,2.204c-0.406,1.408 -0.669,2.856 -0.783,4.317c-0.224,2.877 0.135,5.791 1.036,8.532c0.901,2.741 2.343,5.3 4.231,7.482c0.988,1.142 2.097,2.18 3.3,3.092c0.695,0.526 1.421,1.007 2.171,1.45c1.645,0.958 3.296,1.906 4.944,2.859c1.611,0.931 3.221,1.861 4.832,2.791c14.498,8.37 29.005,16.724 43.526,25.054c4.84,2.777 9.681,5.552 14.524,8.325c1.614,0.924 3.229,1.848 4.843,2.771c1.61,0.921 3.207,1.867 4.832,2.761c0.11,0.06 0.221,0.119 0.334,0.174c0.944,0.453 1.989,0.699 3.037,0.708Z" style="fill:#000;fill-rule:nonzero;"/><path d="M322.176,249.619l40.184,106.174c0.42,0.996 -103.181,69.97 -106.36,68.146l-104.585,-69.448c-2.83,-1.811 33.493,-93.346 33.493,-93.346c16.564,4.749 34.768,7.371 53.863,7.371c31.262,0 60.136,-7.029 83.405,-18.897l0,0ZM289.137,359.883c11.439,0 20.679,-9.279 20.679,-20.694c0,-11.319 -9.168,-20.569 -20.545,-20.642l-0.134,-0.001c-11.438,0.001 -20.663,9.279 -20.663,20.643c0,11.371 9.151,20.621 20.529,20.693l0.134,0.001ZM229.402,326.459c9.072,0 16.464,-7.403 16.464,-16.513c0,-9.063 -7.392,-16.486 -16.464,-16.486c-9.128,0 -16.511,7.422 -16.511,16.487c0,9.112 7.383,16.513 16.511,16.513l0,-0.001ZM254.927,245.391c-8.96,0 -16.207,-7.264 -16.207,-16.209c0,-8.898 7.247,-16.183 16.207,-16.183c8.905,0 16.161,7.286 16.161,16.182c0,8.943 -7.256,16.209 -16.161,16.209l0,0.001Z" style="fill:#000;fill-opacity:0.74902;"/></g></svg>