<svg xmlns="http://www.w3.org/2000/svg" width="32" height="32" viewBox="0 0 32 32"><path d="M28.694 6.842L17.584.43c-.98-.566-2.187-.566-3.168 0L3.306 6.842c-.98.566-1.583 1.613-1.583 2.744v12.828c0 1.13.603 2.178 1.584 2.744l11.11 6.413c.98.57 2.187.57 3.168 0l11.11-6.41c.98-.56 1.583-1.61 1.583-2.74V9.59c0-1.13-.603-2.18-1.584-2.746zm-1.09 15.288c0 .35-.19.68-.493.854L16.5 29.112c-.305.175-.682.175-.987 0L4.89 22.984c-.305-.175-.493-.5-.493-.854V9.87c0-.35.19-.678.493-.853l10.617-6.13c.305-.176.682-.176.987 0l10.617 6.13c.31.175.5.5.5.854z"/><path d="M8.697 10.75h7.38v2.352h-4.66v1.584h3.83V16.9h-3.83v1.753H16.4v2.352H8.695V10.75zm9.07 7.856c.124.102.273.197.447.284s.356.16.546.223c.19.06.38.11.57.146s.355.05.5.05c.266 0 .494-.03.683-.09s.284-.21.284-.43c0-.17-.11-.3-.33-.39s-.613-.24-1.177-.41c-.318-.09-.61-.2-.876-.33s-.497-.28-.692-.46-.346-.38-.454-.62c-.108-.24-.16-.51-.16-.818s.073-.597.222-.87c.15-.27.36-.51.63-.714s.6-.366.984-.484c.384-.12.807-.18 1.268-.18.595 0 1.13.072 1.607.215s.92.352 1.34.63l-.88 1.612c-.28-.163-.57-.306-.87-.43s-.62-.184-.95-.184c-.536 0-.8.142-.8.43 0 .123.05.223.144.3s.227.143.39.2c.165.056.355.113.57.17s.446.125.69.207c.37.125.673.26.91.417s.422.32.56.505.233.39.284.61c.05.22.077.45.077.7 0 .44-.1.81-.3 1.102s-.46.536-.777.72c-.315.185-.67.316-1.07.393s-.78.112-1.16.112c-.622 0-1.24-.088-1.85-.257s-1.102-.42-1.482-.747l1.106-1.646z"/></svg>