<svg xmlns="http://www.w3.org/2000/svg" width="32" height="32" viewBox="0 0 32 32"><path d="M28.694 6.842L17.584.43c-.98-.566-2.187-.566-3.168 0L3.306 6.842c-.98.566-1.583 1.613-1.583 2.744v12.828c0 1.13.603 2.178 1.584 2.744l11.11 6.413c.98.567 2.187.567 3.168 0l11.11-6.412c.98-.566 1.583-1.613 1.583-2.744V9.586c0-1.13-.603-2.178-1.584-2.744zm-1.09 15.288c0 .35-.19.68-.493.854l-10.616 6.128c-.305.175-.682.175-.987 0L4.89 22.984c-.305-.175-.493-.5-.493-.854V9.87c0-.35.19-.678.493-.853l10.617-6.13c.305-.176.682-.176.987 0l10.617 6.13c.306.175.494.5.494.854z"/><path d="M8.697 10.75h7.38v2.352h-4.66v1.584h3.83V16.9h-3.83v1.753H16.4v2.352H8.695V10.75zM17.768 18.606c.123.102.272.197.446.284s.356.16.546.223c.19.06.38.11.57.146s.355.053.5.053c.266 0 .494-.03.683-.092s.284-.204.284-.43c0-.163-.11-.294-.33-.39s-.613-.234-1.177-.408c-.318-.092-.61-.202-.876-.33s-.497-.28-.692-.455-.346-.38-.454-.615c-.108-.236-.16-.507-.16-.815s.073-.597.222-.87c.15-.27.36-.51.63-.714s.6-.366.984-.484c.384-.12.807-.178 1.268-.178.595 0 1.13.072 1.607.215s.924.354 1.344.63l-.876 1.614c-.277-.163-.566-.306-.87-.43s-.617-.184-.945-.184c-.533 0-.8.143-.8.43 0 .124.05.224.147.3s.228.144.392.2c.164.057.354.114.57.17s.445.126.69.208c.37.123.672.26.908.415s.423.322.56.506.234.387.285.607c.05.22.077.454.077.7 0 .44-.1.81-.3 1.107s-.46.538-.776.723c-.318.184-.674.315-1.07.392s-.78.115-1.16.115c-.625 0-1.243-.085-1.853-.254s-1.104-.418-1.484-.746l1.106-1.645z"/></svg>