<svg xmlns="http://www.w3.org/2000/svg" width="32" height="32" viewBox="0 0 32 32"><path d="M28.546 5.178l-1.71-1.71L3.48 26.82l1.71 1.71L28.547 5.18zm-2.192 5.157C29.71 12.43 32 14.93 32 16c0 1.998-7.993 8.992-15.986 8.992-1.286 0-2.57-.18-3.823-.493l2.63-2.63c.39.08.79.12 1.2.12 3.31 0 5.997-2.687 5.997-5.998 0-.412-.04-.813-.12-1.2l4.467-4.466zM10.138 17.2l-4.466 4.465C2.317 19.57.026 17.07.026 16c0-1.998 7.993-8.992 15.986-8.992 1.286 0 2.57.18 3.823.493l-2.625 2.63c-.387-.08-.788-.12-1.2-.12-3.31 0-5.994 2.688-5.994 6 0 .41.04.812.12 1.2z"/></svg>