<?xml version="1.0" standalone="no"?><!DOCTYPE svg PUBLIC "-//W3C//DTD SVG 1.1//EN" "http://www.w3.org/Graphics/SVG/1.1/DTD/svg11.dtd"><svg width="100%" height="100%" viewBox="0 0 30 32" version="1.1" xmlns="http://www.w3.org/2000/svg" xmlns:xlink="http://www.w3.org/1999/xlink" xml:space="preserve" style="fill-rule:evenodd;clip-rule:evenodd;stroke-linejoin:round;stroke-miterlimit:1.41421;"><path d="M28.6,16c0,-7.51 -6.09,-13.6 -13.6,-13.6c-7.51,0 -13.6,6.09 -13.6,13.6c0,7.51 6.09,13.6 13.6,13.6c7.51,0 13.6,-6.09 13.6,-13.6ZM3,16c0,-6.627 5.373,-12 12,-12c6.627,0 12,5.373 12,12c0,6.627 -5.373,12 -12,12c-6.627,0 -12,-5.373 -12,-12Z" style="fill:#000;fill-rule:nonzero;"/><path d="M11.19,14.764c0.819,0 1.484,-0.665 1.484,-1.484c0,-0.819 -0.665,-1.484 -1.484,-1.484c-0.819,0 -1.484,0.665 -1.484,1.484c0,0.819 0.665,1.484 1.484,1.484" style="fill:#000;fill-rule:nonzero;"/><path d="M19.103,14.764c0.819,0 1.483,-0.665 1.483,-1.484c0,-0.819 -0.664,-1.484 -1.483,-1.484c-0.819,0 -1.484,0.665 -1.484,1.484c0,0.819 0.665,1.484 1.484,1.484" style="fill:#000;fill-rule:nonzero;"/><path d="M15.146,24.964c-0.412,-0.003 -0.823,-0.023 -1.232,-0.072c-0.815,-0.098 -1.617,-0.301 -2.374,-0.619c-0.832,-0.349 -1.602,-0.835 -2.28,-1.429c-0.794,-0.696 -1.46,-1.533 -1.988,-2.446c-0.189,-0.328 -0.361,-0.666 -0.514,-1.012c-0.132,-0.298 -0.25,-0.602 -0.345,-0.914l-0.008,-0.026c-0.007,-0.038 -0.012,-0.047 -0.011,-0.086c0.001,-0.102 0.056,-0.199 0.143,-0.252c0.033,-0.021 0.043,-0.022 0.079,-0.034l0.955,-0.257c0.037,-0.007 0.046,-0.011 0.084,-0.01c0.086,0.001 0.168,0.041 0.223,0.106c0.025,0.029 0.027,0.039 0.045,0.072c0.039,0.108 0.069,0.219 0.106,0.327c0.187,0.523 0.428,1.026 0.716,1.501c0.469,0.776 1.065,1.478 1.776,2.043c0.396,0.314 0.826,0.584 1.282,0.803c1.04,0.5 2.193,0.716 3.343,0.716c1.213,0 2.429,-0.242 3.509,-0.804c0.594,-0.308 1.139,-0.707 1.617,-1.175c0.541,-0.531 0.997,-1.146 1.363,-1.809c0.162,-0.292 0.306,-0.595 0.432,-0.905c0.085,-0.212 0.164,-0.429 0.224,-0.65l0.014,-0.04c0.017,-0.033 0.02,-0.043 0.044,-0.072c0.054,-0.066 0.136,-0.106 0.222,-0.109c0.038,-0.001 0.047,0.003 0.084,0.01l0.958,0.247c0.036,0.013 0.046,0.014 0.079,0.034c0.088,0.052 0.143,0.149 0.145,0.251c0.001,0.038 -0.007,0.074 -0.017,0.111c-0.028,0.094 -0.058,0.187 -0.089,0.281c-0.217,0.622 -0.498,1.221 -0.833,1.789c-0.618,1.049 -1.422,1.993 -2.397,2.727c-0.574,0.433 -1.204,0.79 -1.87,1.06c-0.63,0.254 -1.29,0.43 -1.962,0.531c-0.347,0.053 -0.697,0.084 -1.047,0.102c-0.159,0.006 -0.317,0.009 -0.476,0.01Z" style="fill:#000;"/></svg>