<?xml version="1.0" standalone="no"?><!DOCTYPE svg PUBLIC "-//W3C//DTD SVG 1.1//EN" "http://www.w3.org/Graphics/SVG/1.1/DTD/svg11.dtd"><svg width="100%" height="100%" viewBox="0 0 30 32" version="1.1" xmlns="http://www.w3.org/2000/svg" xmlns:xlink="http://www.w3.org/1999/xlink" xml:space="preserve" style="fill-rule:evenodd;clip-rule:evenodd;stroke-linejoin:round;stroke-miterlimit:1.41421;"><path d="M28.6,16c0,-7.51 -6.09,-13.6 -13.6,-13.6c-7.51,0 -13.6,6.09 -13.6,13.6c0,7.51 6.09,13.6 13.6,13.6c7.51,0 13.6,-6.09 13.6,-13.6ZM3,16c0,-6.627 5.373,-12 12,-12c6.627,0 12,5.373 12,12c0,6.627 -5.373,12 -12,12c-6.627,0 -12,-5.373 -12,-12Z" style="fill:#000;fill-rule:nonzero;"/><path d="M11.19,14.764c0.819,0 1.484,-0.665 1.484,-1.484c0,-0.819 -0.665,-1.484 -1.484,-1.484c-0.819,0 -1.484,0.665 -1.484,1.484c0,0.819 0.665,1.484 1.484,1.484" style="fill:#000;fill-rule:nonzero;"/><path d="M19.103,14.764c0.819,0 1.483,-0.665 1.483,-1.484c0,-0.819 -0.664,-1.484 -1.483,-1.484c-0.819,0 -1.484,0.665 -1.484,1.484c0,0.819 0.665,1.484 1.484,1.484" style="fill:#000;fill-rule:nonzero;"/><path d="M8.838,23.404l-0.275,-0.001l0,0c0,0 -0.275,-0.002 -0.275,-0.002c0,-0.105 0.003,-0.21 0.007,-0.315c0.025,-0.435 0.092,-0.867 0.235,-1.28c0.076,-0.218 0.171,-0.428 0.287,-0.627c0.078,-0.136 0.167,-0.267 0.263,-0.392c0.58,-0.755 1.429,-1.25 2.3,-1.602c0.146,-0.059 0.294,-0.114 0.444,-0.166c0.2,-0.07 0.402,-0.134 0.606,-0.194c0.267,-0.077 0.536,-0.147 0.806,-0.209c0.35,-0.082 0.702,-0.152 1.055,-0.215c0.453,-0.08 0.909,-0.147 1.365,-0.204c0.583,-0.073 1.168,-0.131 1.753,-0.177c0.824,-0.066 1.65,-0.11 2.476,-0.14c1.05,-0.038 2.101,-0.052 3.152,-0.053l0.039,0.002c0.034,0.008 0.043,0.008 0.075,0.022c0.072,0.033 0.128,0.097 0.15,0.173c0.01,0.034 0.009,0.043 0.011,0.078l0,0.989c-0.002,0.034 -0.001,0.044 -0.011,0.077c-0.022,0.076 -0.078,0.14 -0.149,0.173c-0.032,0.014 -0.041,0.015 -0.075,0.022c-0.118,0.009 -0.235,0.003 -0.353,0.003c-0.102,0.001 -0.205,0.001 -0.307,0.002c-0.299,0.002 -0.597,0.006 -0.895,0.01c-0.81,0.015 -1.62,0.038 -2.429,0.079c-0.692,0.036 -1.383,0.083 -2.072,0.147c-0.522,0.049 -1.043,0.108 -1.562,0.18c-0.391,0.055 -0.781,0.118 -1.168,0.192c-0.289,0.055 -0.577,0.116 -0.863,0.185c-0.25,0.061 -0.498,0.128 -0.744,0.203c-0.18,0.055 -0.359,0.114 -0.535,0.18c-0.157,0.057 -0.311,0.119 -0.463,0.187c-0.109,0.049 -0.216,0.1 -0.322,0.155c-0.54,0.281 -1.068,0.668 -1.332,1.234c-0.098,0.21 -0.154,0.436 -0.181,0.666c-0.023,0.205 -0.024,0.411 -0.024,0.617l-0.275,0c0,0 -0.714,0 -0.714,0l0,0.001Z" style="fill:#000;"/></svg>