<svg xmlns="http://www.w3.org/2000/svg" width="32" height="32" viewBox="0 0 32 32"><path d="M25.995 19.068H24.67c-.214.78-.522 1.518-.917 2.203l1.224 1.224c.783.783.783 2.053 0 2.836l-.71.71c-.782.782-2.052.782-2.835 0L20.2 24.807c-.683.39-1.42.692-2.194.903v1.285C18.006 28.102 17.11 29 16 29h-1c-1.108 0-2.007-.897-2.007-2.005V25.71c-.774-.21-1.51-.514-2.194-.902l-1.232 1.23c-.782.784-2.052.784-2.835 0l-.71-.708c-.783-.783-.783-2.053 0-2.836l1.224-1.223c-.395-.685-.703-1.423-.92-2.202H5.006C3.897 19.068 3 18.17 3 17.064V16.06c0-1.106.897-2.004 2.005-2.004h1.308c.207-.77.503-1.505.887-2.186l-1.177-1.176c-.783-.783-.783-2.053 0-2.836l.71-.708c.782-.783 2.052-.783 2.834 0l1.153 1.153c.706-.41 1.468-.73 2.272-.95V6.005C12.992 4.897 13.892 4 15 4h1c1.108 0 2.006.897 2.006 2.005v1.347c.806.22 1.567.54 2.272.95L21.43 7.15c.784-.783 2.054-.783 2.837 0l.71.708c.782.783.782 2.053 0 2.836L23.8 11.87c.384.68.68 1.415.888 2.187h1.308c1.107 0 2.005.898 2.005 2.005v1.003c0 1.106-.897 2.003-2.005 2.003zM15.5 11.08c-3.045 0-5.514 2.47-5.514 5.514s2.47 5.514 5.514 5.514 5.514-2.47 5.514-5.514-2.47-5.514-5.514-5.514zm0 7.957c-1.384 0-2.507-1.12-2.507-2.506 0-1.383 1.123-2.505 2.507-2.505s2.506 1.122 2.506 2.506c0 1.386-1.122 2.507-2.506 2.507z"/></svg>