<svg xmlns="http://www.w3.org/2000/svg" width="32" height="32" viewBox="0 0 32 32"><path d="M16.9 1.606c.45 0 .834.334.893.78l.53 3.996c1.017.244 1.97.643 2.837 1.173l3.2-2.447c.16-.125.355-.186.546-.186.23 0 .46.09.636.263l1.27 1.274c.322.317.356.82.08 1.18l-2.447 3.202c.53.866.928 1.818 1.173 2.834l3.995.533c.448.058.78.44.78.89v1.8c0 .45-.332.832-.78.892l-3.995.533c-.244 1.015-.643 1.968-1.173 2.834l2.447 3.2c.276.36.243.864-.08 1.182l-1.27 1.274c-.175.174-.405.265-.636.265-.19 0-.386-.062-.546-.187l-3.2-2.445c-.866.53-1.82.927-2.837 1.17l-.53 3.996c-.06.447-.442.78-.893.78h-1.8c-.45 0-.83-.333-.89-.78l-.532-3.995c-1.017-.245-1.97-.642-2.837-1.172l-3.2 2.445c-.16.125-.354.185-.545.185-.23 0-.46-.088-.633-.262l-1.276-1.274c-.32-.318-.353-.823-.077-1.18l2.446-3.203c-.53-.867-.928-1.82-1.173-2.835l-3.995-.533c-.445-.06-.78-.44-.78-.892v-1.8c0-.45.335-.83.78-.89l3.995-.534c.244-1.015.643-1.968 1.173-2.834L5.11 7.64c-.277-.358-.244-.863.076-1.18l1.276-1.275c.172-.173.403-.263.633-.263.19 0 .386.06.546.186l3.2 2.447c.867-.53 1.82-.928 2.838-1.173l.533-3.995c.06-.447.44-.78.89-.78h1.8zM16.9 0h-1.8c-1.25 0-2.315.935-2.483 2.174l-.395 2.962c-.42.146-.834.316-1.234.51L8.615 3.833c-.422-.33-.967-.516-1.52-.516-.663 0-1.31.27-1.776.74L4.05 5.323c-.888.882-.982 2.3-.217 3.296l1.812 2.37c-.194.4-.365.81-.51 1.23l-2.962.396C.935 12.78 0 13.848 0 15.1v1.8c0 1.25.935 2.32 2.177 2.483l2.96.395c.145.42.315.832.51 1.232l-1.815 2.373c-.76.99-.667 2.41.22 3.295l1.274 1.272c.458.464 1.105.733 1.77.733.556 0 1.103-.188 1.536-.527l2.357-1.8c.4.193.812.364 1.233.508l.395 2.96c.167 1.24 1.234 2.176 2.484 2.176h1.8c1.25 0 2.32-.935 2.484-2.175l.394-2.96c.422-.146.834-.316 1.234-.51l2.373 1.812c.42.33.965.52 1.52.52.666 0 1.293-.26 1.768-.732l1.277-1.28c.885-.883.978-2.3.215-3.295l-1.812-2.37c.194-.4.365-.81.51-1.23l2.962-.396c1.24-.164 2.175-1.23 2.175-2.484v-1.8c0-1.252-.937-2.32-2.18-2.483l-2.956-.395c-.146-.42-.316-.832-.51-1.232l1.814-2.373c.76-.993.668-2.41-.222-3.296L26.68 4.053c-.48-.477-1.107-.736-1.772-.736-.554 0-1.1.186-1.533.524l-2.36 1.807c-.4-.194-.812-.365-1.235-.51l-.394-2.962C19.22.935 18.152 0 16.9 0z"/><path d="M10.105 16c0 3.256 2.64 5.895 5.895 5.895s5.895-2.64 5.895-5.895c0-3.256-2.64-5.895-5.895-5.895s-5.895 2.64-5.895 5.895zm10.106 0c0 2.325-1.884 4.21-4.21 4.21s-4.21-1.884-4.21-4.21c0-2.325 1.884-4.21 4.21-4.21s4.21 1.884 4.21 4.21z"/></svg>