<svg xmlns="http://www.w3.org/2000/svg" width="32" height="32" viewBox="0 0 32 32"><path d="M25.995 19.068H24.67c-.214.78-.522 1.518-.917 2.203l1.224 1.23c.783.784.783 2.054 0 2.837l-.71.71c-.782.783-2.052.783-2.835 0l-1.232-1.24c-.683.39-1.42.693-2.194.904V27c0 1.102-.896 2-2.006 2h-1c-1.108 0-2.007-.897-2.007-2.005V25.71c-.774-.21-1.51-.514-2.194-.902l-1.24 1.23c-.78.784-2.05.784-2.834 0l-.71-.708c-.783-.783-.783-2.053 0-2.836L7.24 21.27c-.394-.68-.702-1.42-.92-2.2H5c-1.11 0-2.003-.9-2.003-2.003V16.06c0-1.106.897-2.004 2.005-2.004H6.31c.208-.77.504-1.505.888-2.186L6.02 10.694c-.782-.783-.782-2.053 0-2.836l.71-.708c.783-.783 2.053-.783 2.835 0l1.153 1.153c.706-.41 1.468-.73 2.272-.95V6.005C12.992 4.897 13.892 4 15 4h1c1.108 0 2.006.897 2.006 2.005v1.347c.806.22 1.567.54 2.272.95L21.43 7.15c.784-.783 2.054-.783 2.837 0l.71.708c.782.783.782 2.053 0 2.836L23.8 11.87c.384.68.68 1.415.888 2.187h1.308c1.107 0 2.005.898 2.005 2.005v1.003c0 1.106-.89 2.003-2 2.003zM15.5 11.08c-3.045 0-5.514 2.47-5.514 5.514s2.47 5.514 5.514 5.514 5.514-2.47 5.514-5.514-2.47-5.514-5.514-5.514zm0 7.957c-1.384 0-2.507-1.12-2.507-2.506 0-1.38 1.123-2.5 2.507-2.5s2.506 1.12 2.506 2.508c0 1.386-1.122 2.507-2.506 2.507z"/></svg>