<svg xmlns="http://www.w3.org/2000/svg" width="32" height="32" viewBox="0 0 32 32"><path d="M30 15.125v1.75c0 .44-.325.81-.76.867l-3.886.518c-.237.988-.624 1.916-1.14 2.757l2.38 3.113c.266.35.233.84-.077 1.15l-1.238 1.238c-.17.17-.394.258-.62.258-.186 0-.373-.06-.53-.182l-3.114-2.38c-.842.518-1.77.903-2.757 1.14l-.52 3.886c-.057.434-.427.76-.866.76h-1.75c-.44 0-.81-.325-.867-.76l-.518-3.886c-.988-.237-1.917-.623-2.758-1.14l-3.113 2.38c-.16.122-.346.18-.533.18-.225 0-.45-.086-.618-.256L5.48 25.28c-.31-.31-.342-.8-.075-1.15l2.38-3.113c-.516-.842-.904-1.77-1.14-2.757l-3.887-.518c-.434-.058-.76-.428-.76-.867v-1.75c0-.44.326-.81.76-.867l3.886-.518c.237-.987.624-1.916 1.14-2.757L5.405 7.87c-.266-.35-.233-.84.077-1.15l1.24-1.238c.168-.17.392-.257.617-.257.187 0 .374.06.532.18l3.112 2.38c.84-.515 1.77-.9 2.757-1.14l.517-3.886c.058-.435.428-.76.867-.76h1.75c.44 0 .81.324.867.76l.52 3.885c.986.238 1.915.624 2.756 1.14l3.113-2.38c.157-.12.344-.18.53-.18.226 0 .45.087.62.257l1.237 1.238c.31.31.343.8.076 1.15l-2.38 3.113c.516.842.904 1.77 1.14 2.757l3.887.518c.434.058.76.428.76.867zM16 21.25c2.9 0 5.25-2.35 5.25-5.25S18.9 10.75 16 10.75 10.75 13.1 10.75 16s2.35 5.25 5.25 5.25z"/></svg>