<svg xmlns="http://www.w3.org/2000/svg" width="29" height="32" viewBox="0 0 29 32"><path d="M28.312 16.28c0-8.106-6.338-14.68-14.156-14.68S0 8.173 0 16.28c0 8.02 6.2 14.53 13.9 14.674.07.026.112.038.117.04l.01-.036c.043 0 .086.003.13.003h.357l.012.04.14-.046c7.582-.28 13.647-6.737 13.647-14.667 0 0 0 7.93 0 0zm-27.27.567h4.53c.06 2.58.502 4.71 1.16 6.464-2.04-.32-3.59-.68-4.267-.85-.838-1.69-1.343-3.6-1.423-5.61 0 0 .08 2.018 0 0zm1.388-6.523c.028-.01 1.65-.51 4.257-.947-.633 1.718-1.066 3.83-1.117 6.403H1.04c.07-1.988.552-3.87 1.36-5.553l.03.097zm24.842 5.456h-4.3c-.05-2.553-.478-4.663-1.123-6.4 1.94.315 3.39.663 4.05.836.81 1.686 1.295 3.57 1.365 5.564 0 0-.07-1.993 0 0zm-5.33 0h-7.19V8.75c2.182.03 4.21.22 5.944.46.708 1.718 1.193 3.876 1.246 6.57 0 0-.053-2.694 0 0zm-7.19-8.096V2.936c1.14.466 3.674 1.826 5.412 5.128-1.618-.202-3.456-.355-5.41-.38 0 0 1.954.026 0 0zm-1.028.003c-1.96.02-3.767.163-5.337.36 1.705-3.228 4.172-4.594 5.337-5.084v4.724zm0 1.063v7.03H6.6c.052-2.7.54-4.86 1.25-6.58 1.688-.24 3.686-.426 5.874-.45 0 0-2.188.024 0 0zM6.6 16.847h7.124v7.096c-2.066-.028-4.066-.218-5.81-.458-.736-1.74-1.248-3.92-1.313-6.638 0 0 .07 2.718 0 0zm7.124 8.163v4.732c-1.098-.493-3.543-1.897-5.265-5.11 1.61.202 3.41.354 5.26.378 0 0-1.85-.024 0 0zm1.03 0c1.928-.025 3.763-.19 5.377-.407-1.75 3.342-4.29 4.72-5.37 5.175V25.01zm0-1.067v-7.096h7.187c-.06 2.706-.55 4.874-1.27 6.605-1.72.255-3.76.462-5.91.49 0 0 2.154-.028 0 0zm8.214-7.096h4.3c-.077 1.982-.567 3.855-1.38 5.532-.25.07-1.79.49-4.058.88.637-1.726 1.078-3.845 1.138-6.42 0 0-.06 2.575 0 0zM25.21 8.95c-.912-.21-2.234-.482-3.84-.72-1.238-2.64-2.97-4.27-4.393-5.244 3.445.786 6.385 2.978 8.233 5.965 0 0-1.848-2.98 0 0zM11.617 2.926c-.57.38-1.193.868-1.816 1.49-.88.88-1.84 2.12-2.62 3.803-1.844.28-3.272.61-4.13.83 1.89-3.12 4.97-5.39 8.575-6.13 0 0-3.604.736 0 0zM3.17 23.718c.955.212 2.366.496 4.047.745 1.194 2.53 2.826 4.14 4.194 5.13-3.43-.762-6.37-2.92-8.24-5.874 0 0 1.87 2.95 0 0zm14.13 5.78c.477-.356.982-.784 1.488-1.303.86-.883 1.794-2.114 2.562-3.77 1.644-.262 2.976-.556 3.827-.763-1.792 2.867-4.592 4.993-7.877 5.834z"/></svg>