<svg xmlns="http://www.w3.org/2000/svg" width="32" height="32" viewBox="0 0 32 32"><path d="M15.817 20.677h-.073c-1.21 0-2.114.88-2.15 2.09-.035 1.234.848 2.157 2.1 2.193h.08c1.24 0 2.13-.848 2.166-2.064.036-1.27-.837-2.18-2.123-2.22zm4.34-12.4c-1.137-.82-2.58-1.235-4.292-1.235-1.307 0-2.426.294-3.327.873-1.433.91-2.206 2.47-2.297 4.636v.16h3.537v-.146c0-.59.176-1.164.52-1.712.336-.532.897-.792 1.716-.792.825 0 1.396.215 1.697.638.31.44.47.933.47 1.465 0 .385-.16.776-.52 1.27-.154.226-.36.437-.606.62-.073.048-1.783 1.15-2.56 2.06-.493.58-.523 1.28-.564 2.475l-.01.29h3.43v-.144c.008-.567.05-.64.14-.92.11-.355.41-.715.9-1.1l.9-.62c.815-.634 1.462-1.154 1.757-1.572.566-.774.852-1.627.852-2.535 0-1.623-.587-2.867-1.74-3.698z"/><path d="M30.734 15.804c-.11-8.126-6.788-14.63-14.915-14.52C7.69 1.39 1.19 8.07 1.29 16.2c.11 8.126 6.787 14.63 14.916 14.52 8.13-.11 14.63-6.788 14.522-14.917zM16.17 27.684C9.72 27.77 4.42 22.608 4.334 16.16 4.247 9.706 9.407 4.405 15.86 4.32c6.45-.086 11.75 5.075 11.837 11.525.086 6.452-5.075 11.753-11.526 11.84z"/></svg>