<svg xmlns="http://www.w3.org/2000/svg" width="32" height="32" viewBox="0 0 32 32"><path d="M15.817 20.677h-.073c-1.21 0-2.114.88-2.15 2.09-.035 1.234.848 2.157 2.1 2.193h.08c1.24 0 2.13-.848 2.166-2.064.036-1.27-.837-2.18-2.123-2.22zM20.157 8.278c-1.137-.82-2.58-1.236-4.292-1.236-1.307 0-2.426.294-3.327.873-1.433.91-2.206 2.47-2.297 4.636l-.006.153h3.536v-.146c0-.588.175-1.164.52-1.712.335-.533.896-.793 1.715-.793.825 0 1.396.215 1.697.638.312.44.47.932.47 1.464 0 .384-.16.775-.518 1.27-.154.225-.36.436-.606.62-.073.047-1.783 1.15-2.56 2.06-.493.58-.523 1.28-.564 2.474l-.01.29h3.43l.002-.145c.007-.568.05-.642.138-.92.112-.356.41-.716.902-1.1l.898-.62c.816-.635 1.463-1.155 1.758-1.573.566-.775.852-1.628.852-2.536 0-1.623-.584-2.867-1.736-3.698z"/><path d="M30.734 15.804c-.11-8.126-6.788-14.63-14.915-14.52C7.69 1.39 1.19 8.07 1.296 16.2c.11 8.126 6.787 14.63 14.916 14.52 8.128-.11 14.63-6.788 14.522-14.917zM16.17 27.684C9.72 27.77 4.42 22.608 4.334 16.16 4.247 9.706 9.407 4.405 15.86 4.32c6.45-.086 11.75 5.075 11.837 11.525.086 6.452-5.075 11.753-11.526 11.84z"/></svg>