<svg xmlns="http://www.w3.org/2000/svg" width="27" height="32" viewBox="0 0 27 32"><path d="M3.2 28.8H24v1.6H3.2v-1.6zM8 27.178h11.2c-.206-2.68-2.62-4.8-5.6-4.8s-5.394 2.12-5.6 4.8z"/><path d="M16.078 13.82c-.682.203-1.723.67-1.72 1.38.002.515.562.84 1.125 1.133.208.11.417.193.6.248 3.13.94 4.717 3.82 4.717 8.58v3.64H6.4v-3.64c0-4.752 1.59-7.64 4.723-8.57.675-.2 1.62-.672 1.626-1.38 0-.71-.94-1.17-1.62-1.374-3.14-.93-4.73-3.813-4.73-8.575V1.6h14.4v3.647c0 4.758-1.59 7.643-4.73 8.574zM22.4 1.6H4.8v2.046c0 3.815.977 8.306 2.93 10.084.813.74 1.464 1.076 2.48 1.464-3.607 1.3-5.41 6.378-5.41 11.56V28.8h17.6v-2.05c0-5.394-1.474-10.394-5.382-11.56 3.59-1.3 5.382-6.374 5.382-11.543V1.6zM3.2 0H24v1.6H3.2V0z"/><path d="M9.6 8c.784 2.374 2.272 4 4 4s3.216-1.626 4-4h-8z"/></svg>