<svg xmlns="http://www.w3.org/2000/svg" width="32" height="32" viewBox="0 0 32 32"><path d="M16.722 21.863c-.456-.432-.988-.764-1.57-.97l-1.217-4.744 14.506-4.06L30 18.14l-13.275 3.72zM12.104 9.02l9.67-2.706 1.556 6.058-9.67 2.705-1.556-6.058zm.434 11.78c-.27.077-.52.185-.765.304L7.51 4.49H5.904c-.16.35-.498.597-.896.597H3.006c-.553 0-1-.47-1-1.046S2.453 3 3.006 3H5.01c.335 0 .617.184.8.447h3.08v.05l.045-.013 4.41 17.184c-.27.025-.538.064-.807.138zm.26 1.01c1.868-.522 3.79.636 4.29 2.59.5 1.95-.608 3.956-2.478 4.48-1.87.52-3.79-.638-4.29-2.59s.608-3.956 2.477-4.48zm-.528 4.004c.214.836 1.038 1.332 1.84 1.107s1.275-1.08 1.06-1.92c-.213-.83-1.037-1.33-1.838-1.1-.802.224-1.277 1.084-1.062 1.92zm17.6-4.113l-11.684 3.27c-.02-.28-.06-.56-.132-.84-.07-.28-.174-.54-.29-.8l11.624-3.25.482 1.628z"/></svg>