<svg xmlns="http://www.w3.org/2000/svg" width="32" height="32" viewBox="0 0 32 32"><path d="M28.24 3.53H9.914c-2.322 0-4.256 1.882-4.256 4.204v11.234h-.94c-2.585 0-4.685 2.137-4.685 4.72s2.1 4.718 4.684 4.718h16.91c2.58 0 4.593-2.113 4.593-4.697V8.12h4.855c.5 0 .903-.38.903-.878 0-2.063-1.678-3.716-3.738-3.716zM17.93 26.595H4.713c-1.587 0-2.875-1.32-2.875-2.906s1.29-2.91 2.875-2.91h13.22c-.62.81-.992 1.82-.992 2.9s.38 2.12.99 2.9zm6.476-19.33v16.45c0 1.586-1.244 2.874-2.828 2.874s-2.853-1.29-2.853-2.88c0-1.59 1.303-2.88 2.887-2.88.5 0 .91-.44.91-.93s-.398-.94-.898-.94H7.468V7.73c0-1.322 1.116-2.39 2.444-2.39H25.04c-.34.596-.634 1.21-.634 1.92zm2.128-.92c.325-.625.97-1.028 1.706-1.028s1.38.403 1.706 1.028h-3.413z"/><path d="M18.32 15.656h-7.935c-.26 0-.472.194-.472.453s.213.45.472.45h7.934c.25 0 .47-.19.47-.46s-.21-.46-.47-.46zm2.833-3.812h-10.77c-.258 0-.47.24-.47.5s.212.5.47.5h10.77c.26 0 .472-.24.472-.5s-.212-.5-.472-.5zM10.383 9.03h6.045c.26 0 .472-.193.472-.452s-.212-.453-.472-.453h-6.044c-.26 0-.472.194-.472.453s.21.453.472.453z"/></svg>