<svg xmlns="http://www.w3.org/2000/svg" width="32" height="32" viewBox="0 0 32 32"><path d="M28.24 3.53H9.914c-2.322 0-4.256 1.882-4.256 4.204v11.234h-.94c-2.585 0-4.685 2.137-4.685 4.72s2.1 4.718 4.684 4.718h16.91c2.58 0 4.593-2.113 4.593-4.697V8.124h4.855c.5 0 .903-.38.903-.878 0-2.063-1.678-3.716-3.738-3.716zM17.93 26.595H4.713c-1.587 0-2.875-1.32-2.875-2.906s1.29-2.906 2.875-2.906h13.22c-.62.813-.992 1.822-.992 2.906s.372 2.125.99 2.906zm6.476-19.33v16.45c0 1.586-1.244 2.874-2.828 2.874s-2.853-1.29-2.853-2.875c0-1.587 1.303-2.875 2.887-2.875.5 0 .91-.434.91-.93s-.398-.94-.898-.94H7.468V7.736c0-1.325 1.116-2.39 2.444-2.39H25.04c-.34.593-.634 1.212-.634 1.918zm2.128-.92c.325-.625.97-1.028 1.706-1.028s1.38.403 1.706 1.028h-3.413z"/><path d="M18.32 15.656h-7.935c-.26 0-.472.194-.472.453s.213.452.472.452h7.934c.258 0 .47-.19.47-.453s-.21-.454-.47-.454zM21.153 11.844h-10.77c-.258 0-.47.24-.47.5s.212.5.47.5h10.77c.26 0 .472-.24.472-.5s-.212-.5-.472-.5zM10.384 9.03h6.044c.26 0 .472-.193.472-.452s-.212-.453-.472-.453h-6.044c-.26 0-.472.194-.472.453s.21.453.472.453z"/></svg>