<svg xmlns="http://www.w3.org/2000/svg" width="32" height="32" viewBox="0 0 32 32"><path d="M28.694 6.842L17.584.43c-.98-.566-2.187-.566-3.168 0L3.306 6.842c-.98.566-1.583 1.613-1.583 2.744v12.828c0 1.13.603 2.178 1.584 2.744l11.11 6.413c.98.567 2.187.567 3.168 0l11.11-6.412c.98-.566 1.583-1.612 1.583-2.744V9.586c0-1.13-.603-2.178-1.584-2.744zm-1.09 15.288c0 .35-.19.68-.493.854l-10.616 6.128c-.305.175-.682.175-.987 0L4.89 22.984c-.305-.175-.493-.5-.493-.854V9.87c0-.35.19-.678.493-.853l10.617-6.13c.305-.176.682-.176.987 0l10.617 6.13c.306.175.494.5.494.854z"/><path d="M6.773 11.017H9.37l2.492 4.474 2.445-4.473h2.614l.478 10.255h-2.752l-.246-6.01-1.8 3.504h-1.49l-2-3.505-.2 6.012H6.298zM21.948 19.243c.43 0 .774-.15 1.03-.446s.384-.676.384-1.138-.128-.842-.384-1.14c-.256-.296-.6-.445-1.03-.445s-.774.15-1.03.446c-.256.298-.384.677-.384 1.14s.128.84.384 1.137c.256.297.6.446 1.03.446zm-3.86-1.584c0-.534.096-1.036.285-1.508s.454-.88.792-1.23c.338-.348.743-.623 1.215-.822s.994-.3 1.568-.3c.574 0 1.097.1 1.568.3s.876.474 1.215.822c.34.35.603.758.793 1.23s.284.974.284 1.507c0 .542-.095 1.047-.284 1.513s-.454.874-.792 1.222c-.337.35-.742.623-1.214.823s-.994.3-1.568.3c-.574 0-1.097-.1-1.568-.3s-.876-.474-1.215-.823c-.338-.348-.602-.756-.792-1.222s-.284-.97-.284-1.514z"/></svg>