<svg xmlns="http://www.w3.org/2000/svg" width="32" height="32" viewBox="0 0 32 32"><path d="M28.694 6.842L17.584.43c-.98-.566-2.187-.566-3.168 0L3.306 6.842c-.98.566-1.583 1.613-1.583 2.744v12.828c0 1.13.603 2.178 1.584 2.744l11.11 6.413c.98.57 2.187.57 3.168 0l11.11-6.41c.98-.56 1.583-1.61 1.583-2.74V9.59c0-1.13-.603-2.18-1.584-2.746zm-1.09 15.288c0 .35-.19.68-.493.854L16.5 29.112c-.305.175-.682.175-.987 0L4.89 22.984c-.305-.175-.493-.5-.493-.854V9.87c0-.35.19-.678.493-.853l10.617-6.13c.305-.176.682-.176.987 0l10.617 6.13c.31.175.5.5.5.854z"/><path d="M6.773 11.017H9.37l2.492 4.474 2.445-4.47h2.614l.48 10.26h-2.75l-.24-6.01-1.8 3.51h-1.49l-2-3.503-.2 6.01H6.3zm15.175 8.226c.43 0 .774-.15 1.03-.446s.384-.676.384-1.138-.128-.85-.384-1.14c-.256-.3-.6-.45-1.03-.45s-.774.15-1.03.44c-.256.292-.384.67-.384 1.14s.128.84.384 1.13c.256.298.6.447 1.03.447zm-3.86-1.584c0-.54.096-1.04.285-1.51s.454-.88.792-1.23.743-.63 1.215-.82.994-.3 1.568-.3c.574 0 1.097.1 1.568.3s.876.47 1.215.82c.34.35.61.76.8 1.23s.29.97.29 1.5c0 .54-.092 1.04-.28 1.51s-.455.87-.793 1.22c-.336.35-.74.62-1.213.82s-.996.3-1.57.3c-.574 0-1.097-.1-1.57-.3s-.875-.475-1.214-.824c-.34-.35-.603-.757-.793-1.223s-.283-.97-.283-1.51z"/></svg>