<svg xmlns="http://www.w3.org/2000/svg" width="32" height="32" viewBox="0 0 32 32"><path d="M17.16 26.882c-.513 0-.953-.335-1.062-.8L12.054 9.048l-2.428 8.22c-.126.454-.557.77-1.054.77H4.017c-.6 0-1.088-.455-1.088-1.017 0-.565.487-1.02 1.087-1.02H7.73l3.345-11.584c.126-.456.566-.785 1.072-.766.504.006.935.336 1.045.803l3.91 16.474 2-9.367c.088-.428.465-.754.928-.81.465-.055.91.175 1.115.57l2.4 4.663h4.428c.6 0 1.088.455 1.088 1.016s-.487 1.014-1.087 1.014H22.86c-.415 0-.797-.222-.977-.575l-1.286-2.494-2.37 11.117c-.1.468-.54.815-1.058.82h-.01z"/></svg>