<svg xmlns="http://www.w3.org/2000/svg" width="32" height="32" viewBox="0 0 32 32"><path d="M17.16 26.882c-.513 0-.953-.335-1.062-.8L12.054 9.048l-2.428 8.22c-.126.454-.557.77-1.054.77H4.017c-.6 0-1.088-.455-1.088-1.017 0-.56.48-1.02 1.08-1.02h3.72l3.344-11.58c.126-.452.566-.78 1.072-.762.504.007.935.337 1.045.804l3.91 16.474 2-9.367c.09-.428.466-.754.93-.81.464-.055.91.175 1.114.57l2.4 4.663h4.428c.6 0 1.088.455 1.088 1.016s-.48 1.013-1.08 1.013h-5.12c-.415 0-.797-.225-.977-.578l-1.286-2.495-2.37 11.116c-.1.468-.54.815-1.058.82h-.01z"/></svg>