<svg xmlns="http://www.w3.org/2000/svg" width="32" height="32" viewBox="0 0 32 32"><path d="M17.16 26.882c-.513 0-.953-.335-1.062-.8L12.054 9.048l-2.428 8.22c-.126.454-.557.77-1.054.77H4.017c-.6 0-1.088-.455-1.088-1.017 0-.56.48-1.02 1.08-1.02h3.72l3.34-11.58c.12-.45.56-.78 1.07-.76.5.01.93.34 1.04.81l3.91 16.474 2-9.367c.09-.426.466-.752.93-.81.464-.053.91.177 1.114.57l2.4 4.665h4.427c.6 0 1.09.456 1.09 1.017s-.48 1.012-1.08 1.012h-5.12c-.415 0-.797-.226-.977-.58l-1.287-2.495-2.37 11.114c-.1.467-.54.814-1.06.82h-.01z"/></svg>