<svg xmlns="http://www.w3.org/2000/svg" width="32" height="32" viewBox="0 0 32 32"><path d="M27.806 8.024h-.37L27.1 6.272c-.22-1.144-1.336-1.9-2.48-1.68L6.792 8.024H4.19c-.693 0-1.313.326-1.715.83l-.27.053c-1.144.22-1.9 1.337-1.68 2.48l1.472 7.645v6.776c0 1.205.986 2.192 2.192 2.192H27.8c1.206 0 2.192-.987 2.192-2.192V10.216c0-1.205-.986-2.192-2.192-2.192zM25.96 20.012H16c-.55 0-.995-.445-.995-.994s.445-.994.994-.994h9.96c.54 0 .99.445.99.994s-.45.994-.998.994zm2.04 5.56c0 .244-.208.452-.453.452H4.453c-.245 0-.453-.207-.453-.452v-9.548h24v9.548zm0-13.548H4v-1.548c0-.244.208-.452.453-.452h23.094c.245 0 .453.207.453.452v1.548z"/></svg>