<svg xmlns="http://www.w3.org/2000/svg" width="32" height="32" viewBox="0 0 32 32"><path d="M16 3C8.82 3 3 8.82 3 16s5.82 13 13 13 13-5.82 13-13S23.18 3 16 3zm0 23c-5.522 0-10-4.478-10-10 0-5.523 4.478-10 10-10 5.523 0 10 4.477 10 10 0 5.522-4.477 10-10 10z"/><path d="M22.297 17.176c0 .206-.17.375-.375.375h-3.996c-.206 0-.375.17-.375.376v3.996c0 .206-.168.375-.374.375h-2.414c-.206 0-.375-.17-.375-.375v-3.996c0-.206-.17-.375-.375-.375h-3.996c-.206 0-.375-.168-.375-.374v-2.414c0-.206.17-.375.376-.375h3.996c.206 0 .375-.17.375-.375v-3.996c0-.206.17-.375.375-.375h2.414c.206 0 .375.17.375.376v3.996c0 .206.17.375.376.375h3.996c.206 0 .375.17.375.375v2.414z"/></svg>