<svg xmlns="http://www.w3.org/2000/svg" width="32" height="32" viewBox="0 0 32 32"><path d="M16 3C8.82 3 3 8.82 3 16s5.82 13 13 13 13-5.82 13-13S23.18 3 16 3zm0 23c-5.522 0-10-4.478-10-10 0-5.523 4.478-10 10-10 5.523 0 10 4.477 10 10 0 5.522-4.477 10-10 10z"/><path d="M22.297 17.176c0 .206-.17.375-.375.375h-3.996c-.206 0-.375.17-.375.38v4c0 .21-.16.38-.37.38h-2.41c-.2 0-.37-.17-.37-.372v-4c0-.206-.17-.375-.37-.375h-4c-.207 0-.376-.17-.376-.374v-2.42c0-.207.17-.376.376-.376h3.994c.206 0 .375-.17.375-.38v-4c0-.206.17-.375.37-.375h2.41c.208 0 .377.17.377.37v3.995c0 .206.17.375.377.375h3.99c.21 0 .38.17.38.375v2.415z"/></svg>