<svg xmlns="http://www.w3.org/2000/svg" width="32" height="32" viewBox="0 0 32 32"><path d="M15.97 3C8.806 3 3 8.807 3 15.97s5.807 12.968 12.97 12.968 12.968-5.807 12.968-12.97S23.13 3 15.968 3zm7.62 14.538c0 .185-.15.337-.336.337H18.21c-.184 0-.336.15-.336.337v5.043c0 .185-.15.337-.337.337H14.4c-.186 0-.338-.15-.338-.337v-5.043c0-.185-.15-.337-.337-.337H8.682c-.185 0-.336-.15-.336-.337V14.4c0-.185.15-.337.337-.337h5.043c.185 0 .336-.15.336-.337V8.683c0-.185.15-.336.337-.336h3.13c.185 0 .337.15.337.337v5.043c0 .185.15.336.337.336h5.043c.187 0 .34.15.34.337v3.138z"/></svg>