<svg xmlns="http://www.w3.org/2000/svg" width="32" height="32" viewBox="0 0 32 32"><path d="M16 30c-3.338 0-6.476-1.3-8.837-3.66-2.36-2.36-3.66-5.498-3.66-8.838s1.3-6.478 3.66-8.84c.752-.75 1.967-.75 2.72 0s.75 1.968 0 2.72c-1.635 1.636-2.535 3.81-2.535 6.12s.9 4.486 2.534 6.12 3.805 2.532 6.118 2.532 4.484-.9 6.118-2.532c1.636-1.634 2.534-3.807 2.534-6.12s-.9-4.486-2.534-6.12c-.752-.752-.752-1.967 0-2.72s1.967-.75 2.72 0c2.358 2.364 3.66 5.502 3.66 8.84s-1.302 6.478-3.66 8.84C22.475 28.7 19.337 30 16 30zm0-10.81c-1.063 0-1.923-.862-1.923-1.924V3.902c0-1.06.86-1.923 1.923-1.923s1.923.86 1.923 1.922v13.364c0 1.06-.86 1.923-1.923 1.923z"/></svg>