<svg xmlns="http://www.w3.org/2000/svg" width="32" height="32" viewBox="0 0 32 32"><path d="M16 0c-1.105 0-2 .688-2 1.535v6.993c0 .848.896 1.535 2 1.535s2-.687 2-1.535V1.535C18 .687 17.104 0 16 0zm0 21.923c-1.105 0-2 .688-2 1.535v6.993c0 .85.896 1.54 2 1.54s2-.68 2-1.53v-7c0-.84-.896-1.53-2-1.53zM30.458 14h-6.993c-.848 0-1.535.895-1.535 2s.687 2 1.535 2h6.993c.847 0 1.535-.897 1.535-2s-.688-2-1.535-2zM10.07 16c0-1.104-.687-2-1.535-2H1.542c-.848 0-1.535.896-1.535 2s.687 2 1.535 2h6.993c.848 0 1.535-.896 1.535-2zm12.622-3.87l4.945-4.946c.6-.6.452-1.72-.33-2.5s-1.9-.928-2.5-.328L19.864 9.3c-.6.6-.453 1.72.328 2.5s1.9.93 2.5.33zM9.307 19.858l-4.945 4.945c-.6.6-.453 1.718.328 2.5s1.9.928 2.5.328l4.945-4.94c.6-.6.452-1.72-.33-2.5s-1.9-.92-2.5-.33zm13.36.026c-.6-.6-1.72-.453-2.5.328s-.93 1.9-.33 2.5l4.946 4.945c.6.6 1.72.452 2.5-.328s.927-1.9.328-2.5l-4.94-4.95zM9.28 12.154c.6.6 1.72.453 2.5-.33s.93-1.898.33-2.498L7.163 4.38c-.6-.6-1.718-.452-2.5.33s-.928 1.9-.328 2.5l4.945 4.944z"/></svg>