<svg xmlns="http://www.w3.org/2000/svg" width="32" height="32" viewBox="0 0 32 32"><path d="M16 32h-.002c-.773 0-1.5-.3-2.046-.848L.848 18.048C.3 17.5 0 16.773 0 16c0-.762.31-1.508.848-2.047L13.952.85C14.5.3 15.225 0 15.998 0c.775 0 1.502.302 2.05.85.82.82 1.438 1.643 1.984 2.37.568.756 1.212 1.613 1.564 1.613.09 0 .436-.057 1.167-.788.254-.254.335-.528.47-1.03.16-.6.358-1.35 1.06-2.052C24.934.325 25.764 0 26.77 0c1.242 0 2.59.608 3.607 1.625C31.407 2.657 32 3.973 32 5.237c0 .986-.333 1.84-.962 2.47-.758.757-1.547.956-2.124 1.1-.478.12-.718.19-.96.43-.754.755-.792 1.097-.786 1.184.025.356.868.99 1.612 1.548.727.546 1.55 1.165 2.37 1.985.547.547.848 1.274.848 2.048 0 .172 0 .458-.598 1.493-.367.635-.823 1.306-1.286 1.89-.618.78-1.245 1.41-1.863 1.875-.848.637-1.687.96-2.493.96-.815 0-1.582-.337-2.22-.973-.65-.65-.826-1.348-.966-1.907-.118-.474-.205-.817-.563-1.175-.24-.24-.584-.362-1.022-.362-.714 0-1.523.384-2.164 1.025-.62.622-1.023 1.47-1.023 2.16 0 .587.194.856.362 1.025.313.314.656.405 1.13.53.575.154 1.29.344 1.942.992l.01.01c.986.986 1.232 2.246.692 3.548-.58 1.4-1.98 2.623-3.05 3.404-.518.377-1.083.74-1.592 1.02-.808.45-1.083.487-1.294.487zm0-29.952c-.227 0-.44.088-.6.248L2.296 15.4c-.155.156-.248.38-.248.6 0 .226.088.44.25.6L15.4 29.704c.13.13.296.213.474.24.344-.154 1.257-.664 2.195-1.4 1.15-.904 1.903-1.82 2.067-2.516.066-.28.077-.62-.334-1.034l-.006-.006c-.254-.254-.528-.335-1.03-.47-.6-.16-1.35-.358-2.052-1.06-.638-.64-.962-1.472-.962-2.475 0-1.242.607-2.59 1.624-3.607 1.032-1.032 2.348-1.624 3.612-1.624.985 0 1.838.332 2.468.96.758.76.957 1.55 1.102 2.125.12.478.19.718.43.96.335.334.6.373.77.373.673 0 1.62-.683 2.602-1.872.822-.997 1.415-2.044 1.583-2.423-.026-.18-.11-.344-.24-.474-.716-.716-1.48-1.29-2.152-1.795-1.252-.94-2.334-1.754-2.425-3.04-.082-1.168.75-2.144 1.382-2.776.65-.652 1.348-.828 1.907-.968.474-.12.817-.206 1.175-.564.24-.24.362-.584.362-1.022 0-.714-.383-1.523-1.024-2.164-.622-.622-1.47-1.024-2.16-1.024-.587 0-.856.194-1.025.362-.314.314-.405.657-.53 1.13-.155.58-.346 1.297-1 1.952-.947.946-1.778 1.387-2.615 1.387-.67 0-1.29-.283-1.898-.863-.44-.42-.84-.952-1.304-1.57-.505-.672-1.078-1.434-1.796-2.152-.16-.16-.373-.248-.6-.248z"/></svg>