<svg xmlns="http://www.w3.org/2000/svg" width="32" height="32" viewBox="0 0 32 32"><path d="M16 32h-.002c-.773 0-1.5-.3-2.046-.848L.848 18.048C.3 17.5 0 16.773 0 16c0-.762.31-1.508.848-2.047L13.952.85C14.5.3 15.225 0 15.998 0c.775 0 1.502.302 2.05.85.82.82 1.438 1.643 1.984 2.37.568.756 1.212 1.613 1.564 1.613.09 0 .436-.057 1.167-.788.254-.254.335-.528.47-1.03.16-.6.358-1.35 1.06-2.052C24.933.325 25.763 0 26.77 0c1.242 0 2.59.608 3.607 1.625C31.407 2.657 32 3.973 32 5.237c0 .986-.333 1.84-.962 2.47-.758.757-1.547.956-2.124 1.1-.478.12-.718.19-.96.43-.754.755-.792 1.097-.786 1.184.025.36.868.99 1.612 1.55.727.55 1.55 1.17 2.37 1.99.547.55.848 1.28.848 2.05 0 .17 0 .46-.598 1.5-.367.635-.823 1.306-1.286 1.89-.618.78-1.245 1.41-1.863 1.875-.84.638-1.68.96-2.49.96-.81 0-1.58-.336-2.22-.972-.65-.65-.82-1.346-.96-1.905-.12-.472-.2-.815-.56-1.173-.24-.24-.58-.363-1.02-.363-.71 0-1.52.38-2.16 1.023-.62.62-1.024 1.47-1.024 2.16 0 .585.195.854.363 1.023.31.313.653.404 1.13.53.572.153 1.29.343 1.94.99l.01.01c.984.985 1.23 2.245.69 3.547-.58 1.4-1.98 2.623-3.05 3.404-.518.38-1.08.74-1.59 1.02-.81.45-1.085.49-1.296.49zm0-29.952c-.227 0-.44.088-.6.248L2.296 15.4c-.155.156-.248.38-.248.6 0 .226.088.44.25.6L15.4 29.704c.13.13.296.213.474.24.344-.154 1.257-.664 2.195-1.4 1.15-.904 1.9-1.82 2.06-2.516.06-.28.07-.62-.34-1.034l-.01-.006c-.253-.254-.527-.335-1.03-.47-.6-.16-1.35-.358-2.05-1.06-.64-.64-.963-1.472-.963-2.475 0-1.242.61-2.59 1.626-3.607 1.03-1.032 2.347-1.624 3.61-1.624.986 0 1.84.332 2.47.96.757.76.956 1.55 1.1 2.125.12.478.19.718.43.96.336.334.6.373.77.373.674 0 1.62-.683 2.603-1.872.82-.997 1.414-2.044 1.582-2.423-.03-.18-.11-.344-.24-.474-.72-.71-1.48-1.29-2.155-1.79-1.25-.94-2.335-1.75-2.426-3.04-.083-1.17.75-2.14 1.38-2.77.65-.65 1.348-.822 1.907-.962.474-.12.817-.206 1.175-.564.24-.24.36-.584.36-1.022 0-.712-.384-1.52-1.025-2.162-.622-.622-1.47-1.024-2.16-1.024-.587 0-.856.193-1.025.36-.313.315-.404.658-.53 1.13-.154.58-.345 1.298-1 1.953-.946.944-1.777 1.385-2.614 1.385-.67 0-1.29-.285-1.898-.865-.44-.42-.84-.95-1.305-1.57-.503-.67-1.076-1.432-1.794-2.15-.16-.16-.373-.25-.6-.25z"/></svg>