<svg xmlns="http://www.w3.org/2000/svg" width="32" height="32" viewBox="0 0 32 32"><path d="M16 32h-.002c-.773 0-1.5-.3-2.046-.848L.848 18.048C.3 17.5 0 16.773 0 16c0-.762.31-1.508.848-2.047L13.952.85C14.5.3 15.225 0 15.998 0c.775 0 1.502.302 2.05.85.82.82 1.438 1.643 1.984 2.37.568.756 1.212 1.613 1.564 1.613.09 0 .436-.057 1.167-.788.254-.254.335-.528.47-1.03.16-.6.358-1.35 1.06-2.052C24.933.325 25.763 0 26.77 0c1.242 0 2.59.608 3.607 1.625C31.407 2.657 32 3.973 32 5.237c0 .986-.333 1.84-.962 2.47-.758.757-1.547.956-2.124 1.1-.478.12-.718.19-.96.43-.754.755-.792 1.097-.786 1.184.025.36.868.99 1.612 1.55.727.55 1.55 1.17 2.37 1.99.547.547.848 1.274.848 2.048 0 .172 0 .458-.598 1.493-.367.635-.823 1.306-1.286 1.89-.618.78-1.245 1.41-1.863 1.875-.84.638-1.68.96-2.49.96-.81 0-1.58-.336-2.22-.972-.65-.65-.822-1.347-.962-1.906-.118-.473-.205-.816-.563-1.174-.24-.24-.584-.363-1.022-.363-.713 0-1.522.382-2.163 1.023-.62.62-1.024 1.47-1.024 2.16 0 .586.195.855.363 1.024.31.314.654.405 1.13.53.573.154 1.29.344 1.94.992l.01.01c.985.984 1.23 2.244.69 3.546-.58 1.4-1.98 2.623-3.05 3.404-.517.378-1.08.74-1.59 1.02-.81.45-1.084.488-1.295.488zm0-29.952c-.227 0-.44.088-.6.248L2.296 15.4c-.155.156-.248.38-.248.6 0 .226.088.44.25.6L15.4 29.704c.13.13.296.213.474.24.344-.154 1.257-.664 2.195-1.4 1.15-.904 1.9-1.82 2.06-2.516.066-.28.077-.62-.334-1.034l-.006-.006c-.253-.254-.527-.335-1.03-.47-.6-.16-1.35-.358-2.05-1.06-.64-.64-.963-1.472-.963-2.475 0-1.242.61-2.59 1.626-3.607 1.032-1.032 2.348-1.624 3.612-1.624.985 0 1.838.332 2.468.96.758.76.957 1.55 1.102 2.125.12.478.19.718.43.96.335.334.6.373.77.373.673 0 1.62-.683 2.602-1.872.82-.997 1.414-2.044 1.582-2.423-.028-.18-.11-.344-.24-.474-.718-.71-1.48-1.29-2.154-1.79-1.25-.94-2.333-1.752-2.424-3.04-.082-1.17.75-2.142 1.382-2.774.65-.65 1.348-.827 1.907-.967.475-.12.818-.207 1.176-.565.24-.24.362-.584.362-1.022 0-.713-.384-1.522-1.025-2.163-.622-.623-1.47-1.025-2.16-1.025-.587 0-.856.193-1.025.36-.313.315-.404.658-.53 1.13-.154.58-.345 1.298-1 1.953-.946.946-1.777 1.387-2.614 1.387-.67 0-1.29-.284-1.898-.864-.44-.42-.84-.95-1.304-1.57-.505-.67-1.078-1.433-1.796-2.15-.16-.16-.373-.25-.6-.25z"/></svg>