<svg xmlns="http://www.w3.org/2000/svg" width="30" height="32" viewBox="0 0 30 32"><path d="M28.8 16.8c0-7.51-6.09-13.6-13.6-13.6S1.6 9.29 1.6 16.8s6.09 13.6 13.6 13.6 13.6-6.09 13.6-13.6zm-25.6 0c0-6.627 5.373-12 12-12s12 5.373 12 12-5.373 12-12 12-12-5.373-12-12z"/><path d="M14.053 22.5v2.487h2.486V22.5h-2.49zM10.4 13.99h1.905c0-.524.06-1.01.18-1.457s.31-.836.57-1.165c.26-.33.586-.59.974-.784s.85-.29 1.38-.29c.8 0 1.44.23 1.91.693s.732 1.105.792 1.926c.03.553-.037 1.023-.2 1.41s-.386.744-.66 1.065c-.278.32-.577.627-.898.918s-.63.61-.92.952c-.29.343-.538.735-.74 1.176s-.32.974-.35 1.602v1.053h1.906v-.88c0-.39.057-.74.17-1.04s.26-.59.447-.85.396-.51.627-.74.467-.46.706-.69c.24-.24.474-.49.706-.74s.437-.53.616-.83c.18-.3.33-.63.44-1s.168-.78.168-1.244c0-.718-.115-1.35-.346-1.905s-.556-1.02-.974-1.4c-.42-.38-.916-.672-1.49-.874s-1.214-.3-1.916-.3c-.78 0-1.48.134-2.108.4s-1.16.65-1.59 1.13c-.436.49-.768 1.06-1 1.718s-.34 1.364-.325 2.126c0 0-.01-.76 0 0z"/></svg>