<?xml version="1.0" standalone="no"?><!DOCTYPE svg PUBLIC "-//W3C//DTD SVG 1.1//EN" "http://www.w3.org/Graphics/SVG/1.1/DTD/svg11.dtd"><svg width="100%" height="100%" viewBox="0 0 512 512" version="1.1" xmlns="http://www.w3.org/2000/svg" xmlns:xlink="http://www.w3.org/1999/xlink" xml:space="preserve" style="fill-rule:evenodd;clip-rule:evenodd;stroke-linejoin:round;stroke-miterlimit:1.41421;"><g id="Layer1"><path d="M256,502.426c-1.59,-0.002 -3.181,-0.015 -4.771,-0.045c-2.898,-0.055 -5.795,-0.161 -8.689,-0.317c-8.564,-0.462 -17.105,-1.368 -25.575,-2.718c-10.328,-1.647 -20.55,-3.955 -30.583,-6.908c-10.362,-3.05 -20.521,-6.789 -30.39,-11.181c-12.254,-5.455 -24.059,-11.917 -35.262,-19.294c-11.543,-7.6 -22.446,-16.171 -32.562,-25.588c-10.285,-9.575 -19.754,-20.024 -28.272,-31.2c-8.404,-11.028 -15.881,-22.761 -22.316,-35.042c-5.453,-10.404 -10.158,-21.2 -14.063,-32.278c-3.878,-11.001 -6.967,-22.28 -9.236,-33.723c-3.141,-15.839 -4.707,-31.985 -4.707,-48.132c0,-11.001 0.725,-22.002 2.182,-32.907c1.66,-12.412 4.27,-24.697 7.806,-36.711c3.614,-12.277 8.195,-24.268 13.683,-35.829c6.274,-13.218 13.732,-25.872 22.249,-37.769c8.613,-12.032 18.307,-23.287 28.924,-33.593c11.155,-10.828 23.328,-20.604 36.312,-29.154c12.664,-8.339 26.098,-15.508 40.08,-21.376c15.387,-6.457 31.433,-11.333 47.811,-14.528c15.338,-2.992 30.957,-4.508 46.582,-4.557c15.644,-0.05 31.292,1.368 46.666,4.267c16.41,3.095 32.498,7.874 47.935,14.241c14.023,5.785 27.505,12.875 40.224,21.14c12.83,8.339 24.882,17.871 35.956,28.429c10.708,10.21 20.5,21.377 29.22,33.329c8.619,11.815 16.189,24.395 22.58,37.549c5.589,11.501 10.276,23.439 14.001,35.672c3.643,11.964 6.365,24.207 8.14,36.587c1.67,11.657 2.501,23.434 2.501,35.21c0,15.122 -1.372,30.243 -4.128,45.113c-2.083,11.24 -4.954,22.333 -8.588,33.172c-3.738,11.151 -8.283,22.031 -13.583,32.53c-6.364,12.606 -13.817,24.66 -22.241,35.993c-8.385,11.278 -17.731,21.841 -27.902,31.539c-10.179,9.705 -21.184,18.544 -32.86,26.384c-11.338,7.613 -23.307,14.283 -35.75,19.912c-9.836,4.45 -19.965,8.249 -30.302,11.362c-10.006,3.013 -20.205,5.383 -30.513,7.093c-8.452,1.402 -16.976,2.361 -25.528,2.876c-2.889,0.174 -5.781,0.298 -8.675,0.371c-1.587,0.041 -3.175,0.063 -4.763,0.076c-0.531,0.003 -1.062,0.004 -1.593,0.005ZM256,472.426c1.167,-0.002 2.334,-0.009 3.502,-0.028c2.551,-0.04 5.102,-0.125 7.65,-0.254c7.756,-0.394 15.49,-1.201 23.159,-2.424c8.843,-1.41 17.598,-3.372 26.196,-5.874c9.313,-2.71 18.441,-6.053 27.302,-9.997c10.959,-4.878 21.508,-10.674 31.507,-17.301c9.944,-6.591 19.342,-14.002 28.074,-22.131c8.882,-8.269 17.074,-17.28 24.459,-26.91c7.544,-9.837 14.245,-20.319 19.999,-31.3c4.683,-8.935 8.737,-18.199 12.12,-27.702c3.506,-9.849 6.29,-19.954 8.324,-30.209c2.761,-13.919 4.134,-28.106 4.134,-42.296c0,-10.126 -0.697,-20.252 -2.103,-30.28c-1.492,-10.653 -3.783,-21.194 -6.853,-31.504c-3.204,-10.759 -7.254,-21.265 -12.099,-31.391c-5.732,-11.982 -12.575,-23.431 -20.403,-34.162c-7.41,-10.156 -15.701,-19.668 -24.748,-28.398c-9.833,-9.488 -20.559,-18.049 -31.994,-25.53c-10.959,-7.169 -22.569,-13.343 -34.645,-18.411c-13.499,-5.665 -27.577,-9.943 -41.946,-12.746c-13.478,-2.629 -27.203,-3.959 -40.934,-4.003c-13.748,-0.043 -27.499,1.201 -41.011,3.749c-14.397,2.715 -28.511,6.908 -42.055,12.494c-12.111,4.995 -23.762,11.101 -34.768,18.207c-11.481,7.412 -22.258,15.911 -32.149,25.341c-9.413,8.974 -18.021,18.791 -25.686,29.297c-7.57,10.377 -14.219,21.426 -19.833,32.98c-5.001,10.291 -9.179,20.98 -12.478,31.936c-3.1,10.295 -5.424,20.824 -6.949,31.467c-1.469,10.248 -2.198,20.601 -2.198,30.954c0,13.74 1.287,27.478 3.876,40.973c1.887,9.841 4.465,19.55 7.709,29.031c3.41,9.967 7.556,19.682 12.389,29.042c5.887,11.403 12.794,22.277 20.603,32.461c7.254,9.458 15.285,18.319 23.985,26.467c8.706,8.154 18.082,15.593 28.006,22.213c9.795,6.535 20.122,12.27 30.85,17.124c8.832,3.995 17.933,7.393 27.224,10.159c8.575,2.553 17.309,4.568 26.135,6.032c7.424,1.232 14.912,2.074 22.423,2.527c2.541,0.153 5.086,0.262 7.631,0.326c1.397,0.036 2.795,0.055 4.193,0.067c0.467,0.002 0.935,0.003 1.402,0.004Z" style="fill:#000;fill-rule:nonzero;"/><path d="M239.897,359.34c-1.195,0 -2.34,0.476 -3.184,1.321c-0.844,0.845 -1.318,1.992 -1.316,3.187c0.014,8.631 0.044,27.401 0.058,36.022c0.004,2.482 2.018,4.492 4.5,4.492c8.62,0 27.386,0 36.011,0c1.194,0 2.338,-0.474 3.182,-1.318c0.844,-0.844 1.318,-1.988 1.318,-3.182c0,-8.626 0,-27.396 0,-36.022c0,-2.485 -2.015,-4.5 -4.5,-4.5c-8.633,0 -27.43,0 -36.069,0ZM168.962,200.732c-0.014,1.2 0.454,2.356 1.298,3.209c0.844,0.854 1.994,1.334 3.194,1.334c6.709,0.008 19.283,0.009 25.951,0.009c2.427,0 4.417,-1.925 4.497,-4.351c0.278,-7.839 1.339,-15.184 3.175,-22.024c2.172,-8.092 5.612,-15.134 10.319,-21.09c4.706,-5.974 10.608,-10.681 17.632,-14.193c7.024,-3.512 15.387,-5.25 24.982,-5.25c14.482,0 26.068,4.164 34.576,12.546c8.509,8.381 13.252,20.003 14.338,34.866c0.543,10.011 -0.67,18.519 -3.621,25.525c-2.95,7.006 -6.987,13.469 -11.948,19.28c-5.032,5.793 -10.445,11.35 -16.256,16.618c-5.811,5.268 -11.405,11.043 -16.655,17.234c-5.249,6.209 -9.739,13.306 -13.396,21.289c-3.657,7.983 -5.793,17.632 -6.336,29.001c0,0 0,8.923 0,14.559c0,1.194 0.475,2.34 1.319,3.184c0.845,0.845 1.99,1.319 3.184,1.319c6.614,0 18.884,0 25.498,0c1.194,0 2.34,-0.474 3.184,-1.319c0.845,-0.844 1.319,-1.99 1.319,-3.184c0,-4.711 0,-11.427 0,-11.427c0,-7.06 1.032,-13.396 3.078,-18.827c2.045,-5.431 4.707,-10.681 8.092,-15.388c3.385,-4.707 7.169,-9.232 11.35,-13.396c4.182,-4.164 8.454,-8.327 12.781,-12.491c4.345,-4.345 8.581,-8.87 12.781,-13.396c4.2,-4.526 7.911,-9.595 11.151,-15.026c3.259,-5.43 5.974,-11.404 7.965,-18.102c1.992,-6.698 3.042,-14.121 3.042,-22.52c0,-12.998 -2.082,-24.439 -6.264,-34.486c-4.182,-10.048 -10.065,-18.465 -17.632,-25.345c-7.603,-6.879 -16.583,-12.165 -26.974,-15.821c-10.391,-3.657 -21.976,-5.431 -34.685,-5.431c-14.12,0 -26.792,2.425 -38.161,7.241c-11.368,4.815 -20.999,11.767 -28.783,20.456c-7.893,8.871 -13.903,19.189 -18.103,31.101c-3.736,10.595 -5.695,22.162 -5.892,34.296Z" style="fill:#000;fill-rule:nonzero;"/></g></svg>