<svg xmlns="http://www.w3.org/2000/svg" width="30" height="32" viewBox="0 0 30 32"><path d="M15.2 3.2C7.69 3.2 1.6 9.29 1.6 16.8s6.09 13.6 13.6 13.6 13.6-6.09 13.6-13.6S22.71 3.2 15.2 3.2zm1.645 23.693h-3.1v-3.1h3.1v3.1zM20.317 14.3c-.12.39-.275.747-.466 1.065s-.41.613-.657.885c-.246.27-.498.534-.754.79-.255.237-.507.48-.755.73-.246.245-.47.51-.67.788-.2.278-.357.582-.477.91s-.18.697-.18 1.11v.934h-2.03V20.39c.03-.67.154-1.24.37-1.71s.478-.888.79-1.254c.31-.366.636-.706.98-1.016s.66-.637.957-.98c.294-.343.53-.723.706-1.137s.247-.917.215-1.506c-.064-.877-.347-1.562-.848-2.056-.502-.493-1.184-.74-2.043-.74-.574 0-1.067.104-1.482.31-.414.208-.762.486-1.04.837s-.485.763-.613 1.242c-.13.477-.193.994-.193 1.553h-2.032c-.016-.813.1-1.57.347-2.27.246-.7.602-1.31 1.064-1.83s1.03-.92 1.698-1.207 1.418-.43 2.246-.43c.75 0 1.43.107 2.043.323.613.213 1.144.525 1.59.932s.792.904 1.04 1.494c.246.59.37 1.267.37 2.032 0 .493-.06.934-.178 1.325z"/></svg>