<svg xmlns="http://www.w3.org/2000/svg" width="30" height="32" viewBox="0 0 30 32"><path d="M15.2 3.2C7.69 3.2 1.6 9.29 1.6 16.8s6.09 13.6 13.6 13.6 13.6-6.09 13.6-13.6S22.71 3.2 15.2 3.2zm1.645 23.693h-3.1v-3.1h3.1v3.1zM20.317 14.3c-.12.39-.275.747-.466 1.065s-.41.613-.65.885c-.24.27-.5.534-.75.79-.25.237-.5.48-.75.73-.245.245-.47.51-.67.788-.2.278-.356.582-.476.91s-.18.697-.18 1.11v.934h-2.03V20.39c.03-.67.154-1.24.37-1.71s.478-.888.79-1.254c.31-.366.636-.706.98-1.016s.66-.637.957-.98c.29-.343.53-.723.704-1.137s.248-.917.216-1.506c-.066-.877-.35-1.562-.85-2.056-.5-.49-1.184-.74-2.04-.74-.577 0-1.07.11-1.485.31-.414.21-.762.49-1.04.84s-.485.77-.613 1.24c-.13.48-.196 1-.196 1.56H10.1c-.016-.81.1-1.57.347-2.27.246-.7.602-1.31 1.064-1.83s1.03-.92 1.7-1.2 1.42-.43 2.25-.43c.75 0 1.43.108 2.048.324.613.213 1.144.525 1.59.93s.79.906 1.04 1.496c.246.59.37 1.266.37 2.03 0 .494-.06.935-.18 1.326z"/></svg>