<svg xmlns="http://www.w3.org/2000/svg" width="30" height="32" viewBox="0 0 30 32"><path d="M15.2 3.2C7.69 3.2 1.6 9.29 1.6 16.8s6.09 13.6 13.6 13.6 13.6-6.09 13.6-13.6S22.71 3.2 15.2 3.2zm1.645 23.693h-3.1v-3.1h3.1v3.1zM20.317 14.3c-.12.39-.275.747-.466 1.065s-.41.613-.65.885c-.246.27-.5.534-.754.79-.254.237-.506.48-.754.73-.246.245-.47.51-.67.788-.2.278-.357.582-.477.91s-.18.697-.18 1.11v.934h-2.03V20.39c.03-.67.154-1.24.37-1.71s.478-.888.79-1.254c.31-.366.636-.706.98-1.016s.66-.637.957-.98c.292-.343.53-.723.704-1.137s.248-.917.216-1.506c-.064-.877-.347-1.562-.85-2.056-.5-.49-1.182-.74-2.04-.74-.575 0-1.068.11-1.483.31-.415.21-.763.49-1.04.84s-.486.767-.614 1.24c-.13.48-.193 1-.193 1.56H10.1c-.016-.814.1-1.57.347-2.27.246-.7.602-1.31 1.064-1.83s1.03-.92 1.7-1.208 1.418-.43 2.246-.43c.75 0 1.43.107 2.043.323.612.213 1.143.525 1.59.93s.79.906 1.04 1.496c.245.59.37 1.267.37 2.03 0 .495-.06.936-.18 1.327z"/></svg>