<svg xmlns="http://www.w3.org/2000/svg" width="30" height="32" viewBox="0 0 30 32"><path d="M28.8 16.8c0-7.51-6.09-13.6-13.6-13.6S1.6 9.29 1.6 16.8s6.09 13.6 13.6 13.6 13.6-6.09 13.6-13.6zm-25.6 0c0-6.627 5.373-12 12-12s12 5.373 12 12-5.373 12-12 12-12-5.373-12-12z"/><path d="M14.053 22.5v2.487h2.486V22.5h-2.49zM10.4 13.99h1.905c0-.524.06-1.01.18-1.457s.31-.836.57-1.165c.26-.33.586-.59.974-.784s.85-.29 1.38-.29c.807 0 1.446.23 1.916.693s.735 1.105.795 1.926c.03.553-.036 1.023-.2 1.41s-.385.744-.66 1.065c-.277.32-.576.627-.897.918s-.628.61-.92.952c-.29.343-.537.735-.738 1.176s-.32.974-.35 1.602v1.053h1.905v-.88c0-.39.057-.737.17-1.04s.26-.59.447-.85.397-.51.628-.74.466-.46.705-.686c.24-.24.474-.486.706-.74s.436-.53.615-.83c.18-.3.328-.63.44-.996s.167-.78.167-1.243c0-.718-.115-1.35-.346-1.905s-.555-1.02-.973-1.4c-.417-.38-.914-.672-1.49-.874s-1.212-.3-1.914-.3c-.778 0-1.48.132-2.107.4s-1.16.647-1.59 1.13c-.436.487-.768 1.06-1 1.716s-.34 1.364-.325 2.126c0 0-.012-.762 0 0z"/></svg>