<svg xmlns="http://www.w3.org/2000/svg" width="30" height="32" viewBox="0 0 30 32"><path d="M28.8 16.8c0-7.51-6.09-13.6-13.6-13.6S1.6 9.29 1.6 16.8s6.09 13.6 13.6 13.6 13.6-6.09 13.6-13.6zm-25.6 0c0-6.627 5.373-12 12-12s12 5.373 12 12-5.373 12-12 12-12-5.373-12-12z"/><path d="M14.053 22.5v2.487h2.486V22.5h-2.487zM10.4 13.99h1.905c0-.524.06-1.01.18-1.457s.31-.836.57-1.165c.26-.33.586-.59.974-.784s.85-.29 1.388-.29c.806 0 1.445.23 1.915.693s.735 1.105.795 1.926c.03.553-.037 1.023-.202 1.41s-.385.744-.66 1.065c-.277.32-.576.627-.897.918s-.628.61-.92.952c-.29.343-.537.735-.738 1.176s-.317.974-.347 1.602v1.053h1.904v-.875c0-.388.055-.735.167-1.042s.26-.59.448-.85c.187-.262.396-.51.627-.74s.467-.46.706-.683c.24-.24.474-.485.706-.74s.437-.53.616-.828c.18-.3.325-.63.437-.997s.168-.78.168-1.243c0-.717-.116-1.35-.347-1.904s-.556-1.02-.974-1.4c-.418-.38-.915-.672-1.49-.874s-1.213-.302-1.915-.302c-.778 0-1.48.134-2.107.403s-1.157.646-1.59 1.13c-.433.486-.765 1.058-.997 1.715s-.34 1.366-.325 2.128c0 0-.014-.762 0 0z"/></svg>