<svg xmlns="http://www.w3.org/2000/svg" width="32" height="32" viewBox="0 0 32 32"><path d="M28.694 6.842L17.584.43c-.98-.566-2.187-.566-3.168 0L3.306 6.842c-.98.566-1.583 1.613-1.583 2.744v12.828c0 1.13.603 2.178 1.584 2.744l11.11 6.413c.98.57 2.187.57 3.168 0l11.11-6.41c.98-.56 1.583-1.61 1.583-2.74V9.59c0-1.13-.603-2.18-1.584-2.746zm-1.09 15.288c0 .35-.19.68-.493.854L16.5 29.112c-.305.175-.682.175-.987 0L4.89 22.984c-.305-.175-.493-.5-.493-.854V9.87c0-.35.19-.678.493-.853l10.617-6.13c.305-.176.682-.176.987 0l10.617 6.13c.31.175.5.5.5.854z"/><path d="M7.333 10.97h4.243c.553 0 1.053.072 1.5.215s.827.356 1.145.638c.32.282.57.633.74 1.053s.26.907.26 1.46c0 .677-.15 1.264-.44 1.76s-.69.895-1.18 1.192l2.2 3.936h-2.92l-1.74-3.49H10v3.49H7.34V10.97zm3.982 4.628c.36 0 .65-.11.876-.33s.34-.516.34-.885c0-.39-.11-.697-.32-.922s-.52-.33-.9-.33H9.99v2.47h1.322zm9.95 4.89c-.268.317-.58.552-.94.706s-.706.23-1.044.23c-.38 0-.74-.058-1.06-.176s-.61-.284-.87-.5c-.39-.328-.68-.76-.89-1.3s-.31-1.13-.31-1.775c0-.543.1-1.048.28-1.514s.45-.88.8-1.22c.342-.35.752-.61 1.23-.81s1.006-.29 1.59-.29c.236 0 .45.02.646.05s.358.07.49.11v-3.04h2.6v10.26H21.4l-.137-.74zm-.094-4.32c-.26-.093-.54-.14-.84-.14-.46 0-.84.143-1.13.43s-.44.723-.44 1.307c0 .43.11.776.32 1.038s.53.392.96.392c.38 0 .67-.113.86-.338s.285-.543.285-.953v-1.737z"/></svg>