<svg xmlns="http://www.w3.org/2000/svg" width="32" height="32" viewBox="0 0 32 32"><path d="M28.694 6.842L17.584.43c-.98-.566-2.187-.566-3.168 0L3.306 6.842c-.98.566-1.583 1.613-1.583 2.744v12.828c0 1.13.603 2.178 1.584 2.744l11.11 6.413c.98.567 2.187.567 3.168 0l11.11-6.412c.98-.566 1.583-1.612 1.583-2.744V9.586c0-1.13-.603-2.178-1.584-2.744zm-1.09 15.288c0 .35-.19.68-.493.854l-10.616 6.128c-.305.175-.682.175-.987 0L4.89 22.984c-.305-.175-.493-.5-.493-.854V9.87c0-.35.19-.678.493-.853l10.617-6.13c.305-.176.682-.176.987 0l10.617 6.13c.306.175.494.5.494.854z"/><path d="M7.333 10.97h4.243c.553 0 1.053.072 1.5.215s.827.356 1.145.638c.32.282.565.633.74 1.053s.26.907.26 1.46c0 .677-.15 1.264-.446 1.76s-.692.895-1.184 1.192l2.2 3.936h-2.922l-1.737-3.49H9.994v3.49h-2.66V10.97zm3.982 4.628c.36 0 .65-.11.876-.33s.34-.516.34-.885c0-.39-.11-.697-.324-.922s-.518-.337-.907-.337H9.99v2.475h1.322zM21.264 20.487c-.267.318-.58.553-.938.707s-.707.23-1.045.23c-.388 0-.745-.058-1.068-.176s-.612-.284-.87-.5c-.39-.328-.686-.76-.89-1.3s-.31-1.13-.31-1.775c0-.543.093-1.048.278-1.514s.448-.872.792-1.216c.343-.343.753-.612 1.23-.807s1.007-.292 1.59-.292c.237 0 .452.018.647.054s.358.073.49.114V10.97h2.6v10.255H21.4l-.137-.738zm-.093-4.32c-.265-.092-.547-.138-.845-.138-.46 0-.838.142-1.13.43s-.438.722-.438 1.306c0 .43.105.776.315 1.038s.53.392.96.392c.38 0 .665-.113.854-.338s.284-.543.284-.953v-1.737z"/></svg>