<svg xmlns="http://www.w3.org/2000/svg" width="32" height="32" viewBox="0 0 32 32"><path d="M6.66 10.334c.08-.124.16-.246.244-.367C9.07 6.845 12.682 4.8 16.77 4.8c6.627 0 12 5.372 12 12s-5.373 12-12 12c-6.32 0-11.5-4.886-11.966-11.087 0 0-.146-.71-.838-.71s-.766.71-.766.71C3.67 24.8 9.566 30.4 16.77 30.4c7.51 0 13.6-6.09 13.6-13.6S24.28 3.2 16.77 3.2c-4.566 0-8.607 2.25-11.073 5.702l-.91-4.882c-.08-.434-.498-.72-.933-.64s-.72.498-.64.933l1.377 7.39c.07.35.36.613.71.65l7.28.746c.44.04.83-.28.88-.72s-.27-.83-.71-.88l-6.41-.66.337-.52z"/></svg>