<svg xmlns="http://www.w3.org/2000/svg" width="32" height="32" viewBox="0 0 32 32"><path d="M28.694 6.842L17.584.43c-.98-.566-2.187-.566-3.168 0L3.306 6.842c-.98.566-1.583 1.613-1.583 2.744v12.828c0 1.13.603 2.178 1.584 2.744l11.11 6.413c.98.57 2.187.57 3.168 0l11.11-6.41c.98-.56 1.583-1.61 1.583-2.74V9.59c0-1.13-.603-2.18-1.584-2.746zm-1.09 15.288c0 .35-.19.68-.493.854L16.5 29.112c-.305.175-.682.175-.987 0L4.89 22.984c-.305-.175-.493-.5-.493-.854V9.87c0-.35.19-.678.493-.853l10.617-6.13c.305-.176.682-.176.987 0l10.617 6.13c.31.175.5.5.5.854z"/><path d="M8.352 10.97h4.243c.553 0 1.053.072 1.5.215s.827.356 1.144.638c.31.282.56.633.73 1.053s.26.907.26 1.46c0 .677-.15 1.264-.45 1.76s-.69.895-1.188 1.192l2.2 3.936h-2.92l-1.74-3.49h-1.13v3.49H8.35V10.97zm3.982 4.628c.36 0 .65-.11.876-.33s.338-.516.338-.885c0-.39-.108-.697-.323-.922s-.518-.33-.907-.33H11.01v2.47h1.323zm5.763.4h-1.06v-2h1.06v-2.013h2.598V14h1.783v1.998h-1.783v2.552c0 .594.282.892.846.892.17 0 .33-.036.49-.108s.31-.154.44-.246l1.02 1.6c-.33.255-.69.455-1.09.6s-.81.214-1.23.214c-.58 0-1.07-.082-1.465-.246s-.71-.392-.947-.684c-.236-.292-.402-.643-.5-1.053s-.146-.86-.146-1.34V16z"/></svg>