<svg xmlns="http://www.w3.org/2000/svg" width="32" height="32" viewBox="0 0 32 32"><path d="M5.56 16.668l-4.508-1.14c-.075-.022-.102-.114-.047-.17l3.233-3.234c.053-.053.122-.092.2-.112l7.482-1.82c.098-.022.165.095.095.167L5.76 16.61c-.052.05-.127.072-.2.053zM16.997 22.3l-7.43-7.433c-.07-.07-.183-.07-.253 0l-2.573 2.57c-.06.07-.07.184 0 .25l7.44 7.435c.07.072.18.072.25 0L17 22.548c.07-.07.07-.178 0-.248zm-6.527-8.34l7.432 7.435c.068.068.18.068.25 0l2.574-2.572c.068-.072.068-.18 0-.252l-7.433-7.43c-.07-.07-.18-.07-.25 0l-2.573 2.58c-.07.07-.07.19 0 .26zm6.55-6.55c-.07-.07-.18-.07-.25 0l-2.573 2.57c-.07.07-.07.183 0 .252l7.433 7.434c.068.07.182.07.25 0l2.573-2.574c.068-.07.068-.18 0-.25L17.02 7.41zm4.484 12.442l-6.253 6.255c-.05.05-.07.122-.05.2l1.14 4.505c.02.075.12.102.17.046l3.24-3.233c.06-.052.098-.122.12-.194l1.816-7.48c.027-.1-.092-.16-.165-.09zm8.38-17.87c-4.274-.372-8.674 1.055-11.97 4.282-.065.068-.056.173.01.242l7.435 7.434c.06.064.17.074.24.01 3.22-3.298 4.65-7.696 4.28-11.968zM4.004 22.194c-.814.81-1.207 1.89-1.174 2.948.213-.365.593-.858 1.24-1.307.864-.6 1.677-.344 1.897.187.228.547-.235 1.072-.907 1.384-.958.442-1.638.578-2.613 1.554s-1.76 2.682-.822 4.408c-.273-1.982 1.914-3.055 3.675-3.296 1.23-.17 2.22-.857 2.7-1.916 0 0 .176 1.723-2.053 2.78 1.297.292 2.712-.068 3.723-1.073 1.564-1.57 1.564-4.105 0-5.668-1.566-1.566-4.104-1.566-5.668-.002z"/></svg>