<svg xmlns="http://www.w3.org/2000/svg" width="32" height="32" viewBox="0 0 32 32"><path d="M5.56 16.668l-4.508-1.14c-.075-.022-.102-.114-.047-.17l3.233-3.234c.053-.053.122-.092.2-.112l7.482-1.82c.098-.022.165.095.095.167L5.76 16.613c-.052.05-.127.072-.2.053zM16.997 22.3l-7.43-7.433c-.07-.07-.183-.07-.253 0l-2.573 2.57c-.068.07-.07.184 0 .25l7.433 7.435c.07.072.182.072.25 0l2.572-2.574c.07-.07.07-.178 0-.248zm-6.527-8.34l7.432 7.435c.068.068.18.068.25 0l2.574-2.572c.068-.072.068-.18 0-.252l-7.433-7.43c-.07-.073-.18-.073-.25-.003l-2.574 2.574c-.07.07-.07.185 0 .252zm6.55-6.55c-.07-.07-.18-.07-.25 0l-2.573 2.57c-.07.07-.07.183 0 .252l7.433 7.434c.068.07.182.07.25 0l2.573-2.574c.068-.07.068-.18 0-.25L17.02 7.41zm4.484 12.442l-6.253 6.255c-.05.05-.072.122-.054.2l1.14 4.505c.02.075.115.102.17.046l3.233-3.233c.053-.052.092-.122.113-.194l1.817-7.483c.026-.1-.093-.166-.166-.095zm8.38-17.87C25.61 1.61 21.21 3.037 17.915 6.264c-.066.068-.057.173.01.242l7.434 7.434c.068.064.175.074.24.01 3.227-3.298 4.653-7.696 4.283-11.968zM4.003 22.194c-.813.81-1.206 1.89-1.173 2.948.213-.365.593-.858 1.24-1.307.864-.6 1.677-.344 1.897.187.228.547-.235 1.072-.907 1.384-.958.442-1.638.578-2.613 1.554s-1.76 2.682-.822 4.408c-.273-1.982 1.914-3.055 3.675-3.296 1.23-.17 2.22-.857 2.7-1.916 0 0 .176 1.723-2.053 2.78 1.297.292 2.712-.068 3.723-1.073 1.564-1.57 1.564-4.105 0-5.668-1.566-1.566-4.104-1.566-5.668-.002z"/></svg>