<svg xmlns="http://www.w3.org/2000/svg" width="32" height="32" viewBox="0 0 32 32"><path d="M11.373 9.214c0 .48-.39.87-.87.87s-.872-.39-.872-.87.39-.87.88-.87.87.39.87.87zm2.962 1.076c0 .472-.383.855-.855.855s-.855-.383-.855-.855.383-.855.855-.855.855.383.855.855zm-.49-2.61c0 .376-.307.68-.683.68s-.682-.305-.682-.68c0-.378.306-.683.682-.683s.682.306.682.682zM30.74 9.62l-5.272-3.286c-.277-.173-.646-.088-.82.19l-1.62 2.6c-.693 1.11-.35 2.584.758 3.276l.14.086-3.767 6.04-.68-.425c-.15-.08-.33-.04-.42.1l-.99 1.59-.78-.484c-1.39-.865-2.86-.217-3.87 1.07l-3.056 4.31 10.534 6.57 2.524-4.64c.71-1.473.645-3.08-.74-3.946l-.78-.485.99-1.587c.088-.142.045-.33-.097-.42l-.68-.423 3.767-6.038.14.086c1.11.693 2.584.35 3.276-.76l1.624-2.6c.173-.276.088-.645-.19-.82zm-2.128.934l-.65 1.044c-.362.58-1.132.758-1.712.396l-.94-.584c-.58-.36-.757-1.13-.395-1.71l.65-1.045c.08-.127.248-.165.374-.087l2.58 1.612c.125.08.163.247.085.373z"/><path d="M8.944 24.97c-.08-.394.008-.803.24-1.13l3.056-4.31c.013-.02.027-.038.04-.056 1.022-1.305 2.335-2.024 3.7-2.024.555 0 1.095.12 1.61.357l.235-.38c.323-.518.882-.827 1.494-.827.1 0 .2.01.3.027l.992-1.59.75-3.55c0-.01-.002-.02-.003-.028-.02-.07-.04-.15-.055-.22l-.006-.024c-.14-.303-.526-.59-1.104-.848-.044-.43-.192-.847-.443-1.244-.38-.6-.95-1.114-1.67-1.763-.643-.58-1.443-1.3-2.317-2.28-.82-.92-1.758-1.387-2.785-1.387-1.52 0-2.816 1.035-3.96 1.95-.756.602-1.612 1.286-2.14 1.31-1.43.06-2.687.777-3.635 2.08-.28.386-.494.766-.646 1.082-1.14.387-1.81.857-1.81 1.363l3.524 16.68c0 .875 3.028 1.583 6.763 1.583 1.56 0 2.994-.122 4.138-.33L9.6 25.91c-.34-.212-.58-.555-.658-.95zM3.51 11.27s.915-2.934 3.428-3.038 5.145-5.367 7.883-2.297 4.64 3.594 4 5.365c-.08.224-.28.78-2.32 1.125-2.423.41-11.96.972-12.99-1.155z"/></svg>