<svg xmlns="http://www.w3.org/2000/svg" width="32" height="32" viewBox="0 0 32 32"><path d="M11.373 9.214c0 .48-.39.87-.87.87s-.872-.39-.872-.87.39-.87.872-.87.87.39.87.87zM14.335 10.29c0 .472-.383.855-.855.855s-.855-.383-.855-.855.383-.855.855-.855.855.383.855.855zM13.844 7.68c0 .376-.306.68-.682.68s-.682-.305-.682-.68c0-.378.306-.683.682-.683s.682.306.682.682zM30.74 9.62l-5.272-3.286c-.277-.173-.646-.088-.82.19l-1.62 2.6c-.693 1.11-.35 2.584.758 3.276l.14.086-3.767 6.04-.68-.425c-.143-.087-.33-.044-.42.098l-.99 1.585-.776-.484c-1.387-.866-2.86-.218-3.867 1.07l-3.056 4.31 10.535 6.568 2.524-4.64c.712-1.472.646-3.08-.74-3.945l-.778-.484.99-1.586c.087-.142.044-.33-.098-.42l-.68-.423 3.767-6.038.14.086c1.11.692 2.584.35 3.276-.76l1.622-2.6c.173-.277.088-.646-.19-.82zm-2.128.934l-.65 1.044c-.362.58-1.132.758-1.712.396l-.94-.584c-.58-.36-.757-1.13-.395-1.71l.65-1.045c.08-.127.248-.165.374-.087l2.585 1.612c.127.08.165.247.087.373z"/><path d="M8.944 24.97c-.08-.394.008-.803.24-1.13l3.056-4.31c.013-.02.027-.038.04-.056 1.022-1.305 2.335-2.024 3.7-2.024.555 0 1.095.12 1.61.357l.235-.38c.323-.518.882-.827 1.494-.827.103 0 .206.01.307.027l.992-1.59.75-3.55c0-.01-.002-.02-.003-.028-.02-.07-.04-.142-.055-.213l-.005-.024c-.142-.303-.526-.59-1.104-.848-.045-.43-.193-.846-.444-1.243-.38-.6-.95-1.114-1.67-1.763-.643-.58-1.443-1.3-2.317-2.28-.82-.92-1.758-1.388-2.785-1.388-1.52 0-2.817 1.036-3.96 1.95-.757.603-1.613 1.287-2.14 1.31-1.43.06-2.688.778-3.636 2.08-.28.387-.492.767-.644 1.083-1.144.388-1.815.857-1.815 1.363l3.525 16.68c0 .874 3.028 1.582 6.763 1.582 1.56 0 2.994-.123 4.138-.33l-5.616-3.5c-.34-.213-.578-.556-.657-.95zM3.51 11.27s.915-2.934 3.428-3.038 5.145-5.367 7.883-2.297 4.64 3.594 4 5.365c-.08.224-.283.78-2.323 1.125-2.427.41-11.96.972-12.988-1.155z"/></svg>