<svg xmlns="http://www.w3.org/2000/svg" width="32" height="32" viewBox="0 0 32 32"><path d="M24.403 10l1.415-.57 1.276-1.718L25.39 6.01l-1.72 1.28-.565 1.41-4.243 4.246 1.387 1.21z"/><path d="M26.896 21.555l-10.152-8.84c.265-1.302.745-4.79-1.196-6.732C14.272 4.703 12.573 4 10.768 4c-.444 0-.888.044-1.32.13-.122.025-.218.112-.254.23-.035.116-.003.244.08.33l2.898 2.897.58 2.8-2.365 2.364-2.8-.57-2.897-2.9c-.087-.08-.214-.12-.33-.08s-.206.13-.23.26c-.44 2.22.253 4.5 1.853 6.102.95.95 2.435 1.454 4.29 1.454h.002c.78 0 1.62-.09 2.44-.26l8.825 10.13c.73.728 1.68 1.12 2.69 1.12s1.96-.392 2.67-1.106c1.47-1.472 1.47-3.867 0-5.34zm-1.592 3.75c-.596.594-1.56.594-2.157 0-.595-.596-.595-1.565 0-2.16.596-.593 1.56-.593 2.157 0h.003c.592.596.592 1.562-.003 2.158z"/><path d="M12.24 18.58c-.336-.337-.882-.337-1.218 0l-5.645 5.645c-.336.335-.336.88 0 1.217l2.203 2.203c.336.337.88.337 1.217 0l5.48-5.476c.335-.34.335-.89 0-1.22l-2.037-2.37z"/></svg>