<svg xmlns="http://www.w3.org/2000/svg" width="32" height="32" viewBox="0 0 32 32"><path d="M29.644 22.346c.01-.235-.03-.472-.124-.71-.247-.627-.838-1.203-1.683-1.71-.82-.492-1.88-.923-3.108-1.275-.937-.268-1.977-.493-3.09-.668v-2.06h-1.594v1.85c-1.026-.11-2.104-.18-3.22-.202v-6.522h-1.655v6.522c-1.114.023-2.192.092-3.218.202v-1.85h-1.594v2.06c-1.113.175-2.153.4-3.09.67-1.227.352-2.288.782-3.107 1.274-.843.507-1.435 1.084-1.68 1.71-.095.238-.135.476-.125.71v2.927c-.02.41.15.87.498 1.298.507.628 1.387 1.194 2.58 1.698 1.227.518 2.773.94 4.56 1.242 1.813.307 3.85.475 6.007.475s4.193-.174 6.007-.48c1.786-.304 3.332-.734 4.558-1.252 1.194-.504 2.074-1.054 2.58-1.68.348-.43.518-.89.498-1.3V22.35zm-2.402.786c-.48.49-1.268.945-2.31 1.335-1.065.398-2.387.726-3.897.956-1.528.233-3.234.363-5.035.363s-3.507-.13-5.035-.363c-1.51-.23-2.832-.558-3.896-.956-1.044-.39-1.832-.844-2.31-1.335-.468-.48-.64-.99-.47-1.513.166-.51.64-.98 1.34-1.397.687-.408 1.595-.767 2.66-1.063.636-.177 1.33-.332 2.07-.462v.444h1.594v-.676c1.015-.12 2.095-.196 3.22-.22v5.677h1.655v-5.678c1.123.025 2.203.1 3.218.22v.677h1.594v-.444c.74.13 1.434.285 2.07.462 1.065.296 1.973.655 2.66 1.063.702.418 1.174.89 1.34 1.396.17.52-.002 1.034-.47 1.512zM24.828 14.328h1.594v1.594h-1.594v-1.594z"/><path d="M20.047 20.703h1.594v1.625h-1.593v-1.625zM10.36 20.703h1.593v1.625H10.36v-1.625zM20.047 3.078h1.594v1.594h-1.593V3.078zM10.36 3.078h1.593v1.594H10.36V3.078zM5.578 14.328h1.594v1.594H5.578v-1.594zM24.828 11.047h1.594v1.594h-1.594v-1.593zM5.578 11.047h1.594v1.594H5.578v-1.593zM20.047 6.266h1.594v8.063h-1.593V6.265zM15.172 4.672h1.656v4.78h-1.656v-4.78zM10.36 6.266h1.593v8.063H10.36V6.265z"/></svg>