<svg xmlns="http://www.w3.org/2000/svg" width="32" height="32" viewBox="0 0 32 32"><path d="M29.644 22.346c.01-.235-.03-.472-.124-.71-.247-.627-.838-1.203-1.683-1.71-.82-.492-1.88-.923-3.108-1.275-.94-.26-1.98-.49-3.09-.66v-2.06h-1.6v1.85c-1.028-.11-2.106-.18-3.22-.203v-6.52h-1.65v6.52c-1.116.024-2.194.093-3.22.203v-1.85h-1.594v2.06c-1.113.174-2.153.4-3.09.67-1.227.35-2.288.78-3.107 1.273-.84.507-1.43 1.084-1.68 1.71-.09.238-.13.476-.12.71v2.927c-.02.41.15.87.497 1.297.507.628 1.387 1.194 2.58 1.698 1.227.518 2.773.94 4.56 1.242 1.813.307 3.85.475 6.007.475s4.194-.176 6.008-.48c1.787-.306 3.333-.736 4.56-1.254 1.193-.504 2.073-1.054 2.58-1.68.347-.43.517-.89.497-1.3V22.35zm-2.402.786c-.48.49-1.268.945-2.31 1.335-1.065.398-2.387.726-3.897.956-1.528.233-3.234.363-5.035.363s-3.507-.13-5.035-.363c-1.51-.23-2.832-.558-3.896-.956-1.05-.39-1.84-.844-2.31-1.335-.47-.48-.64-.99-.47-1.513.16-.51.64-.98 1.34-1.4.68-.41 1.59-.77 2.66-1.067.63-.178 1.33-.333 2.07-.463v.445h1.59v-.676c1.012-.12 2.092-.197 3.22-.22v5.676h1.652V18.24c1.123.025 2.203.1 3.218.22v.677h1.595v-.444c.74.13 1.433.285 2.07.462 1.064.294 1.972.653 2.66 1.06.7.42 1.173.89 1.34 1.397.17.52-.003 1.034-.47 1.512zm-2.414-8.804h1.594v1.594h-1.594v-1.594z"/><path d="M20.047 20.703h1.594v1.625h-1.59v-1.625zm-9.687 0h1.593v1.625H10.36v-1.625zm9.687-17.625h1.594v1.594h-1.59V3.078zm-9.687 0h1.593v1.594H10.36V3.078zm-4.782 11.25h1.594v1.594H5.578v-1.594zm19.25-3.28h1.594v1.593h-1.594v-1.59zm-19.25 0h1.594v1.593H5.578v-1.59zm14.47-4.782h1.593v8.063h-1.59V6.26zM15.17 4.672h1.656v4.78H15.17v-4.78zm-4.81 1.594h1.593v8.063H10.36V6.26z"/></svg>