<svg xmlns="http://www.w3.org/2000/svg" width="32" height="32" viewBox="0 0 32 32"><path d="M29.644 22.346c.01-.235-.03-.472-.124-.71-.247-.627-.838-1.203-1.683-1.71-.82-.492-1.88-.923-3.108-1.275-.94-.26-1.98-.49-3.09-.66v-2.06h-1.6v1.85c-1.03-.11-2.11-.18-3.22-.2v-6.52h-1.65v6.52c-1.12.03-2.2.1-3.22.21v-1.85h-1.6V18c-1.117.174-2.157.4-3.09.67-1.23.35-2.29.78-3.11 1.273-.84.507-1.43 1.084-1.68 1.71-.09.238-.13.476-.12.71v2.927c-.02.41.15.87.496 1.297.506.63 1.386 1.195 2.58 1.7 1.226.517 2.772.94 4.56 1.24 1.812.308 3.85.476 6.006.476s4.194-.176 6.01-.48c1.785-.306 3.33-.736 4.56-1.254 1.19-.507 2.07-1.057 2.58-1.68.345-.43.515-.89.495-1.3v-2.93zm-2.402.786c-.48.49-1.268.945-2.31 1.335-1.065.398-2.387.726-3.897.956-1.528.233-3.234.363-5.035.363s-3.507-.13-5.035-.363c-1.51-.23-2.832-.558-3.896-.956-1.05-.39-1.84-.844-2.31-1.335-.47-.48-.64-.99-.47-1.513.16-.51.64-.98 1.34-1.4.68-.41 1.59-.77 2.66-1.07.63-.18 1.33-.34 2.07-.47v.445h1.59v-.676c1.01-.12 2.09-.197 3.22-.22v5.676h1.65v-5.67c1.12.026 2.2.1 3.22.22v.678h1.59v-.444c.74.13 1.43.287 2.07.464 1.06.294 1.97.653 2.66 1.06.7.42 1.17.89 1.34 1.397.17.52-.007 1.037-.47 1.515zm-2.414-8.804h1.594v1.594h-1.594v-1.594z"/><path d="M20.047 20.703h1.594v1.625h-1.59v-1.625zm-9.687 0h1.593v1.625H10.36v-1.625zm9.687-17.625h1.594v1.594h-1.59V3.078zm-9.687 0h1.593v1.594H10.36V3.078zm-4.782 11.25h1.594v1.594H5.578v-1.594zm19.25-3.28h1.594v1.593h-1.594v-1.59zm-19.25 0h1.594v1.593H5.578v-1.59zm14.47-4.782h1.593v8.063h-1.59V6.26zM15.17 4.672h1.656v4.78H15.17v-4.78zm-4.81 1.594h1.593v8.063H10.36V6.26z"/></svg>