<svg xmlns="http://www.w3.org/2000/svg" width="32" height="32" viewBox="0 0 32 32"><path d="M30.008 26.11c-1.178-.556-2.387-1.018-3.448-1.42-.638-.243-1.427-.386-2.027-.716-.4-.22-1.044-.937-1.275-1.313-.323-.524-.405-1.07-1.217-1.062.608-1.072 1.127-2.243 1.565-3.486 1.327 1.057 1.507-3.217 1.16-4.002-.144-.185-.345-.013-.406-.06.3-2.245.757-4.87-.232-6.432-1.153-1.822-5.474-2.443-7.82-1.797-.073-.266-.507-.004-.87.232-.09-.214-.61.104-.58.58-2.58 1.014-2.062 4.87-1.564 7.82-.103.11-.382.043-.348.29.09 1.455.36 2.73.928 3.708.33.134.433-.258.58-.115.365 1.14.817 2.195 1.216 3.302-.737.123-.972.825-1.196 1.506l-6 2.733c-.16.072-.317.144-.472.217V28H30.01v-1.89z"/><path d="M12.102 21.3c-.353-.134-.79-.213-1.12-.395-.22-.12-.577-.518-.705-.726-.18-.29-.224-.592-.673-.588.336-.593.623-1.24.864-1.927.733.584.833-1.778.64-2.212-.08-.102-.19-.007-.224-.033.166-1.24.42-2.69-.128-3.555-.637-1.007-3.025-1.35-4.323-.993-.04-.148-.28-.003-.48.128-.05-.118-.337.058-.32.32-1.427.56-1.14 2.692-.865 4.323-.057.06-.21.024-.192.16.05.804.2 1.51.513 2.05.18.073.24-.144.32-.065.2.63.45 1.213.672 1.825-.407.068-.537.456-.66.832l-3.318 1.51-.104.05V24h6.11l5.034-2.293c-.36-.148-.715-.283-1.043-.408z"/></svg>