<svg xmlns="http://www.w3.org/2000/svg" width="32" height="32" viewBox="0 0 32 32"><path d="M30.008 26.11c-1.178-.556-2.387-1.018-3.448-1.42-.638-.243-1.427-.386-2.027-.716-.4-.22-1.044-.937-1.275-1.313-.323-.52-.405-1.07-1.217-1.06.61-1.07 1.13-2.24 1.57-3.48 1.33 1.06 1.51-3.21 1.16-4-.14-.18-.34-.01-.4-.06.3-2.24.76-4.87-.23-6.43-1.15-1.82-5.47-2.44-7.82-1.8-.07-.26-.51 0-.87.23-.09-.21-.61.11-.58.58-2.58 1.02-2.06 4.87-1.56 7.82-.103.11-.382.05-.35.29.09 1.46.36 2.73.93 3.71.33.14.43-.26.58-.11.364 1.14.816 2.196 1.215 3.3-.736.125-.97.827-1.195 1.508l-6 2.73c-.16.07-.32.144-.475.217V28h22v-1.89z"/><path d="M12.102 21.3c-.353-.134-.79-.213-1.12-.395-.22-.12-.577-.518-.705-.726-.18-.29-.224-.6-.673-.59.336-.6.623-1.24.864-1.93.733.58.833-1.78.64-2.21-.08-.1-.19-.01-.224-.04.166-1.24.42-2.69-.128-3.56-.637-1.008-3.025-1.35-4.323-.994-.04-.15-.28-.004-.48.13-.05-.12-.337.055-.32.32-1.427.56-1.14 2.69-.865 4.32-.057.06-.21.024-.192.16.05.804.2 1.51.513 2.05.18.073.24-.144.32-.065.2.63.45 1.213.67 1.825-.41.07-.54.457-.66.833L2.1 21.95l-.105.05v2h6.11l5.033-2.293c-.36-.148-.715-.283-1.043-.408z"/></svg>