<?xml version="1.0" standalone="no"?><!DOCTYPE svg PUBLIC "-//W3C//DTD SVG 1.1//EN" "http://www.w3.org/Graphics/SVG/1.1/DTD/svg11.dtd"><svg width="100%" height="100%" viewBox="0 0 32 32" version="1.1" xmlns="http://www.w3.org/2000/svg" xmlns:xlink="http://www.w3.org/1999/xlink" xml:space="preserve" style="fill-rule:evenodd;clip-rule:evenodd;stroke-linejoin:round;stroke-miterlimit:1.41421;"><path d="M16,3.031c7.158,0 12.969,5.811 12.969,12.969c0,7.158 -5.811,12.969 -12.969,12.969c-7.158,0 -12.969,-5.811 -12.969,-12.969c0,-7.158 5.811,-12.969 12.969,-12.969ZM17.165,21.17c0,-0.224 -0.181,-0.405 -0.404,-0.405l-0.809,0c-0.223,0 -0.404,0.181 -0.404,0.405l0,3.237c0,0.223 0.181,0.405 0.404,0.405l0.809,0c0.223,0 0.404,-0.182 0.404,-0.405l0,-3.237ZM17.165,7.635c0,-0.223 -0.181,-0.404 -0.404,-0.404l-0.809,0c-0.223,0 -0.404,0.181 -0.404,0.404l0,10.175c0,0.224 0.181,0.405 0.404,0.405l0.809,0c0.223,0 0.404,-0.181 0.404,-0.405l0,-10.175Z" style="fill:#000;"/></svg>