<?xml version="1.0" standalone="no"?><!DOCTYPE svg PUBLIC "-//W3C//DTD SVG 1.1//EN" "http://www.w3.org/Graphics/SVG/1.1/DTD/svg11.dtd"><svg width="100%" height="100%" viewBox="0 0 30 32" version="1.1" xmlns="http://www.w3.org/2000/svg" xmlns:xlink="http://www.w3.org/1999/xlink" xml:space="preserve" style="fill-rule:evenodd;clip-rule:evenodd;stroke-linejoin:round;stroke-miterlimit:1.41421;"><path d="M28.6,16c0,-7.51 -6.09,-13.6 -13.6,-13.6c-7.51,0 -13.6,6.09 -13.6,13.6c0,7.51 6.09,13.6 13.6,13.6c7.51,0 13.6,-6.09 13.6,-13.6ZM3,16c0,-6.627 5.373,-12 12,-12c6.627,0 12,5.373 12,12c0,6.627 -5.373,12 -12,12c-6.627,0 -12,-5.373 -12,-12Z" style="fill:#000;fill-rule:nonzero;"/><path d="M15.808,20.999l-0.005,3.005c0.002,0.439 -0.359,0.8 -0.799,0.799c-0.439,-0.002 -0.799,-0.361 -0.799,-0.799l0.005,-3.005c-0.002,-0.44 0.359,-0.8 0.799,-0.799c0.439,0.001 0.806,0.354 0.799,0.799Z" style="fill:#000;fill-rule:nonzero;"/><path d="M15.808,7.999l-0.005,10.005c0.002,0.439 -0.359,0.8 -0.799,0.799c-0.439,-0.002 -0.799,-0.361 -0.799,-0.799l0.005,-10.005c-0.002,-0.44 0.359,-0.8 0.799,-0.799c0.439,0.001 0.806,0.354 0.799,0.799Z" style="fill:#000;fill-rule:nonzero;"/></svg>