<svg xmlns="http://www.w3.org/2000/svg" width="32" height="32" viewBox="0 0 32 32"><path d="M21.81 26.064c-.23-.146-.525-.138-.746.02-1.86 1.323-4.046 2.024-6.323 2.024s-4.464-.7-6.323-2.024c-.22-.158-.516-.167-.746-.02-.23.144-.348.414-.3.682l.83 4.7c.056.32.334.554.66.554h11.763c.325 0 .603-.234.66-.554l.83-4.7c.047-.267-.07-.537-.302-.683zM7.67 5.756c.11.07.234.105.36.105.136 0 .27-.042.388-.124 1.86-1.325 4.047-2.023 6.324-2.023s4.463.7 6.322 2.023c.222.158.52.166.75.02s.348-.418.3-.688l-.83-4.52c-.06-.317-.336-.548-.66-.548H8.862c-.323 0-.6.23-.658.55l-.83 4.518c-.05.27.07.54.3.688zM18.823 15.508h-3.85V10.03c0-.332-.27-.602-.6-.602s-.602.27-.602.602v6.28c0 .128.04.244.108.34.13.273.403.46.724.46h4.22c.444 0 .803-.358.803-.8s-.36-.802-.802-.802z"/><path d="M27.478 14.25c-.023-.032-.052-.05-.083-.05H25.85c-.033 0-.062.02-.084.05-.023.03-.035.073-.035.118v.56h-.602c-.496-5.244-4.923-9.36-10.296-9.36-5.704 0-10.344 4.64-10.344 10.343s4.64 10.345 10.344 10.345c5.372 0 9.8-4.117 10.296-9.36h.603v.56c0 .043.014.086.036.117.02.032.05.05.083.05h1.545c.03 0 .06-.02.083-.048.022-.032.035-.075.035-.12v-3.083c0-.044-.013-.086-.035-.117zM14.83 24.02c-4.47 0-8.11-3.638-8.11-8.11S10.36 7.8 14.83 7.8c4.473 0 8.11 3.638 8.11 8.11s-3.638 8.11-8.11 8.11z"/></svg>