<svg xmlns="http://www.w3.org/2000/svg" width="32" height="32" viewBox="0 0 32 32"><path d="M21.81 26.064c-.23-.146-.525-.138-.746.02-1.86 1.323-4.046 2.024-6.323 2.024s-4.46-.7-6.32-2.024c-.22-.158-.51-.167-.74-.02-.23.144-.35.414-.3.682l.83 4.7c.06.32.34.554.66.554h11.76c.33 0 .61-.234.66-.554l.83-4.7c.05-.267-.07-.537-.3-.683zM7.67 5.756c.11.07.234.105.36.105.136 0 .27-.04.388-.12 1.86-1.32 4.047-2.02 6.324-2.02s4.463.7 6.322 2.03c.222.16.52.168.75.02s.348-.42.3-.69l-.83-4.52c-.06-.314-.336-.55-.66-.55H8.862c-.323 0-.6.23-.658.55l-.83 4.52c-.05.27.07.54.3.69zm11.153 9.752h-3.85V10.03c0-.332-.27-.602-.6-.602s-.602.27-.602.602v6.28c0 .128.04.244.11.34.13.273.41.46.73.46h4.22c.45 0 .81-.358.81-.8s-.36-.802-.8-.802z"/><path d="M27.478 14.25c-.023-.032-.052-.05-.083-.05H25.85c-.033 0-.062.02-.084.05-.023.03-.035.073-.035.118v.56h-.6c-.49-5.244-4.92-9.36-10.29-9.36-5.7 0-10.34 4.64-10.34 10.342s4.64 10.35 10.34 10.35c5.377 0 9.8-4.113 10.3-9.36h.6v.56c0 .047.02.09.04.12s.05.05.084.05h1.54c.03 0 .06-.02.083-.05.02-.032.032-.075.032-.12v-3.083c0-.044-.014-.086-.036-.117zM14.83 24.02c-4.47 0-8.11-3.638-8.11-8.11s3.64-8.11 8.11-8.11c4.473 0 8.11 3.638 8.11 8.11s-3.638 8.11-8.11 8.11z"/></svg>