<?xml version="1.0" standalone="no"?><!DOCTYPE svg PUBLIC "-//W3C//DTD SVG 1.1//EN" "http://www.w3.org/Graphics/SVG/1.1/DTD/svg11.dtd"><svg width="100%" height="100%" viewBox="0 0 30 32" version="1.1" xmlns="http://www.w3.org/2000/svg" xmlns:xlink="http://www.w3.org/1999/xlink" xml:space="preserve" style="fill-rule:evenodd;clip-rule:evenodd;stroke-linejoin:round;stroke-miterlimit:1.41421;"><path d="M21.223,21.09c0.312,0.313 0.312,0.82 0,1.132c-0.312,0.312 -0.82,0.312 -1.13,0l-5.092,-5.09l-5.09,5.09c-0.31,0.312 -0.82,0.312 -1.13,0c-0.31,-0.312 -0.31,-0.82 0,-1.13l5.09,-5.092l-5.09,-5.09c-0.31,-0.313 -0.31,-0.82 0,-1.132c0.31,-0.312 0.82,-0.312 1.13,0l5.09,5.09l5.1,-5.09c0.31,-0.312 0.82,-0.312 1.13,0c0.31,0.312 0.32,0.82 0,1.13l-5.091,5.092l5.09,5.09l-0.007,0Z" style="fill:#000;fill-rule:nonzero;"/><path d="M28.6,16c0,-7.51 -6.09,-13.6 -13.6,-13.6c-7.51,0 -13.6,6.09 -13.6,13.6c0,7.51 6.09,13.6 13.6,13.6c7.51,0 13.6,-6.09 13.6,-13.6l0,0ZM3,16c0,-6.627 5.373,-12 12,-12c6.627,0 12,5.373 12,12c0,6.627 -5.373,12 -12,12c-6.627,0 -12,-5.373 -12,-12Z" style="fill:#000;fill-rule:nonzero;"/></svg>