<svg xmlns="http://www.w3.org/2000/svg" width="30" height="32" viewBox="0 0 30 32"><path d="M21.423 21.89c.312.313.312.82 0 1.132s-.82.312-1.13 0l-5.092-5.09-5.09 5.09c-.31.312-.82.312-1.13 0s-.31-.82 0-1.13l5.09-5.092-5.09-5.09c-.31-.313-.31-.82 0-1.132s.82-.312 1.13 0l5.09 5.09 5.1-5.09c.31-.312.82-.312 1.13 0s.312.82 0 1.13L16.34 16.8l5.09 5.09z"/><path d="M28.8 16.8c0-7.51-6.09-13.6-13.6-13.6S1.6 9.29 1.6 16.8s6.09 13.6 13.6 13.6 13.6-6.09 13.6-13.6zm-25.6 0c0-6.627 5.373-12 12-12s12 5.373 12 12-5.373 12-12 12-12-5.373-12-12z"/></svg>