<!-- Generator: Adobe Illustrator 18.0.0, SVG Export Plug-In  -->
<svg version="1.1"
	 xmlns="http://www.w3.org/2000/svg" xmlns:xlink="http://www.w3.org/1999/xlink" xmlns:a="http://ns.adobe.com/AdobeSVGViewerExtensions/3.0/"
	 x="0px" y="0px" width="310.6px" height="196.4px" viewBox="0 0 310.6 196.4" enable-background="new 0 0 310.6 196.4"
	 xml:space="preserve">
<defs>
</defs>
<g>
	<g>
		<g>
			<g>
				<path fill="#1D2125" d="M210.6,0l-20,11.2v22.4l20,11.2l20-11.2V11.2L210.6,0z"/>
			</g>
			<g>
				<g>
					<path fill="#DADEDE" d="M210.6,5.3l-15.3,8.5l15.3,8.6l15.3-8.6L210.6,5.3"/>
				</g>
			</g>
		</g>
	</g>
	<g>
		<g>
			<g>
				<path fill="#1D2125" d="M190.6,11.2l-20,11.2v22.4l20,11.2l20-11.2V22.4L190.6,11.2z"/>
			</g>
			<g>
				<g>
					<path fill="#DADEDE" d="M190.6,16.5L175.3,25l15.3,8.6l15.3-8.6L190.6,16.5"/>
				</g>
			</g>
		</g>
	</g>
	<g>
		<g>
			<g>
				<path fill="#1D2125" d="M170.6,22.4l-20,11.2V56l20,11.2l20-11.2V33.6L170.6,22.4z"/>
			</g>
			<g>
				<g>
					<path fill="#DADEDE" d="M170.6,27.7l-15.3,8.5l15.3,8.6l15.3-8.6L170.6,27.7"/>
				</g>
			</g>
		</g>
	</g>
	<g>
		<g>
			<g>
				<path fill="#1D2125" d="M230.6,11.2l-20,11.2v22.4l20,11.2l20-11.2V22.4L230.6,11.2z"/>
			</g>
			<g>
				<g>
					<path fill="#DADEDE" d="M230.6,16.5L215.3,25l15.3,8.6l15.3-8.6L230.6,16.5"/>
				</g>
			</g>
		</g>
	</g>
	<g>
		<g>
			<g>
				<path fill="#1D2125" d="M250.6,22.4l-20,11.2V56l20,11.2l20-11.2V33.6L250.6,22.4z"/>
			</g>
			<g>
				<g>
					<path fill="#DADEDE" d="M250.6,27.7l-15.3,8.5l15.3,8.6l15.3-8.6L250.6,27.7"/>
				</g>
			</g>
		</g>
	</g>
	<g>
		<g>
			<g>
				<path fill="#1D2125" d="M190.6,33.6l-20,11.2v22.4l20,11.2l20-11.2V44.8L190.6,33.6z"/>
			</g>
			<g>
				<g>
					<path fill="#DADEDE" d="M190.6,38.9l-15.3,8.5l15.3,8.6l15.3-8.6L190.6,38.9"/>
				</g>
			</g>
		</g>
	</g>
	<g>
		<g>
			<g>
				<path fill="#1D2125" d="M230.6,33.6l-20,11.2v22.4l20,11.2l20-11.2V44.8L230.6,33.6z"/>
			</g>
			<g>
				<g>
					<path fill="#DADEDE" d="M230.6,38.9l-15.3,8.5l15.3,8.6l15.3-8.6L230.6,38.9"/>
				</g>
			</g>
		</g>
	</g>
	<g>
		<g>
			<g>
				<path fill="#1D2125" d="M210.6,44.8l-20,11.2v22.4l20,11.2l20-11.2V56L210.6,44.8z"/>
			</g>
			<g>
				<g>
					<path fill="#DADEDE" d="M210.6,50.1l-15.3,8.5l15.3,8.6l15.3-8.6L210.6,50.1"/>
				</g>
			</g>
		</g>
	</g>
	<g>
		<g>
			<g>
				<path fill="#1D2125" d="M230.6,56l-20,11.2v22.4l20,11.2l20-11.2V67.2L230.6,56z"/>
			</g>
			<g>
				<g>
					<path fill="#DADEDE" d="M230.6,61.3l-15.3,8.5l15.3,8.6l15.3-8.6L230.6,61.3"/>
				</g>
			</g>
		</g>
	</g>
	<g>
		<g>
			<g>
				<path fill="#1D2125" d="M270.6,33.6l-20,11.2v22.4l20,11.2l20-11.2V44.8L270.6,33.6z"/>
			</g>
			<g>
				<g>
					<path fill="#DADEDE" d="M270.6,38.9l-15.3,8.5l15.3,8.6l15.3-8.6L270.6,38.9"/>
				</g>
			</g>
		</g>
	</g>
	<g>
		<g>
			<g>
				<path fill="#1D2125" d="M290.6,44.8l-20,11.2v22.4l20,11.2l20-11.2V56L290.6,44.8z"/>
			</g>
			<g>
				<g>
					<path fill="#DADEDE" d="M290.6,50.1l-15.3,8.5l15.3,8.6l15.3-8.6L290.6,50.1"/>
				</g>
			</g>
		</g>
	</g>
	<g>
		<g>
			<g>
				<path fill="#1D2125" d="M270.6,56l-20,11.2v22.4l20,11.2l20-11.2V67.2L270.6,56z"/>
			</g>
			<g>
				<g>
					<path fill="#DADEDE" d="M270.6,61.3l-15.3,8.5l15.3,8.6l15.3-8.6L270.6,61.3"/>
				</g>
			</g>
		</g>
	</g>
	<g>
		<g>
			<g>
				<path fill="#1D2125" d="M250.6,67.2l-20,11.2v22.4l20,11.2l20-11.2V78.4L250.6,67.2z"/>
			</g>
			<g>
				<g>
					<path fill="#DADEDE" d="M250.6,72.5L235.3,81l15.3,8.6l15.3-8.6L250.6,72.5"/>
				</g>
			</g>
		</g>
	</g>
</g>
<g>
	<g>
		<g>
			<g>
				<path fill="#1D2125" d="M135.3,42.2l-20,11.2v22.4l20,11.2l20-11.2V53.4L135.3,42.2z"/>
			</g>
			<g>
				<g>
					<path fill="#DADEDE" d="M135.3,47.5L120,56l15.3,8.6l15.3-8.6L135.3,47.5"/>
				</g>
			</g>
		</g>
	</g>
	<g>
		<g>
			<g>
				<path fill="#1D2125" d="M115.3,53.4l-20,11.2V87l20,11.2l20-11.2V64.6L115.3,53.4z"/>
			</g>
			<g>
				<g>
					<path fill="#DADEDE" d="M115.3,58.7L100,67.2l15.3,8.6l15.3-8.6L115.3,58.7"/>
				</g>
			</g>
		</g>
	</g>
	<g>
		<g>
			<g>
				<path fill="#1D2125" d="M95.3,64.6l-20,11.2v22.4l20,11.2l20-11.2V75.8L95.3,64.6z"/>
			</g>
			<g>
				<g>
					<path fill="#DADEDE" d="M95.3,69.9L80,78.4L95.3,87l15.3-8.6L95.3,69.9"/>
				</g>
			</g>
		</g>
	</g>
	<g>
		<g>
			<g>
				<path fill="#1D2125" d="M155.3,53.4l-20,11.2V87l20,11.2l20-11.2V64.6L155.3,53.4z"/>
			</g>
			<g>
				<g>
					<path fill="#DADEDE" d="M155.3,58.7L140,67.2l15.3,8.6l15.3-8.6L155.3,58.7"/>
				</g>
			</g>
		</g>
	</g>
	<g>
		<g>
			<g>
				<path fill="#1D2125" d="M175.3,64.6l-20,11.2v22.4l20,11.2l20-11.2V75.8L175.3,64.6z"/>
			</g>
			<g>
				<g>
					<path fill="#DADEDE" d="M175.3,69.9L160,78.4l15.3,8.6l15.3-8.6L175.3,69.9"/>
				</g>
			</g>
		</g>
	</g>
	<g>
		<g>
			<g>
				<path fill="#1D2125" d="M115.3,75.8L95.3,87v22.4l20,11.2l20-11.2V87L115.3,75.8z"/>
			</g>
			<g>
				<g>
					<path fill="#DADEDE" d="M115.3,81.1L100,89.6l15.3,8.6l15.3-8.6L115.3,81.1"/>
				</g>
			</g>
		</g>
	</g>
	<g>
		<g>
			<g>
				<path fill="#1D2125" d="M155.3,75.8l-20,11.2v22.4l20,11.2l20-11.2V87L155.3,75.8z"/>
			</g>
			<g>
				<g>
					<path fill="#DADEDE" d="M155.3,81.1L140,89.6l15.3,8.6l15.3-8.6L155.3,81.1"/>
				</g>
			</g>
		</g>
	</g>
	<g>
		<g>
			<g>
				<path fill="#1D2125" d="M135.3,87l-20,11.2v22.4l20,11.2l20-11.2V98.2L135.3,87z"/>
			</g>
			<g>
				<g>
					<path fill="#DADEDE" d="M135.3,92.3l-15.3,8.5l15.3,8.6l15.3-8.6L135.3,92.3"/>
				</g>
			</g>
		</g>
	</g>
	<g>
		<g>
			<g>
				<path fill="#1D2125" d="M155.3,98.2l-20,11.2v22.4l20,11.2l20-11.2v-22.4L155.3,98.2z"/>
			</g>
			<g>
				<g>
					<path fill="#DADEDE" d="M155.3,103.5L140,112l15.3,8.6l15.3-8.6L155.3,103.5"/>
				</g>
			</g>
		</g>
	</g>
	<g>
		<g>
			<g>
				<path fill="#1D2125" d="M195.3,75.8l-20,11.2v22.4l20,11.2l20-11.2V87L195.3,75.8z"/>
			</g>
			<g>
				<g>
					<path fill="#DADEDE" d="M195.3,81.1L180,89.6l15.3,8.6l15.3-8.6L195.3,81.1"/>
				</g>
			</g>
		</g>
	</g>
	<g>
		<g>
			<g>
				<path fill="#1D2125" d="M215.3,87l-20,11.2v22.4l20,11.2l20-11.2V98.2L215.3,87z"/>
			</g>
			<g>
				<g>
					<path fill="#DADEDE" d="M215.3,92.3l-15.3,8.5l15.3,8.6l15.3-8.6L215.3,92.3"/>
				</g>
			</g>
		</g>
	</g>
	<g>
		<g>
			<g>
				<path fill="#1D2125" d="M195.3,98.2l-20,11.2v22.4l20,11.2l20-11.2v-22.4L195.3,98.2z"/>
			</g>
			<g>
				<g>
					<path fill="#DADEDE" d="M195.3,103.5L180,112l15.3,8.6l15.3-8.6L195.3,103.5"/>
				</g>
			</g>
		</g>
	</g>
	<g>
		<g>
			<g>
				<path fill="#1D2125" d="M175.3,109.4l-20,11.2V143l20,11.2l20-11.2v-22.4L175.3,109.4z"/>
			</g>
			<g>
				<g>
					<path fill="#DADEDE" d="M175.3,114.7l-15.3,8.5l15.3,8.6l15.3-8.6L175.3,114.7"/>
				</g>
			</g>
		</g>
	</g>
</g>
<g>
	<g>
		<g>
			<g>
				<path fill="#1D2125" d="M60,84.4L40,95.6V118l20,11.2L80,118V95.6L60,84.4z"/>
			</g>
			<g>
				<g>
					<path fill="#DADEDE" d="M60,89.7l-15.3,8.5l15.3,8.6l15.3-8.6L60,89.7"/>
				</g>
			</g>
		</g>
	</g>
	<g>
		<g>
			<g>
				<path fill="#1D2125" d="M40,95.6l-20,11.2v22.4l20,11.2l20-11.2v-22.4L40,95.6z"/>
			</g>
			<g>
				<g>
					<path fill="#DADEDE" d="M40,100.9l-15.3,8.5L40,118l15.3-8.6L40,100.9"/>
				</g>
			</g>
		</g>
	</g>
	<g>
		<g>
			<g>
				<path fill="#1D2125" d="M20,106.8L0,118v22.4l20,11.2l20-11.2V118L20,106.8z"/>
			</g>
			<g>
				<g>
					<path fill="#DADEDE" d="M20,112.1l-15.3,8.5l15.3,8.6l15.3-8.6L20,112.1"/>
				</g>
			</g>
		</g>
	</g>
	<g>
		<g>
			<g>
				<path fill="#1D2125" d="M80,95.6l-20,11.2v22.4l20,11.2l20-11.2v-22.4L80,95.6z"/>
			</g>
			<g>
				<g>
					<path fill="#DADEDE" d="M80,100.9l-15.3,8.5L80,118l15.3-8.6L80,100.9"/>
				</g>
			</g>
		</g>
	</g>
	<g>
		<g>
			<g>
				<path fill="#1D2125" d="M100,106.8L80,118v22.4l20,11.2l20-11.2V118L100,106.8z"/>
			</g>
			<g>
				<g>
					<path fill="#DADEDE" d="M100,112.1l-15.3,8.5l15.3,8.6l15.3-8.6L100,112.1"/>
				</g>
			</g>
		</g>
	</g>
	<g>
		<g>
			<g>
				<path fill="#1D2125" d="M40,118l-20,11.2v22.4l20,11.2l20-11.2v-22.4L40,118z"/>
			</g>
			<g>
				<g>
					<path fill="#DADEDE" d="M40,123.3l-15.3,8.5l15.3,8.6l15.3-8.6L40,123.3"/>
				</g>
			</g>
		</g>
	</g>
	<g>
		<g>
			<g>
				<path fill="#1D2125" d="M80,118l-20,11.2v22.4l20,11.2l20-11.2v-22.4L80,118z"/>
			</g>
			<g>
				<g>
					<path fill="#DADEDE" d="M80,123.3l-15.3,8.5l15.3,8.6l15.3-8.6L80,123.3"/>
				</g>
			</g>
		</g>
	</g>
	<g>
		<g>
			<g>
				<path fill="#1D2125" d="M60,129.2l-20,11.2v22.4L60,174l20-11.2v-22.4L60,129.2z"/>
			</g>
			<g>
				<g>
					<path fill="#DADEDE" d="M60,134.5L44.7,143l15.3,8.6l15.3-8.6L60,134.5"/>
				</g>
			</g>
		</g>
	</g>
	<g>
		<g>
			<g>
				<path fill="#1D2125" d="M80,140.4l-20,11.2V174l20,11.2l20-11.2v-22.4L80,140.4z"/>
			</g>
			<g>
				<g>
					<path fill="#DADEDE" d="M80,145.7l-15.3,8.5l15.3,8.6l15.3-8.6L80,145.7"/>
				</g>
			</g>
		</g>
	</g>
	<g>
		<g>
			<g>
				<path fill="#1D2125" d="M120,118l-20,11.2v22.4l20,11.2l20-11.2v-22.4L120,118z"/>
			</g>
			<g>
				<g>
					<path fill="#DADEDE" d="M120,123.3l-15.3,8.5l15.3,8.6l15.3-8.6L120,123.3"/>
				</g>
			</g>
		</g>
	</g>
	<g>
		<g>
			<g>
				<path fill="#1D2125" d="M140,129.2l-20,11.2v22.4l20,11.2l20-11.2v-22.4L140,129.2z"/>
			</g>
			<g>
				<g>
					<path fill="#DADEDE" d="M140,134.5l-15.3,8.5l15.3,8.6l15.3-8.6L140,134.5"/>
				</g>
			</g>
		</g>
	</g>
	<g>
		<g>
			<g>
				<path fill="#1D2125" d="M120,140.4l-20,11.2V174l20,11.2l20-11.2v-22.4L120,140.4z"/>
			</g>
			<g>
				<g>
					<path fill="#DADEDE" d="M120,145.7l-15.3,8.5l15.3,8.6l15.3-8.6L120,145.7"/>
				</g>
			</g>
		</g>
	</g>
	<g>
		<g>
			<g>
				<path fill="#1D2125" d="M100,151.6l-20,11.2v22.4l20,11.2l20-11.2v-22.4L100,151.6z"/>
			</g>
			<g>
				<g>
					<path fill="#DADEDE" d="M100,156.9l-15.3,8.5L100,174l15.3-8.6L100,156.9"/>
				</g>
			</g>
		</g>
	</g>
</g>
</svg>
