<svg viewBox="0 0 256 256" xmlns="http://www.w3.org/2000/svg" fill-rule="evenodd" clip-rule="evenodd" stroke-linejoin="round" stroke-miterlimit="1.414"><path d="M152.89 179.214l-49.78 28.74-53.332-30.792L0 148.42V86.838l53.333-30.792 49.777 28.74 49.777-28.74 53.333 30.792 49.78 28.74v61.584l-53.333 30.792-49.778-28.74zm3.137-6.374v-49.052l42.975 24.635.01 49.27-42.985-24.853zm-99.14.217v-49.27l43.126 24.77.01 49.566-43.135-25.066zM7.11 144.317v-49.27l42.668 24.635.002 49.27-42.67-24.635zm96-51.32l42.67 24.634-42.67 24.635-42.67-24.634 42.67-24.634zm99.557 0l42.668 24.634-42.668 24.635-42.67-24.634 42.67-24.634zM53.333 64.256l42.67 24.634-42.67 24.635-42.67-24.634 42.67-24.634zm99.554 0l42.67 24.634-42.67 24.635-42.67-24.634 42.67-24.634z"/><path d="M6.82 144.547l.023-50 93.295 53.877.04 50.06L6.82 144.547zM155.736 173.024l.14-49.667 43.428 24.894-.045 50.234-43.524-25.46z" fill-opacity=".349"/></svg>